<svg viewBox="0 0 942 231" fill="none" xmlns="http://www.w3.org/2000/svg">
<path fill-rule="evenodd" clip-rule="evenodd" d="M859.527 188.206C862.297 180.972 866.273 174.175 870.031 167.427C876.068 156.59 883.002 147.659 893.948 141.736C911.75 132.103 930.965 128.898 950.786 129.994C961.117 130.565 971.672 132.137 981.376 135.819C985.695 137.459 989.899 139.386 994.055 141.403C996.622 142.649 999.145 143.98 1001.66 145.335C1003.17 146.151 1005.88 146.984 1006.84 148.495C1008 150.312 1006.79 152.904 1004.6 152.965C1002.73 153.018 1000.48 151.148 998.846 150.306C995.084 148.37 991.232 146.636 987.336 144.991C981.253 142.425 975.147 140.467 968.67 139.258C955.544 136.808 941.669 136.654 928.414 138.387C933.11 149.548 931.604 160.699 925.629 171.106C917.123 185.921 906.476 197.111 891.113 204.533C881.135 209.354 870.883 209.548 860.313 207.177C858.315 206.729 855.589 205.821 854.966 203.527C854.365 201.32 855.976 198.369 856.65 196.292C857.535 193.568 858.502 190.881 859.527 188.206Z" fill="#DDE3E9"/>
<path fill-rule="evenodd" clip-rule="evenodd" d="M956.801 49.9789C938.908 44.8887 921.059 39.9652 902.647 37.0204C891.797 35.2856 880.862 34.3264 869.953 33.0406C871.278 33.3037 872.599 33.5995 873.91 33.9264C870.597 33.6842 866.954 34.5724 863.566 34.5336C859.788 34.4905 855.996 34.1347 852.245 33.7339C844.926 32.9524 837.643 32.0546 830.293 31.5525C822.104 30.9937 813.874 30.8608 805.671 30.5098C798.709 30.2119 791.508 29.6432 784.532 30.1436C780.73 30.4161 776.766 30.4246 772.916 30.642C771.627 30.715 757.81 30.1659 757.825 30.1318C758.141 29.385 764.619 28.836 765.592 28.7029C768.437 28.3131 771.288 28.1664 774.148 28.0094C771.55 26.3105 769.135 24.3435 767.082 21.9901C766.448 21.2638 761.715 16.0447 762.09 15.1603C762.277 14.7186 771.657 23.5279 772.414 24.4589C773.029 25.215 773.701 26.4275 774.428 27.0596C775.602 28.0805 775.358 27.7082 776.74 27.8661C779.274 28.1556 782.104 27.6146 784.66 27.6035C786.03 27.5836 790.561 28.0262 792.871 27.5634C800.356 27.0263 808.804 27.9759 816.452 28.3967C813.413 26.4937 810.649 24.264 808.107 21.7226C807.503 21.1195 801.735 15.9112 802.02 15.2391C802.34 14.4828 811.934 21.983 812.702 22.7742C814.129 24.2437 815.323 26.1075 816.832 27.4672C818.489 28.9593 820.731 28.5307 823.031 28.6285C831.491 28.9886 839.881 29.7183 848.282 30.6978C848.11 15.5513 832.763 6.02323 821.006 0.0364139C812.531 -4.27798 803.069 -6.70575 793.703 -8.18516C781.204 -10.1598 768.275 -10.0343 755.63 -9.44504C740.896 -8.75848 726.533 -5.30392 712.814 0.392401C705.638 3.37156 698.83 7.34494 692.257 11.526C689.045 13.5682 686.139 15.8332 683.605 18.7342C682.463 20.0423 681.442 21.4491 680.498 22.9089C679.781 24.0181 677.637 25.9915 677.499 27.1055C676.302 36.1723 677.444 43.8563 682.366 51.5311C687.024 58.7964 693.683 64.9092 700.715 69.7246C708.546 75.0864 717 79.1735 726.239 81.3629C733.288 83.0335 740.553 83.8329 747.757 84.6025C773.378 87.3403 802.84 85.5661 824.501 69.1039C831.513 63.7755 837.177 56.9627 841.823 49.4714C842.917 47.7062 843.997 45.9368 844.914 44.0694C845.533 42.8107 846.474 38.2071 847.424 37.51C848.726 36.5542 853.351 37.6549 855.151 37.7628C868.833 38.5849 882.46 39.912 896.045 41.6359C910.499 43.4703 924.76 46.1101 938.961 49.2969C945.001 50.6526 951.021 52.0309 957.017 53.575C958.412 53.9337 962.449 55.8941 964.15 55.1041C965.225 54.6046 965.41 53.3304 964.718 52.4666C963.515 50.9643 958.633 50.5001 956.801 49.9789" fill="#C1DEE2"/>
<path fill-rule="evenodd" clip-rule="evenodd" d="M882.896 88.1575C882.215 87.9218 871.079 89.0639 871.117 87.9446C871.133 87.464 875.444 87.1223 876.037 87.1005C878.382 87.0151 880.681 87.4655 882.896 88.1575ZM893.229 69.0273C893.253 69.0961 895.578 70.4138 896.251 70.8428C897.683 71.7542 899.078 72.7215 900.437 73.7124C898.205 71.8646 896.048 70.2013 893.229 69.0273ZM820.606 132.604C819.687 133.621 817.5 132.967 818.76 131.768C819.781 130.799 819.684 130.766 819.664 129.502C819.648 128.475 819.367 127.373 819.275 126.339C819.08 124.145 819.04 121.968 819.268 119.776C819.755 115.076 821.031 110.532 822.922 106.232C826.222 98.7279 830.424 91.1843 836.12 85.3253C845.175 76.0093 857.387 68.706 869.457 64.572C876.932 62.0113 884.39 60.7566 891.979 63.6026C895.771 65.0245 899.353 67.1881 902.135 70.2409C902.862 71.0392 903.411 72.0764 904.177 72.8264C905.355 73.9796 904.974 73.7114 906.733 73.0528C908.653 72.3335 910.575 71.6213 912.5 70.9143C917.539 69.0639 922.634 67.2469 927.842 65.9591C929.556 65.5349 931.292 65.2236 933.043 65.0158C934.368 64.8579 939.42 63.8465 940.732 64.9325C942.915 66.7392 939.448 67.3504 938.269 67.3634C937.235 67.3746 936.198 67.4274 935.169 67.5195C932.576 67.7514 930.021 68.2478 927.505 68.9217C924.786 69.6496 922.111 70.5655 919.445 71.4754C916.959 72.3244 914.487 73.2177 912.023 74.1305C910.654 74.6374 909.288 75.151 907.921 75.6646C907.454 75.84 906.489 75.9041 906.867 76.4266C903.952 77.4339 901.158 79.1443 898.407 80.5466C895.036 82.2646 891.671 84.0202 888.448 86.018C886.123 87.4589 883.844 88.9826 881.672 90.6615C880.403 91.6426 879.206 92.6973 878.055 93.8221C877.423 94.4402 874.73 96.5311 874.7 97.4128C874.713 97.0339 878.097 95.4401 878.499 95.1871C880.107 94.1765 881.644 93.0719 883.175 91.943C886.017 89.8484 888.955 87.9155 892.018 86.1817C892.316 86.7246 890.785 88.8823 890.482 89.5311C889.803 90.9865 889.214 92.4864 888.746 94.0282C887.922 96.7439 886.976 100.065 886.885 102.772C886.911 101.975 888.275 100.17 888.656 99.3519C889.267 98.0414 889.829 96.6953 890.307 95.3272C890.748 94.0641 891.095 92.7744 891.419 91.4752C891.742 90.1752 891.833 87.8085 892.57 86.6416C892.614 86.5711 893.286 86.6702 893.477 86.3946C893.668 86.1171 893.636 85.3014 893.689 85.2371C894.454 84.2875 896.598 83.6813 897.661 83.1316C900.418 81.705 903.195 80.3186 905.964 78.9173C906.822 78.483 907.419 77.8857 908.088 78.3191C908.801 78.7816 909.183 80.859 909.42 81.6738C910.305 84.6997 910.529 87.7415 909.906 90.8406C908.74 96.6455 906.044 101.623 902.316 106.064C888.036 123.074 870.326 136.81 848.307 140.404C839.191 141.892 825.004 143.337 820.606 132.604Z" fill="#89C5CC"/>
<path fill-rule="evenodd" clip-rule="evenodd" d="M177.453 205.171C173.15 206.107 168.4 206.036 164.017 205.958C140.513 205.64 117.433 194.558 102.412 176.85C89.6244 161.776 86.1082 143.033 83.5819 124.087C83.3314 122.206 83.224 120.337 83.0827 118.452C83.0523 118.047 83.007 117.687 82.9586 117.347C81.9651 116.462 81.4439 115.431 82.032 114.298C79.8433 109.528 77.9919 104.637 76.4032 99.5925C71.7275 84.7442 66.9712 69.6136 69.9011 54C70.5856 62.5923 72.0255 71.3785 73.7475 79.8297C73.8466 80.3149 73.9536 80.7962 74.0649 81.2758C74.0764 81.3264 74.0869 81.3771 74.0984 81.4273C74.708 84.0154 75.5004 86.5258 76.464 88.9968C76.4741 89.0239 76.4838 89.0505 76.4944 89.0771C76.6216 89.4022 76.7567 89.7257 76.8901 90.0492C77.1661 90.7188 77.4496 91.3872 77.7502 92.0521C77.8519 92.2786 77.9496 92.5073 78.0434 92.7377C79.4463 96.1619 80.0388 100.02 81.2955 103.563C81.5962 104.369 81.9105 105.172 82.2398 105.97C82.2591 106.017 82.2789 106.063 82.2987 106.11C83.1888 108.259 84.1722 110.381 85.2119 112.481C85.7771 112.904 86.0791 113.953 86.5664 114.907C86.6672 115.095 87.4552 116.348 87.6898 117.07C88.3021 118.249 88.9122 119.43 89.5289 120.607C89.5104 120.6 89.4919 120.593 89.4734 120.587C90.0906 121.717 90.7095 122.844 91.3236 123.965C91.4587 124.211 91.5952 124.458 91.7312 124.705C91.9517 125.098 92.1723 125.491 92.3924 125.883C94.4511 129.553 96.6341 133.148 98.9011 136.7C99.7101 137.967 101.643 139.784 102.014 141.207C102.027 141.26 102.03 141.309 102.039 141.36C106.958 148.241 112.621 154.587 119.412 159.616C118.591 158.732 116.846 155.733 116.385 155.139C114.973 153.321 113.441 151.629 111.902 149.916C109.147 146.847 106.457 143.681 104.067 140.334C99.6956 134.211 95.9245 127.768 92.3598 121.194C92.3259 121.156 92.2889 121.119 92.2568 121.08C90.4652 118.881 89.3374 115.556 88.0477 113.04C93.1517 115.394 98.7954 116.928 104.034 119.019C109.257 121.103 114.339 123.424 119.245 126.149C125.766 129.771 132.53 133.861 138.691 138.488C145.751 142.85 151.684 148.853 156.921 155.153C163.117 162.607 168.795 170.126 172.307 179.176C174.032 183.624 175.389 188.261 176.194 192.953C176.229 193.157 176.274 193.379 176.323 193.609C177.146 195.23 177.882 196.886 178.5 198.581C179.481 201.269 181.797 204.227 177.453 205.171" fill="#69A1AC"/>
<path fill-rule="evenodd" clip-rule="evenodd" d="M218.676 129.331C214.585 133.732 208.336 136.08 202.534 137.42C179.873 142.651 156.635 139.177 135.347 130.922C123.682 126.399 112.648 119.757 102.587 112.511C96.7801 108.329 91.3719 103.602 87.0137 97.9632C84.0725 94.157 81.7043 90.0304 79.7368 85.6643C77.339 80.3434 75.1433 74.8566 73.4353 69.2787C72.7628 67.0822 68.7276 55.5345 72.4009 54.4751C72.3121 54.188 72.2429 53.9108 72.2079 53.6559C61.2217 42.9166 52.8215 29.2974 44.961 16.3612C38.1215 5.10393 31.6967 -6.35749 26.4572 -18.4272C19.5592 -34.3177 13.6557 -50.7007 8.81085 -67.3166C7.76986 -70.8876 6.79291 -74.4752 5.83476 -78.0704C5.01825 -81.1371 4.20037 -84.2034 3.38522 -87.2703C2.47217 -90.7075 0.940679 -94.5539 0.697713 -98.1243C0.485659 -101.234 3.19072 -101.38 3.99445 -98.4228C4.96526 -94.8514 5.77612 -91.2357 6.7666 -87.6661C8.08165 -82.9287 9.40305 -78.1928 10.7423 -73.4625C20.0492 -40.6027 33.738 -9.26942 52.2961 19.5151C59.8062 31.1634 67.8275 41.9798 77.2815 52.1764C85.5935 61.1417 95.0318 69.4998 104.469 77.1348C113.642 84.554 123.048 91.6989 133.496 97.3668C141.976 101.966 150.974 105.601 160.101 108.809C171.694 112.883 183.232 116.806 195.322 119.196C201.607 120.439 207.938 121.388 214.243 122.517C215.377 122.72 216.583 122.893 217.694 123.175C221.401 124.115 220.903 126.935 218.676 129.331" fill="#C1DEE2"/>
<path fill-rule="evenodd" clip-rule="evenodd" d="M106.471 46.8962C115.927 46.8962 124.342 45.6656 133.055 41.9016C140.577 38.6531 147.431 34.3526 154.086 29.6707C163.447 23.0858 170.82 15.4219 175.981 5.26728C179.064 -0.799119 181.326 -9.38327 179.255 -16C176.816 -23.7931 170.118 -30.2927 161.298 -28.9195C155.843 -28.0712 150.843 -24.455 146.697 -21.0514C141.738 -16.9796 137.768 -12.0836 134.49 -6.6459C129.142 2.22418 126 12.2517 121.458 21.5206C119.302 25.9196 117.219 30.3502 114.638 34.5309C113.36 36.6013 111.999 38.6518 110.06 40.1904C109.023 41.0133 104.649 42.4377 106.322 44.2859C81.7986 43.9634 60.0736 25.1002 55.3659 1.75137C54.9275 -0.42492 54.5848 -2.61886 54.2227 -4.8085C53.9943 -6.19118 54.0866 -11.29 52.8524 -12.1732C50.1306 -14.1217 51.2747 -8.20255 51.3916 -7.35038C51.6934 -5.14782 52.0155 -2.94699 52.3533 -0.750027C54.1916 11.1998 59.5033 22.3086 68.3615 30.8307C78.4911 40.5758 92.1584 46.8962 106.471 46.8962Z" fill="#89C5CC"/>
</svg>
