<svg viewBox="0 0 621 669" fill="none" xmlns="http://www.w3.org/2000/svg">
<g opacity="0.5">
<path fill-rule="evenodd" clip-rule="evenodd" d="M546.206 150.727C545.795 150.429 544.821 150.323 544.368 150.233C542.483 149.862 540.542 149.7 538.622 149.7C532.698 149.709 526.679 150.29 520.854 151.296C517.156 151.935 512.685 154.084 509.006 152.917C502.597 150.883 496.12 150.983 490.039 153.887C484.48 156.542 480.259 161.584 477.796 167.032C477.425 167.855 475.917 170.882 475.49 172.923C475.308 173.34 475.133 173.76 474.975 174.186C474.526 175.397 474.124 176.629 473.75 177.863C473.591 178.389 473.189 179.552 473.666 179.777C472.904 181.183 472.229 182.631 471.666 184.127C470.03 188.478 468.241 193.249 467.666 197.86C467.453 199.568 467.445 201.285 467.643 202.995C467.741 203.841 467.7 205.541 468.274 206.184C469.49 207.548 470.115 205.638 469.978 204.729C468.93 197.796 470.953 191.286 473.35 184.77C474.901 180.556 477.448 176.701 480.301 173.21C482.61 170.384 485.087 168.158 488.252 166.284C492.123 163.993 496.261 162.141 500.362 160.283C503.058 159.06 505.758 157.871 508.53 156.818C509.147 156.583 510.117 155.982 510.8 155.98C512.245 155.975 514.294 157.041 515.69 157.438C520.282 158.743 524.932 160.414 529.678 161.08C532.722 161.508 535.574 161.027 538.421 160.013C538.712 159.91 539.199 159.643 539.797 159.263C541.91 158.45 543.909 157.427 545.65 155.952C546.653 155.101 547.563 154.002 548.393 152.996C548.642 152.696 548.752 152.351 548.755 152.023C548.943 151.925 549.068 151.81 549.096 151.676C549.304 150.686 547.415 150.668 546.206 150.727Z" fill="#89C5CC"/>
<path fill-rule="evenodd" clip-rule="evenodd" d="M65.0412 233.247C63.8791 234.188 62.7394 235.149 61.6275 236.148C60.7801 236.911 59.2804 237.823 58.9762 238.977C58.6599 240.177 59.6583 241.3 60.447 242.025C64.6177 245.861 69.314 248.455 75.0932 248.886C83.9918 249.55 91.7362 247.279 99.4569 242.808C104.88 239.668 108.473 235.024 109.257 228.752C115.716 231.435 121.963 235.134 127.271 239.674C129.891 241.914 132.147 244.396 134.233 247.147C135.57 248.909 136.862 250.7 138.062 252.559C138.584 253.367 139.114 254.8 139.975 255.265C140.985 255.812 142.207 254.955 142.157 253.832C142.115 252.897 141.105 251.812 140.633 251.048C139.849 249.779 139.053 248.517 138.214 247.283C136.858 245.284 135.456 243.314 133.926 241.444C130.49 237.242 126.118 233.77 121.585 230.81C112.889 225.131 103.346 221.553 92.7659 221.25C86.2601 221.064 80.7872 223.286 75.2237 226.605C71.7599 228.671 68.1843 230.702 65.0412 233.247Z" fill="#DDE3E9"/>
<path fill-rule="evenodd" clip-rule="evenodd" d="M149.432 205.779C142.653 198.799 135.849 191.906 128.275 185.759C123.811 182.138 119.106 178.844 114.499 175.41C115.031 175.876 115.552 176.355 116.061 176.845C114.623 175.869 112.74 175.318 111.215 174.414C109.514 173.407 107.889 172.254 106.294 171.092C103.181 168.824 100.115 166.514 96.9158 164.364C93.3509 161.97 89.6565 159.758 86.031 157.453C82.9541 155.498 79.8395 153.358 76.5477 151.759C74.7537 150.888 72.9554 149.855 71.154 148.946C70.5511 148.642 64.4335 144.78 64.4489 144.768C64.7871 144.514 67.8656 145.96 68.3416 146.154C69.7323 146.722 71.0623 147.402 72.3994 148.079C71.6655 146.631 71.0845 145.111 70.7683 143.511C70.6706 143.017 69.8879 139.42 70.2884 139.118C70.4885 138.968 72.4402 145.402 72.5402 146.021C72.6214 146.523 72.6095 147.247 72.774 147.723C73.0396 148.491 73.0262 148.259 73.6114 148.692C74.6839 149.485 76.1076 149.981 77.2684 150.645C77.8944 150.994 79.8324 152.379 80.9997 152.774C84.5317 154.489 88.1118 157.128 91.4677 159.318C90.587 157.663 89.9167 155.933 89.4279 154.12C89.3116 153.689 88.0573 149.827 88.3617 149.598C88.7041 149.34 91.0941 155.238 91.2356 155.797C91.4986 156.834 91.5532 157.988 91.8825 158.998C92.2439 160.105 93.3716 160.498 94.3882 161.144C98.1279 163.519 101.739 166.043 105.29 168.683C109.165 161.794 104.697 153.474 100.932 147.694C98.218 143.528 94.564 139.956 90.706 136.838C85.5572 132.676 79.6663 129.351 73.7827 126.31C66.927 122.767 59.5172 120.571 51.8139 119.557C47.7849 119.026 43.663 119.041 39.5933 119.211C37.6052 119.294 35.697 119.558 33.7918 120.206C32.9331 120.498 32.1032 120.867 31.2945 121.28C30.68 121.593 29.1936 121.924 28.8403 122.392C25.932 126.176 24.4442 129.947 24.6714 134.702C24.8863 139.204 26.3083 143.708 28.2382 147.723C30.3874 152.194 33.1516 156.252 36.7668 159.658C39.5249 162.256 42.6086 164.518 45.6719 166.75C56.5671 174.688 70.3804 181.592 84.4917 179.819C89.0595 179.245 93.4041 177.648 97.4642 175.477C98.4208 174.966 99.3717 174.449 100.275 173.845C100.884 173.438 102.511 171.604 103.124 171.537C103.963 171.446 105.772 173.153 106.559 173.672C112.544 177.622 118.373 181.786 124.079 186.119C130.15 190.728 135.923 195.651 141.526 200.805C143.91 202.998 146.278 205.195 148.592 207.461C149.13 207.988 150.448 209.929 151.425 210.017C152.042 210.073 152.459 209.546 152.371 208.974C152.217 207.981 150.126 206.494 149.432 205.779Z" fill="#C1DEE2"/>
<path fill-rule="evenodd" clip-rule="evenodd" d="M539.088 178.688C536.462 178.114 533.562 178.158 530.887 178.206C516.541 178.401 502.453 185.191 493.284 196.041C485.479 205.278 483.332 216.763 481.79 228.372C481.638 229.524 481.572 230.67 481.486 231.825C481.467 232.072 481.44 232.294 481.41 232.502C480.804 233.044 480.485 233.676 480.844 234.37C479.508 237.293 478.378 240.29 477.409 243.381C474.555 252.479 471.651 261.75 473.44 271.317C473.858 266.052 474.737 260.669 475.788 255.49C475.848 255.193 475.913 254.898 475.981 254.604C475.988 254.573 475.995 254.542 476.002 254.511C476.374 252.925 476.858 251.387 477.446 249.873C477.452 249.856 477.458 249.84 477.464 249.824C477.542 249.625 477.624 249.426 477.706 249.228C477.874 248.818 478.047 248.408 478.231 248.001C478.293 247.862 478.353 247.722 478.41 247.581C479.266 245.483 479.628 243.119 480.395 240.948C480.578 240.454 480.77 239.962 480.971 239.473C480.983 239.444 480.995 239.416 481.007 239.387C481.551 238.07 482.151 236.77 482.785 235.483C483.13 235.224 483.315 234.581 483.612 233.997C483.674 233.882 484.155 233.114 484.298 232.672C484.672 231.949 485.044 231.226 485.42 230.504C485.409 230.508 485.398 230.512 485.387 230.517C485.763 229.824 486.141 229.134 486.516 228.447C486.598 228.296 486.682 228.145 486.765 227.993C486.899 227.752 487.034 227.511 487.168 227.271C488.425 225.023 489.757 222.819 491.141 220.644C491.635 219.867 492.815 218.754 493.041 217.882C493.049 217.849 493.051 217.819 493.056 217.788C496.059 213.572 499.516 209.683 503.661 206.602C503.16 207.143 502.095 208.981 501.813 209.345C500.952 210.459 500.016 211.496 499.077 212.545C497.395 214.425 495.753 216.365 494.294 218.417C491.626 222.168 489.324 226.117 487.148 230.144C487.128 230.168 487.105 230.19 487.086 230.214C485.992 231.562 485.304 233.599 484.516 235.141C487.632 233.698 491.077 232.758 494.274 231.477C497.463 230.2 500.564 228.778 503.559 227.108C507.539 224.889 511.668 222.383 515.428 219.547C519.738 216.875 523.359 213.196 526.556 209.336C530.338 204.769 533.804 200.162 535.947 194.616C537 191.891 537.829 189.05 538.32 186.175C538.342 186.049 538.369 185.914 538.399 185.772C538.901 184.78 539.35 183.764 539.727 182.726C540.326 181.079 541.74 179.267 539.088 178.688Z" fill="#69A1AC"/>
<path fill-rule="evenodd" clip-rule="evenodd" d="M94.0943 197.984C93.2716 197.094 92.3475 196.29 91.2627 195.717C90.9884 195.572 88.9454 194.602 88.8123 194.815C88.5023 195.311 93.8472 197.7 94.0943 197.984ZM103.781 192.035C103.774 192.073 104.483 193.275 104.675 193.644C105.086 194.43 105.465 195.231 105.822 196.033C105.294 194.616 104.751 193.301 103.781 192.035ZM54.2406 201.818C53.5583 202.038 52.738 201.172 53.6229 200.959C54.339 200.787 54.3039 200.747 54.6254 200.17C54.8865 199.702 55.0474 199.131 55.2765 198.64C55.7625 197.597 56.3137 196.603 56.9904 195.672C58.4406 193.675 60.2076 191.955 62.1893 190.505C65.6479 187.975 69.5257 185.663 73.6393 184.501C80.1799 182.654 87.624 182.539 94.1749 183.82C98.232 184.613 101.94 185.992 104.634 189.258C105.98 190.89 107.037 192.802 107.499 194.908C107.62 195.458 107.597 196.07 107.748 196.609C107.98 197.437 107.878 197.217 108.847 197.378C109.905 197.554 110.963 197.733 112.02 197.916C114.787 198.395 117.571 198.903 120.268 199.68C121.156 199.935 122.024 200.247 122.872 200.61C123.513 200.885 126.067 201.746 126.377 202.579C126.894 203.965 125.163 203.336 124.625 203.034C124.154 202.77 123.671 202.523 123.18 202.296C121.944 201.725 120.657 201.282 119.34 200.93C117.918 200.55 116.466 200.266 115.02 199.982C113.671 199.717 112.318 199.476 110.962 199.245C110.21 199.117 109.456 198.993 108.702 198.868C108.445 198.826 107.991 198.603 108.025 198.937C106.441 198.632 104.727 198.676 103.114 198.592C101.137 198.489 99.153 198.404 97.1697 198.466C95.7393 198.511 94.3077 198.605 92.8845 198.797C92.053 198.909 91.2347 199.073 90.4188 199.281C89.9706 199.396 88.2033 199.638 87.9592 200.029C88.0641 199.861 90.0145 200.023 90.2628 200.014C91.2558 199.977 92.241 199.878 93.2303 199.768C95.0662 199.563 96.9029 199.456 98.7444 199.471C98.7374 199.795 97.4794 200.37 97.1724 200.584C96.4838 201.065 95.8244 201.589 95.2092 202.164C94.1254 203.176 92.8277 204.43 92.078 205.629C92.299 205.276 93.3888 204.816 93.7756 204.546C94.3953 204.113 95.0022 203.651 95.5766 203.158C96.1068 202.702 96.6016 202.21 97.0881 201.707C97.5747 201.204 98.2349 200.158 98.8743 199.823C98.9128 199.803 99.1915 200.023 99.3498 199.948C99.5093 199.873 99.7082 199.496 99.7487 199.481C100.344 199.251 101.474 199.537 102.1 199.566C103.722 199.64 105.343 199.738 106.964 199.827C107.467 199.855 107.893 199.741 108.083 200.111C108.285 200.506 107.915 201.544 107.81 201.975C107.419 203.573 106.724 205.006 105.631 206.244C103.585 208.563 101.061 210.109 98.2094 211.143C87.2885 215.104 75.67 216.69 64.7524 212.57C60.2325 210.864 53.4255 207.816 54.2406 201.818Z" fill="#89C5CC"/>
<g opacity="0.6">
<g clip-path="url(#clip0)">
<path fill-rule="evenodd" clip-rule="evenodd" d="M554.59 388.433C562.024 438.714 381.734 471.511 226.554 448.623C71.3745 425.735 0.185276 336.354 74.2345 288.728C148.284 241.103 547.156 338.151 554.59 388.433Z" fill="#DDE3E9"/>
</g>
</g>
<g clip-path="url(#clip1)">
<rect x="121.035" y="58.8726" width="122.418" height="232.457" rx="8" fill="#F2F2F2"/>
<path fill-rule="evenodd" clip-rule="evenodd" d="M181.035 306.873C189.319 306.873 196.035 300.157 196.035 291.873C196.035 283.588 189.319 276.873 181.035 276.873C172.751 276.873 166.035 283.588 166.035 291.873C166.035 300.157 172.751 306.873 181.035 306.873Z" fill="white"/>
<g clip-path="url(#clip2)">
<g clip-path="url(#clip3)">
<rect x="135.035" y="86.8726" width="94" height="54" rx="4" fill="white"/>
<g clip-path="url(#clip4)">
<rect x="174.035" y="103.073" width="36" height="8.1" rx="3" fill="#DDE3E9"/>
<rect x="174.035" y="116.573" width="24.1644" height="8.1" rx="3" fill="#DDE3E9"/>
</g>
<path fill-rule="evenodd" clip-rule="evenodd" d="M156.035 125.873C162.662 125.873 168.035 120.5 168.035 113.873C168.035 107.245 162.662 101.873 156.035 101.873C149.408 101.873 144.035 107.245 144.035 113.873C144.035 120.5 149.408 125.873 156.035 125.873Z" fill="#C5CFD6"/>
</g>
<g clip-path="url(#clip5)">
<rect x="135.035" y="148.873" width="94" height="42" rx="4" fill="white"/>
<g clip-path="url(#clip6)">
<rect x="174.035" y="161.473" width="36" height="6.3" rx="3" fill="#DDE3E9"/>
<rect x="174.035" y="171.973" width="24.1644" height="6.3" rx="3" fill="#DDE3E9"/>
</g>
<path fill-rule="evenodd" clip-rule="evenodd" d="M156.035 181.873C162.662 181.873 168.035 176.5 168.035 169.873C168.035 163.245 162.662 157.873 156.035 157.873C149.408 157.873 144.035 163.245 144.035 169.873C144.035 176.5 149.408 181.873 156.035 181.873Z" fill="#C5CFD6"/>
</g>
<g clip-path="url(#clip7)">
<rect x="135.035" y="198.873" width="94" height="42" rx="4" fill="white"/>
<g clip-path="url(#clip8)">
<rect x="174.035" y="211.473" width="36" height="6.3" rx="3" fill="#DDE3E9"/>
<rect x="174.035" y="221.973" width="24.1644" height="6.3" rx="3" fill="#DDE3E9"/>
</g>
<path fill-rule="evenodd" clip-rule="evenodd" d="M156.035 231.873C162.662 231.873 168.035 226.5 168.035 219.873C168.035 213.245 162.662 207.873 156.035 207.873C149.408 207.873 144.035 213.245 144.035 219.873C144.035 226.5 149.408 231.873 156.035 231.873Z" fill="#AFB9C5"/>
</g>
<g clip-path="url(#clip9)">
<rect x="135.035" y="248.873" width="94" height="42" rx="4" fill="white"/>
<g clip-path="url(#clip10)">
<rect x="174.035" y="261.473" width="36" height="6.3" rx="3" fill="#DDE3E9"/>
<rect x="174.035" y="271.973" width="24.1644" height="6.3" rx="3" fill="#DDE3E9"/>
</g>
<path fill-rule="evenodd" clip-rule="evenodd" d="M156.035 281.873C162.662 281.873 168.035 276.5 168.035 269.873C168.035 263.245 162.662 257.873 156.035 257.873C149.408 257.873 144.035 263.245 144.035 269.873C144.035 276.5 149.408 281.873 156.035 281.873Z" fill="#C5CFD6"/>
</g>
</g>
</g>
<g clip-path="url(#clip11)">
<path fill-rule="evenodd" clip-rule="evenodd" d="M123.034 261.885C121.709 261.885 120.388 261.912 119.065 261.981C118.056 262.034 116.515 261.825 115.661 262.453C114.775 263.106 114.836 264.443 114.974 265.387C115.707 270.378 117.494 274.805 121.233 278.341C126.989 283.787 133.589 286.553 141.398 287.786C146.883 288.651 151.948 287.449 155.986 283.548C158.936 289.024 161.175 295.084 162.298 301.201C162.852 304.219 163.021 307.2 162.923 310.273C162.861 312.241 162.752 314.205 162.541 316.164C162.45 317.015 162.016 318.304 162.349 319.108C162.74 320.053 164.059 320.144 164.651 319.339C165.144 318.668 165.053 317.352 165.154 316.559C165.322 315.241 165.478 313.922 165.589 312.598C165.769 310.454 165.903 308.305 165.893 306.154C165.871 301.321 164.796 296.468 163.326 291.88C160.506 283.078 155.93 275.255 148.814 269.117C144.439 265.343 139.431 263.814 133.749 262.994C130.212 262.483 126.617 261.885 123.034 261.885Z" fill="#89C5CC"/>
<path fill-rule="evenodd" clip-rule="evenodd" d="M143.465 296.885C129.166 296.885 119.536 308.41 114.982 320.387C113.266 324.902 112.864 329.859 112.202 334.6C111.99 336.121 112.068 338.439 111.451 339.795C111.227 340.286 110.713 340.463 110.959 341.132C111.107 341.538 111.399 341.786 111.837 341.867C112.737 342.032 114.008 341.053 114.78 340.666C121.176 337.459 125.378 332.499 128.806 326.43C130.931 322.669 133.087 318.765 134.35 314.635C135.121 312.113 135.57 309.456 135.833 306.839C135.937 305.809 136.038 304.754 136.032 303.717C136.025 302.688 135.547 302.145 135.203 301.249C139.974 299.443 145.359 298.951 150.192 300.823C154.662 302.554 158.375 305.899 160.455 310.101C160.995 311.193 161.411 312.346 161.715 313.521C161.914 314.291 161.923 315.29 162.291 315.986C163.184 317.673 165.062 316.545 164.882 314.974C164.379 310.593 161.872 306.194 158.669 303.148C154.628 299.306 149.151 296.885 143.465 296.885Z" fill="#89C5CC"/>
<rect x="171.85" y="78.8855" width="122.418" height="232.458" rx="8" fill="#DDE3E9"/>
<path fill-rule="evenodd" clip-rule="evenodd" d="M237.894 326.885C246.178 326.885 252.894 320.17 252.894 311.885C252.894 303.601 246.178 296.885 237.894 296.885C229.609 296.885 222.894 303.601 222.894 311.885C222.894 320.17 229.609 326.885 237.894 326.885Z" fill="white"/>
<g clip-path="url(#clip12)">
<g clip-path="url(#clip13)">
<rect x="196.894" y="106.885" width="83" height="54" rx="4" fill="white"/>
<g clip-path="url(#clip14)">
<rect x="205.894" y="123.085" width="25" height="8.1" rx="3" fill="#DDE3E9"/>
<rect x="205.894" y="136.585" width="16.7808" height="8.1" rx="3" fill="#DDE3E9"/>
</g>
</g>
<g clip-path="url(#clip15)">
<rect x="196.894" y="168.885" width="83" height="42" rx="4" fill="white"/>
<g clip-path="url(#clip16)">
<rect x="235.894" y="181.486" width="25" height="6.3" rx="3" fill="#DDE3E9"/>
<rect x="235.894" y="191.986" width="16.7808" height="6.3" rx="3" fill="#DDE3E9"/>
</g>
<path fill-rule="evenodd" clip-rule="evenodd" d="M217.894 201.885C224.521 201.885 229.894 196.513 229.894 189.885C229.894 183.258 224.521 177.885 217.894 177.885C211.266 177.885 205.894 183.258 205.894 189.885C205.894 196.513 211.266 201.885 217.894 201.885Z" fill="#C5CFD6"/>
</g>
<g clip-path="url(#clip17)">
<rect x="196.894" y="218.885" width="83" height="42" rx="4" fill="white"/>
<g clip-path="url(#clip18)">
<rect x="205.894" y="231.486" width="25" height="6.3" rx="3" fill="#DDE3E9"/>
<rect x="205.894" y="241.986" width="16.7808" height="6.3" rx="3" fill="#AFB9C5"/>
</g>
</g>
<g clip-path="url(#clip19)">
<rect x="196.894" y="268.885" width="83" height="42" rx="4" fill="white"/>
<g clip-path="url(#clip20)">
<rect x="235.894" y="281.486" width="25" height="6.3" rx="3" fill="#DDE3E9"/>
<rect x="235.894" y="291.986" width="16.7808" height="6.3" rx="3" fill="#DDE3E9"/>
</g>
<path fill-rule="evenodd" clip-rule="evenodd" d="M217.894 301.885C224.521 301.885 229.894 296.513 229.894 289.885C229.894 283.258 224.521 277.885 217.894 277.885C211.266 277.885 205.894 283.258 205.894 289.885C205.894 296.513 211.266 301.885 217.894 301.885Z" fill="#C5CFD6"/>
</g>
</g>
</g>
<g clip-path="url(#clip21)">
<rect x="222.665" y="98.1287" width="258" height="266" rx="8" fill="#F2F2F2"/>
<rect x="414.376" y="131.227" width="53.8946" height="62.3479" rx="8" fill="white"/>
<path fill-rule="evenodd" clip-rule="evenodd" d="M441.323 167.404C448.126 167.404 453.642 161.89 453.642 155.089C453.642 148.287 448.126 142.773 441.323 142.773C434.519 142.773 429.004 148.287 429.004 155.089C429.004 161.89 434.519 167.404 441.323 167.404Z" fill="#DDE3E9"/>
<rect x="422.075" y="170.483" width="38.4961" height="4.61837" rx="2.30919" fill="#DDE3E9"/>
<rect x="428.234" y="178.18" width="26.1774" height="4.61835" rx="2.30917" fill="#DDE3E9"/>
<path d="M222.665 106.129C222.665 101.71 226.247 98.1287 230.665 98.1287H472.665C477.083 98.1287 480.665 101.71 480.665 106.129V125.129H222.665V106.129Z" fill="#C5CFD6"/>
<path fill-rule="evenodd" clip-rule="evenodd" d="M235.665 116.129C237.874 116.129 239.665 114.338 239.665 112.129C239.665 109.92 237.874 108.129 235.665 108.129C233.456 108.129 231.665 109.92 231.665 112.129C231.665 114.338 233.456 116.129 235.665 116.129Z" fill="#F2F2F2"/>
<path fill-rule="evenodd" clip-rule="evenodd" d="M247.665 116.129C249.874 116.129 251.665 114.338 251.665 112.129C251.665 109.92 249.874 108.129 247.665 108.129C245.456 108.129 243.665 109.92 243.665 112.129C243.665 114.338 245.456 116.129 247.665 116.129Z" fill="#F2F2F2"/>
<path fill-rule="evenodd" clip-rule="evenodd" d="M259.665 116.129C261.874 116.129 263.665 114.338 263.665 112.129C263.665 109.92 261.874 108.129 259.665 108.129C257.456 108.129 255.665 109.92 255.665 112.129C255.665 114.338 257.456 116.129 259.665 116.129Z" fill="#F2F2F2"/>
<g clip-path="url(#clip22)">
<rect x="414.376" y="199.733" width="53.8946" height="149.327" rx="8" fill="white"/>
<g clip-path="url(#clip23)">
<rect x="432.376" y="217.733" width="18" height="26" rx="4" fill="#DDE3E9"/>
<rect x="432.376" y="251.733" width="18" height="25" rx="4" fill="#AFB9C5"/>
<rect x="432.376" y="284.733" width="18" height="25" rx="4" fill="#DDE3E9"/>
<rect x="432.376" y="317.733" width="18" height="25" rx="4" fill="#C5CFD6"/>
</g>
</g>
<g clip-path="url(#clip24)">
<g clip-path="url(#clip25)">
<rect x="238.665" y="142.129" width="148" height="47" rx="4" fill="white"/>
<g clip-path="url(#clip26)">
<rect x="247.665" y="156.229" width="90" height="7.05" rx="3" fill="#DDE3E9"/>
<rect x="247.665" y="167.979" width="60.411" height="7.05" rx="3" fill="#DDE3E9"/>
</g>
</g>
<g clip-path="url(#clip27)">
<rect x="238.665" y="197.129" width="148" height="39" rx="4" fill="white"/>
<g clip-path="url(#clip28)">
<rect x="247.665" y="208.829" width="90" height="5.85" rx="2.925" fill="#DDE3E9"/>
<rect x="247.665" y="218.579" width="60.411" height="5.85" rx="2.925" fill="#DDE3E9"/>
</g>
</g>
<g clip-path="url(#clip29)">
<rect x="238.665" y="244.129" width="148" height="39" rx="4" fill="white"/>
<g clip-path="url(#clip30)">
<rect x="247.665" y="255.829" width="90" height="5.85" rx="2.925" fill="#DDE3E9"/>
<rect x="247.665" y="265.579" width="60.411" height="5.85" rx="2.925" fill="#DDE3E9"/>
</g>
</g>
<g clip-path="url(#clip31)">
<rect x="238.665" y="338.129" width="148" height="39" rx="4" fill="white"/>
<g clip-path="url(#clip32)">
<rect x="247.665" y="349.829" width="90" height="5.85" rx="2.925" fill="#DDE3E9"/>
<rect x="247.665" y="359.579" width="60.411" height="5.85" rx="2.925" fill="#DDE3E9"/>
</g>
</g>
<g clip-path="url(#clip33)">
<rect x="238.665" y="291.129" width="148" height="39" rx="4" fill="white"/>
<g clip-path="url(#clip34)">
<rect x="247.665" y="302.829" width="90" height="5.85" rx="2.925" fill="#DDE3E9"/>
<rect x="247.665" y="312.579" width="60.411" height="5.85" rx="2.925" fill="#DDE3E9"/>
</g>
</g>
</g>
</g>
<path fill-rule="evenodd" clip-rule="evenodd" d="M544.481 229.271C541.445 227.213 537.406 226.673 533.772 226.673C519.578 226.673 506.236 231.938 494.71 239.783C488.395 244.082 482.745 249.556 477.757 255.255C474.878 258.545 472.311 262.104 470.493 266.062C469.267 268.734 468.425 271.518 467.855 274.389C467.159 277.888 466.607 281.459 466.357 285.016C466.259 286.417 465.444 293.85 467.774 293.976C467.761 294.16 467.758 294.334 467.772 294.491C462.713 302.399 459.588 311.666 456.689 320.453C454.168 328.099 451.92 335.81 450.462 343.72C448.541 354.134 447.28 364.705 446.68 375.269C446.551 377.539 446.463 379.81 446.387 382.084C446.322 384.023 446.257 385.962 446.193 387.901C446.122 390.073 445.739 392.575 446.085 394.735C446.386 396.617 448.015 396.332 448.087 394.46C448.174 392.199 448.159 389.934 448.258 387.671C448.39 384.669 448.525 381.666 448.672 378.664C449.696 357.811 453.534 337.264 460.618 317.566C463.485 309.594 466.77 302.048 470.992 294.674C474.704 288.191 479.169 281.914 483.733 276.069C488.169 270.388 492.781 264.838 498.217 260.025C502.628 256.12 507.479 252.717 512.467 249.551C518.801 245.53 525.124 241.607 531.985 238.52C535.552 236.916 539.186 235.479 542.781 233.94C543.428 233.663 544.121 233.394 544.743 233.073C546.818 232.003 546.135 230.392 544.481 229.271Z" fill="#C1DEE2"/>
<path fill-rule="evenodd" clip-rule="evenodd" d="M487.378 302.106C493.135 302.106 498.258 302.854 503.562 305.141C508.141 307.115 512.314 309.729 516.365 312.574C522.064 316.575 526.552 321.233 529.694 327.403C531.571 331.09 532.948 336.306 531.687 340.327C530.203 345.063 526.125 349.012 520.755 348.178C517.435 347.662 514.391 345.465 511.867 343.397C508.848 340.922 506.431 337.947 504.435 334.643C501.18 329.252 499.267 323.159 496.502 317.526C495.19 314.853 493.922 312.161 492.35 309.62C491.572 308.362 490.744 307.116 489.563 306.181C488.932 305.681 486.269 304.816 487.287 303.692C472.358 303.888 459.133 315.351 456.267 329.54C456 330.862 455.791 332.196 455.571 333.526C455.432 334.366 455.488 337.465 454.737 338.001C453.08 339.186 453.776 335.589 453.847 335.071C454.031 333.732 454.227 332.395 454.433 331.06C455.552 323.798 458.785 317.048 464.178 311.869C470.345 305.947 478.665 302.106 487.378 302.106Z" fill="#89C5CC"/>
<path fill-rule="evenodd" clip-rule="evenodd" d="M72.4821 284.2C86.8538 308.304 103.592 331.644 113.644 357.998C113.239 354.892 112.81 351.789 112.329 348.69C109.779 332.263 106.609 315.957 103.277 299.67C101.581 291.378 99.787 283.115 97.9468 274.854C96.9571 270.416 95.9796 265.976 94.9695 261.543C94.7248 260.469 94.5146 258.593 94.2083 256.692C103.977 288.741 113.398 320.814 120.289 353.634C121.193 357.941 121.963 362.24 122.593 366.532C122.809 365.553 123.021 364.574 123.253 363.598C126.042 351.892 130.224 340.28 135.204 329.335C137.584 324.101 140.319 318.981 143.538 314.211C145.546 311.238 150.281 307.703 152.112 304.658C142.096 323.024 138.479 346.005 132.696 365.973C131.284 370.846 129.864 375.711 128.472 380.584C137.194 363.097 150.726 348.73 169.54 342.504C146.766 357.547 133.106 383.893 123.901 410.838C123.87 411.157 123.834 411.477 123.803 411.797C126.512 406.657 129.924 402.009 134.548 398.753C144.446 391.783 155.425 393.813 165.026 399.792C157.491 395.004 143.873 399.364 137.533 404.231C132.994 407.715 129.115 412.389 125.747 416.949C124.94 418.042 123.839 419.318 122.675 420.678C121.044 431.263 118.386 441.775 114.623 452.203C115.244 449.21 114.795 444.423 114.968 442.191C114.986 441.95 115.002 441.708 115.02 441.467C114.448 443.751 113.896 446.008 113.364 448.229C114.421 443.991 114.996 439.567 115.445 435.097C115.56 433.176 115.673 431.255 115.792 429.334C115.754 425.689 115.604 422.029 115.35 418.363C114.45 414.8 113.441 411.44 112.609 408.645C109.608 398.561 105.209 388.9 99.7935 379.888C94.8528 371.663 88.9388 364.214 82.1114 357.476C78.4309 353.845 74.579 350.387 70.7813 346.881C69.4081 345.613 66.9535 342.497 64.8307 340.872C80.2911 349.394 96.2042 358.612 107.483 372.342C106.16 367.266 104.724 362.261 103.205 357.357C95.4976 332.475 85.7659 306.688 72.4821 284.2Z" fill="#DDE3E9"/>
<path fill-rule="evenodd" clip-rule="evenodd" d="M87.9284 420.644C87.9284 448.276 90.1171 470.676 119.495 470.676C148.873 470.676 151.062 448.276 151.062 420.644" fill="#C5CFD6"/>
<rect x="415.146" y="65.0305" width="4.61954" height="19.2432" rx="2.30977" fill="#DDE3E9"/>
<rect x="425.925" y="52.7148" width="4.61951" height="31.5588" rx="2.30975" fill="#DDE3E9"/>
<rect x="436.703" y="46.5569" width="4.61951" height="37.7166" rx="2.30975" fill="#DDE3E9"/>
<rect x="447.482" y="52.7148" width="4.61957" height="31.5588" rx="2.30978" fill="#DDE3E9"/>
<rect x="458.261" y="40.3992" width="4.61957" height="43.8744" rx="2.30978" fill="#C5CFD6"/>
<path fill-rule="evenodd" clip-rule="evenodd" d="M36.3435 276.133C36.3435 267.559 43.2744 260.541 51.742 260.541V276.133L41.2187 287.481C38.2252 284.707 36.3435 280.637 36.3435 276.133Z" fill="#F2F2F2"/>
<path fill-rule="evenodd" clip-rule="evenodd" d="M51.3345 275.936H66.8848C66.8848 279.954 65.2451 283.72 62.6528 286.456C59.8017 289.449 55.7415 291.33 51.3345 291.33C47.2751 291.33 43.5594 289.707 40.7075 287.14L51.3345 275.936Z" fill="#AFB9C5"/>
<path fill-rule="evenodd" clip-rule="evenodd" d="M67.1405 275.936C67.1405 267.47 60.2096 260.541 51.742 260.541V275.936H67.1405ZM44.0428 260.541L50.2022 274.396L36.3435 268.238C37.714 264.647 40.7914 261.911 44.0428 260.541Z" fill="#C5CFD6"/>
<path fill-rule="evenodd" clip-rule="evenodd" d="M537.384 283.001C535.904 284.571 533.808 285.557 531.477 285.557C526.998 285.557 523.367 281.939 523.367 277.475C523.367 273.011 526.998 269.393 531.477 269.393V254.383C518.736 254.383 508.306 264.777 508.306 277.475C508.306 290.173 518.736 300.567 531.477 300.567C538.17 300.567 544.219 297.745 548.342 293.256L537.384 283.001Z" fill="#F2F2F2"/>
<path fill-rule="evenodd" clip-rule="evenodd" d="M531.404 254.383V269.393C535.869 269.393 539.488 273.011 539.488 277.475H554.502C554.502 264.777 544.105 254.383 531.404 254.383Z" fill="#AFB9C5"/>
<path fill-rule="evenodd" clip-rule="evenodd" d="M539.178 277.475C539.178 280.097 537.943 282.428 536.023 283.933L545.464 295.948C550.96 291.647 554.502 284.979 554.502 277.475H539.178Z" fill="#C5CFD6"/>
<path fill-rule="evenodd" clip-rule="evenodd" d="M390.547 70.8064C389.409 72.0103 387.797 72.7662 386.004 72.7662C382.559 72.7662 379.766 69.9921 379.766 66.5699C379.766 63.1478 382.559 60.3736 386.004 60.3736V48.8662C376.203 48.8662 368.18 56.8347 368.18 66.5699C368.18 76.3052 376.203 84.2736 386.004 84.2736C391.153 84.2736 395.805 82.1103 398.977 78.6686L390.547 70.8064Z" fill="#F2F2F2"/>
<path fill-rule="evenodd" clip-rule="evenodd" d="M385.889 48.8662V60.3736C389.312 60.3736 392.086 63.1478 392.086 66.5699H403.597C403.597 56.8346 395.626 48.8662 385.889 48.8662Z" fill="#AFB9C5"/>
<path fill-rule="evenodd" clip-rule="evenodd" d="M392.104 66.5698C392.104 68.5367 391.177 70.285 389.738 71.4138L396.819 80.4249C400.94 77.1988 403.597 72.198 403.597 66.5698H392.104Z" fill="#C5CFD6"/>
<path fill-rule="evenodd" clip-rule="evenodd" d="M110.262 84.2631C110.258 84.2708 110.255 84.2785 110.251 84.2877C110.255 84.28 110.262 84.2492 110.262 84.2631Z" fill="#C5CFD6"/>
<path fill-rule="evenodd" clip-rule="evenodd" d="M110.254 84.2748C110.254 84.2763 110.253 84.2794 110.253 84.2825C110.253 84.2748 110.267 84.2517 110.254 84.2748Z" fill="#C5CFD6"/>
<path fill-rule="evenodd" clip-rule="evenodd" d="M110.308 84.1446C110.297 84.1753 110.283 84.2046 110.271 84.2354C110.277 84.22 110.283 84.2077 110.289 84.1923C110.129 84.5925 110.231 84.3324 110.308 84.1446Z" fill="#C5CFD6"/>
<path fill-rule="evenodd" clip-rule="evenodd" d="M110.273 84.2373C110.267 84.2511 110.261 84.2665 110.255 84.2804C110.21 84.3666 110.273 84.2373 110.273 84.2373Z" fill="#C5CFD6"/>
<path fill-rule="evenodd" clip-rule="evenodd" d="M110.255 84.2752C110.255 84.2736 110.255 84.2736 110.257 84.2721C110.255 84.2736 110.255 84.2736 110.255 84.2752Z" fill="#C5CFD6"/>
<path fill-rule="evenodd" clip-rule="evenodd" d="M110.248 84.2862C110.239 84.3047 110.291 84.2154 110.248 84.2862V84.2862Z" fill="#C5CFD6"/>
<path fill-rule="evenodd" clip-rule="evenodd" d="M110.255 84.2752L110.258 84.2721C110.256 84.2736 110.256 84.2752 110.255 84.2752Z" fill="#C5CFD6"/>
<rect x="73.2998" y="44.2478" width="73.1427" height="48.4928" rx="4" fill="#DDE3E9"/>
<path fill-rule="evenodd" clip-rule="evenodd" d="M101.017 58.1028L79.4592 92.7405H122.575L101.017 58.1028Z" fill="#AFB9C5"/>
<path fill-rule="evenodd" clip-rule="evenodd" d="M122.19 67.3396L103.327 92.7406H141.053L122.19 67.3396Z" fill="#C5CFD6"/>
<path fill-rule="evenodd" clip-rule="evenodd" d="M130.274 67.3397C134.101 67.3397 137.203 64.2381 137.203 60.4122C137.203 56.5862 134.101 53.4846 130.274 53.4846C126.447 53.4846 123.345 56.5862 123.345 60.4122C123.345 64.2381 126.447 67.3397 130.274 67.3397Z" fill="white"/>
<path fill-rule="evenodd" clip-rule="evenodd" d="M477.504 412.936C477.507 412.944 477.51 412.952 477.515 412.961C477.51 412.953 477.504 412.923 477.504 412.936Z" fill="#C5CFD6"/>
<path fill-rule="evenodd" clip-rule="evenodd" d="M477.511 412.948C477.511 412.95 477.513 412.953 477.513 412.956C477.513 412.948 477.499 412.925 477.511 412.948Z" fill="#C5CFD6"/>
<path fill-rule="evenodd" clip-rule="evenodd" d="M477.458 412.818C477.468 412.849 477.482 412.878 477.495 412.909C477.488 412.893 477.482 412.881 477.476 412.866C477.636 413.266 477.535 413.006 477.458 412.818Z" fill="#C5CFD6"/>
<path fill-rule="evenodd" clip-rule="evenodd" d="M477.492 412.911C477.498 412.924 477.504 412.94 477.511 412.954C477.555 413.04 477.492 412.911 477.492 412.911Z" fill="#C5CFD6"/>
<path fill-rule="evenodd" clip-rule="evenodd" d="M477.51 412.949C477.51 412.947 477.51 412.947 477.509 412.945C477.51 412.947 477.51 412.947 477.51 412.949Z" fill="#C5CFD6"/>
<path fill-rule="evenodd" clip-rule="evenodd" d="M477.517 412.96C477.527 412.978 477.474 412.889 477.517 412.96V412.96Z" fill="#C5CFD6"/>
<path fill-rule="evenodd" clip-rule="evenodd" d="M477.511 412.949L477.508 412.945C477.509 412.947 477.509 412.949 477.511 412.949Z" fill="#C5CFD6"/>
<rect width="109.329" height="72.3543" rx="4" transform="matrix(-1 0 0 1 532.174 353.678)" fill="#DDE3E9"/>
<path fill-rule="evenodd" clip-rule="evenodd" d="M491.579 374.461L523.188 426.032H459.97L491.579 374.461Z" fill="#AFB9C5"/>
<path fill-rule="evenodd" clip-rule="evenodd" d="M458.988 388.274L486.933 426.032H431.044L458.988 388.274Z" fill="#C5CFD6"/>
<path fill-rule="evenodd" clip-rule="evenodd" d="M447.097 388.316C441.357 388.316 436.703 383.663 436.703 377.924C436.703 372.185 441.357 367.533 447.097 367.533C452.838 367.533 457.491 372.185 457.491 377.924C457.491 383.663 452.838 388.316 447.097 388.316Z" fill="white"/>
</g>
<path fill-rule="evenodd" clip-rule="evenodd" d="M15.2071 600.134C30.5893 540.804 186.238 574.603 288.28 556.261C390.321 537.919 511.045 452.497 590.942 494.341C670.839 536.185 585.83 637.335 402.58 660.161C219.33 682.987 -0.174979 659.464 15.2071 600.134Z" fill="#F2F2F2"/>
<path fill-rule="evenodd" clip-rule="evenodd" d="M202.536 318.986C208.259 319.846 213.312 319.313 215.198 317.893C219.927 314.33 212.375 294.756 205.109 288.819C197.843 282.882 175.398 288.293 180.614 303.865C182.425 309.27 186.575 313.042 191.42 315.514L196.876 345.168L213.846 338.126L202.536 318.986Z" fill="#D4A181"/>
<path fill-rule="evenodd" clip-rule="evenodd" d="M184.757 297.981C194.578 293.988 201.22 290.749 204.675 288.059C203.12 284.814 198.113 282.494 189.014 286.269C178.89 290.47 175.906 298.625 178.739 305.451C181.327 311.688 188.493 317.618 191.677 316.659C192.398 316.157 192.678 314.923 192.805 313.329C191.292 313.239 189.812 312.162 189.037 310.295C188.293 308.501 189.153 306.103 191.105 305.293C191.818 304.997 192.577 304.954 193.29 305.105C193.716 302.506 194.683 300.296 197.003 299.531L193.828 295.875L185.05 298.688L184.757 297.981Z" fill="#191847"/>
<path fill-rule="evenodd" clip-rule="evenodd" d="M183.3 405.273L211.054 502.669L231.304 574.455H246.073L224.555 405.273H183.3Z" fill="#C5CFD6"/>
<path fill-rule="evenodd" clip-rule="evenodd" d="M175.878 405.273C175.236 455.472 173.047 482.852 172.373 487.413C171.698 491.973 161.507 520.988 141.798 574.455H157.098C182.189 523.162 196.196 494.148 199.118 487.413C202.04 480.677 211.057 453.297 224.638 405.273H175.878Z" fill="#DDE3E9"/>
<path fill-rule="evenodd" clip-rule="evenodd" d="M140.43 588.235L141.196 572.158L157.272 572.158C168.706 580.197 187.128 585.172 187.128 585.172V588.235H158.037L148.085 586.704V588.235H140.43Z" fill="#191847"/>
<path fill-rule="evenodd" clip-rule="evenodd" d="M229.232 588.235L229.997 572.158L246.073 572.158C257.508 580.197 275.929 585.172 275.929 585.172V588.235H246.839L236.887 586.704V588.235H229.232Z" fill="#191847"/>
<path fill-rule="evenodd" clip-rule="evenodd" d="M256.661 292.69L234.14 312.955L246.108 320.953L260.842 299.314C270.097 294.251 274.154 291.187 273.011 290.123C272.047 289.226 270.906 289.534 269.855 289.818C269.037 290.039 268.273 290.245 267.69 289.856C266.358 288.966 267.445 284.5 268.658 280.305C269.87 276.111 267.716 276.96 266.566 277.793C263.059 281.603 259.757 286.569 256.661 292.69ZM135.376 439.652C137.619 435.1 148.828 376.527 148.828 376.527L165.591 376.59C165.591 376.59 146.44 438.637 145.259 441.563C143.725 445.365 146.331 450.889 148.098 454.634C148.371 455.214 148.624 455.751 148.839 456.232C146.387 457.329 145.21 456.003 143.968 454.605C142.566 453.026 141.082 451.355 137.588 452.98C136.239 453.608 134.962 454.351 133.714 455.076C129.404 457.581 125.445 459.883 120.059 456.559C119.205 456.032 118.269 454.048 120.53 452.498C126.163 448.636 134.279 441.877 135.376 439.652Z" fill="#D4A181"/>
<path fill-rule="evenodd" clip-rule="evenodd" d="M164.009 363.465L163.306 356.786C200.768 348.777 229.324 296.945 243.289 294.559C248.41 293.684 250.723 297.479 252.381 295.705L258.107 304.7C256.316 306.044 259.216 309.349 256.624 315.687C254.031 322.025 207.564 366.303 164.009 363.465Z" fill="#2977B3"/>
<path fill-rule="evenodd" clip-rule="evenodd" d="M189.07 321.344C186.866 321.19 184.955 322.851 184.801 325.055L184.553 328.604C172.095 338.19 141.218 366.838 133.172 420.168C132.327 425.77 133.856 428.77 135.077 431.168C135.912 432.808 136.604 434.166 136.294 435.881L147.554 438.989C147.554 437.723 148.974 436.759 150.805 435.516C153.467 433.709 157 431.311 158.306 426.53C159.544 421.998 161.358 416.338 163.524 410.042C163.728 418.381 165.31 426.05 168.755 432.402C177.35 448.249 227.018 430.87 232.207 414.703C234.976 406.076 231.047 398.833 225.851 389.255C219.255 377.095 210.616 361.172 211.043 333.875L211.529 326.924C211.683 324.72 210.022 322.809 207.818 322.655L189.07 321.344Z" fill="#479CD9"/>
<path fill-rule="evenodd" clip-rule="evenodd" d="M413.591 300.074C408.35 303.233 403.2 304.76 400.783 304.137C394.722 302.574 394.164 280.4 398.854 271.658C403.544 262.917 427.655 259.106 428.87 276.427C429.292 282.438 426.768 287.803 423.038 292.18L429.725 323.348H410.301L413.591 300.074Z" fill="#B28B67"/>
<path fill-rule="evenodd" clip-rule="evenodd" d="M412.62 278.339C410.939 275.837 409.326 273.929 407.228 272.821C398.689 272.956 397.689 271.425 397.689 266.265C399.068 265.279 403.935 263.617 409.385 263.149C412.165 262.354 415.459 262.503 418.631 263.83C422.548 264.942 425.864 267.335 427.329 271.815C432.629 280.961 428.606 290.482 423.185 293.735C421.742 292.025 420.483 290.368 419.36 288.782C420.262 287.901 420.822 286.67 420.822 285.308C420.822 282.627 418.648 280.452 415.966 280.452C415.769 280.452 415.575 280.464 415.384 280.487C415.263 283.84 414.767 295.185 413.462 299.125C411.924 303.771 402.949 304.911 399.819 304.911C397.116 304.911 397.208 302.351 397.274 300.517C397.283 300.252 397.292 300.003 397.292 299.779C397.292 299.31 397.902 299.311 398.591 299.313C399.485 299.314 400.513 299.316 400.513 298.29C400.513 297.172 398.967 296.314 397.584 295.546C396.721 295.067 395.921 294.623 395.599 294.173C394.585 292.753 394.243 290.837 395.774 290.837C396.61 290.837 397.758 291.319 399.139 291.9C401.224 292.776 403.84 293.875 406.719 293.875C411.475 293.875 412.606 278.532 412.62 278.339Z" fill="#191847"/>
<path fill-rule="evenodd" clip-rule="evenodd" d="M442.648 391.692L413.045 493.9L399.122 570.639H385.146L399.097 391.692H442.648Z" fill="#997659"/>
<path fill-rule="evenodd" clip-rule="evenodd" d="M455.952 391.692C453.886 444.789 454.701 473.749 455.163 478.573C455.626 483.397 458.25 515.705 476.134 572.259H461.599C437.914 518.005 429.646 485.697 426.93 478.573C424.213 471.449 416.19 442.488 404.477 391.692H455.952Z" fill="#B28B67"/>
<path fill-rule="evenodd" clip-rule="evenodd" d="M443.284 391.692C435.584 426.862 422.266 483.002 403.33 560.113H382.889C381.38 480.966 387.802 428.875 398.924 391.692H443.284Z" fill="#4F4F4F"/>
<path fill-rule="evenodd" clip-rule="evenodd" d="M456.055 391.692C454.032 444.789 459.275 497.099 475.515 560.939H453.706C429.978 507.496 412.971 455.444 401.348 391.692H456.055Z" fill="#828282"/>
<path fill-rule="evenodd" clip-rule="evenodd" d="M478.206 582.785L477.482 571.079C477.442 570.439 476.818 570.001 476.188 570.124C469.205 571.492 459.76 568.21 459.76 568.21C450.299 574.925 436.772 578.104 431.503 579.144C430.324 579.377 429.572 580.568 429.9 581.725L430.887 585.214H459.76H476.602L478.206 582.785Z" fill="#191847"/>
<path fill-rule="evenodd" clip-rule="evenodd" d="M402.241 582.785L401.517 571.079C401.477 570.439 400.853 570.001 400.223 570.124C393.24 571.492 383.795 568.21 383.795 568.21C374.334 574.925 360.807 578.104 355.538 579.144C354.358 579.377 353.607 580.568 353.935 581.725L354.922 585.214H383.795H400.637L402.241 582.785Z" fill="#191847"/>
<path fill-rule="evenodd" clip-rule="evenodd" d="M365.902 376.798L335.072 368.148C329.273 363.803 323.82 360.647 318.713 358.681C317.233 358.43 314.794 358.634 317.905 362.036C321.016 365.438 324.136 369.157 323.289 370.621C322.443 372.086 319.249 371.049 318.37 373.361C317.784 374.902 323.063 375.905 334.206 376.37L358.295 389.959L365.902 376.798Z" fill="#B28B67"/>
<path fill-rule="evenodd" clip-rule="evenodd" d="M414.121 311.049L407.024 310.836C393.983 327.574 392.758 363.556 383.352 369.618C374.459 375.35 360.378 372.992 343.545 369.502L340.175 381.138C356.947 394.817 389.835 403.742 401.344 394.391C419.743 379.439 418.297 335.476 414.121 311.049Z" fill="#191847"/>
<path fill-rule="evenodd" clip-rule="evenodd" d="M456.55 393.741C456.55 393.741 414.868 399.599 395.229 402.359C392.427 402.753 392.388 398.639 392.506 396.545C393.875 372.366 408.561 344.447 403.855 310.965L421.154 305.71C439.085 327.142 448.209 355.349 456.55 393.741Z" fill="#DDE3E9"/>
<path fill-rule="evenodd" clip-rule="evenodd" d="M421.436 305.172L423.632 304.864C446.868 317.51 451.125 336.536 457.201 363.698C457.299 364.137 457.398 364.577 457.497 365.019C464.049 379.269 469.532 394.244 472.536 408.627L417.338 416.384C402.864 390.929 415.292 306.534 415.292 306.534L421.43 305.671L421.436 305.172Z" fill="#191847"/>
<path fill-rule="evenodd" clip-rule="evenodd" d="M340.612 410.653H382.627L373.205 353H331.189L340.612 410.653Z" fill="#18181C"/>
<path fill-rule="evenodd" clip-rule="evenodd" d="M338.354 410.653H380.369L370.947 353H328.931L338.354 410.653Z" fill="#C9D3DF"/>
<path fill-rule="evenodd" clip-rule="evenodd" d="M367.023 357.651C367.211 358.605 367.768 359.301 368.267 359.203C368.765 359.106 369.018 358.254 368.83 357.299C368.642 356.345 368.085 355.649 367.586 355.747C367.087 355.844 366.835 356.696 367.023 357.651" fill="#020101"/>
<path d="M383.569 385.614L385.231 388.194L404.5 385.614L411.178 375.364L424 362C424 362 423.27 384.886 418.669 397.126C416.343 403.314 394.658 399.441 387 398.5C384.016 400.603 380.578 403.189 378.258 403.976C373.959 404.185 364.489 403.108 361 397.126C361.08 395.595 362.06 394.7 362.06 394.7C362.203 393.191 364.283 392.941 365.273 392.757C365.273 392.757 368.642 392.696 369.646 392.374C374.65 390.757 375.813 389.467 376.428 388.74C376.501 388.654 376.564 388.577 376.627 388.508C376.544 388.392 376.457 388.284 376.361 388.194L376.627 384.362C378.133 384.573 378.411 384.014 379.87 384.362C382.193 384.917 383.569 385.614 383.569 385.614Z" fill="#B28B67"/>
<path d="M407.89 382.5L410.5 363.349L434.147 352.849L450 403.849L413.339 403.849L396 402.5L394.5 386.5L407.89 382.5Z" fill="#191847"/>
<defs>
<clipPath id="clip0">
<rect x="44.8127" y="275.936" width="509.689" height="180.116" fill="white"/>
</clipPath>
<clipPath id="clip1">
<rect x="121.035" y="58.8726" width="122.418" height="232.457" fill="white"/>
</clipPath>
<clipPath id="clip2">
<rect x="135.035" y="86.8726" width="94" height="204" fill="white"/>
</clipPath>
<clipPath id="clip3">
<rect x="135.035" y="86.8726" width="94" height="54" fill="white"/>
</clipPath>
<clipPath id="clip4">
<rect x="174.035" y="103.073" width="36" height="21.6" fill="white"/>
</clipPath>
<clipPath id="clip5">
<rect x="135.035" y="148.873" width="94" height="42" fill="white"/>
</clipPath>
<clipPath id="clip6">
<rect x="174.035" y="161.473" width="36" height="16.8" fill="white"/>
</clipPath>
<clipPath id="clip7">
<rect x="135.035" y="198.873" width="94" height="42" fill="white"/>
</clipPath>
<clipPath id="clip8">
<rect x="174.035" y="211.473" width="36" height="16.8" fill="white"/>
</clipPath>
<clipPath id="clip9">
<rect x="135.035" y="248.873" width="94" height="42" fill="white"/>
</clipPath>
<clipPath id="clip10">
<rect x="174.035" y="261.473" width="36" height="16.8" fill="white"/>
</clipPath>
<clipPath id="clip11">
<rect x="134.894" y="78.8855" width="159.374" height="232.458" fill="white"/>
</clipPath>
<clipPath id="clip12">
<rect x="196.894" y="106.885" width="83" height="204" fill="white"/>
</clipPath>
<clipPath id="clip13">
<rect x="196.894" y="106.885" width="83" height="54" fill="white"/>
</clipPath>
<clipPath id="clip14">
<rect x="205.894" y="123.085" width="25" height="21.6" fill="white"/>
</clipPath>
<clipPath id="clip15">
<rect x="196.894" y="168.885" width="83" height="42" fill="white"/>
</clipPath>
<clipPath id="clip16">
<rect x="235.894" y="181.486" width="25" height="16.8" fill="white"/>
</clipPath>
<clipPath id="clip17">
<rect x="196.894" y="218.885" width="83" height="42" fill="white"/>
</clipPath>
<clipPath id="clip18">
<rect x="205.894" y="231.486" width="25" height="16.8" fill="white"/>
</clipPath>
<clipPath id="clip19">
<rect x="196.894" y="268.885" width="83" height="42" fill="white"/>
</clipPath>
<clipPath id="clip20">
<rect x="235.894" y="281.486" width="25" height="16.8" fill="white"/>
</clipPath>
<clipPath id="clip21">
<rect x="222.665" y="98.1287" width="257.924" height="266.326" fill="white"/>
</clipPath>
<clipPath id="clip22">
<rect x="414.376" y="199.733" width="53.8946" height="149.327" fill="white"/>
</clipPath>
<clipPath id="clip23">
<rect x="432.376" y="217.733" width="18" height="158" fill="white"/>
</clipPath>
<clipPath id="clip24">
<rect x="238.665" y="142.129" width="148" height="282" fill="white"/>
</clipPath>
<clipPath id="clip25">
<rect x="238.665" y="142.129" width="148" height="47" fill="white"/>
</clipPath>
<clipPath id="clip26">
<rect x="247.665" y="156.229" width="90" height="18.8" fill="white"/>
</clipPath>
<clipPath id="clip27">
<rect x="238.665" y="197.129" width="148" height="39" fill="white"/>
</clipPath>
<clipPath id="clip28">
<rect x="247.665" y="208.829" width="90" height="15.6" fill="white"/>
</clipPath>
<clipPath id="clip29">
<rect x="238.665" y="244.129" width="148" height="39" fill="white"/>
</clipPath>
<clipPath id="clip30">
<rect x="247.665" y="255.829" width="90" height="15.6" fill="white"/>
</clipPath>
<clipPath id="clip31">
<rect x="238.665" y="338.129" width="148" height="39" fill="white"/>
</clipPath>
<clipPath id="clip32">
<rect x="247.665" y="349.829" width="90" height="15.6" fill="white"/>
</clipPath>
<clipPath id="clip33">
<rect x="238.665" y="291.129" width="148" height="39" fill="white"/>
</clipPath>
<clipPath id="clip34">
<rect x="247.665" y="302.829" width="90" height="15.6" fill="white"/>
</clipPath>
</defs>
</svg>
