<svg viewBox="0 0 645 421" fill="none" xmlns="http://www.w3.org/2000/svg">
<g opacity="0.4">
<path fill-rule="evenodd" clip-rule="evenodd" d="M615.653 123.052C615.137 122.725 613.912 122.61 613.343 122.512C610.975 122.106 608.535 121.93 606.121 121.93C598.677 121.939 591.112 122.574 583.792 123.673C579.144 124.371 573.525 126.719 568.902 125.444C560.847 123.222 552.706 123.331 545.064 126.503C538.077 129.403 532.773 134.911 529.678 140.863C529.211 141.762 527.316 145.069 526.78 147.298C526.551 147.753 526.331 148.212 526.132 148.678C525.568 150 525.063 151.346 524.593 152.694C524.393 153.27 523.888 154.54 524.487 154.785C523.53 156.321 522.681 157.904 521.974 159.538C519.918 164.29 517.669 169.503 516.947 174.539C516.679 176.405 516.669 178.28 516.918 180.149C517.04 181.073 516.99 182.93 517.71 183.632C519.239 185.122 520.025 183.036 519.852 182.043C518.536 174.47 521.078 167.358 524.091 160.24C526.039 155.636 529.24 151.425 532.825 147.611C535.727 144.524 538.841 142.093 542.819 140.046C547.683 137.543 552.884 135.52 558.037 133.49C561.427 132.155 564.82 130.855 568.304 129.705C569.078 129.449 570.297 128.792 571.156 128.79C572.973 128.784 575.547 129.949 577.301 130.382C583.072 131.808 588.917 133.633 594.881 134.361C598.707 134.829 602.291 134.303 605.869 133.195C606.234 133.082 606.847 132.791 607.598 132.376C610.254 131.488 612.767 130.371 614.955 128.759C616.215 127.83 617.359 126.629 618.402 125.53C618.714 125.202 618.852 124.825 618.857 124.468C619.093 124.36 619.25 124.235 619.286 124.088C619.546 123.007 617.173 122.987 615.653 123.052Z" fill="#89C5CC"/>
<path fill-rule="evenodd" clip-rule="evenodd" d="M606.708 153.595C603.407 152.969 599.763 153.017 596.401 153.068C578.371 153.281 560.666 160.699 549.143 172.552C539.333 182.643 536.636 195.188 534.698 207.869C534.506 209.129 534.423 210.38 534.315 211.641C534.292 211.912 534.257 212.154 534.22 212.381C533.457 212.973 533.058 213.664 533.509 214.422C531.83 217.615 530.41 220.889 529.191 224.265C525.604 234.204 521.955 244.332 524.203 254.783C524.728 249.032 525.833 243.15 527.154 237.494C527.23 237.169 527.312 236.847 527.397 236.526C527.406 236.492 527.414 236.458 527.423 236.424C527.89 234.692 528.498 233.011 529.237 231.357C529.245 231.339 529.253 231.322 529.261 231.304C529.358 231.086 529.462 230.87 529.564 230.653C529.776 230.205 529.994 229.757 530.224 229.312C530.302 229.161 530.377 229.008 530.449 228.854C531.525 226.561 531.98 223.979 532.944 221.607C533.174 221.068 533.416 220.531 533.668 219.996C533.683 219.965 533.698 219.934 533.713 219.902C534.396 218.464 535.151 217.044 535.948 215.638C536.382 215.355 536.613 214.653 536.987 214.014C537.065 213.889 537.669 213.05 537.849 212.567C538.319 211.777 538.787 210.987 539.26 210.199C539.246 210.203 539.231 210.208 539.217 210.213C539.691 209.456 540.165 208.702 540.637 207.951C540.74 207.786 540.845 207.621 540.949 207.456C541.118 207.193 541.288 206.93 541.456 206.667C543.036 204.211 544.71 201.804 546.449 199.427C547.07 198.579 548.553 197.363 548.837 196.41C548.848 196.375 548.85 196.342 548.856 196.308C552.63 191.702 556.974 187.454 562.184 184.088C561.554 184.68 560.216 186.687 559.862 187.084C558.779 188.301 557.603 189.434 556.423 190.581C554.309 192.635 552.246 194.754 550.412 196.995C547.059 201.093 544.166 205.406 541.431 209.806C541.405 209.832 541.377 209.856 541.352 209.882C539.978 211.355 539.113 213.58 538.124 215.264C542.039 213.688 546.368 212.661 550.387 211.262C554.394 209.867 558.292 208.314 562.056 206.489C567.058 204.065 572.246 201.328 576.973 198.23C582.389 195.31 586.94 191.292 590.957 187.075C595.71 182.086 600.066 177.053 602.76 170.995C604.084 168.018 605.125 164.914 605.742 161.774C605.769 161.637 605.804 161.488 605.841 161.334C606.473 160.25 607.037 159.141 607.511 158.006C608.263 156.207 610.04 154.228 606.708 153.595Z" fill="#69A1AC"/>
<path fill-rule="evenodd" clip-rule="evenodd" d="M642.764 188.075C638.947 185.826 633.872 185.236 629.304 185.236C611.466 185.236 594.698 190.988 580.213 199.557C572.276 204.253 565.175 210.233 558.906 216.459C555.288 220.053 552.062 223.941 549.778 228.265C548.236 231.184 547.178 234.224 546.461 237.361C545.587 241.184 544.893 245.084 544.579 248.97C544.456 250.5 543.432 258.621 546.36 258.758C546.343 258.958 546.34 259.149 546.357 259.32C540 267.959 536.072 278.083 532.429 287.681C529.26 296.034 526.436 304.457 524.603 313.098C522.189 324.474 520.604 336.021 519.85 347.561C519.688 350.041 519.577 352.522 519.481 355.006C519.4 357.124 519.318 359.242 519.238 361.36C519.149 363.734 518.668 366.467 519.102 368.827C519.48 370.882 521.527 370.571 521.618 368.526C521.727 366.056 521.709 363.581 521.833 361.11C521.999 357.83 522.169 354.549 522.354 351.27C523.64 328.49 528.464 306.045 537.367 284.527C540.97 275.819 545.098 267.576 550.404 259.521C555.07 252.438 560.681 245.582 566.417 239.196C571.992 232.99 577.789 226.928 584.62 221.67C590.163 217.404 596.26 213.687 602.528 210.228C610.49 205.836 618.435 201.55 627.059 198.178C631.541 196.425 636.109 194.856 640.626 193.174C641.439 192.872 642.311 192.578 643.092 192.228C645.7 191.059 644.842 189.299 642.764 188.075Z" fill="#C1DEE2"/>
<path fill-rule="evenodd" clip-rule="evenodd" d="M560.609 278.972C567.844 278.972 574.282 279.789 580.948 282.288C586.703 284.444 591.947 287.299 597.039 290.407C604.2 294.778 609.842 299.866 613.79 306.607C616.149 310.634 617.88 316.332 616.296 320.725C614.429 325.898 609.305 330.212 602.556 329.301C598.383 328.738 594.558 326.337 591.386 324.078C587.591 321.375 584.554 318.125 582.046 314.515C577.955 308.627 575.551 301.97 572.075 295.817C570.426 292.897 568.833 289.956 566.857 287.181C565.88 285.806 564.839 284.445 563.355 283.424C562.561 282.878 559.215 281.932 560.495 280.705C541.732 280.919 525.111 293.441 521.509 308.941C521.174 310.385 520.911 311.842 520.634 313.295C520.46 314.213 520.53 317.598 519.586 318.184C517.504 319.478 518.379 315.548 518.468 314.983C518.699 313.521 518.946 312.06 519.204 310.601C520.611 302.669 524.675 295.294 531.452 289.637C539.202 283.168 549.659 278.972 560.609 278.972Z" fill="#89C5CC"/>
</g>
<g opacity="0.3">
<path fill-rule="evenodd" clip-rule="evenodd" d="M25.2903 181.081C40.2392 206.16 57.6499 230.443 68.1056 257.863C67.6842 254.631 67.2375 251.402 66.7374 248.178C64.0844 231.087 60.7872 214.122 57.3223 197.177C55.5578 188.549 53.6917 179.953 51.7776 171.357C50.7482 166.74 49.7314 162.121 48.6808 157.509C48.4263 156.391 48.2076 154.44 47.889 152.462C58.0503 185.806 67.8492 219.176 75.0168 253.321C75.9571 257.803 76.7578 262.276 77.4137 266.742C77.6381 265.723 77.8588 264.704 78.1003 263.688C81.0005 251.51 85.3508 239.428 90.5305 228.041C93.0068 222.595 95.8511 217.269 99.2 212.306C101.288 209.212 106.213 205.534 108.118 202.366C97.6996 221.475 93.9376 245.385 87.9218 266.16C86.4534 271.229 84.976 276.291 83.5283 281.361C92.6004 263.168 106.676 248.219 126.246 241.741C102.557 257.393 88.3485 284.804 78.7738 312.838C78.7422 313.17 78.7047 313.503 78.6723 313.836C81.4898 308.488 85.0388 303.652 89.8489 300.264C100.144 293.013 111.564 295.125 121.551 301.346C113.713 296.364 99.548 300.9 92.9533 305.964C88.2323 309.589 84.1976 314.452 80.694 319.196C79.8544 320.334 78.7091 321.66 77.4991 323.076C75.8026 334.088 73.038 345.025 69.124 355.875C69.7699 352.761 69.3029 347.78 69.482 345.459C69.5015 345.207 69.5173 344.956 69.5366 344.705C68.9417 347.081 68.3668 349.429 67.8134 351.74C68.9136 347.331 69.5115 342.728 69.9783 338.077C70.0985 336.079 70.2157 334.08 70.3396 332.082C70.3004 328.289 70.1441 324.481 69.8799 320.667C68.943 316.96 67.8941 313.464 67.029 310.556C63.9073 300.065 59.3311 290.014 53.6985 280.637C48.5594 272.08 42.4079 264.329 35.3064 257.319C31.478 253.542 27.4715 249.944 23.5213 246.296C22.0929 244.977 19.5398 241.735 17.3317 240.044C33.413 248.91 49.965 258.501 61.6963 272.786C60.3209 267.505 58.8271 262.298 57.2469 257.195C49.2301 231.308 39.1076 204.478 25.2903 181.081Z" fill="#C1DEE2"/>
<path fill-rule="evenodd" clip-rule="evenodd" d="M41.3569 323.041C41.3569 351.79 43.6336 375.096 74.1913 375.096C104.749 375.096 107.026 351.79 107.026 323.041" fill="#69A1AC"/>
</g>
<path fill-rule="evenodd" clip-rule="evenodd" d="M94.3461 147.113C101.887 147.113 104.629 138.072 108.913 133.11C111.978 129.561 117.209 130.619 118.757 125.65C122.651 113.153 112.23 104.358 98.6346 104.358C85.0394 104.358 75.8728 112.072 73.8935 123.667C71.9142 135.263 80.751 147.113 94.3461 147.113Z" fill="#191847"/>
<path fill-rule="evenodd" clip-rule="evenodd" d="M102.88 145.486C107.153 148.065 111.351 149.311 113.321 148.802C118.262 147.526 118.716 129.423 114.893 122.287C111.07 115.15 91.4156 112.039 90.425 126.179C90.0811 131.087 92.1388 135.467 95.1789 139.041L89.7278 164.486H105.562L102.88 145.486Z" fill="#B28B67"/>
<path fill-rule="evenodd" clip-rule="evenodd" d="M91.4543 116.251C79.3257 128.145 91.5006 140.786 94.8365 140.786C95.0518 139.07 95.7087 137.401 96.6711 135.812C96.16 135.149 95.857 134.324 95.857 133.431C95.857 131.241 97.6756 129.466 99.9189 129.466C100.62 129.466 101.279 129.64 101.854 129.944C106.717 125.791 112.815 122.896 115.843 122.327C121.11 121.337 103.583 104.358 91.4543 116.251Z" fill="#191847"/>
<path fill-rule="evenodd" clip-rule="evenodd" d="M84.4497 219.327L109.277 300.615L121.304 369.745H130.734L118.026 219.327H84.4497Z" fill="#997659"/>
<path fill-rule="evenodd" clip-rule="evenodd" d="M75.5677 219.327C77.2541 263.959 75.2695 286.98 74.8921 291.035C74.5146 295.09 69.3465 321.383 57.1115 371.106L67.1599 367.65C86.4962 322.046 93.0853 298.345 95.303 292.357C97.5207 286.368 103.411 262.025 112.973 219.327H75.5677Z" fill="#B28B67"/>
<path fill-rule="evenodd" clip-rule="evenodd" d="M59.6998 367.152C58.6149 366.709 57.3373 367.182 56.959 368.291C56.5305 369.548 56.0799 371.092 56.0799 372.029C56.0799 373.817 56.6745 377.246 56.6745 377.246C58.7447 377.246 93.8863 377.246 93.8863 377.246C93.8863 377.246 95.3368 372.443 92.2117 372.06C89.0865 371.677 87.0195 371.369 87.0195 371.369L70.0442 363.79C69.5294 363.56 68.9264 363.801 68.7118 364.322L67.7334 366.699C67.7334 366.699 64.8403 368.051 63.0316 368.051C62.1282 368.051 60.8015 367.602 59.6998 367.152Z" fill="#E4E4E4"/>
<path fill-rule="evenodd" clip-rule="evenodd" d="M121.718 367.152C120.633 366.709 119.355 367.182 118.977 368.291C118.548 369.548 118.098 371.092 118.098 372.029C118.098 373.817 118.692 377.246 118.692 377.246C120.763 377.246 155.904 377.246 155.904 377.246C155.904 377.246 157.355 372.443 154.229 372.06C151.104 371.677 149.037 371.369 149.037 371.369L132.062 363.79C131.547 363.56 130.944 363.801 130.73 364.322L129.751 366.699C129.751 366.699 126.858 368.051 125.049 368.051C124.146 368.051 122.819 367.602 121.718 367.152Z" fill="#E4E4E4"/>
<path fill-rule="evenodd" clip-rule="evenodd" d="M81.1509 219.327L91.7071 260.743H123.95L119.142 219.327H81.1509Z" fill="#69A1AC"/>
<path fill-rule="evenodd" clip-rule="evenodd" d="M75.213 219.327C70.003 234.968 73.2337 260.743 73.2337 260.743H106.136L115.184 219.327H75.213Z" fill="#89C5CC"/>
<path fill-rule="evenodd" clip-rule="evenodd" d="M161.228 227.096L142.538 208.836L136.331 219.593L155.765 231.069C160.639 238.756 163.501 242.078 164.352 241.034C165.069 240.153 164.74 239.188 164.437 238.299C164.201 237.607 163.981 236.961 164.284 236.436C164.974 235.239 168.876 235.925 172.551 236.734C176.226 237.543 175.376 235.735 174.595 234.791C171.122 231.984 166.666 229.419 161.228 227.096ZM51.0643 253.625C52.9977 249.697 59.5818 211.412 59.5818 211.412L73.3692 211.466C73.3692 211.466 60.5996 252.749 59.5818 255.275C58.2597 258.557 60.5055 263.324 62.0284 266.557C62.2639 267.057 62.4822 267.521 62.6673 267.936C60.5543 268.883 59.5393 267.739 58.4692 266.532C57.2606 265.169 55.9816 263.727 52.971 265.13C51.8079 265.672 50.7072 266.312 49.6318 266.938C45.9174 269.101 42.5051 271.087 37.8632 268.219C37.1272 267.764 36.3208 266.052 38.2693 264.713C43.1237 261.38 50.1191 255.546 51.0643 253.625Z" fill="#B28B67"/>
<path fill-rule="evenodd" clip-rule="evenodd" d="M98.7632 153.472L104.468 152.492C114.291 177.066 131.439 199.393 155.914 219.476L137.42 241.978C112.948 213.384 97.8628 183.882 98.7632 153.472Z" fill="#191847"/>
<path fill-rule="evenodd" clip-rule="evenodd" d="M73.8935 225.274H124.695C124.695 225.274 107.041 182.285 107.041 152.236L91.7165 149.949C79.6729 169.348 76.2718 193.231 73.8935 225.274Z" fill="#DDE3E9"/>
<path fill-rule="evenodd" clip-rule="evenodd" d="M50.8018 247.079C56.3576 184.305 91.3799 149.949 91.3799 149.949L91.392 149.96C91.394 149.956 91.3961 149.953 91.3981 149.949H92.3984C94.1938 150.011 97.8678 150.172 97.8678 150.172L101.571 160.77C102.158 180.152 108.433 238.889 108.433 238.889H75.18C75.2366 241.582 75.3618 244.314 75.5631 247.079H50.8018Z" fill="#2F3676"/>
<path fill-rule="evenodd" clip-rule="evenodd" d="M75.1856 239.15C74.9202 227.422 75.9591 216.41 77.6922 206.444C78.5987 218.269 80.4931 232.498 84.4497 239.15H75.1856Z" fill="black" fill-opacity="0.1"/>
<path fill-rule="evenodd" clip-rule="evenodd" d="M82.5436 218.667L98.9645 211.021V218.667H82.5436Z" fill="white" fill-opacity="0.2"/>
<path fill-rule="evenodd" clip-rule="evenodd" d="M282.52 190.595C278.242 193.15 274.038 194.385 272.065 193.881C267.117 192.617 266.662 174.684 270.491 167.614C274.319 160.545 294.001 157.463 294.993 171.471C295.337 176.332 293.277 180.671 290.232 184.211L295.691 209.417H279.835L282.52 190.595Z" fill="#915B3C"/>
<path fill-rule="evenodd" clip-rule="evenodd" d="M291.451 187.364C293.441 178.593 299.11 172.613 298.244 168.693C297.378 164.772 293.629 163.817 293.629 163.817C293.629 163.817 291.689 156.044 281.119 157.205C270.549 158.365 264.098 162.714 266.884 172.284C269.445 172.284 272.537 171.366 276.812 172.938C278.847 173.686 279.723 177.579 279.723 177.579H281.654C281.654 177.579 284.467 172.96 287.201 174.184C289.935 175.408 288.444 180.132 288.444 180.132L289.395 187.364H291.451Z" fill="#191847"/>
<path fill-rule="evenodd" clip-rule="evenodd" d="M286.284 174.879C286.284 174.879 268.9 147.671 267.888 144.164C267.393 142.45 268.422 134.899 269.536 130.098C269.983 128.17 268.53 127.579 267.824 127.718C262.08 128.852 262.109 133.773 260.28 138.196C258.276 143.043 254.391 138.193 252.758 141.986C255.341 143.101 260.553 144.803 261.737 147.993C262.526 150.12 277.791 182.68 277.791 182.68L286.284 174.879Z" fill="#B28B67"/>
<path fill-rule="evenodd" clip-rule="evenodd" d="M334.527 291.235C343.363 291.235 350.527 298.398 350.527 307.235V356.397C350.527 365.234 343.363 372.397 334.527 372.397H269.408C260.571 372.397 253.408 365.234 253.408 356.397V307.235C253.408 298.398 260.571 291.235 269.408 291.235H334.527ZM328.028 309.562C330.237 309.562 332.028 311.352 332.028 313.562V350.07C332.028 352.279 330.237 354.07 328.028 354.07H275.907C273.698 354.07 271.907 352.279 271.907 350.07V313.562C271.907 311.352 273.698 309.562 275.907 309.562H328.028Z" fill="#C5CFD6"/>
<path fill-rule="evenodd" clip-rule="evenodd" d="M187.897 369.125C200.922 353.366 209.736 341.684 214.337 334.077C222.216 321.052 228.664 309.462 230.699 305.035C235.551 294.478 219.528 289.535 215.901 294.459C210.412 301.912 198.69 325.364 180.734 364.816L187.897 369.125Z" fill="#B28B67"/>
<path fill-rule="evenodd" clip-rule="evenodd" d="M214.589 364.543L238.83 304.088C244.015 293.067 218.977 285.823 215.166 290.952C206.515 302.596 185.954 348.529 183.377 351.998L214.589 364.543Z" fill="#2F3676"/>
<path fill-rule="evenodd" clip-rule="evenodd" d="M279.152 352.419C274.43 345.595 257.254 322.636 247.899 313.136C245.21 310.406 242.587 307.786 240.106 305.345C232.732 298.088 218.046 310.285 225.407 316.896C243.739 333.357 270.486 355.58 272.72 357.562C275.852 360.339 282.12 356.708 279.152 352.419Z" fill="#915B3C"/>
<path fill-rule="evenodd" clip-rule="evenodd" d="M275.649 350.194C276.367 349.277 277.709 349.052 278.594 349.819C279.593 350.684 280.754 351.784 281.223 352.587C282.116 354.12 283.315 357.357 283.315 357.357C281.519 358.384 251.044 375.816 251.044 375.816C251.044 375.816 247.385 372.415 249.904 370.536C252.423 368.658 254.061 367.368 254.061 367.368L264.995 352.443C265.326 351.991 265.968 351.9 266.416 352.242L268.452 353.795C268.452 353.795 271.636 353.52 273.205 352.622C273.99 352.174 274.917 351.127 275.649 350.194Z" fill="#E4E4E4"/>
<path fill-rule="evenodd" clip-rule="evenodd" d="M190.999 366.32C192.079 365.883 193.348 366.353 193.728 367.454C194.157 368.699 194.608 370.229 194.608 371.158C194.608 372.928 194.013 376.325 194.013 376.325C191.94 376.325 156.75 376.325 156.75 376.325C156.75 376.325 155.297 371.567 158.427 371.188C161.556 370.809 163.626 370.503 163.626 370.503L180.632 362.992C181.144 362.766 181.743 363.005 181.959 363.523L182.939 365.877C182.939 365.877 185.836 367.217 187.647 367.217C188.556 367.217 189.893 366.767 190.999 366.32Z" fill="#E4E4E4"/>
<path fill-rule="evenodd" clip-rule="evenodd" d="M247.553 307.108C247.553 307.108 277.776 302.23 288.04 300.437C307.545 297.03 313.233 286.631 309.87 263.943L273.932 263.943C266.798 265.984 214.318 289.188 214.318 289.188C208.023 292.284 209.195 301.412 210.346 304.419C210.416 304.603 242.182 358.465 242.182 358.465L271.58 339.911L247.498 309.294C247.498 309.294 246.544 307.391 247.553 307.108Z" fill="#5C63AB"/>
<path fill-rule="evenodd" clip-rule="evenodd" d="M244.964 255.373L223.889 270.705C218.174 272.233 213.398 274.134 209.563 276.408C208.658 277.226 207.563 278.882 211.32 278.596C215.076 278.31 219.041 278.176 219.56 279.446C220.078 280.715 217.804 282.233 218.852 283.946C219.551 285.088 222.851 282.225 228.753 275.356L249.622 266.783L244.964 255.373Z" fill="#915B3C"/>
<path fill-rule="evenodd" clip-rule="evenodd" d="M286.643 198.507L280.93 197.536C259.734 215.677 251.027 250.528 225.046 268.99L231.299 276.669C276.373 271.14 287.545 228.631 286.643 198.507Z" fill="#E87613"/>
<path fill-rule="evenodd" clip-rule="evenodd" d="M311.547 269.635C311.547 269.635 277.187 269.635 260.998 269.635C258.688 269.635 259.124 266.33 259.457 264.663C263.311 245.419 278.354 224.675 278.354 197.282L292.935 195.017C304.995 214.233 309.165 237.892 311.547 269.635Z" fill="#DDE3E9"/>
<path fill-rule="evenodd" clip-rule="evenodd" d="M303.128 212.754C307.916 214.227 313.459 214.536 316.172 209.686C321.501 200.159 319.576 194.914 313.881 193.19C310.749 192.242 307.804 192.889 304.278 193.663C301.392 194.298 298.117 195.017 294.033 195.017C293.637 195.017 293.277 195.043 292.95 195.094L288.112 195.367C288.112 195.367 268.468 261.326 277.276 283.38H322.778C321.188 259.613 312.114 232.825 303.128 212.754Z" fill="#FF9B21"/>
<path fill-rule="evenodd" clip-rule="evenodd" d="M317.231 283.38C314.25 276.287 311.194 268.009 308.252 259.459C307.157 268.875 305.334 278.331 302.298 283.38H317.231Z" fill="black" fill-opacity="0.1"/>
<path fill-rule="evenodd" clip-rule="evenodd" d="M312.496 252.556C312.496 252.556 266.652 217.831 263.049 154.412L273.848 153.46C290.065 176.511 316.439 248.414 316.439 248.414L312.496 252.556Z" fill="#FF9B21"/>
<path fill-rule="evenodd" clip-rule="evenodd" d="M385.315 190.595C381.084 193.15 376.927 194.385 374.976 193.881C370.082 192.617 369.633 174.684 373.419 167.614C377.205 160.545 396.669 157.463 397.65 171.471C397.99 176.332 395.953 180.671 392.942 184.211L398.34 209.417H382.66L385.315 190.595Z" fill="#B28B67"/>
<path fill-rule="evenodd" clip-rule="evenodd" d="M392.46 168.181C383.411 168.246 377.115 167.864 373.512 166.872C373.677 163.8 376.865 160.327 385.273 160.327C394.628 160.327 399.647 165.789 399.647 172.108C399.647 177.882 395.937 184.913 393.113 185.199C392.382 185.039 391.757 184.156 391.136 182.939C392.299 182.372 393.113 181.036 393.113 179.308C393.113 177.647 391.651 176.036 389.847 176.036C389.188 176.036 388.576 176.25 388.063 176.603C386.877 174.69 385.392 173.262 383.313 173.417L384.62 169.49L392.46 168.836V168.181Z" fill="#191847"/>
<path fill-rule="evenodd" clip-rule="evenodd" d="M404.874 377.634C377.089 377.634 354.565 356.095 354.565 329.525C354.565 302.955 377.089 281.417 404.874 281.417C432.659 281.417 455.184 302.955 455.184 329.525C455.184 356.095 432.659 377.634 404.874 377.634Z" fill="#C5CFD6"/>
<path fill-rule="evenodd" clip-rule="evenodd" d="M326.658 326.959C324.228 335.487 318.174 351.65 309.803 370.211L301.848 367.886C308.807 325.174 314.599 296.897 317.917 288.29C320.109 282.604 336.693 283.27 334.785 294.712C333.985 299.51 330.819 312.358 326.658 326.959ZM359.356 296.707C372.328 299.4 399.226 308.918 406.907 311.96C411.734 313.871 408.623 320.354 404.505 319.787C403.807 319.69 401.34 319.414 397.658 319.001C385.834 317.676 361.483 314.947 343.014 312.284C333.289 310.882 338.52 292.634 348.618 294.565C352.015 295.215 355.628 295.934 359.356 296.707Z" fill="#B28B67"/>
<path fill-rule="evenodd" clip-rule="evenodd" d="M317.408 283.47C318.735 279.134 379.025 263.744 379.025 263.744H383.966V268.356L342.42 289.543C342.475 290.227 342.442 290.95 342.308 291.712C342.608 307.418 335.897 319.152 329.254 330.77C324.909 338.367 320.593 345.914 318.284 354.49L303.02 352.209C303.465 351.07 304.168 345.933 305.13 338.91C307.553 321.203 311.619 291.502 317.322 283.644C317.342 283.616 317.363 283.589 317.383 283.562C317.391 283.531 317.399 283.501 317.408 283.47Z" fill="#1F28CF"/>
<path fill-rule="evenodd" clip-rule="evenodd" d="M380.514 302.126C384.316 301.364 387.816 300.684 390.812 300.157C410.16 296.758 415.803 286.382 412.467 263.744H376.817C370.994 265.42 340.73 278.134 325.028 284.896C314.635 289.372 317.911 305.506 323.797 309.705C323.829 309.963 323.934 310.138 324.123 310.216C346.436 319.481 365.464 318.79 377.683 318.346C382.8 318.16 386.723 318.017 389.193 318.668L393.063 306.439L380.514 302.126Z" fill="#2B44FF"/>
<path fill-rule="evenodd" clip-rule="evenodd" d="M402.791 312.076C402.87 310.908 403.852 309.969 405.013 310.115C406.312 310.279 407.869 310.547 408.698 310.952C410.287 311.728 413.076 313.747 413.076 313.747C412.177 315.593 396.922 346.928 396.922 346.928C396.922 346.928 392.024 346.136 393.04 343.183C394.056 340.23 394.68 338.253 394.68 338.253L395.313 319.833C395.332 319.27 395.812 318.834 396.374 318.869L398.902 319.029C398.902 319.029 401.359 317.036 402.145 315.423C402.535 314.621 402.712 313.251 402.791 312.076Z" fill="#E4E4E4"/>
<path fill-rule="evenodd" clip-rule="evenodd" d="M311.104 366.334C312.19 365.892 313.467 366.365 313.845 367.474C314.267 368.715 314.709 370.234 314.709 371.158C314.709 372.928 314.12 376.325 314.12 376.325C312.07 376.325 277.269 376.325 277.269 376.325C277.269 376.325 275.832 371.567 278.927 371.188C282.022 370.809 284.069 370.503 284.069 370.503L300.871 362.999C301.385 362.769 301.989 363.01 302.203 363.532L303.168 365.877C303.168 365.877 306.033 367.217 307.825 367.217C308.714 367.217 310.017 366.777 311.104 366.334Z" fill="#E4E4E4"/>
<path fill-rule="evenodd" clip-rule="evenodd" d="M457.129 285.475C454.568 281.976 439.146 244.354 439.146 244.354L427.638 246.44C427.638 246.44 447.678 286.262 449.104 288.551C450.958 291.524 449.587 296.561 448.657 299.977C448.513 300.505 448.38 300.995 448.271 301.432C450.494 301.992 451.288 300.701 452.124 299.34C453.069 297.802 454.068 296.175 457.246 297.025C458.474 297.354 459.657 297.789 460.814 298.215C464.808 299.685 468.478 301.035 472.513 297.438C473.152 296.868 473.645 295.059 471.514 294.089C466.206 291.672 458.381 287.185 457.129 285.475ZM323.994 266.07L344.836 250.743L349.445 262.151L328.806 270.721C322.969 277.588 319.705 280.451 319.014 279.309C318.431 278.346 318.887 277.445 319.306 276.615C319.633 275.968 319.938 275.365 319.713 274.809C319.2 273.539 315.279 273.673 311.563 273.958C307.848 274.244 308.93 272.588 309.826 271.771C313.619 269.497 318.342 267.597 323.994 266.07Z" fill="#B28B67"/>
<path fill-rule="evenodd" clip-rule="evenodd" d="M382.484 196.346L389.472 199.218C389.399 201.046 389.406 203.647 389.415 206.627C389.442 215.98 389.479 229.064 387.068 233.708C378.713 249.795 361.557 258.174 342.448 267.506C339.886 268.757 337.29 270.025 334.675 271.331L329.416 260.578C330.021 260.148 330.621 259.716 331.215 259.282C330.393 258.99 329.708 258.337 329.408 257.445C328.89 255.904 329.717 254.233 331.255 253.713C334.379 252.659 337.292 252.214 339.971 252.405C359.559 235.874 372.743 216.52 382.484 196.346Z" fill="#69A1AC"/>
<path fill-rule="evenodd" clip-rule="evenodd" d="M414.021 269.575C414.021 269.575 383.21 272.966 365.518 269.575C364.056 269.295 364.12 262.985 364.798 261.261C375.351 234.421 382.293 214.774 382.293 196.131C385.198 197.651 392.46 196.587 392.46 196.587C405.471 215.798 411.452 237.841 414.021 269.575Z" fill="#191847"/>
<path fill-rule="evenodd" clip-rule="evenodd" d="M446.766 342.943C430.846 336.572 414.669 338.675 400.097 340.569C389.999 341.882 380.672 343.094 372.734 341.319C366.279 308.068 375.235 271.321 382.572 241.217L382.572 241.217C387.159 222.394 391.114 206.168 390.272 195.017H396.686L397.703 195.017C397.703 195.017 434.941 217.913 453.098 269.9C454.52 270.163 455.868 270.622 457.14 271.282C458.342 271.906 456.659 275.651 455.23 276.439C455.746 278.138 456.24 279.865 456.712 281.622L444.372 285.259C435.434 261.658 424.841 248.041 416.09 240.232C416.035 242.853 415.76 245.491 415.483 248.145L415.483 248.145C414.98 252.98 414.47 257.869 415.268 262.817C415.424 263.785 415.613 264.76 415.833 265.742C417.087 265.891 418.149 266.843 418.379 268.151L418.721 270.095C418.9 271.109 418.536 272.093 417.838 272.749C420.879 281.62 425.763 290.897 430.662 300.201C438.39 314.879 446.153 329.623 446.766 342.943Z" fill="#89C5CC"/>
<path fill-rule="evenodd" clip-rule="evenodd" d="M395.004 195.672L398.375 206.056L391.587 213.841L397.722 219.959L382.88 245.417L401.03 220.01L395.004 213.841L401.03 206.961L395.004 195.672Z" fill="black" fill-opacity="0.1"/>
<path fill-rule="evenodd" clip-rule="evenodd" d="M387.233 255.235C385.79 255.235 384.62 254.062 384.62 252.616C384.62 251.17 385.79 249.998 387.233 249.998C388.677 249.998 389.847 251.17 389.847 252.616C389.847 254.062 388.677 255.235 387.233 255.235ZM383.966 270.289C382.523 270.289 381.353 269.117 381.353 267.671C381.353 266.225 382.523 265.053 383.966 265.053C385.41 265.053 386.58 266.225 386.58 267.671C386.58 269.117 385.41 270.289 383.966 270.289ZM380.699 282.725C380.699 284.171 381.87 285.343 383.313 285.343C384.756 285.343 385.926 284.171 385.926 282.725C385.926 281.279 384.756 280.107 383.313 280.107C381.87 280.107 380.699 281.279 380.699 282.725Z" fill="black" fill-opacity="0.4"/>
<path fill-rule="evenodd" clip-rule="evenodd" d="M501.458 190.595C497.18 193.15 492.976 194.385 491.003 193.881C486.055 192.617 485.6 174.684 489.429 167.614C493.257 160.545 512.939 157.463 513.931 171.471C514.275 176.332 512.214 180.671 509.17 184.211L514.629 209.417H498.773L501.458 190.595Z" fill="#B28B67"/>
<path fill-rule="evenodd" clip-rule="evenodd" d="M493.002 162.952C493.365 162.738 494.125 162.285 494.51 162.12C494.601 162.081 495.239 161.63 495.256 161.636C495.739 161.797 497.137 162.393 497.257 162.908C497.276 162.947 497.294 162.984 497.312 163.016C497.51 163.373 497.692 163.738 497.865 164.109C498.246 164.921 498.574 165.77 498.888 166.613C499.499 168.254 500.03 169.933 500.518 171.617C501.015 173.33 501.437 175.063 501.909 176.784C502.589 179.26 503.459 181.674 504.133 184.149C504.564 185.729 504.804 187.328 504.691 188.954C504.69 188.974 504.689 188.993 504.687 189.013C504.687 189.021 504.686 189.029 504.685 189.037C504.666 189.287 504.638 189.538 504.602 189.789C504.57 190.004 504.538 190.22 504.503 190.435C503.887 189.218 503.416 187.876 502.917 186.603C502.868 186.478 502.821 186.352 502.776 186.226C502.615 185.968 502.451 185.712 502.285 185.456C501.238 183.845 500.187 182.24 499.183 180.6C497.377 177.651 495.588 174.639 493.447 171.93C492.815 171.13 492.168 170.343 491.544 169.537C491.188 169.078 490.842 168.611 490.508 168.136C490.268 167.797 489.228 166.613 489.605 165.902C489.797 165.538 492.06 163.51 493.002 162.952Z" fill="#2C2C2C"/>
<path fill-rule="evenodd" clip-rule="evenodd" d="M494.395 162.18C494.042 162.297 494.214 161.569 494.556 161.313C496.141 160.126 502.2 159.695 507.473 160.78C511.005 161.506 515.113 163.314 517.934 165.639C520.478 167.734 522.227 171.093 523.127 174.339C524.073 177.747 524.216 181.3 523.689 184.794C523.574 185.562 523.325 186.293 523.186 187.045C523.03 187.891 522.95 188.706 522.672 189.529C522.502 190.033 522.212 190.527 522.067 191.034C521.901 191.612 522.002 192.147 522.123 192.735C522.32 193.694 522.565 194.651 522.912 195.566C523.434 196.942 524.067 198.229 524.464 199.656C524.992 201.555 527.201 207.733 525.587 209.417H494.853C495.627 207.326 497.95 204.864 498.421 202.626C498.697 201.307 498.829 198.427 498.858 198.322C499.551 193.592 500.903 191.333 501.75 190.514C502.597 189.694 503.725 189.442 503.783 188.731C504.024 185.79 502.843 182.972 501.978 180.227C500.946 176.956 500.19 173.604 499.127 170.344C498.656 168.9 496.229 161.569 494.395 162.18Z" fill="#8991DC"/>
<path fill-rule="evenodd" clip-rule="evenodd" d="M506.33 176.129C506.579 171.151 506.33 169.206 505.171 165.563H505.885C507.015 167.009 507.96 171.431 506.898 176.129H506.33ZM520.334 175.894C520.459 175.592 520.587 175.283 520.719 174.965L521.173 175.182C519.74 180.376 517.996 184.386 512.009 187.747L511.543 187.424C517.206 183.48 518.42 180.536 520.334 175.894ZM511.845 169.682C511.785 170.132 511.728 170.571 511.672 170.999C510.811 177.58 510.265 181.753 505.468 189.321L506.011 189.486C511.271 182.467 512.104 176.739 512.353 169.722L511.845 169.682ZM517.025 191.012L517.49 191.572C515.16 192.055 513.576 193.753 511.76 195.699C509.838 197.759 507.657 200.096 504.058 201.567L503.39 201.166C507.318 199.143 509.145 197.132 510.741 195.376C512.393 193.558 513.796 192.014 517.025 191.012Z" fill="black" fill-opacity="0.2"/>
<path fill-rule="evenodd" clip-rule="evenodd" d="M543.287 291.235H492.247L485.559 372.397H561.536L543.287 291.235Z" fill="#C5CFD6"/>
<path fill-rule="evenodd" clip-rule="evenodd" d="M543.287 291.235H527.589L518.194 372.397H561.536L543.287 291.235Z" fill="black" fill-opacity="0.1"/>
<path fill-rule="evenodd" clip-rule="evenodd" d="M464.204 307.314C469.94 319.365 478.902 348.619 478.902 348.619L471.293 352.063C471.293 352.063 451.988 321.312 440.189 300.291C440.739 305.023 441.299 310.351 441.818 315.952C443.047 329.219 441.819 357.884 441.157 366.164C440.742 371.368 433.604 370.278 432.938 366.151C432.825 365.452 432.365 362.998 431.679 359.336C428.314 341.38 419.508 294.388 419.492 282.882C419.486 278.252 428.616 274.092 434.058 277.33C437.796 273.378 444.87 271.101 448.934 277.628C451.518 281.777 457.657 293.558 464.204 307.314Z" fill="#B28B67"/>
<path fill-rule="evenodd" clip-rule="evenodd" d="M478.358 337.789L452.243 276.499C445.987 266.529 428.447 278.528 430.58 284.311C435.424 297.439 460.058 339.942 461.501 343.853L478.358 337.789Z" fill="#1F28CF"/>
<path fill-rule="evenodd" clip-rule="evenodd" d="M477.409 345.612C478.127 344.695 479.469 344.47 480.354 345.237C481.354 346.102 482.515 347.202 482.983 348.005C483.877 349.539 485.075 352.775 485.075 352.775C483.28 353.802 452.804 371.234 452.804 371.234C452.804 371.234 449.146 367.833 451.664 365.955C454.183 364.076 455.821 362.786 455.821 362.786L466.755 347.861C467.086 347.409 467.728 347.319 468.177 347.66L470.212 349.213C470.212 349.213 473.397 348.938 474.965 348.041C475.75 347.592 476.678 346.546 477.409 345.612Z" fill="#E4E4E4"/>
<path fill-rule="evenodd" clip-rule="evenodd" d="M440.328 362.392C441.408 361.955 442.677 362.425 443.057 363.527C443.486 364.772 443.937 366.301 443.937 367.23C443.937 369.001 443.342 372.397 443.342 372.397C441.268 372.397 406.078 372.397 406.078 372.397C406.078 372.397 404.626 367.64 407.755 367.261C410.885 366.881 412.955 366.576 412.955 366.576L429.96 359.065C430.473 358.838 431.072 359.078 431.288 359.596L432.267 361.95C432.267 361.95 435.164 363.289 436.976 363.289C437.885 363.289 439.221 362.84 440.328 362.392Z" fill="#E4E4E4"/>
<path fill-rule="evenodd" clip-rule="evenodd" d="M417.662 287.591C417.662 304.98 425.997 345.542 426.003 349.371L443.937 349.384C443.937 349.384 439.999 295.095 441.145 294.51C442.29 293.925 488.086 299.04 501.821 299.04C521.627 299.04 529.82 286.666 530.485 263.744H491.25C483.262 264.591 441.592 272.917 426.117 275.78C419.492 277.005 417.662 282.8 417.662 287.591Z" fill="#2B44FF"/>
<path fill-rule="evenodd" clip-rule="evenodd" d="M561.274 293.138C559.337 289.247 549.664 239.166 549.664 239.166L535.197 239.219C535.197 239.219 551.725 292.27 552.744 294.773C554.068 298.023 551.819 302.746 550.294 305.948C550.059 306.444 549.84 306.903 549.655 307.315C551.77 308.253 552.787 307.119 553.858 305.923C555.069 304.573 556.349 303.145 559.364 304.534C560.529 305.071 561.631 305.706 562.708 306.326C566.428 308.468 569.845 310.436 574.493 307.594C575.23 307.144 576.037 305.448 574.086 304.122C569.225 300.82 562.22 295.04 561.274 293.138ZM439.43 273.624L458.146 255.536L464.362 266.192L444.9 277.559C440.021 285.175 437.155 288.466 436.302 287.431C435.584 286.559 435.913 285.603 436.217 284.722C436.453 284.036 436.673 283.396 436.371 282.877C435.679 281.691 431.772 282.37 428.091 283.171C424.411 283.973 425.263 282.182 426.045 281.247C429.523 278.466 433.985 275.925 439.43 273.624Z" fill="#B28B67"/>
<path fill-rule="evenodd" clip-rule="evenodd" d="M505.581 198.507L499.868 197.536C490.868 229.054 444.629 250.537 441.79 262.319C440.749 266.64 443.888 268.824 442.267 270.14L449.692 275.526C450.95 274.072 453.633 276.731 459.237 274.871C464.841 273.011 505.581 235.826 505.581 198.507Z" fill="#DB2721"/>
<path fill-rule="evenodd" clip-rule="evenodd" d="M514.387 192.021C516.591 191.868 518.504 193.531 518.66 195.735L518.833 198.19C529.584 206.387 556.232 230.881 563.176 276.479C563.905 281.269 562.586 283.834 561.532 285.884C560.811 287.287 560.214 288.448 560.482 289.914L550.763 292.572C550.763 291.489 549.539 290.665 547.958 289.602C545.661 288.057 542.612 286.006 541.484 281.919C540.416 278.044 538.851 273.205 536.981 267.821C536.805 274.951 535.44 281.508 532.467 286.939C525.049 300.489 482.184 285.629 477.706 271.807C475.316 264.43 478.707 258.238 483.192 250.048C488.884 239.652 496.339 226.037 495.971 202.698L495.592 197.333C495.437 195.129 497.097 193.219 499.301 193.066L514.387 192.021Z" fill="#FF4133"/>
<path fill-rule="evenodd" clip-rule="evenodd" d="M329.361 77.4445C350.746 77.4445 368.083 60.108 368.083 38.7223C368.083 17.3365 350.746 0 329.361 0C307.975 0 290.638 17.3365 290.638 38.7223C290.638 60.108 307.975 77.4445 329.361 77.4445Z" fill="#F2F2F2"/>
<path fill-rule="evenodd" clip-rule="evenodd" d="M329.361 10.2284C330.571 10.2284 331.552 9.24706 331.552 8.03655C331.552 6.82604 330.571 5.84473 329.361 5.84473C328.15 5.84473 327.169 6.82604 327.169 8.03655C327.169 9.24706 328.15 10.2284 329.361 10.2284Z" fill="black" fill-opacity="0.1"/>
<path fill-rule="evenodd" clip-rule="evenodd" d="M298.675 40.9137C299.886 40.9137 300.867 39.9324 300.867 38.7219C300.867 37.5113 299.886 36.53 298.675 36.53C297.465 36.53 296.483 37.5113 296.483 38.7219C296.483 39.9324 297.465 40.9137 298.675 40.9137Z" fill="black" fill-opacity="0.1"/>
<path fill-rule="evenodd" clip-rule="evenodd" d="M360.046 40.9137C361.257 40.9137 362.238 39.9324 362.238 38.7219C362.238 37.5113 361.257 36.53 360.046 36.53C358.836 36.53 357.855 37.5113 357.855 38.7219C357.855 39.9324 358.836 40.9137 360.046 40.9137Z" fill="black" fill-opacity="0.1"/>
<path fill-rule="evenodd" clip-rule="evenodd" d="M329.361 71.5995C330.571 71.5995 331.552 70.6182 331.552 69.4076C331.552 68.1971 330.571 67.2158 329.361 67.2158C328.15 67.2158 327.169 68.1971 327.169 69.4076C327.169 70.6182 328.15 71.5995 329.361 71.5995Z" fill="black" fill-opacity="0.1"/>
<path fill-rule="evenodd" clip-rule="evenodd" d="M329.361 12.4197L330.822 37.991H327.899L329.361 12.4197Z" fill="#AFB9C5"/>
<path fill-rule="evenodd" clip-rule="evenodd" d="M342.291 51.6529L328.859 40.2873L330.926 38.2208L342.291 51.6529Z" fill="#AFB9C5"/>
<path fill-rule="evenodd" clip-rule="evenodd" d="M329.361 41.6447C330.975 41.6447 332.283 40.3363 332.283 38.7222C332.283 37.1082 330.975 35.7998 329.361 35.7998C327.747 35.7998 326.438 37.1082 326.438 38.7222C326.438 40.3363 327.747 41.6447 329.361 41.6447Z" fill="#C5CFD6"/>
</svg>
