<svg viewBox="0 0 431 155" fill="none" xmlns="http://www.w3.org/2000/svg">
<path d="M116.997 102.953C114.309 101.555 111.675 100.856 109.095 100.856C107.751 100.856 106.649 101.125 105.789 101.662C104.982 102.2 104.579 102.926 104.579 103.84C104.579 104.323 104.633 104.727 104.74 105.049C104.902 105.318 105.197 105.587 105.627 105.856C106.111 106.124 106.783 106.366 107.643 106.581C108.557 106.796 109.74 107.065 111.191 107.388C115.223 108.194 118.234 109.646 120.223 111.742C122.212 113.785 123.206 116.419 123.206 119.645C123.206 122.064 122.722 124.241 121.755 126.176C120.787 128.112 119.443 129.751 117.723 131.095C116.003 132.385 113.933 133.38 111.514 134.079C109.095 134.831 106.434 135.208 103.531 135.208C97.9398 135.208 92.4296 133.622 87 130.45L92.3221 120.128C96.4077 122.924 100.278 124.322 103.934 124.322C105.278 124.322 106.38 124.026 107.24 123.435C108.1 122.843 108.53 122.091 108.53 121.177C108.53 120.639 108.45 120.209 108.288 119.886C108.181 119.51 107.912 119.188 107.482 118.919C107.052 118.596 106.407 118.328 105.547 118.112C104.74 117.844 103.665 117.575 102.321 117.306C97.8054 116.392 94.6337 115.048 92.8059 113.274C91.0319 111.446 90.1448 108.947 90.1448 105.775C90.1448 103.463 90.5749 101.394 91.4351 99.5659C92.2952 97.6843 93.5316 96.0984 95.1444 94.8082C96.7571 93.518 98.6924 92.5235 100.95 91.8247C103.262 91.1258 105.815 90.7764 108.611 90.7764C113.18 90.7764 117.615 91.6634 121.916 93.4374L116.997 102.953Z" fill="white"/>
<path d="M141.978 92.3085V133.676H127.382V92.3085H141.978ZM126.415 76.4229C126.415 75.294 126.63 74.2457 127.06 73.278C127.49 72.2566 128.081 71.3696 128.834 70.617C129.586 69.8644 130.447 69.273 131.414 68.843C132.436 68.4129 133.511 68.1979 134.64 68.1979C135.769 68.1979 136.817 68.4129 137.785 68.843C138.806 69.273 139.693 69.8644 140.446 70.617C141.198 71.3696 141.79 72.2566 142.22 73.278C142.65 74.2457 142.865 75.294 142.865 76.4229C142.865 77.5518 142.65 78.627 142.22 79.6484C141.79 80.616 141.198 81.4762 140.446 82.2288C139.693 82.9814 138.806 83.5728 137.785 84.0028C136.817 84.4329 135.769 84.6479 134.64 84.6479C133.511 84.6479 132.436 84.4329 131.414 84.0028C130.447 83.5728 129.586 82.9814 128.834 82.2288C128.081 81.4762 127.49 80.616 127.06 79.6484C126.63 78.627 126.415 77.5518 126.415 76.4229Z" fill="white"/>
<path d="M162.273 112.79C162.273 114.134 162.515 115.398 162.999 116.58C163.483 117.709 164.128 118.704 164.934 119.564C165.794 120.424 166.789 121.096 167.918 121.58C169.1 122.064 170.364 122.306 171.708 122.306C172.998 122.306 174.208 122.064 175.336 121.58C176.519 121.096 177.514 120.424 178.32 119.564C179.18 118.704 179.852 117.709 180.336 116.58C180.874 115.398 181.142 114.161 181.142 112.871C181.142 111.527 180.874 110.291 180.336 109.162C179.852 108.033 179.18 107.038 178.32 106.178C177.46 105.318 176.438 104.646 175.256 104.162C174.127 103.678 172.944 103.436 171.708 103.436C170.418 103.436 169.208 103.705 168.079 104.243C166.95 104.727 165.956 105.399 165.095 106.259C164.235 107.065 163.536 108.033 162.999 109.162C162.515 110.291 162.273 111.5 162.273 112.79ZM195.012 92.3085V130.853C195.012 133.165 194.878 135.234 194.609 137.062C194.34 138.89 193.964 140.503 193.48 141.901C192.835 143.675 191.813 145.314 190.416 146.819C189.072 148.378 187.432 149.722 185.497 150.851C183.561 151.98 181.357 152.867 178.884 153.512C176.465 154.157 173.831 154.48 170.982 154.48C167.757 154.48 164.8 154.077 162.112 153.27C159.424 152.464 157.059 151.335 155.016 149.884C153.027 148.486 151.387 146.819 150.097 144.884C148.807 143.003 147.947 140.933 147.517 138.675H163.967C164.988 141.417 167.3 142.788 170.901 142.788C173.966 142.788 176.304 141.927 177.917 140.207C179.583 138.487 180.417 136.095 180.417 133.03V129.079C179.341 130.101 178.293 130.961 177.272 131.66C176.304 132.305 175.31 132.842 174.288 133.272C173.267 133.702 172.192 133.998 171.063 134.159C169.934 134.374 168.697 134.482 167.353 134.482C164.397 134.482 161.682 133.971 159.209 132.95C156.736 131.928 154.586 130.504 152.758 128.676C150.984 126.848 149.586 124.671 148.565 122.144C147.597 119.564 147.113 116.715 147.113 113.597C147.113 110.425 147.651 107.495 148.726 104.807C149.801 102.066 151.253 99.7003 153.08 97.7112C154.962 95.6684 157.166 94.0825 159.693 92.9536C162.273 91.7709 165.069 91.1796 168.079 91.1796C172.971 91.1796 177.084 93.0073 180.417 96.6629V92.3085H195.012Z" fill="white"/>
<path d="M201.726 92.3085H216.322V97.5499C218.311 95.1308 220.327 93.518 222.37 92.7117C224.412 91.8515 226.805 91.4215 229.546 91.4215C232.449 91.4215 234.922 91.9053 236.965 92.8729C239.062 93.7868 240.836 95.1039 242.287 96.8242C243.47 98.2219 244.276 99.7809 244.706 101.501C245.136 103.221 245.351 105.184 245.351 107.388V133.676H230.756V112.79C230.756 110.748 230.595 109.108 230.272 107.872C230.003 106.581 229.493 105.56 228.74 104.807C228.095 104.162 227.369 103.705 226.563 103.436C225.756 103.168 224.896 103.033 223.982 103.033C221.509 103.033 219.601 103.786 218.257 105.291C216.967 106.743 216.322 108.839 216.322 111.581V133.676H201.726V92.3085Z" fill="white"/>
<path d="M279.466 102.953C276.778 101.555 274.144 100.856 271.563 100.856C270.219 100.856 269.117 101.125 268.257 101.662C267.451 102.2 267.048 102.926 267.048 103.84C267.048 104.323 267.101 104.727 267.209 105.049C267.37 105.318 267.666 105.587 268.096 105.856C268.58 106.124 269.252 106.366 270.112 106.581C271.026 106.796 272.209 107.065 273.66 107.388C277.692 108.194 280.702 109.646 282.691 111.742C284.68 113.785 285.675 116.419 285.675 119.645C285.675 122.064 285.191 124.241 284.224 126.176C283.256 128.112 281.912 129.751 280.192 131.095C278.471 132.385 276.402 133.38 273.983 134.079C271.563 134.831 268.902 135.208 265.999 135.208C260.409 135.208 254.898 133.622 249.469 130.45L254.791 120.128C258.876 122.924 262.747 124.322 266.403 124.322C267.747 124.322 268.849 124.026 269.709 123.435C270.569 122.843 270.999 122.091 270.999 121.177C270.999 120.639 270.918 120.209 270.757 119.886C270.65 119.51 270.381 119.188 269.951 118.919C269.521 118.596 268.876 118.328 268.015 118.112C267.209 117.844 266.134 117.575 264.79 117.306C260.274 116.392 257.102 115.048 255.275 113.274C253.501 111.446 252.614 108.947 252.614 105.775C252.614 103.463 253.044 101.394 253.904 99.5659C254.764 97.6843 256 96.0984 257.613 94.8082C259.226 93.518 261.161 92.5235 263.419 91.8247C265.731 91.1258 268.284 90.7764 271.08 90.7764C275.649 90.7764 280.084 91.6634 284.385 93.4374L279.466 102.953Z" fill="white"/>
<path d="M1 1H15.5954V31.8035C17.5844 29.3844 19.6004 27.7716 21.6432 26.9653C23.686 26.1051 26.0783 25.6751 28.8199 25.6751C34.0345 25.6751 37.9588 27.1265 40.593 30.0295C43.2809 32.8787 44.6249 36.7493 44.6249 41.6413V67.9291H30.0295V47.044C30.0295 44.9474 29.8682 43.254 29.5457 41.9638C29.2231 40.6736 28.6855 39.6791 27.9329 38.9803C26.6427 37.8513 25.0837 37.2869 23.2559 37.2869C20.7831 37.2869 18.8746 38.0395 17.5307 39.5447C16.2405 40.9962 15.5954 43.0928 15.5954 45.8344V67.9291H1V1Z" fill="white"/>
<path d="M64.8699 47.1246C64.8699 48.4686 65.1118 49.7319 65.5956 50.9146C66.0795 52.0435 66.7246 53.0381 67.531 53.8982C68.3911 54.7583 69.3856 55.4303 70.5145 55.9141C71.6972 56.398 72.9605 56.6399 74.3045 56.6399C75.5947 56.6399 76.8043 56.398 77.9332 55.9141C79.1159 55.4303 80.1104 54.7583 80.9168 53.8982C81.7769 53.0381 82.4489 52.0435 82.9327 50.9146C83.4703 49.7857 83.7391 48.5761 83.7391 47.2859C83.7391 45.9957 83.4703 44.7862 82.9327 43.6572C82.4489 42.4745 81.7769 41.4531 80.9168 40.593C80.1104 39.7329 79.1159 39.0609 77.9332 38.5771C76.8043 38.0932 75.5947 37.8513 74.3045 37.8513C72.9605 37.8513 71.6972 38.0932 70.5145 38.5771C69.3856 39.0609 68.3911 39.7329 67.531 40.593C66.7246 41.4531 66.0795 42.4477 65.5956 43.5766C65.1118 44.6518 64.8699 45.8344 64.8699 47.1246ZM83.2553 26.5621H97.9313V67.9291H83.2553V63.3328C80.1373 67.2571 75.9172 69.2193 70.5952 69.2193C67.5847 69.2193 64.8162 68.6817 62.2895 67.6066C59.7629 66.4776 57.5588 64.9186 55.6772 62.9296C53.7957 60.9405 52.3173 58.602 51.2422 55.9141C50.2208 53.2262 49.7101 50.2964 49.7101 47.1246C49.7101 44.1679 50.2208 41.3725 51.2422 38.7383C52.2636 36.0504 53.6882 33.7119 55.516 31.7229C57.3438 29.7338 59.521 28.1748 62.0476 27.0459C64.5742 25.8632 67.3697 25.2719 70.4339 25.2719C75.5947 25.2719 79.8685 27.0728 83.2553 30.6746V26.5621Z" fill="white"/>
<path d="M104.638 26.5621H119.233V33.3356C120.792 30.8627 122.701 28.9812 124.959 27.691C127.217 26.347 129.851 25.6751 132.861 25.6751C133.237 25.6751 133.641 25.6751 134.071 25.6751C134.555 25.6751 135.092 25.7288 135.683 25.8363V39.7866C133.748 38.819 131.652 38.3352 129.394 38.3352C126.007 38.3352 123.453 39.3566 121.733 41.3994C120.067 43.3884 119.233 46.3183 119.233 50.1889V67.9291H104.638V26.5621Z" fill="white"/>
<path d="M152.784 26.5621L162.703 48.3342L173.024 26.5621H182.217L192.539 48.9793L202.941 26.5621H219.149L197.538 67.9291H187.781L177.459 45.27L167.622 67.9291H157.703L136.496 26.5621H152.784Z" fill="white"/>
<path d="M235.55 26.5621V67.9291H220.954V26.5621H235.55ZM219.987 10.6765C219.987 9.54757 220.202 8.49929 220.632 7.53164C221.062 6.51023 221.653 5.62322 222.406 4.8706C223.159 4.11798 224.019 3.52664 224.986 3.09658C226.008 2.66651 227.083 2.45147 228.212 2.45147C229.341 2.45147 230.389 2.66651 231.357 3.09658C232.378 3.52664 233.265 4.11798 234.018 4.8706C234.77 5.62322 235.362 6.51023 235.792 7.53164C236.222 8.49929 236.437 9.54757 236.437 10.6765C236.437 11.8054 236.222 12.8806 235.792 13.902C235.362 14.8696 234.77 15.7298 234.018 16.4824C233.265 17.235 232.378 17.8264 231.357 18.2564C230.389 18.6865 229.341 18.9015 228.212 18.9015C227.083 18.9015 226.008 18.6865 224.986 18.2564C224.019 17.8264 223.159 17.235 222.406 16.4824C221.653 15.7298 221.062 14.8696 220.632 13.902C220.202 12.8806 219.987 11.8054 219.987 10.6765Z" fill="white"/>
<path d="M242.298 26.5621H256.894V31.8035C258.883 29.3844 260.899 27.7716 262.941 26.9653C264.984 26.1051 267.376 25.6751 270.118 25.6751C273.021 25.6751 275.494 26.1589 277.537 27.1265C279.633 28.0404 281.407 29.3575 282.859 31.0778C284.042 32.4755 284.848 34.0345 285.278 35.7548C285.708 37.475 285.923 39.4372 285.923 41.6413V67.9291H271.328V47.044C271.328 45.0012 271.166 43.3616 270.844 42.1251C270.575 40.8349 270.064 39.8135 269.312 39.0609C268.667 38.4158 267.941 37.9588 267.135 37.69C266.328 37.4213 265.468 37.2869 264.554 37.2869C262.081 37.2869 260.173 38.0395 258.829 39.5447C257.539 40.9962 256.894 43.0928 256.894 45.8344V67.9291H242.298V26.5621Z" fill="white"/>
<g class="storefront">
  <path fill-rule="evenodd" clip-rule="evenodd" d="M424 7.47998H312V61.48H424V7.47998Z" fill="white"/>
  <path fill-rule="evenodd" clip-rule="evenodd" d="M312 7.47998H424V61.48H312V7.47998Z" fill="white"/>
  <path fill-rule="evenodd" clip-rule="evenodd" d="M312 7.47998H424V61.48H312V7.47998Z" fill="white"/>
  <path fill-rule="evenodd" clip-rule="evenodd" d="M312 7.47998H424V61.48H312V7.47998Z" fill="white"/>
  <path fill-rule="evenodd" clip-rule="evenodd" d="M325.984 135H338.128H362.6H375.744V121.826V101.186H394.704V135H410.016L410.013 101.186H418C419.105 101.186 420 100.291 420 99.1864V96.5887L419.864 96.3559L412.657 84C412.657 82.3993 411.613 77 410.013 77H371V68.48H431V0.47998H305V68.48H365V77H325.987C324.387 77 323.343 82.3993 323.343 84L316.136 96.3559L316 96.5887V99.1864C316 100.291 316.895 101.186 318 101.186H325.987L325.984 135ZM312 7.47998H424V61.48H312V7.47998ZM338.128 121.826V106H362.6V121.826H338.128Z" fill="white"/>
  <path class="inlay" d="M424 7.47998H312V61.48H424V7.47998Z" fill="#FF6746"/>
</g>
</svg>
