<svg width="398" height="142" fill="none" viewBox="0 0 398 142" xmlns="http://www.w3.org/2000/svg">
  <path
    d="M108.369 94.327c-2.482-1.293-4.915-1.94-7.298-1.94-1.24 0-2.258.249-3.053.746-.744.497-1.117 1.169-1.117 2.014 0 .448.05.821.15 1.12.148.248.421.497.818.746.447.248 1.068.472 1.862.671.844.199 1.936.448 3.276.746 3.724.746 6.503 2.089 8.34 4.029 1.837 1.89 2.755 4.327 2.755 7.311 0 2.238-.446 4.253-1.34 6.043a13.189 13.189 0 01-3.723 4.551c-1.589 1.194-3.5 2.114-5.734 2.761-2.234.696-4.691 1.044-7.372 1.044-5.162 0-10.25-1.467-15.265-4.402l4.915-9.549c3.773 2.586 7.347 3.879 10.723 3.879 1.24 0 2.258-.273 3.053-.82.794-.547 1.191-1.244 1.191-2.089 0-.498-.074-.896-.223-1.194-.1-.348-.348-.647-.745-.895-.397-.299-.993-.547-1.787-.746-.745-.249-1.738-.498-2.979-.746-4.17-.846-7.099-2.089-8.786-3.731-1.639-1.691-2.458-4.004-2.458-6.938 0-2.139.398-4.054 1.192-5.745a11.89 11.89 0 013.425-4.401c1.49-1.194 3.277-2.114 5.362-2.76 2.134-.647 4.492-.97 7.074-.97 4.219 0 8.315.82 12.286 2.461l-4.542 8.804zm23.068-9.848v38.273h-13.478V84.479h13.478zM117.065 69.78c0-1.044.199-2.014.596-2.91a7.626 7.626 0 011.638-2.461 7.847 7.847 0 012.383-1.641 7.584 7.584 0 012.978-.597 7.06 7.06 0 012.905.597 7.612 7.612 0 012.457 1.64 7.626 7.626 0 011.638 2.463c.397.895.596 1.865.596 2.91a7.628 7.628 0 01-.596 2.984 7.866 7.866 0 01-1.638 2.387 7.612 7.612 0 01-2.457 1.641 7.061 7.061 0 01-2.905.597 7.584 7.584 0 01-2.978-.597 7.848 7.848 0 01-2.383-1.641 7.866 7.866 0 01-1.638-2.387 7.628 7.628 0 01-.596-2.985zm33.113 33.649c0 1.243.224 2.412.67 3.506a9.445 9.445 0 001.787 2.761 8.737 8.737 0 002.756 1.865 9.145 9.145 0 003.499.671 8.41 8.41 0 003.351-.671c1.092-.448 2.011-1.07 2.755-1.865a8.723 8.723 0 001.862-2.761 8.221 8.221 0 00.745-3.432c0-1.243-.249-2.387-.745-3.432a8.726 8.726 0 00-1.862-2.76 8.5 8.5 0 00-2.829-1.865 8.222 8.222 0 00-3.277-.672 7.686 7.686 0 00-3.351.746 8.724 8.724 0 00-2.755 1.866 8.875 8.875 0 00-1.936 2.685 8.464 8.464 0 00-.67 3.358zm30.232-18.95v35.661c0 2.139-.124 4.054-.372 5.745-.248 1.691-.596 3.183-1.043 4.476-.595 1.642-1.538 3.159-2.829 4.551-1.241 1.443-2.755 2.686-4.542 3.731-1.788 1.044-3.823 1.865-6.106 2.462-2.234.597-4.667.895-7.298.895-2.978 0-5.709-.373-8.191-1.119-2.482-.746-4.666-1.791-6.553-3.134-1.836-1.293-3.35-2.835-4.542-4.625a15.04 15.04 0 01-2.383-5.745h15.191c.943 2.537 3.078 3.805 6.404 3.805 2.829 0 4.989-.796 6.478-2.387 1.539-1.592 2.308-3.805 2.308-6.64v-3.656c-.992.945-1.96 1.741-2.904 2.387a16.5 16.5 0 01-2.755 1.493 11.99 11.99 0 01-2.978.82 18.31 18.31 0 01-3.426.299c-2.73 0-5.237-.473-7.52-1.418-2.284-.945-4.27-2.263-5.958-3.954-1.638-1.691-2.928-3.705-3.872-6.043-.893-2.387-1.34-5.023-1.34-7.908 0-2.935.496-5.645 1.489-8.132.993-2.537 2.333-4.725 4.021-6.566a18.463 18.463 0 016.106-4.401c2.383-1.095 4.965-1.642 7.744-1.642 4.518 0 8.316 1.691 11.393 5.073V84.48h13.478zm6.201 0h13.477v4.85c1.837-2.239 3.699-3.731 5.585-4.477 1.887-.796 4.096-1.194 6.627-1.194 2.681 0 4.965.448 6.851 1.343a13.293 13.293 0 014.915 3.656 10.631 10.631 0 012.234 4.327c.397 1.592.595 3.407.595 5.446v24.322h-13.478v-19.323c0-1.89-.149-3.407-.446-4.551-.249-1.194-.72-2.139-1.415-2.835a5.108 5.108 0 00-2.011-1.269 7.472 7.472 0 00-2.383-.373c-2.283 0-4.045.697-5.286 2.09-1.192 1.342-1.788 3.282-1.788 5.819v20.442h-13.477V84.479zm71.787 9.848c-2.482-1.293-4.915-1.94-7.298-1.94-1.241 0-2.258.249-3.053.746-.744.497-1.117 1.169-1.117 2.014 0 .448.05.821.149 1.12.149.248.422.497.82.746.446.248 1.067.472 1.861.671.844.199 1.936.448 3.277.746 3.723.746 6.503 2.089 8.339 4.029 1.837 1.89 2.756 4.327 2.756 7.311 0 2.238-.447 4.253-1.341 6.043a13.177 13.177 0 01-3.723 4.551c-1.589 1.194-3.5 2.114-5.734 2.761-2.234.696-4.691 1.044-7.372 1.044-5.162 0-10.251-1.467-15.264-4.402l4.914-9.549c3.773 2.586 7.347 3.879 10.723 3.879 1.241 0 2.259-.273 3.053-.82.794-.547 1.191-1.244 1.191-2.089 0-.498-.074-.896-.223-1.194-.099-.348-.348-.647-.745-.895-.397-.299-.993-.547-1.787-.746-.745-.249-1.737-.498-2.978-.746-4.17-.846-7.099-2.089-8.787-3.731-1.638-1.691-2.457-4.004-2.457-6.938 0-2.139.397-4.054 1.191-5.745a11.888 11.888 0 013.425-4.401c1.49-1.194 3.277-2.114 5.362-2.76 2.134-.647 4.492-.97 7.074-.97 4.219 0 8.315.82 12.286 2.461l-4.542 8.804zM0 0h13.478v28.5c1.837-2.239 3.698-3.73 5.585-4.477 1.886-.796 4.095-1.194 6.627-1.194 4.815 0 8.439 1.343 10.872 4.03 2.482 2.635 3.723 6.216 3.723 10.742v24.322H26.807V42.6c0-1.94-.15-3.507-.447-4.7-.298-1.194-.794-2.114-1.49-2.76-1.19-1.045-2.63-1.567-4.318-1.567-2.284 0-4.046.696-5.287 2.089-1.191 1.343-1.787 3.282-1.787 5.819v20.442H0V0zm58.98 42.675a9.18 9.18 0 00.67 3.506 9.43 9.43 0 001.787 2.76 8.714 8.714 0 002.755 1.866 9.138 9.138 0 003.5.671 8.402 8.402 0 003.35-.671c1.093-.448 2.011-1.07 2.756-1.866a8.73 8.73 0 001.861-2.76 7.72 7.72 0 00.745-3.357 7.72 7.72 0 00-.745-3.357 8.524 8.524 0 00-1.861-2.835c-.745-.796-1.663-1.418-2.755-1.866a8.4 8.4 0 00-3.351-.671 9.136 9.136 0 00-3.5.671 8.712 8.712 0 00-2.755 1.866 9.43 9.43 0 00-1.787 2.76c-.447.995-.67 2.089-.67 3.283zM75.957 23.65H89.51v38.273H75.957V57.67c-2.879 3.631-6.776 5.447-11.69 5.447-2.78 0-5.337-.498-7.67-1.492a18.973 18.973 0 01-6.106-4.328c-1.738-1.84-3.103-4.003-4.096-6.49-.943-2.487-1.415-5.198-1.415-8.132 0-2.736.472-5.322 1.415-7.76.944-2.486 2.259-4.65 3.947-6.49a18.148 18.148 0 016.031-4.327c2.334-1.095 4.915-1.642 7.745-1.642 4.765 0 8.712 1.667 11.84 4.999V23.65zm19.746 0h13.478v6.267c1.439-2.288 3.202-4.029 5.287-5.222 2.085-1.244 4.517-1.866 7.297-1.866h1.117c.447 0 .943.05 1.489.15v12.907c-1.787-.896-3.723-1.343-5.808-1.343-3.127 0-5.485.945-7.074 2.835-1.539 1.84-2.308 4.55-2.308 8.132v16.413H95.703V23.65zm44.46 0l9.159 20.144 9.531-20.144h8.489l9.531 20.74 9.606-20.74h14.967L181.49 61.923h-9.01l-9.531-20.964-9.085 20.964h-9.159L125.121 23.65h15.042zm76.428 0v38.273h-13.478V23.65h13.478zM202.22 8.953a7.08 7.08 0 01.596-2.91 7.626 7.626 0 011.638-2.462 7.849 7.849 0 012.383-1.641 7.584 7.584 0 012.978-.597c1.043 0 2.011.199 2.904.597a7.613 7.613 0 012.457 1.641 7.644 7.644 0 011.639 2.462c.397.895.595 1.865.595 2.91a7.628 7.628 0 01-.595 2.984 7.887 7.887 0 01-1.639 2.387 7.612 7.612 0 01-2.457 1.642 7.053 7.053 0 01-2.904.597 7.584 7.584 0 01-2.978-.597 7.848 7.848 0 01-2.383-1.642 7.866 7.866 0 01-1.638-2.387 7.61 7.61 0 01-.596-2.984zm20.603 14.697h13.478v4.85c1.837-2.239 3.698-3.73 5.585-4.477 1.886-.796 4.095-1.194 6.627-1.194 2.68 0 4.964.448 6.85 1.343a13.285 13.285 0 014.915 3.656 10.619 10.619 0 012.234 4.327c.397 1.592.596 3.407.596 5.446v24.322H249.63V42.6c0-1.89-.149-3.407-.447-4.551-.248-1.194-.72-2.139-1.415-2.835a5.111 5.111 0 00-2.01-1.268 7.476 7.476 0 00-2.383-.373c-2.284 0-4.046.696-5.287 2.089-1.192 1.343-1.787 3.282-1.787 5.819v20.442h-13.478V23.65z"
    fill="#fff" />
  <path d="M281.647.925H398v60.138H281.647V.925z" fill="#FF6746" />
  <path
    d="M301.025 90.01h11.214v34.892h-11.214V90.01zm33.812 0h12.138v34.892h-12.138V90.01zm29.646 0h14.14v34.892h-14.14V90.01z"
    fill="#fff" />
  <path d="M301.025 112.714h45.95v12.188h-45.95v-12.188zm0-27.873h77.598v11.264h-77.598V84.84z" fill="#fff" />
  <path d="M299.18 76.698h81.288l7.374 12.666h-96.037l7.375-12.666z" fill="#fff" />
  <path
    d="M291.805 89.149h96.037v2.618c0 1.023-.827 1.85-1.847 1.85h-92.343a1.849 1.849 0 01-1.847-1.85V89.15zm7.05-11.895c0-1.48.694-6.013 2.173-6.013h77.592c1.478 0 2.172 4.532 2.172 6.013h-81.937z"
    fill="#fff" />
  <path fill-rule="evenodd" clip-rule="evenodd"
    d="M391.536 6.92H288.111v49.036h103.425V6.92zM281.647.444v61.989H398V.444H281.647z" fill="#fff" />
  <path d="M337.053 58.288h5.541v18.504h-5.541V58.288zm-26.779 35.157h27.703v4.626h-27.703v-4.626z" fill="#fff" />
  <path d="M311.197 95.296H338.9v3.7h-27.703v-3.7z" fill="#fff" />
</svg>