<svg viewBox="0 0 90 90" fill="white" xmlns="http://www.w3.org/2000/svg">
<rect width="90" height="90" fill="white"/>
<path d="M66 90L90 66V90H66Z" fill="#FF6746"/>
<path d="M30.9 23.3999H40.3108V43.2614C41.5933 41.7016 42.8931 40.6617 44.2103 40.1418C45.5275 39.5872 47.0699 39.3099 48.8377 39.3099C52.2 39.3099 54.7303 40.2458 56.4288 42.1175C58.1619 43.9546 59.0284 46.4503 59.0284 49.6046V66.5545H49.6176V53.0882C49.6176 51.7363 49.5136 50.6445 49.3057 49.8126C49.0977 48.9807 48.7511 48.3394 48.2658 47.8888C47.4339 47.1609 46.4287 46.797 45.2502 46.797C43.6557 46.797 42.4252 47.2822 41.5586 48.2528C40.7267 49.1887 40.3108 50.5405 40.3108 52.3083V66.5545H30.9V23.3999Z" fill="#29109C"/>
</svg>
