<svg width="150" height="150" viewBox="0 0 150 150" fill="none" xmlns="http://www.w3.org/2000/svg">
<path d="M10 41.25H15V46.25H10V41.25Z" fill="#29109C"/>
<path d="M135 41.25H140V46.25H135V41.25Z" fill="#29109C"/>
<path d="M145 6.25H95V31.25H45V6.25H0V61.25H7.5V128.75H0V143.75H30V128.75H22.5V106.25H32.5V123.75C32.5 125.131 33.6194 126.25 35 126.25H95C95.6628 126.25 96.2988 125.986 96.7676 125.518L116.035 106.25H127.5V128.75H120V143.75H150V128.75H142.5V61.25H150V31.25H145V6.25ZM100 11.25H140V31.25H126.035L136.768 20.5176L133.232 16.9824L118.965 31.25H111.035L121.768 20.5176L118.232 16.9824L103.965 31.25H100V11.25ZM35 11.25H40V31.25H35V11.25ZM25 11.25H30V31.25H25V11.25ZM15 11.25H20V31.25H15V11.25ZM5 11.25H10V31.25H5V11.25ZM25 133.75V138.75H5V133.75H25ZM12.5 128.75V61.25H17.5V128.75H12.5ZM32.5 101.25H22.5V96.25H32.5V101.25ZM32.5 91.25H22.5V61.25H32.5V91.25ZM32.5 56.25H25V51.25H32.5V56.25ZM97.5 117.715V106.25H108.965L97.5 117.715ZM112.5 101.25H95C93.6194 101.25 92.5 102.369 92.5 103.75V121.25H37.5V51.25H112.5V101.25ZM117.5 101.25V96.25H127.5V101.25H117.5ZM127.5 61.25V91.25H117.5V61.25H127.5ZM117.5 56.25V51.25H125V56.25H117.5ZM145 133.75V138.75H125V133.75H145ZM132.5 128.75V61.25H137.5V128.75H132.5ZM145 56.25H130V46.25H20V56.25H5V36.25H145V56.25Z" fill="#29109C"/>
</svg>
