<svg width="150" height="150" viewBox="0 0 150 150" fill="none" xmlns="http://www.w3.org/2000/svg">
<path d="M14.0739 114.88C12.7785 114.88 11.7302 113.831 11.7302 112.536V28.1593C11.7302 26.8628 12.7785 25.8157 14.0739 25.8157C15.3706 25.8157 16.4177 26.8628 16.4177 28.1593V112.536C16.4177 113.829 15.3706 114.88 14.0739 114.88Z" fill="#29109C"/>
<path d="M14.0739 30.5029H2.34375C1.04713 30.5029 0 29.4547 0 28.1593C0 26.8628 1.04713 25.8157 2.34375 25.8157H14.0739C15.3706 25.8157 16.4177 26.8628 16.4177 28.1593C16.4177 29.4547 15.3706 30.5029 14.0739 30.5029Z" fill="#29109C"/>
<path d="M14.0739 114.88L2.34375 114.88C1.04713 114.88 0 113.831 0 112.536C0 111.24 1.04713 110.192 2.34375 110.192H14.0739C15.3706 110.192 16.4177 111.24 16.4177 112.536C16.4177 113.831 15.3706 114.88 14.0739 114.88Z" fill="#29109C"/>
<path d="M89.0625 131.243C55.4604 131.243 28.125 103.909 28.125 70.3088C28.125 36.7087 55.4604 9.375 89.0625 9.375C122.665 9.375 150 36.7087 150 70.3088C150 103.909 122.665 131.243 89.0625 131.243ZM89.0625 14.0622C58.0479 14.0622 32.8125 39.296 32.8125 70.3088C32.8125 101.322 58.0479 126.555 89.0625 126.555C120.077 126.555 145.312 101.322 145.312 70.3088C145.312 39.296 120.077 14.0622 89.0625 14.0622Z" fill="#29109C"/>
<path d="M89.0625 131.243C55.4604 131.243 28.125 103.909 28.125 70.3088C28.125 36.7087 55.4604 9.375 89.0625 9.375C122.665 9.375 150 36.7087 150 70.3088C150 103.909 122.665 131.243 89.0625 131.243ZM89.0625 14.0622C58.0479 14.0622 32.8125 39.296 32.8125 70.3088C32.8125 101.322 58.0479 126.555 89.0625 126.555C120.077 126.555 145.312 101.322 145.312 70.3088C145.312 39.296 120.077 14.0622 89.0625 14.0622Z" fill="#29109C"/>
<path d="M89.0625 140.626C55.4604 140.626 28.125 113.292 28.125 79.6924C28.125 78.397 29.1721 77.3488 30.4688 77.3488C31.7654 77.3488 32.8125 78.397 32.8125 79.6924C32.8125 110.705 58.0479 135.939 89.0625 135.939C120.077 135.939 145.312 110.705 145.312 79.6924C145.312 78.397 146.36 77.3488 147.656 77.3488C148.953 77.3488 150 78.397 150 79.6924C150 113.292 122.665 140.626 89.0625 140.626Z" fill="#29109C"/>
<path d="M33.5197 53.9413H14.0739C12.7785 53.9413 11.7302 52.8931 11.7302 51.5977C11.7302 50.3012 12.7785 49.2541 14.0739 49.2541H33.5197C34.8164 49.2541 35.8635 50.3012 35.8635 51.5977C35.8635 52.8931 34.8141 53.9413 33.5197 53.9413Z" fill="#29109C"/>
<path d="M36.4105 46.9151H14.0739C12.7785 46.9151 11.7302 45.8668 11.7302 44.5715C11.7302 43.2749 12.7785 42.2278 14.0739 42.2278H36.4105C37.706 42.2278 38.7543 43.2749 38.7543 44.5715C38.7543 45.8668 37.706 46.9151 36.4105 46.9151Z" fill="#29109C"/>
<path d="M31.2183 91.4436H14.0739C12.7785 91.4436 11.7302 90.3954 11.7302 89.1C11.7302 87.8035 12.7785 86.7564 14.0739 86.7564H31.2183C32.515 86.7564 33.5621 87.8035 33.5621 89.1C33.5621 90.3954 32.515 91.4436 31.2183 91.4436Z" fill="#29109C"/>
<path d="M32.8056 98.4721H14.0739C12.7785 98.4721 11.7302 97.4239 11.7302 96.1285C11.7302 94.832 12.7785 93.7849 14.0739 93.7849H32.8056C34.1011 93.7849 35.1494 94.832 35.1494 96.1285C35.1494 97.4239 34.1011 98.4721 32.8056 98.4721Z" fill="#29109C"/>
<path d="M30.4688 82.036C29.1721 82.036 28.125 80.9889 28.125 79.6924V70.3088C28.125 69.0122 29.1721 67.9652 30.4688 67.9652C31.7654 67.9652 32.8125 69.0122 32.8125 70.3088V79.6924C32.8125 80.9889 31.7654 82.036 30.4688 82.036Z" fill="#29109C"/>
<path d="M147.656 82.036C146.36 82.036 145.312 80.9889 145.312 79.6924V70.3088C145.312 69.0122 146.36 67.9652 147.656 67.9652C148.953 67.9652 150 69.0122 150 70.3088V79.6924C150 80.9889 148.953 82.036 147.656 82.036Z" fill="#29109C"/>
<path d="M84.375 53.9081C83.0784 53.9081 82.0312 52.8611 82.0312 51.5645V39.8465C82.0312 38.5511 83.0784 37.5029 84.375 37.5029C85.6716 37.5029 86.7188 38.5511 86.7188 39.8465V51.5645C86.7188 52.8611 85.6716 53.9081 84.375 53.9081Z" fill="#29109C"/>
<path d="M93.7523 53.9081C92.4568 53.9081 91.4085 52.8611 91.4085 51.5645V39.8465C91.4085 38.5511 92.4568 37.5029 93.7523 37.5029C95.0489 37.5029 96.096 38.5511 96.096 39.8465V51.5645C96.096 52.8611 95.0489 53.9081 93.7523 53.9081Z" fill="#29109C"/>
<path d="M67.9665 60.9389C66.6698 60.9389 65.6227 59.8919 65.6227 58.5953C65.6227 53.4252 69.8273 49.2209 74.9977 49.2209C76.2932 49.2209 77.3415 50.2691 77.3415 51.5645C77.3415 52.8611 76.2932 53.9081 74.9977 53.9081C72.4125 53.9081 70.3102 56.0103 70.3102 58.5953C70.3102 59.8919 69.2619 60.9389 67.9665 60.9389Z" fill="#29109C"/>
<path d="M110.161 60.9367C108.865 60.9367 107.817 59.8896 107.817 58.593C107.817 56.008 105.715 53.9081 103.13 53.9081C101.834 53.9081 100.786 52.8611 100.786 51.5645C100.786 50.2691 101.834 49.2209 103.13 49.2209C108.3 49.2209 112.505 53.4252 112.505 58.593C112.505 59.8896 111.457 60.9367 110.161 60.9367Z" fill="#29109C"/>
<path d="M84.375 53.9081H74.9977C73.7011 53.9081 72.654 52.8611 72.654 51.5645C72.654 50.2691 73.7011 49.2209 74.9977 49.2209H84.375C85.6716 49.2209 86.7188 50.2691 86.7188 51.5645C86.7188 52.8611 85.6716 53.9081 84.375 53.9081Z" fill="#29109C"/>
<path d="M103.13 53.9081H93.75C92.4534 53.9081 91.4062 52.8611 91.4062 51.5645C91.4062 50.2691 92.4534 49.2209 93.75 49.2209H103.13C104.426 49.2209 105.473 50.2691 105.473 51.5645C105.473 52.8611 104.426 53.9081 103.13 53.9081Z" fill="#29109C"/>
<path d="M67.9665 105.461C66.6698 105.461 65.6227 104.412 65.6227 103.117V58.5953C65.6227 57.2999 66.6698 56.2517 67.9665 56.2517C69.2619 56.2517 70.3102 57.2999 70.3102 58.5953V103.117C70.3102 104.412 69.2619 105.461 67.9665 105.461Z" fill="#29109C"/>
<path d="M110.161 105.432C108.865 105.432 107.817 104.385 107.817 103.088V58.593C107.817 57.2977 108.865 56.2494 110.161 56.2494C111.457 56.2494 112.505 57.2977 112.505 58.593V103.088C112.505 104.385 111.457 105.432 110.161 105.432Z" fill="#29109C"/>
<path d="M96.0938 42.1901H82.0312C80.7346 42.1901 79.6875 41.143 79.6875 39.8465V32.8157C79.6875 31.5203 80.7346 30.4721 82.0312 30.4721H96.0938C97.3904 30.4721 98.4375 31.5203 98.4375 32.8157V39.8465C98.4375 41.143 97.3904 42.1901 96.0938 42.1901ZM84.375 37.5029H93.75V35.1593H84.375V37.5029Z" fill="#29109C"/>
<path d="M110.159 67.9606H67.9665C66.6698 67.9606 65.6227 66.9124 65.6227 65.617C65.6227 64.3204 66.6698 63.2734 67.9665 63.2734H110.159C111.455 63.2734 112.502 64.3204 112.502 65.617C112.502 66.9124 111.455 67.9606 110.159 67.9606Z" fill="#29109C"/>
<path d="M110.159 96.0976H67.9665C66.6698 96.0976 65.6227 95.0505 65.6227 93.754C65.6227 92.4586 66.6698 91.4104 67.9665 91.4104H110.159C111.455 91.4104 112.502 92.4586 112.502 93.754C112.502 95.0505 111.455 96.0976 110.159 96.0976Z" fill="#29109C"/>
<path d="M89.0625 86.7209C82.3803 86.7209 77.3415 83.6976 77.3415 79.6878C77.3415 75.6803 82.3803 72.6593 89.0625 72.6593C95.7447 72.6593 100.781 75.6803 100.781 79.6878C100.781 83.6976 95.7447 86.7209 89.0625 86.7209ZM89.0625 77.3465C84.5226 77.3465 82.029 79.1042 82.029 79.6878C82.029 80.2714 84.5226 82.0337 89.0625 82.0337C93.6001 82.0337 96.0938 80.2714 96.0938 79.6878C96.0938 79.1042 93.6001 77.3465 89.0625 77.3465Z" fill="#29109C"/>
<path d="M72.6562 110.148C68.7801 110.148 65.625 106.993 65.625 103.117C65.625 101.82 66.6721 100.773 67.9688 100.773C69.2654 100.773 70.3125 101.82 70.3125 103.117C70.3125 104.41 71.3631 105.461 72.6562 105.461C73.9529 105.461 75 106.508 75 107.804C75 109.1 73.9529 110.148 72.6562 110.148Z" fill="#29109C"/>
<path d="M105.44 110.148C104.145 110.148 103.096 109.1 103.096 107.804C103.096 106.508 104.145 105.461 105.44 105.461C106.748 105.461 107.812 104.396 107.812 103.088C107.812 101.793 108.86 100.745 110.156 100.745C111.453 100.745 112.5 101.793 112.5 103.088C112.5 106.981 109.333 110.148 105.44 110.148Z" fill="#29109C"/>
<path d="M105.469 110.148H72.6562C71.3596 110.148 70.3125 109.1 70.3125 107.804C70.3125 106.508 71.3596 105.461 72.6562 105.461H105.469C106.765 105.461 107.812 106.508 107.812 107.804C107.812 109.1 106.765 110.148 105.469 110.148Z" fill="#29109C"/>
<path d="M2.34375 126.595C1.04713 126.595 0 125.547 0 124.252V16.4459C0 15.1493 1.04713 14.1023 2.34375 14.1023C3.64037 14.1023 4.6875 15.1493 4.6875 16.4459V124.252C4.6875 125.545 3.64037 126.595 2.34375 126.595Z" fill="#29109C"/>
<path d="M56.2523 75.036H39.8415C38.5448 75.036 37.4977 73.9878 37.4977 72.6924C37.4977 71.3959 38.5448 70.3488 39.8415 70.3488H56.2523C57.5489 70.3488 58.596 71.3959 58.596 72.6924C58.596 73.9878 57.5489 75.036 56.2523 75.036Z" fill="#29109C"/>
<path d="M56.2523 65.6616H46.8796C45.5841 65.6616 44.5358 64.6134 44.5358 63.318C44.5358 62.0215 45.5841 60.9744 46.8796 60.9744H56.2523C57.5489 60.9744 58.596 62.0215 58.596 63.318C58.596 64.6134 57.5489 65.6616 56.2523 65.6616Z" fill="#29109C"/>
<path d="M56.2523 84.3796H46.8796C45.5841 84.3796 44.5358 83.3325 44.5358 82.036C44.5358 80.7406 45.5841 79.6924 46.8796 79.6924H56.2523C57.5489 79.6924 58.596 80.7406 58.596 82.036C58.596 83.3325 57.5489 84.3796 56.2523 84.3796Z" fill="#29109C"/>
<path d="M138.295 75.0051H121.884C120.589 75.0051 119.54 73.9581 119.54 72.6615C119.54 71.3661 120.589 70.3179 121.884 70.3179H138.295C139.592 70.3179 140.639 71.3661 140.639 72.6615C140.639 73.9581 139.592 75.0051 138.295 75.0051Z" fill="#29109C"/>
<path d="M131.257 84.3796H121.884C120.589 84.3796 119.54 83.3325 119.54 82.036C119.54 80.7406 120.589 79.6924 121.884 79.6924H131.257C132.553 79.6924 133.601 80.7406 133.601 82.036C133.601 83.3325 132.553 84.3796 131.257 84.3796Z" fill="#29109C"/>
<path d="M131.257 65.6616H121.884C120.589 65.6616 119.54 64.6134 119.54 63.318C119.54 62.0215 120.589 60.9744 121.884 60.9744H131.257C132.553 60.9744 133.601 62.0215 133.601 63.318C133.601 64.6134 132.553 65.6616 131.257 65.6616Z" fill="#29109C"/>
</svg>
