<svg viewBox="0 0 763 722" fill="none" xmlns="http://www.w3.org/2000/svg">
<path opacity="0.6" fill-rule="evenodd" clip-rule="evenodd" d="M1.68771 696.012C-18.0565 656.8 138.98 592.745 287.281 579.045C435.582 565.345 523.887 622.999 468.165 676.993C412.444 730.987 21.432 735.223 1.68771 696.012Z" fill="#EBEBEB"/>
<g opacity="0.504511">
<path fill-rule="evenodd" clip-rule="evenodd" d="M762.665 561.31C771.95 620.119 546.757 658.479 352.928 631.709C159.099 604.939 70.1797 500.398 162.672 444.695C255.164 388.992 753.379 502.501 762.665 561.31Z" fill="#F2F2F2"/>
</g>
<path opacity="0.5" fill-rule="evenodd" clip-rule="evenodd" d="M473.07 236.574C470.291 235.966 467.223 236.012 464.392 236.062C449.212 236.269 434.305 243.466 424.603 254.966C416.344 264.756 414.073 276.927 412.442 289.231C412.28 290.453 412.21 291.667 412.119 292.891C412.1 293.154 412.07 293.388 412.039 293.609C411.397 294.183 411.061 294.853 411.441 295.589C410.027 298.686 408.831 301.863 407.805 305.139C404.785 314.781 401.713 324.607 403.606 334.747C404.048 329.167 404.978 323.461 406.09 317.973C406.154 317.658 406.223 317.345 406.295 317.034C406.302 317.001 406.309 316.968 406.316 316.935C406.71 315.255 407.222 313.624 407.844 312.02C407.851 312.002 407.857 311.985 407.864 311.967C407.946 311.756 408.033 311.546 408.12 311.336C408.298 310.901 408.481 310.467 408.675 310.035C408.741 309.888 408.804 309.74 408.864 309.59C409.771 307.366 410.153 304.861 410.965 302.56C411.159 302.037 411.362 301.515 411.575 300.997C411.587 300.967 411.6 300.936 411.613 300.906C412.188 299.511 412.823 298.132 413.494 296.769C413.859 296.494 414.054 295.812 414.369 295.193C414.434 295.071 414.943 294.257 415.095 293.788C415.49 293.022 415.884 292.256 416.283 291.491C416.271 291.496 416.259 291.5 416.247 291.505C416.645 290.77 417.045 290.039 417.442 289.311C417.529 289.151 417.617 288.991 417.705 288.83C417.847 288.575 417.99 288.319 418.132 288.065C419.462 285.682 420.872 283.347 422.336 281.04C422.858 280.217 424.107 279.037 424.346 278.113C424.355 278.079 424.357 278.047 424.362 278.014C427.539 273.545 431.197 269.424 435.583 266.158C435.053 266.732 433.926 268.68 433.628 269.065C432.716 270.246 431.726 271.345 430.733 272.457C428.953 274.45 427.216 276.506 425.672 278.68C422.849 282.657 420.413 286.841 418.111 291.11C418.089 291.135 418.065 291.159 418.044 291.184C416.887 292.613 416.159 294.771 415.326 296.405C418.622 294.876 422.268 293.88 425.651 292.523C429.025 291.169 432.307 289.662 435.475 287.892C439.687 285.54 444.055 282.884 448.035 279.879C452.595 277.046 456.427 273.148 459.809 269.056C463.811 264.216 467.478 259.333 469.747 253.455C470.861 250.567 471.737 247.555 472.257 244.509C472.28 244.376 472.309 244.232 472.34 244.082C472.872 243.03 473.347 241.954 473.746 240.853C474.38 239.107 475.876 237.187 473.07 236.574" fill="#69A1AC"/>
<path opacity="0.5" fill-rule="evenodd" clip-rule="evenodd" d="M478.657 290.012C475.436 287.827 471.154 287.254 467.3 287.254C452.248 287.254 438.099 292.842 425.877 301.168C419.179 305.73 413.188 311.54 407.899 317.589C404.845 321.081 402.123 324.859 400.196 329.06C398.895 331.896 398.002 334.85 397.397 337.898C396.66 341.612 396.074 345.401 395.809 349.177C395.705 350.663 394.841 358.553 397.312 358.687C397.298 358.881 397.295 359.066 397.31 359.233C391.945 367.626 388.631 377.462 385.557 386.788C382.883 394.903 380.5 403.087 378.953 411.482C376.917 422.535 375.579 433.755 374.943 444.967C374.806 447.376 374.712 449.787 374.632 452.2C374.563 454.258 374.494 456.316 374.426 458.374C374.351 460.68 373.945 463.335 374.312 465.628C374.631 467.625 376.358 467.323 376.434 465.336C376.526 462.936 376.511 460.532 376.616 458.13C376.756 454.943 376.9 451.756 377.056 448.57C378.141 426.437 382.211 404.63 389.723 383.723C392.764 375.263 396.247 367.254 400.725 359.428C404.661 352.546 409.396 345.885 414.236 339.68C418.94 333.651 423.831 327.761 429.595 322.652C434.273 318.507 439.418 314.896 444.707 311.536C451.424 307.268 458.129 303.104 465.405 299.828C469.188 298.125 473.041 296.6 476.853 294.966C477.539 294.672 478.275 294.387 478.934 294.047C481.135 292.911 480.41 291.201 478.657 290.012" fill="#C1DEE2"/>
<path opacity="0.5" fill-rule="evenodd" clip-rule="evenodd" d="M418.138 367.341C424.212 367.341 429.617 368.14 435.214 370.584C440.046 372.694 444.449 375.487 448.724 378.527C454.737 382.804 459.473 387.781 462.788 394.376C464.769 398.315 466.221 403.89 464.891 408.187C463.324 413.248 459.022 417.469 453.356 416.577C449.852 416.026 446.64 413.678 443.977 411.467C440.792 408.823 438.242 405.644 436.136 402.112C432.701 396.352 430.683 389.84 427.765 383.82C426.38 380.963 425.042 378.086 423.384 375.371C422.563 374.027 421.689 372.695 420.443 371.696C419.777 371.161 416.967 370.236 418.042 369.036C402.289 369.245 388.334 381.496 385.31 396.659C385.028 398.072 384.808 399.497 384.576 400.919C384.429 401.817 384.488 405.128 383.695 405.702C381.947 406.967 382.682 403.123 382.757 402.57C382.951 401.139 383.158 399.71 383.375 398.283C384.556 390.523 387.968 383.309 393.658 377.774C400.165 371.445 408.944 367.341 418.138 367.341Z" fill="#89C5CC"/>
<path fill-rule="evenodd" clip-rule="evenodd" d="M260.01 450.261C258.586 451.414 257.189 452.592 255.826 453.817C254.787 454.75 252.951 455.871 252.571 457.278C252.176 458.739 253.384 460.098 254.34 460.974C259.394 465.606 265.099 468.723 272.14 469.202C282.983 469.94 292.442 467.115 301.889 461.617C308.526 457.755 312.942 452.078 313.948 444.443C321.8 447.656 329.386 452.106 335.822 457.585C338.997 460.289 341.727 463.29 344.249 466.619C345.865 468.752 347.426 470.92 348.874 473.172C349.503 474.15 350.138 475.888 351.184 476.447C352.412 477.104 353.908 476.053 353.856 474.687C353.812 473.55 352.59 472.239 352.02 471.313C351.074 469.775 350.114 468.247 349.101 466.753C347.464 464.333 345.77 461.948 343.921 459.685C339.765 454.601 334.462 450.414 328.96 446.849C318.404 440.011 306.799 435.735 293.903 435.45C285.974 435.275 279.284 438.021 272.476 442.101C268.237 444.642 263.862 447.141 260.01 450.261" fill="#DDE3E9"/>
<ellipse cx="362.86" cy="473.62" rx="35.7409" ry="7.7156" fill="#FF6746"/>
<path fill-rule="evenodd" clip-rule="evenodd" d="M539.037 22.4275L186.682 22.4276L186.682 191.764L539.037 191.764L539.037 22.4275ZM164.66 0.476562L164.66 213.715L561.06 213.715L561.059 0.476493L164.66 0.476562Z" fill="#CCCCCC"/>
<path d="M353.422 199.667L372.298 199.667L372.298 474.126L353.422 474.126L353.422 199.667Z" fill="#CCCCCC"/>
<path d="M179.512 199.719L179.512 13.9377L546.039 13.9377L546.039 199.719L179.512 199.719Z" fill="#29109C"/>
<g clip-path="url(#clip0)">
<rect x="320.159" y="59.3948" width="93.1061" height="94.0556" fill="white"/>
<path fill-rule="evenodd" clip-rule="evenodd" d="M388.437 153.45L413.265 128.369L413.265 153.45L388.437 153.45Z" fill="#FF6746"/>
<path d="M352.126 83.8491L361.861 83.8491L361.861 104.606C363.188 102.976 364.533 101.889 365.895 101.345C367.258 100.766 368.854 100.476 370.682 100.476C374.161 100.476 376.778 101.454 378.535 103.41C380.328 105.33 381.225 107.938 381.225 111.235L381.225 128.948L371.489 128.948L371.489 114.875C371.489 113.462 371.382 112.321 371.166 111.452C370.951 110.583 370.593 109.912 370.091 109.442C369.23 108.681 368.19 108.3 366.971 108.3C365.322 108.3 364.049 108.808 363.152 109.822C362.291 110.8 361.861 112.213 361.861 114.06L361.861 128.948L352.126 128.948L352.126 83.8491Z" fill="#29109C"/>
</g>
<path fill-rule="evenodd" clip-rule="evenodd" d="M580.923 333.894C576.188 333.186 572.322 331.538 571.175 329.957C568.299 325.994 579.018 312.348 586.204 309.416C593.391 306.484 609.83 316.207 601.927 327.255C599.184 331.09 594.988 333.065 590.556 333.845L579.049 355.969L567.336 346.285L580.923 333.894Z" fill="#B28B67"/>
<path fill-rule="evenodd" clip-rule="evenodd" d="M587.057 297.819C588.005 297.168 589.261 296.977 590.319 297.488C590.576 297.611 590.814 297.772 591.026 297.963C591.102 298.031 591.105 298.072 591.187 298.047C591.248 298.029 591.331 297.93 591.382 297.891C591.54 297.771 591.706 297.66 591.878 297.561C592.467 297.224 593.134 297.047 593.808 296.99C595.069 296.884 596.401 297.192 597.45 297.916C598.024 298.313 598.483 298.839 598.846 299.432C599.033 299.739 599.195 300.061 599.34 300.39C599.383 300.489 599.474 300.872 599.558 300.922C599.652 300.977 599.988 300.909 600.097 300.913C601.454 300.963 602.687 301.56 603.715 302.423C604.875 303.397 605.951 304.385 606.336 305.901C606.418 306.222 606.478 306.55 606.521 306.878C606.544 307.05 606.561 307.224 606.57 307.398C606.575 307.503 606.578 307.608 606.578 307.713C606.577 307.892 606.535 307.915 606.718 307.942C607.422 308.045 608.075 308.36 608.566 308.88C608.858 309.188 609.093 309.547 609.287 309.923C609.353 310.051 609.446 310.421 609.553 310.513C609.66 310.604 610.027 310.635 610.172 310.686C610.956 310.961 611.649 311.442 612.196 312.067C612.76 312.711 613.185 313.5 613.44 314.315C613.563 314.708 613.636 315.091 613.61 315.501C613.598 315.679 613.574 315.856 613.58 316.034C613.583 316.138 613.638 316.287 613.603 316.387C613.624 316.328 614.586 316.65 614.67 316.689C615.116 316.896 615.473 317.224 615.735 317.639C616.226 318.42 616.395 319.399 616.45 320.304C616.478 320.769 616.453 321.237 616.379 321.697C616.344 321.917 616.298 322.135 616.243 322.351C616.216 322.455 616.161 322.569 616.152 322.675C616.139 322.813 616.178 322.848 616.256 322.976C616.648 323.626 616.881 324.371 616.899 325.131C616.916 325.9 616.712 326.66 616.337 327.328C616.315 327.367 616.202 327.512 616.206 327.547C616.213 327.595 616.333 327.676 616.371 327.716C616.503 327.853 616.626 327.998 616.741 328.15C616.952 328.43 617.133 328.733 617.276 329.053C617.834 330.3 617.785 331.734 617.3 332.992C616.792 334.312 615.807 335.491 614.554 336.163C614.351 336.271 614.14 336.364 613.922 336.438C613.788 336.482 613.77 336.467 613.727 336.595C613.679 336.737 613.668 336.905 613.631 337.051C613.507 337.528 613.319 337.985 613.082 338.417C612.693 339.124 612.22 339.813 611.596 340.334C611.306 340.575 610.982 340.778 610.63 340.915C610.45 340.985 610.264 341.038 610.074 341.072C609.975 341.09 609.876 341.103 609.776 341.112C609.719 341.116 609.655 341.109 609.6 341.122C609.464 341.152 609.508 341.071 609.44 341.223C609.344 341.434 609.31 341.693 609.237 341.916C609.161 342.145 609.077 342.371 608.986 342.594C608.802 343.047 608.595 343.492 608.348 343.913C607.872 344.722 607.223 345.466 606.343 345.842C605.967 346.003 605.556 346.077 605.147 346.061C604.947 346.053 604.747 346.023 604.552 345.974C604.452 345.948 604.348 345.887 604.258 345.93C604.161 345.975 604.091 346.167 604.034 346.26C603.537 347.072 602.959 347.878 602.154 348.411C601.413 348.902 600.497 349.118 599.612 349.031C597.894 348.863 596.442 347.592 595.776 346.039C595.602 345.634 595.479 345.208 595.414 344.772C594.058 345.105 592.76 343.986 592.025 342.964C591.11 341.691 590.844 340.103 591.187 338.589C589.704 338.877 588.395 337.304 588.689 335.904C588.761 335.562 588.904 335.237 589.088 334.941C589.185 334.785 589.314 334.654 589.414 334.503C589.542 334.311 589.566 334.041 589.64 333.813C589.783 333.371 589.985 332.958 590.279 332.596C590.432 332.407 590.607 332.244 590.779 332.072C590.934 331.918 591.016 331.723 591.127 331.536C591.386 331.833 591.818 332.054 592.172 332.201C592.52 332.345 592.965 332.335 593.33 332.292C594.178 332.191 594.972 331.796 595.676 331.331C597.22 330.312 598.403 328.534 597.65 326.651C597.299 325.774 595.383 324.192 594.479 323.735C593.529 323.254 591.161 324.27 590.979 324.399C590.866 324.479 590.775 324.617 590.624 324.608C590.292 324.587 590.166 324.043 590.12 323.787C590.039 323.346 590.096 322.895 590.181 322.46C590.366 321.512 590.659 320.574 591.049 319.691C591.349 319.011 591.72 318.359 591.96 317.653C592.2 316.95 592.275 316.207 592.029 315.493C591.76 314.716 591.283 314.03 590.861 313.331C590.442 312.639 590.071 311.91 589.975 311.097C589.953 310.918 589.94 310.735 589.953 310.556C589.962 310.414 590.04 310.191 589.99 310.055C589.912 309.842 589.502 309.888 589.303 309.863C588.32 309.739 587.311 309.866 586.361 310.13C585.417 310.394 584.57 310.698 583.71 311.153C583.072 311.49 582.395 312.037 581.672 312.148C581.349 312.197 580.01 311.282 579.743 310.785C579.475 310.287 579.376 309.488 579.461 309.109C579.549 308.721 579.764 308.393 580.07 308.143C580.251 307.996 580.458 307.89 580.64 307.75C580.792 307.632 580.936 307.519 581.116 307.444C581.459 307.303 581.837 307.311 582.176 307.464C582.108 306.961 582.132 306.448 582.26 305.958C582.393 305.448 582.618 304.881 582.911 304.443C583.148 304.088 583.481 303.791 583.894 303.657C584.326 303.517 584.82 303.6 585.261 303.655C585.105 302.945 585.075 302.214 585.148 301.492C585.292 300.09 585.86 298.643 587.057 297.819Z" fill="#191847"/>
<path fill-rule="evenodd" clip-rule="evenodd" d="M574.067 402.965L544.17 482.078L524.325 548.88L516.094 549.003L545.781 403.387L574.067 402.965Z" fill="#997659"/>
<path fill-rule="evenodd" clip-rule="evenodd" d="M580.325 402.871C581.071 430.504 586.456 467.641 587.253 469.352C588.05 471.064 641.147 512.373 641.147 512.373L635.569 518.523C635.569 518.523 573.123 483.359 570.186 478.588C567.249 473.817 557.258 429.662 549.373 403.334L580.325 402.871Z" fill="#B28B67"/>
<path fill-rule="evenodd" clip-rule="evenodd" d="M639.994 512.018C640.34 510.899 641.512 510.207 642.609 510.616C643.785 511.054 645.157 511.638 645.838 512.192C647.167 513.274 649.355 515.79 649.355 515.79C648.101 517.331 626.81 543.488 626.81 543.488C626.81 543.488 622.362 541.662 623.97 539.104C625.579 536.547 626.602 534.821 626.602 534.821L631.242 517.641C631.389 517.097 631.956 516.782 632.496 516.944L634.816 517.642C634.816 517.642 637.573 516.306 638.669 514.96C639.203 514.304 639.663 513.091 639.994 512.018Z" fill="#E4E4E4"/>
<path fill-rule="evenodd" clip-rule="evenodd" d="M525.153 545.4C526.232 544.946 527.515 545.398 527.907 546.502C528.328 547.684 528.762 549.11 528.775 549.988C528.801 551.701 528.28 554.995 528.28 554.995C526.293 555.024 492.567 555.528 492.567 555.528C492.567 555.528 491.106 550.948 494.1 550.536C497.093 550.124 499.073 549.799 499.073 549.799L515.218 542.311C515.729 542.074 516.335 542.305 516.558 542.823L517.515 545.048C517.515 545.048 520.311 546.302 522.046 546.276C522.892 546.263 524.118 545.835 525.153 545.4Z" fill="#E4E4E4"/>
<path fill-rule="evenodd" clip-rule="evenodd" d="M555.248 541.568L516.051 537.906L543.042 403.429L578.092 402.905L555.248 541.568Z" fill="#4C67C9"/>
<path fill-rule="evenodd" clip-rule="evenodd" d="M632.905 502.708L607.692 533.471C607.692 533.471 566.473 489.79 559.537 476.382C552.602 462.975 546.335 403.379 546.335 403.379L585.795 402.789C585.795 402.789 589.517 455.246 590.576 457.674C591.634 460.102 632.905 502.708 632.905 502.708Z" fill="#5978E7"/>
<path fill-rule="evenodd" clip-rule="evenodd" d="M506.374 373.264L528.511 385.01L520.509 393.827L504.347 379.418C495.903 377.211 492.034 375.566 492.738 374.483C493.332 373.57 494.309 373.588 495.209 373.605C495.91 373.619 496.564 373.631 496.954 373.201C497.845 372.22 496.077 368.854 494.263 365.732C492.449 362.61 494.348 362.858 495.438 363.297C499.017 365.651 502.662 368.973 506.374 373.264ZM607.686 396.247L620.818 394.64C627.877 418.419 632.168 431.482 633.691 433.827C634.808 435.547 642.131 440.306 647.133 442.929C649.14 443.982 648.565 445.701 647.915 446.217C643.814 449.468 640.339 447.964 636.556 446.327C635.461 445.853 634.34 445.368 633.17 444.983C630.144 443.989 629.087 445.505 628.089 446.937C627.206 448.206 626.367 449.409 624.247 448.747C624.377 448.331 624.532 447.865 624.701 447.363C625.787 444.117 627.39 439.329 625.761 436.357C624.924 434.832 618.9 421.462 607.686 396.247Z" fill="#B28B67"/>
<path fill-rule="evenodd" clip-rule="evenodd" d="M576.3 342.661L570.909 341.319C558.158 351.973 551.245 379.328 543.046 382.409C535.294 385.321 524.92 381.177 512.628 375.708L508.119 384.06C518.671 397.323 542.336 409.621 552.689 404.37C569.24 395.975 575.436 362.064 576.3 342.661Z" fill="#E48F52"/>
<path fill-rule="evenodd" clip-rule="evenodd" d="M595.009 413.042C595.009 413.042 562.165 410.605 546.69 409.458C544.482 409.294 545.135 406.137 545.574 404.552C550.636 386.262 566.502 367.317 568.464 340.892L582.564 339.741C592.715 359.133 595.007 382.252 595.009 413.042Z" fill="#DDE3E9"/>
<path fill-rule="evenodd" clip-rule="evenodd" d="M580.948 339.62L583.463 339.807C613.294 361.387 629.969 392.646 633.488 433.584L623.213 434.816C617.084 426.503 609.755 413.099 601.224 394.604C603.451 405.529 604.843 416.669 604.76 427.098L561.265 423.871C554.426 401.972 577.945 339.398 577.945 339.398L580.948 339.62Z" fill="#FC964D"/>
<path fill-rule="evenodd" clip-rule="evenodd" d="M151.135 388.828C157.379 387.431 162.375 384.866 163.753 382.649C167.209 377.091 151.622 359.929 141.764 356.709C131.906 353.488 110.921 368.021 122.507 381.989C126.528 386.837 132.31 389.069 138.291 389.684L155.735 418.07L170.425 404.043L151.135 388.828Z" fill="#B28B67"/>
<path fill-rule="evenodd" clip-rule="evenodd" d="M136.177 371.699C135.642 368.595 135.484 365.988 136.271 363.635C142.826 357.57 142.477 355.691 138.752 351.791C136.996 352.041 132.116 354.3 127.657 357.882C124.98 359.289 122.597 361.78 121.156 365.075C118.996 368.743 118.216 372.947 120.343 377.391C122.938 388.131 132.854 392.422 139.302 390.966C139.159 388.631 138.915 386.47 138.62 384.46C137.3 384.445 135.988 383.919 135.005 382.89C133.069 380.863 133.144 377.65 135.172 375.713C135.321 375.571 135.477 375.439 135.637 375.319C138.15 377.766 146.715 385.981 150.547 388.018C155.064 390.418 162.675 384.799 165.042 382.539C167.087 380.586 165.169 378.718 163.794 377.379C163.596 377.186 163.409 377.004 163.247 376.834C162.909 376.48 162.449 376.921 161.929 377.42C161.254 378.067 160.478 378.811 159.737 378.035C158.929 377.19 159.479 375.425 159.971 373.846C160.278 372.86 160.562 371.947 160.48 371.375C160.222 369.569 159.098 367.874 157.94 368.979C157.307 369.584 156.787 370.777 156.162 372.213C155.218 374.381 154.033 377.101 151.856 379.18C148.259 382.614 136.326 371.834 136.177 371.699Z" fill="#191847"/>
<path fill-rule="evenodd" clip-rule="evenodd" d="M144.28 484.205L174.964 591.824L197.353 671.146H213.681L189.891 484.205H144.28Z" fill="#514E47"/>
<path fill-rule="evenodd" clip-rule="evenodd" d="M136.073 484.205C135.364 539.673 132.943 569.927 132.198 574.967C131.453 580.006 120.185 612.066 98.395 671.146H115.311C143.051 614.469 158.537 582.409 161.768 574.967C164.998 567.524 174.967 537.27 189.983 484.205H136.073Z" fill="#625E56"/>
<path fill-rule="evenodd" clip-rule="evenodd" d="M96.883 686.372L97.7294 668.608L115.503 668.608C128.145 677.49 148.511 682.988 148.511 682.988V686.372H116.349L105.347 684.68V686.372H96.883Z" fill="#191847"/>
<path fill-rule="evenodd" clip-rule="evenodd" d="M195.061 686.372L195.908 668.608L213.681 668.608C226.323 677.49 246.69 682.988 246.69 682.988V686.372H214.528L203.525 684.68V686.372H195.061Z" fill="#191847"/>
<path fill-rule="evenodd" clip-rule="evenodd" d="M254.03 481.784L223.43 465.493L219.433 481.411L248.499 488.826C257.55 496.785 262.429 499.946 263.135 498.309C263.73 496.929 262.955 495.826 262.242 494.811C261.686 494.019 261.167 493.281 261.362 492.505C261.807 490.734 267.049 490.171 272.047 489.847C277.044 489.524 275.293 487.544 273.948 486.634C268.477 484.35 261.837 482.733 254.03 481.784ZM113.647 538.031C115.467 532.538 117.05 481.285 117.05 481.285L135.229 478.78C135.229 478.78 126.05 535.106 125.177 538.596C124.043 543.131 127.885 548.941 130.491 552.88C130.894 553.489 131.267 554.054 131.588 554.562C128.979 556.194 127.43 554.888 125.796 553.512C123.951 551.957 121.998 550.311 118.291 552.707C116.859 553.632 115.527 554.675 114.226 555.693C109.732 559.213 105.603 562.445 98.9551 559.565C97.9011 559.108 96.5211 557.021 98.8408 554.909C104.62 549.647 112.757 540.717 113.647 538.031Z" fill="#B28B67"/>
<path fill-rule="evenodd" clip-rule="evenodd" d="M157.947 398.264L165.284 395.918C196.57 415.891 214.544 460.234 252.187 479.738L245.394 491.033C185.046 492.149 162.395 438.164 157.947 398.264Z" fill="#6281AF"/>
<path fill-rule="evenodd" clip-rule="evenodd" d="M138.478 496.724C138.478 496.724 183.693 490.314 204.997 487.295C208.036 486.864 206.846 482.587 206.095 480.45C197.424 455.787 173.749 431.232 168.626 395.102L149.015 394.834C136.739 422.429 135.675 454.413 138.478 496.724Z" fill="#DDE3E9"/>
<path fill-rule="evenodd" clip-rule="evenodd" d="M133.569 515.914C131.59 523.467 129.541 530.104 127.456 535.274L113.19 537.296C104.668 488.235 118.079 447.653 130.562 422.561C127.035 422.808 123.678 421.804 121.18 418.517C112.385 406.945 113.937 399.668 121.109 396.332C125.053 394.497 129.05 394.801 133.835 395.165C137.75 395.463 142.193 395.801 147.565 395.04C147.567 395.04 147.569 395.039 147.57 395.039C148.091 394.965 148.57 394.933 149.009 394.938L155.427 394.396C155.427 394.396 193.613 477.729 186.146 508.461L133.569 515.914Z" fill="#779FDC"/>
<path fill-rule="evenodd" clip-rule="evenodd" d="M133.569 515.914C136.165 506.003 138.639 494.514 140.911 482.688C144.112 494.902 148.281 507.035 153.22 513.128L133.569 515.914Z" fill="black" fill-opacity="0.1"/>
<defs>
<clipPath id="clip0">
<rect x="320.159" y="59.3948" width="93.1061" height="94.0556" fill="white"/>
</clipPath>
</defs>
</svg>
