<svg width="150" height="150" viewBox="0 0 150 150" fill="none" xmlns="http://www.w3.org/2000/svg">
<path d="M147.736 56.6425C147.724 56.5899 147.707 56.5395 147.689 56.4903C144.066 42.2276 136.284 29.2694 125.188 19.2696C111.4 6.84357 93.5772 0 75 0C56.979 0 39.5588 6.48651 25.9483 18.2636C25.0305 19.0567 24.9298 20.4449 25.724 21.3627C26.5182 22.2794 27.9053 22.3801 28.8231 21.5858C41.6359 10.5 58.0353 4.39453 75 4.39453C92.4889 4.39453 109.267 10.8364 122.246 22.5334C134.462 33.5438 142.41 48.3616 144.819 64.4955C142.966 64.3581 141.114 64.2838 139.284 64.2838C119.25 64.2838 100.416 72.0852 86.2495 86.2507C72.084 100.416 64.2838 119.25 64.2838 139.284C64.2838 141.113 64.3581 142.966 64.4955 144.819C48.3616 142.41 33.5438 134.462 22.5334 122.246C10.8364 109.267 4.39453 92.4889 4.39453 75C4.39453 57.486 10.8524 40.6872 22.5792 27.6993C23.3929 26.7986 23.3219 25.4093 22.4213 24.5956C21.5206 23.7831 20.1313 23.8541 19.3176 24.7547C6.86073 38.5517 0 56.3953 0 75C0 93.5772 6.84357 111.4 19.2696 125.188C25.7744 132.406 33.5323 138.221 42.0856 142.402C42.128 142.426 42.1692 142.451 42.2138 142.473C52.4746 147.467 63.5056 150 75 150C95.0329 150 113.868 142.199 128.033 128.033C142.199 113.868 150 95.0329 150 75C150 68.7881 149.238 62.6118 147.736 56.6425ZM68.6783 139.284C68.6783 120.424 76.022 102.694 89.3578 89.3578C102.694 76.022 120.424 68.6783 139.284 68.6783C140.314 68.6783 141.353 68.7069 142.394 68.7538L68.7538 142.394C68.708 141.353 68.6783 140.314 68.6783 139.284ZM124.926 124.926C111.59 138.262 93.8599 145.605 75 145.605C73.9403 145.605 72.8851 145.576 71.8334 145.53L145.535 71.8288C145.581 72.884 145.605 73.9414 145.605 75C145.605 93.8599 138.262 111.59 124.926 124.926Z" fill="#29109C"/>
<path d="M44.4454 58.2047C43.3479 57.6874 42.0376 58.1589 41.5215 59.2564C40.9916 60.3802 40.5144 61.5441 40.1024 62.7137C39.6996 63.8581 40.3004 65.1123 41.4459 65.5163C41.6863 65.601 41.9334 65.6411 42.1749 65.6411C43.0813 65.6411 43.9293 65.0769 44.2474 64.1728C44.6102 63.1428 45.0302 62.1186 45.4971 61.1287C46.0144 60.0312 45.5429 58.722 44.4454 58.2047Z" fill="#29109C"/>
<path d="M107.225 64.0595C107.501 64.0595 107.783 64.0068 108.055 63.8958C109.178 63.4381 109.718 62.1552 109.259 61.0314C108.79 59.8835 108.257 58.746 107.674 57.6496C107.103 56.5785 105.773 56.1722 104.702 56.7421C103.631 57.3132 103.225 58.643 103.793 59.7142C104.307 60.6789 104.776 61.6814 105.19 62.6919C105.537 63.5433 106.359 64.0595 107.225 64.0595Z" fill="#29109C"/>
<path d="M43.2117 89.328C42.1394 89.8968 41.7309 91.2266 42.2985 92.2989C42.8787 93.3929 43.523 94.4721 44.212 95.5055C44.6354 96.1406 45.3323 96.484 46.0419 96.484C46.4619 96.484 46.8853 96.3638 47.2595 96.1143C48.2689 95.4403 48.5413 94.0761 47.8683 93.0668C47.2607 92.1558 46.693 91.2048 46.1815 90.2401C45.6127 89.1678 44.2841 88.7604 43.2117 89.328Z" fill="#29109C"/>
<path d="M52.0809 45.9675C51.1082 46.7365 50.1629 47.564 49.2714 48.4268C48.3994 49.2714 48.3776 50.6619 49.2222 51.5339C49.6525 51.9791 50.2258 52.2034 50.8003 52.2034C51.3508 52.2034 51.9024 51.9974 52.3281 51.5843C53.1143 50.8232 53.9486 50.0931 54.8058 49.4156C55.7579 48.6626 55.9193 47.2813 55.1674 46.3291C54.4155 45.377 53.0331 45.2156 52.0809 45.9675Z" fill="#29109C"/>
<path d="M83.3096 43.4749C83.4972 43.5241 83.6849 43.5482 83.8692 43.5482C84.8442 43.5482 85.7334 42.8959 85.9932 41.9094C86.3022 40.7352 85.6007 39.5336 84.4276 39.2257C83.2283 38.9099 81.9981 38.6524 80.7701 38.4601C79.5696 38.2736 78.447 39.0918 78.2581 40.2912C78.0704 41.4894 78.8898 42.6132 80.0892 42.802C81.1707 42.9714 82.2544 43.198 83.3096 43.4749Z" fill="#29109C"/>
<path d="M64.5069 44.0174C64.7266 44.0174 64.9498 43.9842 65.1695 43.9144C66.2121 43.5859 67.2821 43.3067 68.3533 43.0847C69.5412 42.8386 70.3056 41.6759 70.0596 40.488C69.8135 39.299 68.6497 38.5357 67.4618 38.7817C66.2464 39.0335 65.0299 39.3505 63.8466 39.7247C62.6884 40.0898 62.0476 41.3246 62.4126 42.4816C62.709 43.4188 63.5742 44.0174 64.5069 44.0174Z" fill="#29109C"/>
<path d="M96.5092 50.5108C96.9257 50.877 97.443 51.0578 97.9592 51.0578C98.5691 51.0578 99.1757 50.8049 99.6105 50.3117C100.412 49.3996 100.322 48.0114 99.4103 47.2103C98.4787 46.3909 97.4945 45.6104 96.4851 44.8883C95.4975 44.1834 94.1254 44.4111 93.4193 45.3987C92.7143 46.3863 92.942 47.7585 93.9297 48.4646C94.8189 49.0997 95.6863 49.7887 96.5092 50.5108Z" fill="#29109C"/>
<path d="M38.0219 75.8686C38.0516 77.1125 38.1432 78.3657 38.2954 79.5925C38.4327 80.7048 39.3803 81.5197 40.4732 81.5197C40.5636 81.5197 40.654 81.5139 40.7455 81.5025C41.9506 81.3537 42.8055 80.2562 42.6567 79.0512C42.5217 77.9697 42.4416 76.8642 42.4164 75.7667C42.3878 74.5537 41.3727 73.5866 40.1688 73.621C38.9557 73.6496 37.9944 74.6555 38.0219 75.8686Z" fill="#29109C"/>
<path d="M52.9632 102.012C52.256 102.998 52.4826 104.371 53.4691 105.077C54.4784 105.802 55.5359 106.482 56.6116 107.1C56.9561 107.298 57.3315 107.391 57.7034 107.391C58.4644 107.391 59.2049 106.995 59.6111 106.287C60.2154 105.235 59.8514 103.892 58.7986 103.288C57.851 102.744 56.9195 102.144 56.0291 101.507C55.0438 100.8 53.6705 101.026 52.9632 102.012Z" fill="#29109C"/>
</svg>
