<svg viewBox="0 0 551 452" fill="none" xmlns="http://www.w3.org/2000/svg">
<path opacity="0.3" fill-rule="evenodd" clip-rule="evenodd" d="M541.596 378.383C552.541 404.523 364.307 443.971 199.139 450.437C33.9699 456.903 -46.6647 417.451 28.5415 382.881C103.748 348.312 530.651 352.244 541.596 378.383Z" fill="#DDE3E9"/>
<g opacity="0.504511">
<path fill-rule="evenodd" clip-rule="evenodd" d="M550.379 313.305C554.06 340.838 464.778 358.796 387.932 346.263C311.085 333.731 275.831 284.789 312.501 258.711C349.171 232.634 546.697 285.773 550.379 313.305Z" fill="#F2F2F2"/>
</g>
<path fill-rule="evenodd" clip-rule="evenodd" d="M439.933 198.578C441.322 197.516 443.477 198.193 444.876 198.82C445.415 199.061 446.792 199.834 447.813 200.704C447.678 200.101 447.558 199.493 447.453 198.88C447.02 196.358 446.723 193.789 446.58 191.235C446.542 190.568 446.591 189.824 446.64 189.07L446.64 189.07L446.64 189.07C446.657 188.814 446.674 188.558 446.687 188.303C446.631 188.243 446.593 188.159 446.578 188.047C446.572 188.093 446.568 188.131 446.566 188.159C446.562 188.206 446.56 188.229 446.552 188.231C446.545 188.233 446.532 188.213 446.506 188.174C446.496 188.158 446.484 188.14 446.47 188.119C445.436 186.573 444.568 184.831 444.449 182.916C444.348 181.292 445.682 178.219 447.573 180.346C448.419 181.296 448.2 187.968 446.929 188.377C447.268 190.588 447.695 192.795 448.23 194.974C448.31 194.96 448.392 194.959 448.472 194.97C448.465 194.428 448.464 193.837 448.486 193.634C448.677 191.883 450.139 188.327 452.467 189.018C454.256 189.548 453.16 191.732 452.551 192.688C451.571 194.226 450.462 194.893 449.058 195.693C449.03 196.023 448.817 196.216 448.565 196.278C449.505 199.797 450.74 203.23 452.357 206.472L452.4 206.265L452.4 206.265C452.605 205.281 452.844 204.134 452.996 203.893C453.788 202.632 455.542 201.091 457.159 201.838C460.555 203.407 456.869 207.918 453.977 208.409C453.857 208.575 453.73 208.708 453.594 208.785C454.156 209.764 454.757 210.722 455.399 211.655C456.363 213.06 457.398 214.459 458.484 215.851C458.517 214.762 458.947 212.336 459.069 212.076C459.81 210.493 461.947 208.864 463.681 209.989C465.631 211.256 463.863 213.652 462.751 214.737C462.295 215.181 460.04 216.81 459.245 216.818C461.868 220.099 464.763 223.324 467.707 226.433C467.463 225.041 467.144 221.209 467.18 220.783C467.363 218.588 468.805 215.076 471.647 215.932C474.403 216.761 473.184 220.409 472.24 222.148C471.669 223.2 470.878 224.27 469.925 225.004C469.753 225.136 469.529 225.244 469.305 225.352C469.035 225.482 468.765 225.611 468.589 225.783C468.432 225.936 468.384 226.112 468.336 226.286C468.286 226.47 468.236 226.653 468.058 226.805C469.649 228.478 471.251 230.115 472.83 231.708C473.575 232.459 474.334 233.196 475.1 233.924C475.519 233.75 476.117 233.979 476.085 234.573C476.081 234.659 476.061 234.733 476.034 234.802C476.615 235.342 477.199 235.878 477.788 236.409C477.774 236.255 477.778 236.036 477.805 235.735C477.381 236.339 477.399 235.46 477.413 234.79C477.417 234.553 477.422 234.343 477.406 234.233C477.343 233.802 477.263 233.376 477.182 232.951L477.182 232.95C477.01 232.041 476.839 231.135 476.848 230.197C476.866 228.205 478.127 224.866 480.78 226.052C483.219 227.141 482.332 230.093 481.411 231.943C480.829 233.114 480.032 234.16 479.199 235.161C479.05 235.34 478.885 235.582 478.722 235.821C478.479 236.177 478.241 236.527 478.064 236.658C480.329 238.689 482.647 240.661 484.966 242.633L484.966 242.633L484.966 242.633C486.005 243.517 487.043 244.4 488.077 245.288C488.122 245.093 488.159 244.9 488.191 244.719C488.126 244.792 488.038 244.826 487.925 244.82C487.895 244.67 487.852 244.472 487.8 244.233L487.799 244.233C487.161 241.32 485.217 232.448 490.482 234.167C494.339 235.431 491.616 243.156 488.739 245.858C490.485 247.367 492.215 248.895 493.904 250.469C495.126 251.608 496.312 252.786 497.453 254.002C496.862 252.427 496.306 250.387 496.671 248.763C497.203 246.401 499.693 244.17 502.125 245.514C505.157 247.198 502.824 249.496 500.637 251.652C499.521 252.753 498.442 253.816 498.134 254.741C501.761 258.733 504.857 263.168 506.926 268.22C509.176 273.714 511.265 281.096 510.11 287.242C510.323 284.54 509.411 281.146 508.77 278.763C508.683 278.438 508.601 278.133 508.527 277.85C507.564 274.153 506.197 270.557 504.395 267.191C501.508 261.8 497.695 257.223 493.293 253.068C492.291 253.418 491.202 254.065 490.3 254.601C489.747 254.93 489.265 255.217 488.915 255.368C487.231 256.095 483.997 257.138 482.924 254.847C481.869 252.594 484.562 251.334 486.231 250.829C487.844 250.342 489.298 250.401 490.803 250.8C488.473 248.732 486.086 246.73 483.699 244.728C483.26 244.359 482.821 243.991 482.383 243.623C481.776 244.121 481.106 244.84 480.395 245.604L480.395 245.604C478.137 248.03 475.462 250.903 473.073 248.555C469.468 245.013 476.363 241.412 479.301 241.693C479.661 241.728 480.01 241.804 480.35 241.907C477.355 239.362 474.405 236.764 471.616 233.983C471.115 234.074 470.319 234.812 469.361 235.697C467.21 237.688 464.248 240.428 462.017 238.271C460.407 236.713 460.958 234.287 462.515 232.9C464.078 231.507 466.343 231.509 468.269 231.979C469.102 232.18 469.87 232.566 470.586 233.035L470.674 233.04C467.93 230.275 465.168 227.447 462.508 224.524C462.462 224.539 462.414 224.554 462.367 224.57C462.206 224.767 461.937 224.839 461.69 224.795C461.554 224.842 461.415 224.89 461.273 224.939C459.167 225.667 456.459 226.602 454.359 226.199C452.814 225.902 451.411 224.644 452.719 223.096C453.783 221.836 456.668 222.017 458.076 222.316C458.762 222.461 459.51 222.884 460.26 223.307C460.575 223.485 460.891 223.663 461.202 223.822C461.283 223.658 461.425 223.553 461.586 223.503C458.959 220.565 456.453 217.525 454.18 214.353C453.492 214.46 452.729 214.762 451.942 215.074C450.048 215.825 448.015 216.631 446.557 214.896C444.403 212.333 448.453 210.837 450.378 211.08C451.029 211.162 451.67 211.347 452.288 211.59C450.634 208.979 449.371 206.188 448.484 203.256C448.475 203.261 448.467 203.265 448.459 203.27L448.459 203.27C448.447 203.277 448.434 203.284 448.419 203.29C448.425 203.287 448.431 203.283 448.437 203.28C448.443 203.276 448.449 203.272 448.456 203.268L448.456 203.268C448.464 203.262 448.473 203.257 448.482 203.252C448.394 202.958 448.309 202.664 448.228 202.368C448.077 202.284 447.937 202.222 447.869 202.197C448.744 202.801 445.054 203.096 444.363 203.152C442.835 203.274 440.788 203.319 439.667 202.066C438.726 201.014 438.781 199.459 439.933 198.578ZM510.274 287.251C510.209 288.142 510.048 288.957 509.748 289.63C509.973 288.864 510.146 288.068 510.274 287.251Z" fill="#F2F2F2"/>
<g opacity="0.7">
<path fill-rule="evenodd" clip-rule="evenodd" d="M449.215 266.35C454.684 266.067 461.448 269.258 462.032 275.202C462.456 279.521 462.324 283.827 462.98 288.14C463.505 291.586 464.614 294.894 466.127 298.034C467.582 301.052 470.6 303.622 471.385 306.847C471.885 308.902 471.605 311.793 470.915 313.803C470.076 316.247 470.522 316.053 472.194 318.104C475.47 322.123 478.42 326.244 480.506 331.043C483.51 337.956 485.48 346.037 484.365 353.604C484.223 354.565 484.055 358.013 482.732 358.254C481.253 358.524 481.945 356.552 482.023 355.915C482.526 351.85 482.973 348.296 482.367 344.168C480.026 328.239 468.596 317.744 461.154 304.224C460.745 303.527 459.881 301.867 459.28 300.772C458.332 299.043 457.379 295.752 456.096 294.47C453.678 292.055 455.901 296.911 456.372 297.838C456.967 299.01 457.622 300.257 458.233 301.284C461.025 306.047 464.142 311.246 467.025 316.156C454.553 318.997 445.769 304.006 442.422 294.15C439.665 286.03 436.365 267.045 449.215 266.35Z" fill="#69A1AC"/>
<path fill-rule="evenodd" clip-rule="evenodd" d="M522.52 251.271C513.377 251.996 507.507 258.028 504.775 266.465C503.302 271.011 503.133 275.682 502.315 280.354C501.084 287.384 498.435 292.711 493.259 297.719C491.655 299.27 490.474 300.863 489.634 302.566C487.967 304.267 486.515 306.192 485.449 308.546C484.087 311.551 483.701 315.158 485.274 318.154C485.697 318.96 486.752 320.577 487.845 321.311C483.752 330.027 481.501 339.572 481.755 349.105C481.908 354.86 482.189 360.617 482.517 366.364C482.605 367.908 483.108 370.456 483.863 367.868C484.554 365.501 483.687 361.784 483.607 359.311C483.217 347.263 482.884 336.308 487.844 325.052C488.364 323.872 488.916 322.702 489.49 321.541C489.524 321.521 489.555 321.498 489.587 321.475C489.609 321.492 489.629 321.51 489.651 321.526C489.687 321.461 489.738 321.383 489.796 321.296C489.961 321.126 490.105 320.911 490.242 320.671C490.682 320.062 491.18 319.346 491.182 318.954C491.182 318.951 491.181 318.946 491.181 318.943C494.252 313.931 497.769 309.195 501.362 304.552C501.335 304.586 505.259 299.244 504.652 302.198C504.359 303.622 501.473 306.333 500.307 307.841C497.729 311.195 494.701 315.446 492.184 319.556C491.846 319.751 491.367 320.706 491.021 321.417C490.83 321.778 490.652 322.141 490.477 322.458C499.393 325.403 506.329 319.47 511.058 312.57C511.064 312.562 511.069 312.554 511.075 312.545C512.514 310.639 513.988 308.745 515.83 307.238C518.903 304.723 522.194 304.28 525.817 303.042C535.697 299.667 539.898 286.864 541.232 277.365C542.738 266.648 535.375 250.214 522.52 251.271Z" fill="#89C5CC"/>
<path fill-rule="evenodd" clip-rule="evenodd" d="M504.459 221.259C495.075 231.024 490.542 244.567 486.952 257.299C482.943 271.519 480.295 285.959 480.193 300.744C480.126 310.458 479.862 320.232 480.429 329.935C480.63 333.381 480.974 336.832 481.52 340.241C481.565 340.521 482.787 348.132 483.957 346.359C484.622 345.35 482.704 338.463 482.559 337.316C481.744 330.856 481.554 324.347 481.594 317.84C481.66 307.126 481.344 296.466 482.43 285.791C482.592 284.198 482.72 282.524 483.098 280.964C483.5 279.307 482.988 280.03 484.298 279.374C485.571 278.736 487.143 278.827 488.463 278.027C493.7 274.852 496.379 266.697 498.464 261.346C500.849 255.227 502.298 248.701 503.456 242.262C504.306 237.531 504.914 232.828 505.258 228.036C505.366 226.526 505.373 224.946 505.67 223.461C505.749 223.061 506.151 222.352 506.136 221.997C506.105 221.246 505.652 220.805 505.615 220.174C505.222 220.527 504.837 220.889 504.459 221.259Z" fill="#89C5CC"/>
<path fill-rule="evenodd" clip-rule="evenodd" d="M453.292 351.354C453.292 367.501 466.386 380.592 482.537 380.592C498.688 380.592 511.781 367.501 511.781 351.354" fill="#89C5CC"/>
<path fill-rule="evenodd" clip-rule="evenodd" d="M502.578 325.754C509.816 325.221 517.899 331.059 521.39 337.134C524.205 342.032 523.731 348.464 521.992 353.668C520.828 357.152 518.287 362.119 514.051 362.168C508.75 362.228 508.494 355.678 508.392 351.849C508.255 346.758 507.612 342.323 503.6 338.853C503.104 338.425 502.585 338.024 502.065 337.623C501.603 337.267 501.142 336.911 500.698 336.536C500.627 336.476 500.556 336.416 500.484 336.356C499.065 335.164 497.575 333.912 497.394 331.947C497.131 329.099 498.739 328.586 501.194 329.116C501.273 329.133 501.488 329.214 501.781 329.325C503.034 329.8 505.71 330.814 505.204 329.602C505.013 329.145 504.317 328.783 503.439 328.512C501.165 328.265 498.454 327.979 497.675 328.15C489.264 329.995 485.989 341.643 485.119 349.044C485.025 349.843 484.949 350.644 484.883 351.447H483.338C483.445 349.509 483.587 347.574 483.911 345.657C485.151 338.326 489.027 327.559 497.528 326.369C497.841 326.325 498.995 326.317 500.392 326.399C501.055 326.029 501.797 325.806 502.578 325.754Z" fill="#69A1AC"/>
</g>
<path opacity="0.2" fill-rule="evenodd" clip-rule="evenodd" d="M93.5803 171.526C92.5665 170.759 90.9927 171.249 89.9713 171.703C89.5778 171.878 88.5721 172.437 87.8261 173.067C87.9249 172.631 88.013 172.191 88.0899 171.747C88.4064 169.924 88.6246 168.066 88.73 166.219C88.7575 165.737 88.7223 165.199 88.6867 164.654L88.6867 164.654L88.6867 164.653C88.6746 164.469 88.6625 164.283 88.6527 164.099C88.6936 164.055 88.7212 163.995 88.7328 163.914C88.7371 163.947 88.7395 163.975 88.7414 163.995C88.7444 164.029 88.7459 164.046 88.7513 164.047C88.7568 164.048 88.7662 164.034 88.7851 164.006C88.7924 163.995 88.8011 163.981 88.8116 163.966C89.5668 162.848 90.2011 161.588 90.2889 160.203C90.3632 159.029 89.3902 156.807 88.0087 158.346C87.3906 159.033 87.5486 163.858 88.4762 164.153C88.2275 165.752 87.9151 167.348 87.5239 168.924C87.4654 168.913 87.4057 168.913 87.3467 168.921C87.3525 168.529 87.3533 168.101 87.3372 167.954C87.1988 166.688 86.1324 164.118 84.4323 164.618C83.1259 165.002 83.9257 166.581 84.3699 167.272C85.0849 168.384 85.894 168.865 86.9188 169.444C86.9392 169.683 87.0948 169.822 87.2785 169.867C86.5909 172.412 85.6878 174.894 84.5065 177.239L84.4751 177.09L84.4751 177.09C84.3257 176.378 84.1514 175.549 84.0408 175.375C83.4629 174.463 82.183 173.35 81.002 173.89C78.5215 175.026 81.2116 178.286 83.3227 178.64C83.4104 178.76 83.5032 178.857 83.6019 178.912C83.1914 179.62 82.7526 180.313 82.2831 180.988C81.5791 182.004 80.8224 183.017 80.0292 184.023C80.0052 183.236 79.6923 181.482 79.6035 181.294C79.0627 180.149 77.503 178.972 76.2366 179.786C74.8125 180.704 76.1025 182.435 76.9142 183.219C77.2468 183.54 78.8925 184.718 79.4732 184.723C77.5568 187.096 75.4418 189.43 73.2913 191.679C73.4699 190.672 73.7039 187.901 73.6781 187.593C73.5455 186.006 72.4937 183.467 70.4186 184.087C68.4054 184.687 69.2945 187.325 69.9829 188.582C70.3999 189.343 70.9766 190.116 71.6722 190.646C71.7976 190.742 71.9614 190.82 72.1249 190.897C72.322 190.991 72.5188 191.085 72.6473 191.209C72.7619 191.32 72.797 191.447 72.8318 191.573C72.8686 191.706 72.905 191.838 73.0344 191.948C71.8723 193.158 70.702 194.343 69.5485 195.495C69.0043 196.038 68.4502 196.572 67.8906 197.098C67.5846 196.973 67.1482 197.138 67.1707 197.567C67.174 197.63 67.1885 197.684 67.2081 197.733C66.784 198.124 66.3573 198.512 65.9272 198.896C65.9371 198.784 65.9343 198.627 65.9146 198.409C66.224 198.845 66.2113 198.21 66.2017 197.725C66.1983 197.554 66.1953 197.402 66.2069 197.322C66.2526 197.011 66.3116 196.703 66.3705 196.395C66.4964 195.737 66.6218 195.082 66.6159 194.403C66.6031 192.963 65.6839 190.55 63.7464 191.408C61.9649 192.196 62.6118 194.33 63.283 195.668C63.708 196.515 64.2896 197.271 64.8975 197.994C65.006 198.123 65.1263 198.298 65.2454 198.471C65.4222 198.729 65.5964 198.982 65.7252 199.076C64.0708 200.546 62.3775 201.972 60.6841 203.399L60.6839 203.399L60.6837 203.399C59.9252 204.038 59.1667 204.677 58.4116 205.32C58.3788 205.179 58.3517 205.04 58.3284 204.909C58.3756 204.962 58.4398 204.986 58.5222 204.981C58.5442 204.873 58.576 204.73 58.6143 204.557C59.0815 202.451 60.5046 196.034 56.6597 197.28C53.8427 198.195 55.8279 203.78 57.9275 205.733C56.6522 206.825 55.3889 207.93 54.1552 209.069C53.2625 209.893 52.3961 210.745 51.5626 211.625C51.9942 210.485 52.4011 209.01 52.1352 207.836C51.7479 206.128 49.9302 204.516 48.1542 205.489C45.9401 206.707 47.6421 208.369 49.2381 209.926C50.0531 210.722 50.8404 211.49 51.0647 212.159C48.4153 215.047 46.1529 218.255 44.6405 221.909C42.9956 225.882 41.4677 231.221 42.3089 235.665C42.1542 233.711 42.8215 231.257 43.2901 229.533C43.3539 229.299 43.4141 229.078 43.4679 228.873C44.1721 226.2 45.172 223.599 46.489 221.164C48.5986 217.265 51.3842 213.954 54.5999 210.948C55.3316 211.2 56.1263 211.668 56.7844 212.055L56.7844 212.055C57.1881 212.293 57.5404 212.5 57.7953 212.609C59.0249 213.134 61.3857 213.887 62.17 212.23C62.9411 210.601 60.9753 209.691 59.757 209.326C58.5795 208.974 57.5178 209.017 56.4191 209.307C58.1212 207.811 59.8647 206.362 61.6079 204.913L61.608 204.913C61.9286 204.647 62.2492 204.381 62.5695 204.114C63.0122 204.474 63.5011 204.994 64.0202 205.546L64.0203 205.546C65.6679 207.299 67.6199 209.376 69.365 207.677C71.9985 205.114 66.9655 202.513 64.8205 202.718C64.5572 202.743 64.3025 202.798 64.054 202.873C66.2423 201.031 68.3967 199.151 70.4343 197.139C70.7998 197.205 71.3813 197.738 72.0799 198.378C73.65 199.817 75.8114 201.797 77.441 200.236C78.6174 199.109 78.2157 197.355 77.0796 196.353C75.9392 195.346 74.2849 195.349 72.8787 195.689C72.2708 195.835 71.71 196.114 71.187 196.454L71.1221 196.457C73.1272 194.457 75.1445 192.411 77.0876 190.296C77.1105 190.303 77.1337 190.311 77.1571 190.318C77.1684 190.322 77.1797 190.325 77.191 190.329C77.3084 190.472 77.505 190.524 77.6851 190.492C77.7843 190.526 77.8857 190.56 77.9891 190.596C79.5271 191.121 81.5039 191.797 83.0372 191.504C84.1657 191.289 85.19 190.379 84.2354 189.26C83.4593 188.35 81.3525 188.482 80.3249 188.698C79.8235 188.803 79.2775 189.109 78.7297 189.416C78.4995 189.544 78.269 189.673 78.0414 189.788C77.9823 189.67 77.8792 189.594 77.7617 189.557C79.6805 187.432 81.5115 185.233 83.1724 182.939C83.6747 183.016 84.2317 183.234 84.8062 183.459C86.1887 184.002 87.6724 184.584 88.7381 183.328C90.3115 181.474 87.3549 180.394 85.9491 180.571C85.4744 180.63 85.0063 180.764 84.5544 180.94C85.7631 179.051 86.6864 177.033 87.3355 174.913C87.3418 174.916 87.3476 174.919 87.3534 174.922C87.3625 174.927 87.3717 174.932 87.3829 174.937C87.3731 174.932 87.3645 174.926 87.356 174.921C87.3496 174.917 87.3433 174.913 87.3366 174.909C87.4014 174.697 87.4635 174.484 87.5227 174.27C87.6325 174.209 87.7352 174.165 87.7843 174.146C87.1454 174.583 89.8398 174.796 90.3444 174.835C91.4599 174.923 92.9544 174.955 93.7733 174.049C94.461 173.287 94.4214 172.163 93.5803 171.526ZM42.1419 235.49C42.1912 236.083 42.3376 236.625 42.6258 237.069C42.4142 236.562 42.2555 236.033 42.1419 235.49Z" fill="#C1DEE2"/>
<g opacity="0.5">
<path fill-rule="evenodd" clip-rule="evenodd" d="M79.1288 222.84C80.8123 220.44 83.9363 214.345 86.3058 213.487C87.832 212.935 87.387 218.649 87.4058 219.738C87.4792 223.953 87.0688 228.141 86.562 232.321C85.6488 239.859 82.6629 246.572 78.5675 252.988C76.4602 256.289 73.9883 259.63 70.5648 261.69C68.9889 262.638 67.0927 262.797 65.5365 263.615C63.724 264.566 64.711 263.797 63.8942 265.685C62.7599 268.307 62.397 271.689 61.8722 274.487C59.4624 287.328 53.6282 355.213 54.6396 368.276C54.7294 369.434 53.1147 369.71 53.0341 368.297C52.6056 360.803 56.3131 308.904 58.1836 291.931C60.0541 274.959 61.947 259.964 63.8449 254.093C66.1474 246.969 70.3059 238.402 73.7675 231.758C75.3754 228.672 77.128 225.692 79.1288 222.84Z" fill="#69A1AC"/>
<path fill-rule="evenodd" clip-rule="evenodd" d="M91.6242 306.082C96.0049 302.867 100.747 308.935 96.7826 312.151C94.5911 313.929 92.3001 313.296 91.0104 311.815C90.1731 312.835 89.3894 313.902 88.6365 314.804C86.3423 317.55 84.174 320.361 82.1017 323.238C77.7968 329.215 74.1076 335.53 70.2502 341.729C66.4436 347.847 62.6673 353.997 59.217 360.27C56.2941 365.585 52.3982 371.838 51.3975 377.665C52.9158 365.307 58.6773 353.429 65.5382 342.535C72.3432 331.73 80.1528 319.93 90.6895 311.404C89.6172 309.827 89.5874 307.576 91.6242 306.082Z" fill="#C1DEE2"/>
<path fill-rule="evenodd" clip-rule="evenodd" d="M8.49766 275.944C10.9491 276.423 14.9547 281.968 16.9754 284.08C19.3768 286.59 21.5556 289.266 23.6093 292.069C28.0305 298.104 31.9845 304.519 35.3467 311.21C40.828 322.117 45.2193 333.313 48.4062 345.189C50.357 352.46 51.6201 359.995 52.3687 367.478C52.5101 368.889 53.9899 379.769 51.8575 380.062C49.9397 380.326 50.5321 371.801 50.4395 370.641C49.3937 357.558 46.2606 344.828 41.9025 332.496C40.9532 329.81 40.0713 326.52 38.5533 324.102C37.46 322.361 38.5454 322.968 36.6242 322.309C34.9745 321.743 33.095 321.881 31.4057 321.188C27.7358 319.684 24.7973 316.763 22.2216 313.824C17.2159 308.114 13.2492 301.937 11.1815 294.62C10.0345 290.563 8.98046 286.483 8.39553 282.301C8.24422 281.22 6.91872 275.635 8.49766 275.944Z" fill="#69A1AC"/>
<path fill-rule="evenodd" clip-rule="evenodd" d="M18.1716 183.697C27.4056 199.708 34.9937 217.295 39.8934 235.109C42.862 245.902 44.9381 256.977 47.0008 267.972C50.1946 284.996 53.2155 302.02 54.0748 319.347C54.9393 336.774 56.6489 356.874 50.9411 373.66C53.7922 356.618 51.0778 338.478 50.5972 321.331C50.3675 313.145 49.702 305.039 48.8289 296.901C47.9817 289.007 46.5976 281.15 45.3086 273.318C44.6808 269.503 44.0214 265.695 43.35 261.888C43.1496 260.752 43.0649 257.382 42.3443 256.606C41.6191 255.825 37.9188 255.507 36.757 254.934C34.4177 253.78 32.2172 252.14 30.2698 250.408C26.5365 247.087 23.2887 242.749 20.7253 238.472C14.7942 228.575 12.423 216.498 12.5428 205.036C12.5659 202.811 16.1453 178.848 14.7078 178.518C14.7943 178.417 14.8762 178.312 14.9534 178.204C16.0418 180.026 17.1098 181.86 18.1716 183.697Z" fill="#89C5CC"/>
<path fill-rule="evenodd" clip-rule="evenodd" d="M117.837 241.441C117.979 241.236 118.907 239.807 118.44 239.898C119.39 239.712 117.132 241.474 119.501 240.393C118.376 241.455 119.025 242.835 119.04 244.264C119.065 246.585 118.676 248.887 118.239 251.158C117.548 254.747 116.519 258.238 115.025 261.576C111.77 268.852 106.241 275.857 99.6781 280.406C96.438 282.652 93.2626 283.417 89.5673 284.451C87.2332 285.104 87.0481 286.311 85.8091 288.576C83.2297 293.292 80.6962 297.992 78.4214 302.867C75.7051 308.689 73.0683 314.518 70.581 320.442C62.2017 340.399 55.3817 361.074 51.8 382.471C51.7123 369.862 54.6299 356.876 58.31 344.857C60.9908 336.101 64.4807 327.66 68.203 319.304C69.105 317.28 70.4718 314.676 70.8549 312.441C71.1231 310.875 70.3031 309.37 69.9277 307.72C68.464 301.297 68.5688 294.1 69.8541 287.643C71.2712 280.522 75.3696 277.217 82.3025 276.208C84.838 275.839 88.0606 275.974 90.3856 274.894C92.9185 273.716 93.9634 269.848 95.4038 267.364C99.2725 260.693 103.869 254.295 109.147 248.674C110.609 247.117 112.18 245.681 113.848 244.35C114.899 243.51 117.12 242.476 117.837 241.441Z" fill="#89C5CC"/>
<path fill-rule="evenodd" clip-rule="evenodd" d="M38.593 374.387C38.1629 371.471 40.4226 368.854 43.3698 368.854H61.4282C64.3755 368.854 66.6351 371.471 66.2051 374.387L65.4314 379.631C64.4781 386.094 58.932 390.882 52.399 390.882C45.866 390.882 40.3199 386.094 39.3666 379.631L38.593 374.387Z" fill="#C1DEE2"/>
</g>
<path fill-rule="evenodd" clip-rule="evenodd" d="M17.9138 375.444C17.9138 383.97 18.5868 390.882 27.6197 390.882C36.6525 390.882 37.3255 383.97 37.3255 375.444" fill="#F2F2F2"/>
<path fill-rule="evenodd" clip-rule="evenodd" d="M30.3069 370.125C29.9758 370.697 29.6805 371.281 29.4198 371.874C29.4106 370.653 29.4781 369.424 29.6624 368.178C29.9774 366.043 30.4586 363.92 30.9108 361.8C31.2358 360.276 31.2152 357.539 32.4485 356.325C32.7867 356.063 32.8681 356.578 32.8681 356.801C32.8724 356.848 32.8672 355.889 32.5389 356.056C30.5877 357.064 29.9555 360.232 29.3308 361.818C28.4194 364.133 27.6439 366.5 27.3246 368.909C27.2439 369.517 27.2 370.125 27.1898 370.733C27.1235 370.57 27.0612 370.407 26.9923 370.245C25.8661 367.604 24.3463 365.027 22.4508 362.651C21.9843 362.066 16.1176 356.297 15.6584 357.18C15.7037 357.308 15.7986 357.414 15.9432 357.499C15.9517 357.509 15.952 357.503 15.947 357.489C16.2916 358.046 17.2712 358.905 17.5763 359.393C18.3443 360.62 18.9411 361.922 19.5476 363.199C20.8291 365.898 22.0178 368.625 23.1701 371.357C23.4385 371.993 23.7181 372.626 24.0034 373.257C21.0622 369.015 17.1386 365.165 11.7373 362.961C13.5821 363.899 14.7916 365.664 16.0374 367.016C17.54 368.646 19.1226 370.233 20.628 371.861C22.4036 373.783 24.4929 375.806 26.2008 377.932C27.8551 381.404 29.4627 384.88 30.4551 388.531C30.0485 387.269 30.4232 385.527 30.3536 384.203C30.2984 383.15 30.1752 382.105 30.0065 381.062C30.2151 381.532 30.3949 382.003 30.4763 382.441C30.402 381.706 30.3163 380.976 30.2243 380.25C30.4605 379.571 30.6925 378.937 30.8492 378.414C31.6523 375.734 32.6085 373.1 33.9108 370.533C35.1158 368.158 36.498 365.813 38.0041 363.54C38.7067 362.481 39.4189 361.425 40.1267 360.367C40.5899 359.675 41.031 358.566 41.676 357.903C37.5069 361.714 32.9519 365.552 30.3069 370.125Z" fill="#F2F2F2"/>
<g opacity="0.4">
<path opacity="0.4" fill-rule="evenodd" clip-rule="evenodd" d="M176.783 81.4099C177.375 68.6875 178.188 55.9829 178.616 43.2528C178.829 36.9446 178.995 30.6358 179.156 24.3265C179.191 22.9216 179.228 21.5173 179.26 20.1124C179.364 15.3395 178.798 14.949 183.601 14.5253C205.029 12.6339 226.541 12.007 247.995 10.2958C273.868 8.23195 299.876 6.8069 325.823 6.16814C337.354 5.88372 348.933 5.29474 360.465 5.65323C363.02 5.73263 368.035 5.0678 369.041 7.05399C369.476 7.91198 368.564 10.8646 368.449 11.8547C368.087 14.9478 367.75 18.0515 367.542 21.16C366.315 39.4931 367.046 58.2884 370.596 76.3437C362.268 71.6478 351.747 67.6085 342.041 68.4102C332.145 69.2273 324.743 74.9447 316.822 80.207C312.342 83.1833 310.832 83.9661 306.362 81.0828C302.511 78.5977 298.866 75.7565 295.232 72.968C289.624 68.6644 284.331 63.9981 278.893 59.4865C268.894 51.191 255.117 39.3835 241.307 42.8599C231.44 45.3438 222.328 50.7667 213.764 56.0741C201.041 63.959 189.523 73.615 176.783 81.4099ZM348.269 0.00270488C299.108 0.00270488 250.315 4.76849 201.293 7.34663C196.173 7.61564 191.071 8.01205 185.969 8.50445C182.569 8.83271 174.254 7.45447 172.026 10.3597C170.54 12.2979 171.817 12.5888 172.026 14.4304C172.29 16.7514 172.134 19.5014 172.065 21.958C171.902 27.8775 171.73 33.7964 171.595 39.7164C171.088 62.0907 170.771 84.4608 171.676 106.829C171.874 111.707 173.652 118.462 172.679 123.202C171.975 126.634 169.621 128.723 175.049 129.357C180.391 129.981 186.922 128.393 192.268 127.885C197.645 127.373 203.021 126.818 208.404 126.374C231.81 124.445 255.443 124.737 278.91 124.096C302.589 123.449 326.276 123.408 349.963 123.395C359.874 123.389 371.198 123.946 380.869 121.219C384.271 120.259 384.821 119.786 383.982 116.41C383.823 115.77 382.796 115.533 382.494 114.376C382.084 112.8 382.295 110.885 382.199 109.245C381.886 103.888 381.777 98.5223 381.524 93.1622C381.103 84.2066 379.559 75.5152 378.418 66.6497C377.1 56.4112 377.167 46.0157 377.141 35.7103C377.125 29.994 377.272 24.2968 377.731 18.5966C378.026 14.9406 379.826 9.48213 378.913 6.07267C378.458 4.37505 377.714 3.0288 375.947 2.2982C374.828 1.83483 373.887 2.19747 372.78 2.08014C371.467 1.9409 370.648 1.75662 369.076 1.4005C362.339 -0.126469 355.135 0.00270488 348.269 0.00270488Z" fill="#69A1AC"/>
<path fill-rule="evenodd" clip-rule="evenodd" d="M358.692 296.493C366.221 303.551 357.763 313.594 349.461 307.953C346.54 305.967 346.494 302.778 348.767 299.925C350.847 297.316 355.416 296.298 358.692 296.493ZM355.901 290.79C348.867 292.158 342.233 295.386 341.596 303.504C340.974 311.424 349.099 315.103 355.924 314.583C371.246 313.416 370.139 288.038 355.901 290.79Z" fill="#89C5CC"/>
</g>
<path fill-rule="evenodd" clip-rule="evenodd" d="M154.052 124.751C159.071 127.776 164.004 129.237 166.319 128.641C172.124 127.145 172.658 105.915 168.166 97.5462C163.674 89.1769 140.582 85.5291 139.418 102.111C139.014 107.866 141.431 113.002 145.003 117.193L138.598 147.033H157.203L154.052 124.751Z" fill="#B28B67"/>
<path fill-rule="evenodd" clip-rule="evenodd" d="M154.982 103.943C156.591 101.548 158.136 99.7207 160.146 98.6598C168.325 98.789 169.282 97.3233 169.282 92.3835C167.961 91.4386 163.3 89.8476 158.08 89.4C155.417 88.6383 152.263 88.7816 149.224 90.0522C145.473 91.116 142.296 93.4073 140.893 97.6969C135.817 106.453 139.67 115.568 144.862 118.682C146.244 117.045 147.45 115.459 148.526 113.941C147.662 113.097 147.125 111.918 147.125 110.615C147.125 108.047 149.208 105.966 151.776 105.966C151.965 105.966 152.151 105.977 152.334 105.999C152.45 109.209 152.926 120.07 154.175 123.843C155.648 128.291 164.244 129.383 167.242 129.383C169.831 129.383 169.743 126.932 169.68 125.175C169.671 124.922 169.662 124.683 169.662 124.469C169.662 124.02 169.078 124.021 168.419 124.022C167.562 124.024 166.577 124.026 166.577 123.044C166.577 121.973 168.058 121.151 169.383 120.416C170.209 119.957 170.975 119.532 171.283 119.101C172.255 117.742 172.583 115.908 171.117 115.908C170.315 115.908 169.216 116.37 167.893 116.925C165.896 117.764 163.39 118.817 160.633 118.817C156.078 118.817 154.995 104.126 154.982 103.943Z" fill="#191847"/>
<path fill-rule="evenodd" clip-rule="evenodd" d="M133.141 214.497L161.245 313.078L181.75 385.739H196.705L174.916 214.497H133.141Z" fill="#191847"/>
<path fill-rule="evenodd" clip-rule="evenodd" d="M125.625 214.497C124.975 265.307 122.759 293.02 122.076 297.636C121.394 302.253 111.074 331.62 91.1163 385.739H106.609C132.016 333.821 146.199 304.454 149.158 297.636C152.117 290.819 161.248 263.106 175 214.497H125.625Z" fill="#2F3676"/>
<path fill-rule="evenodd" clip-rule="evenodd" d="M89.7316 399.686L90.5068 383.414L106.785 383.414C118.364 391.55 137.017 396.587 137.017 396.587V399.686H107.561L97.4833 398.136V399.686H89.7316Z" fill="#191847"/>
<path fill-rule="evenodd" clip-rule="evenodd" d="M179.651 399.686L180.426 383.414L196.705 383.414C208.283 391.55 226.937 396.587 226.937 396.587V399.686H197.48L187.403 398.136V399.686H179.651Z" fill="#191847"/>
<path fill-rule="evenodd" clip-rule="evenodd" d="M190.123 134.954L215.133 115.392C218.828 109.209 222.649 104.252 226.595 100.52C227.856 99.7321 230.164 99.0026 228.578 103.306C226.992 107.61 225.516 112.207 226.833 113.238C228.151 114.268 230.689 112.113 232.351 113.911C233.459 115.11 229 118.019 218.973 122.639L201.965 144.215L190.123 134.954Z" fill="#B28B67"/>
<path fill-rule="evenodd" clip-rule="evenodd" d="M120.936 162.184L121.688 155.745C147.231 138.249 186.397 139.12 213.756 116.564L219.858 125.558C200.125 172.481 152.182 172.013 120.936 162.184Z" fill="#E87613"/>
<path d="M152.29 242.432L145.148 251.86L142.338 250.812L152.29 242.432Z" fill="#B28B67"/>
<path fill-rule="evenodd" clip-rule="evenodd" d="M119.692 222.227C119.692 222.227 161.518 222.227 181.224 222.227C184.036 222.227 183.506 218.195 183.1 216.16C178.409 192.677 160.097 167.364 160.097 133.937L142.348 131.173C127.667 154.622 122.591 183.493 119.692 222.227Z" fill="#DDE3E9"/>
<path fill-rule="evenodd" clip-rule="evenodd" d="M115.992 189.635C115.21 174.646 117.134 161.469 118.818 153.265C116.917 152.543 115.262 151.224 114.062 149.073C107.575 137.448 109.917 131.047 116.85 128.943C120.663 127.786 124.248 128.576 128.54 129.521C132.053 130.295 136.04 131.173 141.012 131.173C141.493 131.173 141.931 131.205 142.329 131.266L148.219 131.6C148.219 131.6 172.132 212.088 161.409 239H152.129C152.207 240.265 152.252 241.476 152.261 242.627L141.08 252.31C137.049 248.066 133.621 243.6 130.715 239H106.02C107.087 223.002 110.928 205.882 115.992 189.635Z" fill="#FF9B21"/>
<path fill-rule="evenodd" clip-rule="evenodd" d="M112.773 239C116.401 230.345 120.122 220.243 123.702 209.811C125.035 221.3 127.255 232.839 130.951 239H112.773Z" fill="black" fill-opacity="0.1"/>
<path fill-rule="evenodd" clip-rule="evenodd" d="M398.924 196.729C394.289 199.521 389.734 200.87 387.596 200.319C382.235 198.938 381.742 179.344 385.89 171.62C390.038 163.895 411.363 160.528 412.437 175.833C412.81 181.145 410.578 185.885 407.28 189.754L413.194 217.295H396.014L398.924 196.729Z" fill="#B28B67"/>
<path fill-rule="evenodd" clip-rule="evenodd" d="M419.927 170.739C420.482 170.189 420.785 169.405 421.047 168.661C421.318 167.887 421.583 167.106 421.763 166.301C422.124 164.692 422.127 162.842 420.979 161.593C420.058 160.591 418.676 160.142 417.4 160.045C416.55 159.979 415.677 160.098 414.863 160.366C414.054 160.631 413.358 161.16 412.574 161.489C412.544 159.755 412.247 157.942 411.367 156.461C410.52 155.037 409.169 154.238 407.631 154.027C406.053 153.81 404.494 154.179 403.081 154.942C402.727 155.133 402.377 155.334 402.041 155.561C401.76 155.75 401.468 155.979 401.139 156.056C400.771 156.142 400.589 155.93 400.35 155.663C400.071 155.349 399.755 155.072 399.421 154.827C397.946 153.743 396.009 153.298 394.299 153.947C393.512 154.247 392.746 154.755 392.211 155.455C391.735 156.08 391.395 157.07 390.737 157.505C390.458 157.69 390.261 157.445 390.007 157.264C389.626 156.993 389.262 156.693 388.875 156.429C388.333 156.057 387.746 155.779 387.117 155.634C386.196 155.421 384.923 155.471 384.66 156.676C384.561 157.129 384.637 157.613 384.669 158.069C384.713 158.695 384.758 159.321 384.813 159.946C384.854 160.421 384.906 160.879 384.996 161.345C385.044 161.594 385.194 162.057 385.087 162.306C384.954 162.617 384.339 162.44 384.076 162.451C383.557 162.473 383.035 162.564 382.555 162.785C382.183 162.957 381.792 163.21 381.635 163.636C381.539 163.897 381.564 164.166 381.61 164.435C381.664 164.758 381.602 164.93 381.561 165.256C380.864 164.913 378.448 164.151 378.144 165.399C378.043 165.815 378.273 166.284 378.449 166.635C378.757 167.25 379.162 167.812 379.575 168.347C380.437 169.466 381.467 170.43 382.574 171.255C381.277 171.831 380.938 173.531 382.061 174.544C382.557 174.991 383.224 175.091 383.85 175.062C384.079 175.051 384.409 174.964 384.589 175.003C384.686 175.025 384.79 175.107 384.925 175.116C385.808 175.177 386.805 174.964 387.668 174.768C389.206 174.419 390.662 173.691 391.851 172.582C392.156 172.298 392.408 172.134 392.819 172.138C393.179 172.142 393.532 172.241 393.891 172.25C394.842 172.274 395.7 171.809 396.583 171.5C396.637 172.692 396.977 174.005 397.465 175.078C397.863 175.952 398.694 176.079 399.511 176.156C402.122 176.401 404.743 176.127 407.358 176.131C404.827 176.703 402.211 176.938 399.702 177.611C398.568 177.915 399.434 178.679 399.919 179.208C400.718 180.08 401.311 181.16 401.723 182.298C402.961 180.685 405.15 179.623 407.089 180.118C409.232 180.665 410.74 183.56 409.37 185.641C408.575 186.849 407.139 187.316 405.943 187.835C406.876 188.803 407.101 190.234 407.662 191.439C407.939 192.033 408.328 192.705 408.947 192.912C409.176 192.989 409.444 192.995 409.625 193.182C409.849 193.413 409.902 193.671 410.188 193.869C411.328 194.661 413.11 194.6 414.121 193.567C415.035 192.632 414.797 191.152 414.033 190.204C415.249 189.698 417.463 189.047 416.98 187.156C419.613 186.981 426.007 182.714 422.473 179.596C424.412 178.5 426.194 175.824 424.949 173.464C423.989 171.647 421.758 170.835 419.927 170.739Z" fill="#191847"/>
<path fill-rule="evenodd" clip-rule="evenodd" d="M444.244 306.691H388.944L381.698 395.372H464.016L444.244 306.691Z" fill="#C5CFD6"/>
<path fill-rule="evenodd" clip-rule="evenodd" d="M444.244 306.691H427.236L417.056 395.372H464.016L444.244 306.691Z" fill="black" fill-opacity="0.1"/>
<path fill-rule="evenodd" clip-rule="evenodd" d="M358.561 324.26C364.775 337.427 374.485 369.391 374.485 369.391L366.242 373.154C366.242 373.154 345.325 339.555 332.542 316.586C333.137 321.757 333.744 327.578 334.306 333.698C335.638 348.194 334.307 379.514 333.59 388.561C333.14 394.247 325.407 393.056 324.685 388.547C324.563 387.783 324.065 385.101 323.321 381.1C319.676 361.482 310.134 310.137 310.117 297.564C310.11 292.505 320.002 287.961 325.898 291.498C329.948 287.181 337.613 284.692 342.017 291.824C344.816 296.358 351.467 309.23 358.561 324.26Z" fill="#B28B67"/>
<path fill-rule="evenodd" clip-rule="evenodd" d="M373.896 357.557L345.602 290.59C338.824 279.697 319.819 292.807 322.131 299.126C327.379 313.47 354.068 359.909 355.632 364.183L373.896 357.557Z" fill="#1F28CF"/>
<path fill-rule="evenodd" clip-rule="evenodd" d="M372.978 365.962C373.69 365.033 375.031 364.806 375.917 365.572C377.029 366.534 378.377 367.803 378.907 368.72C379.875 370.395 381.174 373.932 381.174 373.932C379.228 375.054 346.21 394.1 346.21 394.1C346.21 394.1 342.245 390.385 344.974 388.332C347.703 386.279 349.478 384.87 349.478 384.87L361.375 368.494C361.706 368.038 362.348 367.946 362.794 368.289L365.07 370.04C365.07 370.04 368.521 369.739 370.22 368.759C371.111 368.245 372.171 367.016 372.978 365.962Z" fill="#E4E4E4"/>
<path fill-rule="evenodd" clip-rule="evenodd" d="M332.849 384.375C333.93 383.926 335.205 384.4 335.588 385.505C336.07 386.894 336.602 388.667 336.602 389.726C336.602 391.66 335.957 395.372 335.957 395.372C333.711 395.372 295.584 395.372 295.584 395.372C295.584 395.372 294.01 390.174 297.401 389.759C300.792 389.345 303.034 389.011 303.034 389.011L321.533 380.771C322.047 380.542 322.649 380.783 322.864 381.303L323.959 383.957C323.959 383.957 327.098 385.42 329.06 385.42C330.088 385.42 331.622 384.884 332.849 384.375Z" fill="#E4E4E4"/>
<path fill-rule="evenodd" clip-rule="evenodd" d="M308.134 302.709C308.134 321.709 317.165 366.028 317.171 370.212L336.602 370.227C336.602 370.227 332.336 310.909 333.577 310.27C334.817 309.631 384.436 315.219 399.317 315.219C420.776 315.219 429.653 301.699 430.373 276.654H387.864C379.209 277.579 334.062 286.677 317.295 289.805C310.117 291.144 308.134 297.476 308.134 302.709Z" fill="#2B44FF"/>
<path fill-rule="evenodd" clip-rule="evenodd" d="M356.396 218.503L381.241 232.099L372.066 241.938L354.013 225.423C344.503 222.804 340.153 220.889 340.965 219.676C341.65 218.653 342.754 218.689 343.771 218.722C344.564 218.747 345.303 218.771 345.75 218.292C346.771 217.197 344.823 213.369 342.819 209.815C340.815 206.262 342.958 206.571 344.183 207.082C348.193 209.794 352.264 213.601 356.396 218.503ZM331.415 237.58L342.329 243.57L341.707 254.512C341.707 254.512 334.639 249.415 328.558 247.721C320.804 245.561 317.667 243.912 313.878 239.088C311.851 236.507 310.13 231.319 312.06 229.63C312.8 228.982 315.558 230.513 318.372 232.075C320.517 233.266 322.694 234.475 324.035 234.75C325.841 235.122 325.629 232.784 325.461 230.915C325.339 229.574 325.24 228.475 325.923 228.793C329.118 228.847 331.415 237.58 331.415 237.58Z" fill="#997659"/>
<path fill-rule="evenodd" clip-rule="evenodd" d="M393.342 229.07C384.639 228.979 373.034 227.142 360.652 219.289L355.789 230.124C364.33 238.593 376.34 245.551 386.841 245.256C395.116 245.024 399.345 235.023 393.342 229.07Z" fill="#2026A2"/>
<path fill-rule="evenodd" clip-rule="evenodd" d="M416.813 303.3C425.086 302.222 432.688 301.232 437.193 302.118C442.248 285.717 438.05 275.391 434.176 265.858C431.841 260.112 429.622 254.655 429.618 248.331C429.604 229.912 414.801 201.561 412.623 201.561H411.998H394.738H392.762C391.874 212.959 388.084 225.3 384.27 237.72C383.379 240.62 382.487 243.525 381.63 246.423C367.196 249.696 335.145 238.302 335.145 238.302C335.145 238.302 327.054 255.026 327.664 262.148C346.32 271.884 362.309 276.225 375.483 276.512C375.064 284.321 376.015 291.752 379.212 298.542C383.494 307.64 401.329 305.317 416.813 303.3Z" fill="#1F28CF"/>
<path fill-rule="evenodd" clip-rule="evenodd" d="M506.787 200.339C505.592 196.353 502.786 193.234 499.873 190.375C494.202 184.811 491.152 181.37 489.131 173.231C487.943 168.443 486.733 163.37 482.963 159.897C480.218 157.368 475.494 155.243 471.823 157.054C466.176 160.424 464.66 167.34 465.229 173.533C465.935 181.208 469.521 185.941 476.41 188.768C480.292 190.36 482.872 192.461 484.979 196.122C486.665 199.049 487.648 202.715 489.766 205.368C492.932 209.335 496.895 211.099 501.779 210.44C497.204 202.024 491.859 193.529 485.412 186.444C484.809 185.731 481.249 183.005 481.967 181.791C482.758 180.454 486.412 185.475 486.386 185.445C488.26 187.595 489.993 189.88 491.696 192.187C491.692 192.189 491.687 192.191 491.682 192.193C493.435 194.56 495.174 196.962 496.879 199.394C497.569 200.423 498.241 201.465 498.883 202.533C499.827 204.1 501.324 208.548 502.867 209.512C503.197 209.718 503.503 209.833 503.788 209.881C504.841 211.605 505.866 213.343 506.841 215.101C509.386 219.694 511.57 224.542 512.573 229.727C512.865 231.241 512.658 236.901 513.692 237.994C515.581 239.992 515.027 236.144 514.914 234.983C513.976 225.365 510.522 217.171 505.508 209.085C507.048 207.073 507.271 201.954 506.787 200.339Z" fill="#F2F2F2"/>
<path fill-rule="evenodd" clip-rule="evenodd" d="M442.087 204.986C444.079 202.64 448.866 202.242 451.794 202.399C455.417 202.593 459.139 203.475 462.585 204.541C468.263 206.297 473.781 209.502 478.782 212.604C479.384 212.978 486.809 217.442 486.152 218.225C485.5 219.001 478.212 213.699 476.588 212.785C473.121 210.834 469.942 208.527 466.121 207.239C462.165 205.905 457.981 205.376 453.821 205.413C453.287 205.417 451.546 205.045 451.508 205.835C451.471 206.607 454.353 206.204 454.861 206.209C456.96 206.228 459.072 206.426 461.141 206.789C465.017 207.471 468.662 208.843 471.982 210.948C471.055 213.102 468.835 214.095 466.505 213.556C464.491 213.09 462.529 211.941 460.557 211.609C459.199 211.38 457.839 211.516 456.523 211.898C453.05 212.908 451.046 214.975 447.228 213.537C444.234 212.41 439.227 208.359 442.087 204.986Z" fill="#F2F2F2"/>
<path fill-rule="evenodd" clip-rule="evenodd" d="M433.523 167.185C429.101 166.863 424.163 170.391 422.03 174.063C420.311 177.023 420.6 180.911 421.662 184.056C422.374 186.162 423.926 189.164 426.514 189.193C429.753 189.23 429.909 185.271 429.972 182.957C430.055 179.88 430.448 177.199 432.899 175.102C433.202 174.843 433.519 174.601 433.837 174.359C434.119 174.143 434.401 173.928 434.672 173.702C434.715 173.666 434.759 173.629 434.803 173.593C435.67 172.872 436.58 172.116 436.691 170.928C436.851 169.207 435.869 168.897 434.369 169.217C434.321 169.227 434.189 169.276 434.011 169.343C433.245 169.63 431.61 170.243 431.919 169.511C432.036 169.235 432.461 169.016 432.998 168.852C434.387 168.703 436.043 168.529 436.519 168.633C441.658 169.748 443.659 176.788 444.19 181.261C444.25 181.768 444.298 182.276 444.34 182.785H445.282C445.216 181.59 445.13 180.396 444.928 179.214C444.171 174.783 441.803 168.276 436.609 167.557C436.417 167.53 435.713 167.526 434.859 167.575C434.454 167.351 434.001 167.216 433.523 167.185Z" fill="#F2F2F2"/>
</svg>
