<svg viewBox="0 0 551 454" fill="none" xmlns="http://www.w3.org/2000/svg">
<g opacity="0.5">
<path fill-rule="evenodd" clip-rule="evenodd" d="M272.744 137.079C272.734 137.102 272.725 137.126 272.711 137.153C272.725 137.13 272.744 137.037 272.744 137.079Z" fill="#C5CFD6"/>
<path fill-rule="evenodd" clip-rule="evenodd" d="M272.722 137.114C272.722 137.119 272.717 137.128 272.717 137.138C272.717 137.114 272.759 137.045 272.722 137.114Z" fill="#C5CFD6"/>
<path fill-rule="evenodd" clip-rule="evenodd" d="M272.884 136.721C272.851 136.814 272.809 136.902 272.772 136.995C272.79 136.949 272.809 136.911 272.828 136.865C272.344 138.075 272.651 137.288 272.884 136.721Z" fill="#C5CFD6"/>
<path fill-rule="evenodd" clip-rule="evenodd" d="M272.779 137.001C272.761 137.043 272.742 137.089 272.724 137.131C272.589 137.392 272.779 137.001 272.779 137.001Z" fill="#C5CFD6"/>
<path fill-rule="evenodd" clip-rule="evenodd" d="M272.725 137.116C272.725 137.111 272.725 137.111 272.73 137.106C272.725 137.111 272.725 137.111 272.725 137.116Z" fill="#C5CFD6"/>
<path fill-rule="evenodd" clip-rule="evenodd" d="M272.703 137.149C272.675 137.205 272.833 136.935 272.703 137.149V137.149Z" fill="#C5CFD6"/>
<path fill-rule="evenodd" clip-rule="evenodd" d="M272.723 137.116L272.732 137.106C272.727 137.111 272.727 137.116 272.723 137.116Z" fill="#C5CFD6"/>
<path fill-rule="evenodd" clip-rule="evenodd" d="M139 7.62981C139 3.41598 142.41 0 146.617 0H396.383C400.59 0 404 3.41598 404 7.62981V170.37C404 174.584 400.59 178 396.383 178H146.617C142.41 178 139 174.584 139 170.37V7.62981ZM146.617 5.86908C145.647 5.86908 144.86 6.65739 144.86 7.62981V170.37C144.86 171.343 145.647 172.131 146.617 172.131H396.383C397.353 172.131 398.14 171.343 398.14 170.37V7.62981C398.14 6.65739 397.353 5.86908 396.383 5.86908H146.617Z" fill="#D5D5D5"/>
<rect x="315" y="62" width="6" height="25" rx="3" fill="#DDE3E9"/>
<rect x="329" y="46" width="6" height="41" rx="3" fill="#DDE3E9"/>
<rect x="343" y="38" width="6" height="49" rx="3" fill="#DDE3E9"/>
<rect x="357" y="46" width="6" height="41" rx="3" fill="#DDE3E9"/>
<rect x="371" y="30" width="6" height="57" rx="3" fill="#C5CFD6"/>
<rect x="175" y="68.0488" width="4.54839" height="18.9516" rx="2.27419" fill="#DDE3E9"/>
<rect x="185.613" y="55.9194" width="4.54839" height="31.0806" rx="2.27419" fill="#DDE3E9"/>
<rect x="196.226" y="49.855" width="4.54839" height="37.1452" rx="2.27419" fill="#DDE3E9"/>
<rect x="206.839" y="55.9194" width="4.54839" height="31.0806" rx="2.27419" fill="#DDE3E9"/>
<rect x="217.452" y="43.7905" width="4.54839" height="43.2097" rx="2.27419" fill="#C5CFD6"/>
<path fill-rule="evenodd" clip-rule="evenodd" d="M272.051 72.5039C270.573 74.0679 268.479 75.05 266.15 75.05C261.675 75.05 258.048 71.4459 258.048 67C258.048 62.5541 261.675 58.95 266.15 58.95V44C253.42 44 243 54.3523 243 67C243 79.6477 253.42 90 266.15 90C272.837 90 278.88 87.1894 283 82.7182L272.051 72.5039Z" fill="#F2F2F2"/>
<path fill-rule="evenodd" clip-rule="evenodd" d="M266 44V58.95C270.446 58.95 274.05 62.5541 274.05 67H289C289 54.3523 278.648 44 266 44Z" fill="#AFB9C5"/>
<path fill-rule="evenodd" clip-rule="evenodd" d="M274.073 67C274.073 69.5552 272.869 71.8266 271 73.2931L280.196 85C285.55 80.8088 289 74.312 289 67H274.073Z" fill="#C5CFD6"/>
<path fill-rule="evenodd" clip-rule="evenodd" d="M268.374 150.885C268.371 150.892 268.368 150.9 268.363 150.909C268.368 150.901 268.374 150.872 268.374 150.885" fill="#C5CFD6"/>
<path fill-rule="evenodd" clip-rule="evenodd" d="M268.367 150.896C268.367 150.898 268.365 150.901 268.365 150.904C268.365 150.896 268.379 150.874 268.367 150.896" fill="#C5CFD6"/>
<path fill-rule="evenodd" clip-rule="evenodd" d="M268.418 150.771C268.408 150.801 268.394 150.829 268.383 150.858C268.388 150.844 268.394 150.832 268.4 150.817C268.247 151.2 268.344 150.951 268.418 150.771" fill="#C5CFD6"/>
<path fill-rule="evenodd" clip-rule="evenodd" d="M268.385 150.86C268.379 150.873 268.373 150.888 268.367 150.901C268.324 150.984 268.385 150.86 268.385 150.86" fill="#C5CFD6"/>
<path fill-rule="evenodd" clip-rule="evenodd" d="M268.368 150.897C268.368 150.895 268.368 150.895 268.369 150.894C268.368 150.895 268.368 150.895 268.368 150.897" fill="#C5CFD6"/>
<path fill-rule="evenodd" clip-rule="evenodd" d="M268.361 150.907C268.352 150.925 268.402 150.839 268.361 150.907Z" fill="#C5CFD6"/>
<path fill-rule="evenodd" clip-rule="evenodd" d="M268.367 150.897L268.37 150.894C268.368 150.895 268.368 150.897 268.367 150.897" fill="#C5CFD6"/>
<rect x="233" y="112.579" width="70" height="46.4211" rx="4" fill="#DDE3E9"/>
<path fill-rule="evenodd" clip-rule="evenodd" d="M259.526 125.842L238.895 159H280.158L259.526 125.842Z" fill="#AFB9C5"/>
<path fill-rule="evenodd" clip-rule="evenodd" d="M279.789 134.684L261.737 159H297.842L279.789 134.684Z" fill="#C5CFD6"/>
<path fill-rule="evenodd" clip-rule="evenodd" d="M287.526 134.685C291.189 134.685 294.158 131.715 294.158 128.053C294.158 124.39 291.189 121.421 287.526 121.421C283.864 121.421 280.895 124.39 280.895 128.053C280.895 131.715 283.864 134.685 287.526 134.685Z" fill="white"/>
</g>
<path opacity="0.3" fill-rule="evenodd" clip-rule="evenodd" d="M541.596 380.384C552.541 406.523 364.307 445.972 199.139 452.438C33.9699 458.904 -46.6647 419.451 28.5415 384.882C103.748 350.312 530.651 354.244 541.596 380.384Z" fill="#DDE3E9"/>
<g opacity="0.504511">
<path fill-rule="evenodd" clip-rule="evenodd" d="M550.379 315.306C554.06 342.838 464.778 360.796 387.932 348.264C311.085 335.731 275.831 286.79 312.501 260.712C349.171 234.634 546.697 287.774 550.379 315.306Z" fill="#F2F2F2"/>
</g>
<path fill-rule="evenodd" clip-rule="evenodd" d="M439.933 200.578C441.322 199.517 443.477 200.193 444.876 200.82C445.415 201.062 446.792 201.835 447.813 202.705C447.678 202.102 447.558 201.493 447.453 200.88C447.02 198.359 446.723 195.789 446.58 193.235C446.542 192.569 446.591 191.825 446.64 191.071L446.64 191.07L446.64 191.07C446.657 190.815 446.674 190.558 446.687 190.303C446.631 190.243 446.593 190.16 446.578 190.047C446.572 190.094 446.568 190.131 446.566 190.16C446.562 190.206 446.56 190.23 446.552 190.232C446.545 190.233 446.532 190.214 446.506 190.174C446.496 190.159 446.484 190.141 446.47 190.119C445.436 188.573 444.568 186.832 444.449 184.917C444.348 183.293 445.682 180.22 447.573 182.347C448.419 183.297 448.2 189.969 446.929 190.378C447.268 192.589 447.695 194.796 448.23 196.975C448.31 196.961 448.392 196.959 448.472 196.97C448.465 196.429 448.464 195.837 448.486 195.634C448.677 193.883 450.139 190.328 452.467 191.018C454.256 191.549 453.16 193.732 452.551 194.688C451.571 196.227 450.462 196.893 449.058 197.693C449.03 198.024 448.817 198.216 448.565 198.279C449.505 201.798 450.74 205.23 452.357 208.472L452.4 208.266L452.4 208.266C452.605 207.282 452.844 206.135 452.996 205.894C453.788 204.632 455.542 203.092 457.159 203.838C460.555 205.408 456.869 209.918 453.977 210.409C453.857 210.575 453.73 210.709 453.594 210.785C454.156 211.764 454.757 212.722 455.399 213.656C456.363 215.06 457.398 216.46 458.484 217.851C458.517 216.763 458.947 214.337 459.069 214.076C459.81 212.493 461.947 210.865 463.681 211.989C465.631 213.257 463.863 215.653 462.751 216.737C462.295 217.182 460.04 218.811 459.245 218.818C461.868 222.099 464.763 225.325 467.707 228.433C467.463 227.042 467.144 223.209 467.18 222.784C467.363 220.588 468.805 217.077 471.647 217.932C474.403 218.761 473.184 222.409 472.24 224.148C471.669 225.201 470.878 226.27 469.925 227.004C469.753 227.136 469.529 227.244 469.305 227.352C469.035 227.482 468.765 227.612 468.589 227.784C468.432 227.937 468.384 228.112 468.336 228.287C468.286 228.471 468.236 228.653 468.058 228.805C469.649 230.478 471.251 232.116 472.83 233.708C473.575 234.46 474.334 235.197 475.1 235.925C475.519 235.751 476.117 235.979 476.085 236.573C476.081 236.659 476.061 236.734 476.034 236.802C476.615 237.342 477.199 237.879 477.788 238.41C477.774 238.255 477.778 238.037 477.805 237.736C477.381 238.339 477.399 237.46 477.413 236.791C477.417 236.554 477.422 236.343 477.406 236.233C477.343 235.803 477.263 235.377 477.182 234.951L477.182 234.951C477.01 234.042 476.839 233.135 476.848 232.197C476.866 230.205 478.127 226.867 480.78 228.053C483.219 229.141 482.332 232.093 481.411 233.944C480.829 235.115 480.032 236.161 479.199 237.162C479.05 237.34 478.885 237.582 478.722 237.822C478.479 238.178 478.241 238.528 478.064 238.658C480.329 240.69 482.647 242.662 484.966 244.633L484.966 244.634L484.966 244.634C486.005 245.517 487.043 246.4 488.077 247.289C488.122 247.094 488.159 246.9 488.191 246.72C488.126 246.793 488.038 246.827 487.925 246.82C487.895 246.671 487.852 246.472 487.8 246.234L487.799 246.233C487.161 243.32 485.217 234.448 490.482 236.168C494.339 237.431 491.616 245.157 488.739 247.859C490.485 249.368 492.215 250.896 493.904 252.47C495.126 253.608 496.312 254.786 497.453 256.003C496.862 254.427 496.306 252.387 496.671 250.764C497.203 248.401 499.693 246.17 502.125 247.515C505.157 249.198 502.824 251.497 500.637 253.652C499.521 254.753 498.442 255.816 498.134 256.741C501.761 260.733 504.857 265.168 506.926 270.22C509.176 275.714 511.265 283.096 510.11 289.243C510.323 286.54 509.411 283.147 508.77 280.763C508.683 280.439 508.601 280.133 508.527 279.85C507.564 276.154 506.197 272.558 504.395 269.192C501.508 263.8 497.695 259.224 493.293 255.069C492.291 255.418 491.202 256.066 490.3 256.602C489.747 256.93 489.265 257.217 488.915 257.368C487.231 258.096 483.997 259.138 482.924 256.847C481.869 254.594 484.562 253.334 486.231 252.829C487.844 252.342 489.298 252.401 490.803 252.8C488.473 250.733 486.086 248.73 483.699 246.728C483.26 246.36 482.821 245.992 482.383 245.623C481.776 246.121 481.106 246.841 480.395 247.605L480.395 247.605C478.137 250.03 475.462 252.903 473.073 250.556C469.468 247.013 476.363 243.413 479.301 243.694C479.661 243.728 480.01 243.804 480.35 243.908C477.355 241.362 474.405 238.764 471.616 235.983C471.115 236.075 470.319 236.812 469.361 237.698C467.21 239.689 464.248 242.429 462.017 240.271C460.407 238.714 460.958 236.288 462.515 234.901C464.078 233.508 466.343 233.51 468.269 233.979C469.102 234.181 469.87 234.566 470.586 235.036L470.674 235.041C467.93 232.275 465.168 229.448 462.508 226.524C462.462 226.539 462.414 226.554 462.367 226.57C462.206 226.767 461.937 226.839 461.69 226.796C461.554 226.842 461.415 226.89 461.273 226.939C459.167 227.667 456.459 228.603 454.359 228.199C452.814 227.902 451.411 226.645 452.719 225.096C453.783 223.837 456.668 224.018 458.076 224.316C458.762 224.462 459.51 224.884 460.26 225.308C460.575 225.486 460.891 225.664 461.202 225.822C461.283 225.659 461.425 225.554 461.586 225.503C458.959 222.565 456.453 219.525 454.18 216.354C453.492 216.46 452.729 216.763 451.942 217.075C450.048 217.826 448.015 218.632 446.557 216.896C444.403 214.333 448.453 212.837 450.378 213.081C451.029 213.163 451.67 213.347 452.288 213.591C450.634 210.98 449.371 208.188 448.484 205.257C448.475 205.261 448.467 205.266 448.459 205.27L448.459 205.27C448.447 205.277 448.434 205.284 448.419 205.291C448.425 205.287 448.431 205.284 448.437 205.28C448.443 205.276 448.449 205.273 448.456 205.269L448.456 205.269C448.464 205.263 448.473 205.257 448.482 205.252C448.394 204.959 448.309 204.664 448.228 204.368C448.077 204.285 447.937 204.223 447.869 204.198C448.744 204.801 445.054 205.097 444.363 205.152C442.835 205.274 440.788 205.32 439.667 204.067C438.726 203.014 438.781 201.459 439.933 200.578ZM510.274 289.251C510.209 290.142 510.048 290.958 509.748 291.63C509.973 290.865 510.146 290.069 510.274 289.251Z" fill="#F2F2F2"/>
<g opacity="0.7">
<path fill-rule="evenodd" clip-rule="evenodd" d="M449.215 268.351C454.684 268.067 461.448 271.259 462.032 277.203C462.456 281.521 462.324 285.828 462.98 290.14C463.505 293.586 464.614 296.895 466.127 300.034C467.582 303.053 470.6 305.623 471.385 308.848C471.885 310.903 471.605 313.793 470.915 315.803C470.076 318.247 470.522 318.054 472.194 320.104C475.47 324.123 478.42 328.244 480.506 333.044C483.51 339.957 485.48 348.037 484.365 355.604C484.223 356.565 484.055 360.014 482.732 360.255C481.253 360.524 481.945 358.552 482.023 357.915C482.526 353.85 482.973 350.297 482.367 346.168C480.026 330.239 468.596 319.744 461.154 306.225C460.745 305.528 459.881 303.867 459.28 302.772C458.332 301.043 457.379 297.753 456.096 296.471C453.678 294.055 455.901 298.911 456.372 299.838C456.967 301.011 457.622 302.257 458.233 303.285C461.025 308.048 464.142 313.247 467.025 318.156C454.553 320.997 445.769 306.006 442.422 296.151C439.665 288.03 436.365 269.046 449.215 268.351Z" fill="#69A1AC"/>
<path fill-rule="evenodd" clip-rule="evenodd" d="M522.52 253.272C513.377 253.997 507.507 260.029 504.775 268.465C503.302 273.012 503.133 277.682 502.315 282.355C501.084 289.384 498.435 294.711 493.259 299.72C491.655 301.271 490.474 302.863 489.634 304.567C487.967 306.268 486.515 308.193 485.449 310.546C484.087 313.552 483.701 317.158 485.274 320.155C485.697 320.96 486.752 322.577 487.845 323.312C483.752 332.027 481.501 341.573 481.755 351.106C481.908 356.86 482.189 362.617 482.517 368.365C482.605 369.908 483.108 372.457 483.863 369.868C484.554 367.501 483.687 363.785 483.607 361.311C483.217 349.263 482.884 338.309 487.844 327.052C488.364 325.872 488.916 324.702 489.49 323.541C489.524 323.522 489.555 323.498 489.587 323.475C489.609 323.492 489.629 323.51 489.651 323.527C489.687 323.461 489.738 323.383 489.796 323.296C489.961 323.127 490.105 322.912 490.242 322.672C490.682 322.062 491.18 321.346 491.182 320.954C491.182 320.951 491.181 320.946 491.181 320.943C494.252 315.931 497.769 311.196 501.362 306.553C501.335 306.586 505.259 301.245 504.652 304.199C504.359 305.623 501.473 308.333 500.307 309.841C497.729 313.196 494.701 317.446 492.184 321.557C491.846 321.751 491.367 322.706 491.021 323.418C490.83 323.778 490.652 324.142 490.477 324.458C499.393 327.404 506.329 321.471 511.058 314.571C511.064 314.562 511.069 314.554 511.075 314.546C512.514 312.639 513.988 310.746 515.83 309.239C518.903 306.724 522.194 306.28 525.817 305.042C535.697 301.667 539.898 288.865 541.232 279.365C542.738 268.648 535.375 252.215 522.52 253.272Z" fill="#89C5CC"/>
<path fill-rule="evenodd" clip-rule="evenodd" d="M504.459 223.26C495.075 233.024 490.542 246.567 486.952 259.299C482.943 273.52 480.295 287.96 480.193 302.745C480.126 312.458 479.862 322.233 480.429 331.935C480.63 335.381 480.974 338.833 481.52 342.242C481.565 342.522 482.787 350.133 483.957 348.359C484.622 347.351 482.704 340.464 482.559 339.317C481.744 332.856 481.554 326.348 481.594 319.84C481.66 309.126 481.344 298.467 482.43 287.792C482.592 286.198 482.72 284.524 483.098 282.965C483.5 281.307 482.988 282.031 484.298 281.375C485.571 280.737 487.143 280.828 488.463 280.027C493.7 276.852 496.379 268.697 498.464 263.346C500.849 257.227 502.298 250.702 503.456 244.262C504.306 239.531 504.914 234.829 505.258 230.036C505.366 228.526 505.373 226.947 505.67 225.462C505.749 225.061 506.151 224.352 506.136 223.998C506.105 223.247 505.652 222.805 505.615 222.174C505.222 222.528 504.837 222.89 504.459 223.26Z" fill="#89C5CC"/>
<path fill-rule="evenodd" clip-rule="evenodd" d="M453.292 353.354C453.292 369.502 466.386 382.592 482.537 382.592C498.688 382.592 511.781 369.502 511.781 353.354" fill="#89C5CC"/>
<path fill-rule="evenodd" clip-rule="evenodd" d="M502.578 327.755C509.816 327.221 517.899 333.059 521.39 339.134C524.205 344.033 523.731 350.465 521.992 355.668C520.828 359.152 518.287 364.12 514.051 364.168C508.75 364.229 508.494 357.678 508.392 353.849C508.255 348.758 507.612 344.324 503.6 340.854C503.104 340.425 502.584 340.024 502.065 339.623C501.603 339.268 501.142 338.912 500.698 338.537C500.627 338.477 500.556 338.417 500.484 338.357C499.065 337.165 497.575 335.912 497.394 333.947C497.131 331.099 498.739 330.587 501.194 331.116C501.273 331.133 501.488 331.215 501.781 331.326C503.034 331.801 505.71 332.814 505.204 331.602C505.013 331.146 504.317 330.784 503.438 330.513C501.165 330.266 498.454 329.979 497.675 330.15C489.264 331.995 485.989 343.644 485.119 351.044C485.025 351.843 484.949 352.645 484.883 353.447H483.338C483.445 351.509 483.587 349.574 483.911 347.657C485.151 340.327 489.027 329.56 497.528 328.37C497.841 328.325 498.995 328.318 500.392 328.4C501.055 328.03 501.797 327.806 502.578 327.755Z" fill="#69A1AC"/>
</g>
<path opacity="0.2" fill-rule="evenodd" clip-rule="evenodd" d="M93.5803 173.527C92.5665 172.76 90.9926 173.25 89.9713 173.703C89.5778 173.878 88.5721 174.438 87.8261 175.067C87.9248 174.631 88.013 174.191 88.0899 173.748C88.4064 171.924 88.6246 170.067 88.73 168.219C88.7575 167.738 88.7223 167.2 88.6867 166.654L88.6867 166.654L88.6867 166.654C88.6746 166.469 88.6625 166.284 88.6527 166.099C88.6936 166.056 88.7212 165.996 88.7328 165.914C88.7371 165.948 88.7395 165.975 88.7414 165.996C88.7444 166.029 88.7459 166.046 88.7513 166.048C88.7568 166.049 88.7662 166.035 88.7851 166.006C88.7924 165.995 88.8011 165.982 88.8116 165.966C89.5668 164.848 90.2011 163.588 90.2889 162.204C90.3632 161.029 89.3902 158.808 88.0087 160.347C87.3906 161.034 87.5485 165.858 88.4762 166.153C88.2275 167.752 87.9151 169.348 87.5239 170.924C87.4654 170.914 87.4057 170.913 87.3467 170.921C87.3525 170.529 87.3533 170.102 87.3372 169.955C87.1988 168.689 86.1323 166.119 84.4323 166.619C83.1259 167.003 83.9257 168.581 84.3698 169.272C85.0848 170.385 85.894 170.866 86.9188 171.444C86.9392 171.683 87.0948 171.822 87.2785 171.867C86.5909 174.412 85.6878 176.894 84.5065 179.239L84.4751 179.09L84.4751 179.09C84.3256 178.379 84.1514 177.549 84.0408 177.375C83.4629 176.463 82.183 175.35 81.002 175.89C78.5215 177.027 81.2116 180.287 83.3227 180.641C83.4104 180.761 83.5032 180.857 83.6019 180.913C83.1914 181.62 82.7526 182.314 82.2831 182.989C81.5791 184.005 80.8224 185.017 80.0292 186.024C80.0052 185.237 79.6923 183.483 79.6034 183.294C79.0627 182.15 77.5029 180.973 76.2366 181.787C74.8124 182.704 76.1025 184.436 76.9142 185.22C77.2468 185.541 78.8925 186.718 79.4732 186.723C77.5568 189.097 75.4417 191.43 73.2913 193.679C73.4699 192.673 73.7039 189.901 73.6781 189.594C73.5455 188.006 72.4937 185.467 70.4186 186.087C68.4054 186.688 69.2945 189.325 69.9829 190.582C70.3999 191.343 70.9766 192.116 71.6722 192.646C71.7976 192.742 71.9614 192.82 72.1249 192.898C72.322 192.992 72.5188 193.085 72.6473 193.21C72.7619 193.32 72.797 193.447 72.8318 193.573C72.8686 193.706 72.905 193.838 73.0344 193.948C71.8723 195.158 70.702 196.343 69.5485 197.495C69.0043 198.039 68.4502 198.572 67.8906 199.099C67.5846 198.973 67.1482 199.139 67.1707 199.568C67.174 199.63 67.1885 199.684 67.2081 199.733C66.784 200.124 66.3573 200.513 65.9272 200.897C65.937 200.785 65.9343 200.627 65.9146 200.409C66.2239 200.845 66.2113 200.21 66.2017 199.726C66.1983 199.554 66.1952 199.402 66.2069 199.323C66.2526 199.011 66.3116 198.703 66.3705 198.395C66.4964 197.738 66.6218 197.082 66.6159 196.404C66.6031 194.964 65.6839 192.55 63.7464 193.409C61.9649 194.197 62.6118 196.331 63.283 197.669C63.708 198.515 64.2896 199.271 64.8975 199.995C65.0059 200.124 65.1262 200.299 65.2453 200.472C65.4222 200.729 65.5964 200.982 65.7252 201.077C64.0708 202.546 62.3775 203.973 60.6841 205.4L60.6839 205.4L60.6837 205.4C59.9252 206.039 59.1666 206.678 58.4115 207.321C58.3787 207.18 58.3517 207.04 58.3283 206.909C58.3755 206.962 58.4397 206.987 58.5221 206.982C58.5442 206.874 58.576 206.73 58.6143 206.558C59.0815 204.451 60.5046 198.035 56.6597 199.28C53.8427 200.195 55.8279 205.78 57.9275 207.733C56.6522 208.825 55.3889 209.931 54.1552 211.069C53.2624 211.893 52.3961 212.745 51.5626 213.625C51.9942 212.486 52.4011 211.011 52.1352 209.837C51.7479 208.129 49.9302 206.516 48.1541 207.489C45.9401 208.708 47.6421 210.369 49.2381 211.927C50.0531 212.722 50.8404 213.491 51.0647 214.16C48.4152 217.048 46.1529 220.256 44.6404 223.91C42.9955 227.883 41.4677 233.222 42.3089 237.666C42.1542 235.712 42.8215 233.257 43.2901 231.534C43.3539 231.299 43.4141 231.078 43.4679 230.874C44.1721 228.2 45.1719 225.599 46.489 223.165C48.5986 219.265 51.3842 215.955 54.5998 212.948C55.3316 213.201 56.1262 213.668 56.7844 214.056L56.7844 214.056C57.1881 214.293 57.5404 214.501 57.7953 214.61C59.0249 215.135 61.3857 215.888 62.17 214.231C62.9411 212.601 60.9753 211.691 59.757 211.327C58.5795 210.975 57.5178 211.018 56.4191 211.307C58.1212 209.811 59.8647 208.362 61.6079 206.914L61.6079 206.914C61.9285 206.647 62.2491 206.381 62.5695 206.114C63.0122 206.474 63.5011 206.994 64.0202 207.547L64.0203 207.547C65.6679 209.299 67.6198 211.376 69.3649 209.678C71.9985 207.115 66.9655 204.514 64.8205 204.718C64.5572 204.743 64.3025 204.798 64.054 204.873C66.2422 203.031 68.3967 201.152 70.4342 199.14C70.7998 199.206 71.3813 199.739 72.0799 200.379C73.65 201.817 75.8114 203.798 77.441 202.237C78.6174 201.11 78.2157 199.356 77.0796 198.354C75.9391 197.347 74.2849 197.349 72.8787 197.689C72.2708 197.836 71.7099 198.114 71.187 198.454L71.1221 198.458C73.1272 196.457 75.1445 194.412 77.0876 192.297C77.1104 192.304 77.1337 192.311 77.1571 192.319C77.1684 192.322 77.1797 192.326 77.191 192.33C77.3084 192.472 77.505 192.524 77.6851 192.493C77.7843 192.526 77.8857 192.561 77.9891 192.596C79.5271 193.122 81.5038 193.797 83.0371 193.505C84.1657 193.29 85.1899 192.38 84.2354 191.26C83.4593 190.35 81.3525 190.482 80.3249 190.698C79.8235 190.804 79.2775 191.109 78.7296 191.416C78.4995 191.545 78.269 191.674 78.0413 191.788C77.9823 191.67 77.8792 191.594 77.7617 191.558C79.6805 189.432 81.5115 187.234 83.1724 184.939C83.6747 185.016 84.2317 185.235 84.8062 185.46C86.1887 186.002 87.6724 186.584 88.7381 185.329C90.3114 183.475 87.3549 182.394 85.9491 182.571C85.4744 182.631 85.0063 182.764 84.5544 182.941C85.7631 181.052 86.6864 179.033 87.3355 176.913C87.3418 176.916 87.3476 176.919 87.3534 176.923C87.3625 176.928 87.3716 176.933 87.3828 176.938C87.3731 176.932 87.3645 176.927 87.356 176.921C87.3496 176.917 87.3433 176.913 87.3366 176.91C87.4013 176.697 87.4635 176.484 87.5227 176.271C87.6325 176.21 87.7352 176.165 87.7843 176.147C87.1454 176.584 89.8398 176.796 90.3444 176.836C91.4599 176.923 92.9543 176.956 93.7733 176.049C94.461 175.288 94.4214 174.163 93.5803 173.527ZM42.1419 237.49C42.1912 238.084 42.3376 238.626 42.6258 239.069C42.4142 238.562 42.2555 238.034 42.1419 237.49Z" fill="#C1DEE2"/>
<g opacity="0.5">
<path fill-rule="evenodd" clip-rule="evenodd" d="M79.1288 224.84C80.8123 222.44 83.9363 216.345 86.3058 215.488C87.832 214.935 87.387 220.649 87.4058 221.739C87.4792 225.954 87.0688 230.142 86.5619 234.321C85.6488 241.859 82.6629 248.573 78.5675 254.988C76.4601 258.289 73.9883 261.631 70.5648 263.69C68.9889 264.639 67.0927 264.798 65.5364 265.615C63.7239 266.566 64.711 265.797 63.8942 267.686C62.7598 270.307 62.397 273.69 61.8722 276.487C59.4623 289.329 53.6282 357.214 54.6396 370.276C54.7294 371.434 53.1147 371.711 53.0341 370.298C52.6056 362.803 56.3131 310.904 58.1836 293.932C60.0541 276.959 61.9469 261.965 63.8449 256.093C66.1474 248.969 70.3059 240.402 73.7675 233.759C75.3754 230.672 77.128 227.692 79.1288 224.84Z" fill="#69A1AC"/>
<path fill-rule="evenodd" clip-rule="evenodd" d="M91.6242 308.083C96.0049 304.867 100.747 310.936 96.7825 314.152C94.5911 315.929 92.3001 315.297 91.0103 313.816C90.1731 314.836 89.3894 315.903 88.6364 316.804C86.3423 319.55 84.1739 322.362 82.1016 325.239C77.7968 331.216 74.1075 337.53 70.2502 343.73C66.4435 349.848 62.6673 355.998 59.217 362.271C56.2941 367.586 52.3982 373.839 51.3975 379.665C52.9158 367.308 58.6773 355.43 65.5381 344.536C72.3432 333.731 80.1528 321.931 90.6895 313.404C89.6171 311.827 89.5874 309.577 91.6242 308.083Z" fill="#C1DEE2"/>
<path fill-rule="evenodd" clip-rule="evenodd" d="M8.49764 277.944C10.9491 278.424 14.9547 283.968 16.9754 286.081C19.3768 288.591 21.5555 291.267 23.6092 294.07C28.0305 300.104 31.9844 306.52 35.3467 313.21C40.828 324.117 45.2193 335.313 48.4062 347.19C50.357 354.46 51.6201 361.995 52.3687 369.478C52.51 370.889 53.9899 381.769 51.8575 382.063C49.9397 382.327 50.532 373.801 50.4395 372.641C49.3937 359.558 46.2606 346.828 41.9025 334.497C40.9532 331.81 40.0713 328.52 38.5532 326.103C37.46 324.361 38.5454 324.969 36.6242 324.31C34.9745 323.743 33.0949 323.882 31.4057 323.189C27.7358 321.684 24.7973 318.763 22.2215 315.825C17.2159 310.115 13.2492 303.937 11.1815 296.621C10.0345 292.564 8.98044 288.483 8.39551 284.301C8.2442 283.22 6.9187 277.636 8.49764 277.944Z" fill="#69A1AC"/>
<path fill-rule="evenodd" clip-rule="evenodd" d="M18.1716 185.698C27.4056 201.708 34.9937 219.296 39.8934 237.109C42.862 247.902 44.9381 258.977 47.0008 269.972C50.1946 286.997 53.2155 304.02 54.0748 321.347C54.9393 338.774 56.6489 358.875 50.9411 375.66C53.7922 358.618 51.0778 340.479 50.5972 323.332C50.3675 315.146 49.702 307.04 48.8289 298.902C47.9817 291.007 46.5975 283.151 45.3086 275.318C44.6807 271.504 44.0213 267.695 43.35 263.888C43.1496 262.753 43.0649 259.383 42.3443 258.607C41.6191 257.826 37.9187 257.507 36.757 256.934C34.4177 255.78 32.2172 254.141 30.2698 252.409C26.5365 249.088 23.2887 244.749 20.7253 240.472C14.7942 230.576 12.423 218.498 12.5428 207.037C12.5658 204.812 16.1453 180.849 14.7077 180.519C14.7943 180.418 14.8762 180.313 14.9534 180.204C16.0418 182.026 17.1098 183.86 18.1716 185.698Z" fill="#89C5CC"/>
<path fill-rule="evenodd" clip-rule="evenodd" d="M117.837 243.442C117.979 243.236 118.907 241.807 118.44 241.899C119.39 241.713 117.132 243.475 119.501 242.394C118.376 243.456 119.025 244.835 119.04 246.265C119.065 248.585 118.676 250.887 118.239 253.158C117.548 256.748 116.519 260.238 115.025 263.577C111.77 270.853 106.241 277.858 99.6781 282.407C96.438 284.653 93.2626 285.417 89.5673 286.451C87.2332 287.104 87.0481 288.312 85.8091 290.576C83.2297 295.293 80.6962 299.992 78.4214 304.868C75.7051 310.69 73.0683 316.518 70.581 322.443C62.2017 342.399 55.3817 363.075 51.8 384.472C51.7123 371.862 54.6298 358.876 58.31 346.858C60.9908 338.101 64.4807 329.66 68.203 321.305C69.1049 319.28 70.4718 316.677 70.8549 314.442C71.1231 312.876 70.3031 311.37 69.9277 309.721C68.464 303.297 68.5688 296.101 69.8541 289.643C71.2712 282.522 75.3696 279.217 82.3024 278.209C84.8379 277.84 88.0606 277.975 90.3855 276.894C92.9185 275.717 93.9634 271.848 95.4037 269.365C99.2724 262.693 103.869 256.295 109.147 250.674C110.609 249.118 112.18 247.682 113.848 246.351C114.899 245.511 117.12 244.476 117.837 243.442Z" fill="#89C5CC"/>
<path fill-rule="evenodd" clip-rule="evenodd" d="M38.593 376.387C38.1629 373.471 40.4226 370.854 43.3698 370.854H61.4282C64.3755 370.854 66.6351 373.471 66.205 376.387L65.4314 381.632C64.4781 388.095 58.932 392.883 52.399 392.883C45.866 392.883 40.3199 388.095 39.3666 381.632L38.593 376.387Z" fill="#C1DEE2"/>
</g>
<path fill-rule="evenodd" clip-rule="evenodd" d="M17.9138 377.445C17.9138 385.971 18.5867 392.883 27.6196 392.883C36.6525 392.883 37.3255 385.971 37.3255 377.445" fill="#F2F2F2"/>
<path fill-rule="evenodd" clip-rule="evenodd" d="M30.3069 372.125C29.9758 372.698 29.6805 373.281 29.4198 373.874C29.4105 372.654 29.478 371.424 29.6624 370.178C29.9774 368.044 30.4586 365.92 30.9108 363.8C31.2357 362.276 31.2152 359.54 32.4485 358.326C32.7867 358.063 32.8681 358.578 32.8681 358.801C32.8724 358.849 32.8672 357.89 32.5389 358.057C30.5877 359.064 29.9555 362.232 29.3308 363.818C28.4194 366.134 27.6439 368.5 27.3246 370.909C27.2439 371.518 27.2 372.126 27.1898 372.733C27.1235 372.571 27.0612 372.407 26.9923 372.245C25.8661 369.605 24.3463 367.028 22.4508 364.651C21.9842 364.067 16.1176 358.297 15.6584 359.18C15.7037 359.309 15.7986 359.415 15.9432 359.5C15.9517 359.509 15.952 359.504 15.947 359.49C16.2915 360.046 17.2712 360.905 17.5763 361.393C18.3442 362.62 18.9411 363.922 19.5476 365.199C20.829 367.899 22.0177 370.625 23.1701 373.357C23.4384 373.994 23.7181 374.626 24.0034 375.257C21.0622 371.016 17.1385 367.165 11.7373 364.961C13.5821 365.899 14.7916 367.665 16.0374 369.016C17.54 370.647 19.1226 372.233 20.628 373.862C22.4036 375.783 24.4929 377.806 26.2008 379.932C27.8551 383.405 29.4627 386.881 30.4551 390.531C30.0484 389.27 30.4232 387.527 30.3536 386.204C30.2984 385.15 30.1752 384.105 30.0064 383.062C30.2151 383.533 30.3949 384.003 30.4763 384.441C30.402 383.707 30.3163 382.977 30.2243 382.251C30.4605 381.571 30.6925 380.937 30.8492 380.415C31.6523 377.734 32.6085 375.1 33.9107 372.533C35.1157 370.158 36.498 367.814 38.0041 365.541C38.7067 364.481 39.4189 363.425 40.1266 362.368C40.5899 361.675 41.031 360.567 41.6759 359.903C37.5069 363.714 32.9519 367.553 30.3069 372.125Z" fill="#F2F2F2"/>
<path fill-rule="evenodd" clip-rule="evenodd" d="M154.052 126.752C159.071 129.776 164.004 131.238 166.319 130.641C172.124 129.145 172.658 107.916 168.166 99.5467C163.674 91.1774 140.582 87.5295 139.418 104.112C139.014 109.867 141.431 115.003 145.003 119.194L138.598 149.033H157.203L154.052 126.752Z" fill="#B28B67"/>
<path fill-rule="evenodd" clip-rule="evenodd" d="M154.982 105.943C156.591 103.548 158.136 101.721 160.146 100.66C168.325 100.789 169.282 99.3238 169.282 94.384C167.961 93.4391 163.3 91.848 158.08 91.4005C155.417 90.6388 152.263 90.782 149.224 92.0526C145.473 93.1165 142.296 95.4078 140.893 99.6974C135.817 108.454 139.67 117.569 144.862 120.683C146.244 119.046 147.45 117.46 148.526 115.941C147.662 115.097 147.125 113.919 147.125 112.615C147.125 110.048 149.208 107.966 151.776 107.966C151.965 107.966 152.151 107.978 152.334 107.999C152.45 111.21 152.926 122.071 154.175 125.843C155.648 130.291 164.244 131.383 167.242 131.383C169.831 131.383 169.743 128.932 169.68 127.176C169.671 126.923 169.662 126.684 169.662 126.469C169.662 126.02 169.078 126.022 168.419 126.023C167.562 126.025 166.577 126.027 166.577 125.044C166.577 123.973 168.058 123.152 169.383 122.417C170.209 121.958 170.975 121.533 171.283 121.102C172.255 119.742 172.583 117.908 171.117 117.908C170.315 117.908 169.216 118.37 167.893 118.926C165.896 119.765 163.39 120.817 160.633 120.817C156.078 120.817 154.995 106.126 154.982 105.943Z" fill="#191847"/>
<path fill-rule="evenodd" clip-rule="evenodd" d="M133.141 216.497L161.245 315.079L181.75 387.739H196.705L174.916 216.497H133.141Z" fill="#191847"/>
<path fill-rule="evenodd" clip-rule="evenodd" d="M125.625 216.497C124.975 267.307 122.759 295.021 122.076 299.637C121.394 304.253 111.074 333.621 91.1163 387.739H106.609C132.016 335.822 146.199 306.454 149.158 299.637C152.117 292.82 161.248 265.106 175 216.497H125.625Z" fill="#2F3676"/>
<path fill-rule="evenodd" clip-rule="evenodd" d="M89.7316 401.686L90.5068 385.415L106.785 385.415C118.364 393.55 137.017 398.587 137.017 398.587V401.686H107.561L97.4833 400.137V401.686H89.7316Z" fill="#191847"/>
<path fill-rule="evenodd" clip-rule="evenodd" d="M179.651 401.686L180.426 385.415L196.705 385.415C208.283 393.55 226.937 398.587 226.937 398.587V401.686H197.48L187.403 400.137V401.686H179.651Z" fill="#191847"/>
<path fill-rule="evenodd" clip-rule="evenodd" d="M190.123 136.954L215.133 117.393C218.828 111.21 222.649 106.252 226.595 102.521C227.856 101.733 230.164 101.003 228.578 105.307C226.992 109.61 225.516 114.208 226.833 115.238C228.151 116.269 230.689 114.113 232.351 115.912C233.459 117.111 229 120.02 218.973 124.639L201.965 146.215L190.123 136.954Z" fill="#B28B67"/>
<path fill-rule="evenodd" clip-rule="evenodd" d="M120.936 164.184L121.688 157.746C147.231 140.249 186.397 141.12 213.756 118.565L219.858 127.559C200.125 174.481 152.182 174.014 120.936 164.184Z" fill="#E87613"/>
<path d="M152.29 244.433L145.148 253.86L142.338 252.813L152.29 244.433Z" fill="#B28B67"/>
<path fill-rule="evenodd" clip-rule="evenodd" d="M119.692 224.228C119.692 224.228 161.518 224.228 181.224 224.228C184.036 224.228 183.506 220.195 183.1 218.161C178.409 194.678 160.097 169.365 160.097 135.937L142.348 133.173C127.667 156.623 122.591 185.493 119.692 224.228Z" fill="#DDE3E9"/>
<path fill-rule="evenodd" clip-rule="evenodd" d="M115.992 191.635C115.21 176.647 117.134 163.469 118.818 155.266C116.917 154.544 115.262 153.224 114.062 151.074C107.575 139.448 109.917 133.047 116.85 130.943C120.663 129.787 124.248 130.576 128.54 131.522C132.053 132.295 136.04 133.173 141.012 133.173C141.493 133.173 141.931 133.205 142.329 133.267L148.219 133.6C148.219 133.6 172.132 214.088 161.409 241.001H152.129C152.207 242.265 152.252 243.477 152.261 244.628L141.08 254.311C137.049 250.066 133.621 245.601 130.715 241.001H106.02C107.087 225.002 110.928 207.882 115.992 191.635Z" fill="#FF9B21"/>
<path fill-rule="evenodd" clip-rule="evenodd" d="M112.773 241.001C116.401 232.346 120.122 222.244 123.702 211.811C125.035 223.3 127.255 234.84 130.951 241.001H112.773Z" fill="black" fill-opacity="0.1"/>
<path fill-rule="evenodd" clip-rule="evenodd" d="M398.924 198.729C394.289 201.521 389.734 202.87 387.596 202.319C382.235 200.938 381.742 181.344 385.89 173.62C390.038 165.895 411.363 162.528 412.437 177.833C412.81 183.145 410.578 187.885 407.28 191.754L413.194 219.295H396.014L398.924 198.729Z" fill="#B28B67"/>
<path fill-rule="evenodd" clip-rule="evenodd" d="M419.927 172.739C420.482 172.189 420.785 171.405 421.047 170.661C421.318 169.887 421.583 169.106 421.763 168.301C422.124 166.692 422.127 164.842 420.979 163.593C420.058 162.591 418.676 162.142 417.4 162.045C416.55 161.979 415.677 162.098 414.863 162.366C414.054 162.631 413.358 163.16 412.574 163.489C412.544 161.755 412.247 159.942 411.367 158.461C410.52 157.037 409.169 156.238 407.631 156.027C406.053 155.81 404.494 156.179 403.081 156.942C402.727 157.133 402.377 157.334 402.041 157.561C401.76 157.75 401.468 157.979 401.139 158.056C400.771 158.142 400.589 157.93 400.35 157.663C400.071 157.349 399.755 157.072 399.421 156.827C397.946 155.743 396.009 155.298 394.299 155.947C393.512 156.247 392.746 156.755 392.211 157.455C391.735 158.08 391.395 159.07 390.737 159.505C390.458 159.69 390.261 159.445 390.007 159.264C389.626 158.993 389.262 158.693 388.875 158.429C388.333 158.057 387.746 157.779 387.117 157.634C386.196 157.421 384.923 157.471 384.66 158.676C384.561 159.129 384.637 159.613 384.669 160.069C384.713 160.695 384.758 161.321 384.813 161.946C384.854 162.421 384.906 162.879 384.996 163.345C385.044 163.594 385.194 164.057 385.087 164.306C384.954 164.617 384.339 164.44 384.076 164.451C383.557 164.473 383.035 164.564 382.555 164.785C382.183 164.957 381.792 165.21 381.635 165.636C381.539 165.897 381.564 166.166 381.61 166.435C381.664 166.758 381.602 166.93 381.561 167.256C380.864 166.913 378.448 166.151 378.144 167.399C378.043 167.815 378.273 168.284 378.449 168.635C378.757 169.25 379.162 169.812 379.575 170.347C380.437 171.466 381.467 172.43 382.574 173.255C381.277 173.831 380.938 175.531 382.061 176.544C382.557 176.991 383.224 177.091 383.85 177.062C384.079 177.051 384.409 176.964 384.589 177.003C384.686 177.025 384.79 177.107 384.925 177.116C385.808 177.177 386.805 176.964 387.668 176.768C389.206 176.419 390.662 175.691 391.851 174.582C392.156 174.298 392.408 174.134 392.819 174.138C393.179 174.142 393.532 174.241 393.891 174.25C394.842 174.274 395.7 173.809 396.583 173.5C396.637 174.692 396.977 176.005 397.465 177.078C397.863 177.952 398.694 178.079 399.511 178.156C402.122 178.401 404.743 178.127 407.358 178.131C404.827 178.703 402.211 178.938 399.702 179.611C398.568 179.915 399.434 180.679 399.919 181.208C400.718 182.08 401.311 183.16 401.723 184.298C402.961 182.685 405.15 181.623 407.089 182.118C409.232 182.665 410.74 185.56 409.37 187.641C408.575 188.849 407.139 189.316 405.943 189.835C406.876 190.803 407.101 192.234 407.662 193.439C407.939 194.033 408.328 194.705 408.947 194.912C409.176 194.989 409.444 194.995 409.625 195.182C409.849 195.413 409.902 195.671 410.188 195.869C411.328 196.661 413.11 196.6 414.121 195.567C415.035 194.632 414.797 193.152 414.033 192.204C415.249 191.698 417.463 191.047 416.98 189.156C419.613 188.981 426.007 184.714 422.473 181.596C424.412 180.5 426.194 177.824 424.949 175.464C423.989 173.647 421.758 172.835 419.927 172.739Z" fill="#191847"/>
<path fill-rule="evenodd" clip-rule="evenodd" d="M444.244 308.691H388.944L381.698 397.372H464.016L444.244 308.691Z" fill="#C5CFD6"/>
<path fill-rule="evenodd" clip-rule="evenodd" d="M444.244 308.691H427.236L417.056 397.372H464.016L444.244 308.691Z" fill="black" fill-opacity="0.1"/>
<path fill-rule="evenodd" clip-rule="evenodd" d="M358.561 326.26C364.775 339.427 374.485 371.391 374.485 371.391L366.242 375.154C366.242 375.154 345.325 341.555 332.542 318.586C333.137 323.757 333.744 329.578 334.306 335.698C335.638 350.194 334.307 381.514 333.59 390.561C333.14 396.247 325.407 395.056 324.685 390.547C324.563 389.783 324.065 387.101 323.321 383.1C319.676 363.482 310.134 312.137 310.117 299.564C310.11 294.505 320.002 289.961 325.898 293.498C329.948 289.181 337.613 286.692 342.017 293.824C344.816 298.358 351.467 311.23 358.561 326.26Z" fill="#B28B67"/>
<path fill-rule="evenodd" clip-rule="evenodd" d="M373.896 359.557L345.602 292.59C338.824 281.697 319.819 294.807 322.131 301.126C327.379 315.47 354.068 361.909 355.632 366.183L373.896 359.557Z" fill="#1F28CF"/>
<path fill-rule="evenodd" clip-rule="evenodd" d="M372.978 367.962C373.69 367.033 375.031 366.806 375.917 367.572C377.029 368.534 378.377 369.803 378.907 370.72C379.875 372.395 381.174 375.932 381.174 375.932C379.228 377.054 346.21 396.1 346.21 396.1C346.21 396.1 342.245 392.385 344.974 390.332C347.703 388.279 349.478 386.87 349.478 386.87L361.375 370.494C361.706 370.038 362.348 369.946 362.794 370.289L365.07 372.04C365.07 372.04 368.521 371.739 370.22 370.759C371.111 370.245 372.171 369.016 372.978 367.962Z" fill="#E4E4E4"/>
<path fill-rule="evenodd" clip-rule="evenodd" d="M332.849 386.375C333.93 385.926 335.205 386.4 335.588 387.505C336.07 388.894 336.602 390.667 336.602 391.726C336.602 393.66 335.957 397.372 335.957 397.372C333.711 397.372 295.584 397.372 295.584 397.372C295.584 397.372 294.01 392.174 297.401 391.759C300.792 391.345 303.034 391.011 303.034 391.011L321.533 382.771C322.047 382.542 322.649 382.783 322.864 383.303L323.959 385.957C323.959 385.957 327.098 387.42 329.06 387.42C330.088 387.42 331.622 386.884 332.849 386.375Z" fill="#E4E4E4"/>
<path fill-rule="evenodd" clip-rule="evenodd" d="M308.134 304.709C308.134 323.709 317.165 368.028 317.171 372.212L336.602 372.227C336.602 372.227 332.336 312.909 333.577 312.27C334.817 311.631 384.436 317.219 399.317 317.219C420.776 317.219 429.653 303.699 430.373 278.654H387.864C379.209 279.579 334.062 288.677 317.295 291.805C310.117 293.144 308.134 299.476 308.134 304.709Z" fill="#2B44FF"/>
<path fill-rule="evenodd" clip-rule="evenodd" d="M356.396 220.503L381.241 234.099L372.066 243.938L354.013 227.423C344.503 224.804 340.153 222.889 340.965 221.676C341.65 220.653 342.754 220.689 343.771 220.722C344.564 220.747 345.303 220.771 345.75 220.292C346.771 219.197 344.823 215.369 342.819 211.815C340.815 208.262 342.958 208.571 344.183 209.082C348.193 211.794 352.264 215.601 356.396 220.503ZM331.415 239.58L342.329 245.57L341.707 256.512C341.707 256.512 334.639 251.415 328.558 249.721C320.804 247.561 317.667 245.912 313.878 241.088C311.851 238.507 310.13 233.319 312.06 231.63C312.8 230.982 315.558 232.513 318.372 234.075C320.517 235.266 322.694 236.475 324.035 236.75C325.841 237.122 325.629 234.784 325.461 232.915C325.339 231.574 325.24 230.475 325.923 230.793C329.118 230.847 331.415 239.58 331.415 239.58Z" fill="#997659"/>
<path fill-rule="evenodd" clip-rule="evenodd" d="M393.342 231.07C384.639 230.979 373.034 229.142 360.652 221.289L355.789 232.124C364.33 240.593 376.34 247.551 386.841 247.256C395.116 247.024 399.345 237.023 393.342 231.07Z" fill="#2026A2"/>
<path fill-rule="evenodd" clip-rule="evenodd" d="M416.813 305.3C425.086 304.222 432.688 303.232 437.193 304.118C442.248 287.717 438.05 277.391 434.176 267.858C431.841 262.112 429.622 256.655 429.618 250.331C429.604 231.912 414.801 203.561 412.623 203.561H411.998H394.738H392.762C391.874 214.959 388.084 227.3 384.27 239.72C383.379 242.62 382.487 245.525 381.63 248.423C367.196 251.696 335.145 240.302 335.145 240.302C335.145 240.302 327.054 257.026 327.664 264.148C346.32 273.884 362.309 278.225 375.483 278.512C375.064 286.321 376.015 293.752 379.212 300.542C383.494 309.64 401.329 307.317 416.813 305.3Z" fill="#1F28CF"/>
<path fill-rule="evenodd" clip-rule="evenodd" d="M506.787 202.339C505.592 198.353 502.786 195.234 499.873 192.375C494.202 186.811 491.152 183.37 489.131 175.231C487.943 170.443 486.733 165.37 482.963 161.897C480.218 159.368 475.494 157.243 471.823 159.054C466.176 162.424 464.66 169.34 465.229 175.533C465.935 183.208 469.521 187.941 476.41 190.768C480.292 192.36 482.872 194.461 484.979 198.122C486.665 201.049 487.648 204.715 489.766 207.368C492.932 211.335 496.895 213.099 501.779 212.44C497.204 204.024 491.859 195.529 485.412 188.444C484.809 187.731 481.249 185.005 481.967 183.791C482.758 182.454 486.412 187.475 486.386 187.445C488.26 189.595 489.993 191.88 491.696 194.187C491.692 194.189 491.687 194.191 491.682 194.193C493.435 196.56 495.174 198.962 496.879 201.394C497.569 202.423 498.241 203.465 498.883 204.533C499.827 206.1 501.324 210.548 502.867 211.512C503.197 211.718 503.503 211.833 503.788 211.881C504.841 213.605 505.866 215.343 506.841 217.101C509.386 221.694 511.57 226.542 512.573 231.727C512.865 233.241 512.658 238.901 513.692 239.994C515.581 241.992 515.027 238.144 514.914 236.983C513.976 227.365 510.522 219.171 505.508 211.085C507.048 209.073 507.271 203.954 506.787 202.339Z" fill="#F2F2F2"/>
<path fill-rule="evenodd" clip-rule="evenodd" d="M442.087 206.986C444.079 204.64 448.866 204.242 451.794 204.399C455.417 204.593 459.139 205.475 462.585 206.541C468.263 208.297 473.781 211.502 478.782 214.604C479.384 214.978 486.809 219.442 486.152 220.225C485.5 221.001 478.212 215.699 476.588 214.785C473.121 212.834 469.942 210.527 466.121 209.239C462.165 207.905 457.981 207.376 453.821 207.413C453.287 207.417 451.546 207.045 451.508 207.835C451.471 208.607 454.353 208.204 454.861 208.209C456.96 208.228 459.072 208.426 461.141 208.789C465.017 209.471 468.662 210.843 471.982 212.948C471.055 215.102 468.835 216.095 466.505 215.556C464.491 215.09 462.529 213.941 460.557 213.609C459.199 213.38 457.839 213.516 456.523 213.898C453.05 214.908 451.046 216.975 447.228 215.537C444.234 214.41 439.227 210.359 442.087 206.986Z" fill="#F2F2F2"/>
<path fill-rule="evenodd" clip-rule="evenodd" d="M433.523 169.185C429.101 168.863 424.163 172.391 422.03 176.063C420.311 179.023 420.6 182.911 421.662 186.056C422.374 188.162 423.926 191.164 426.514 191.193C429.753 191.23 429.909 187.271 429.972 184.957C430.055 181.88 430.448 179.199 432.899 177.102C433.202 176.843 433.519 176.601 433.837 176.359C434.119 176.143 434.401 175.928 434.672 175.702C434.715 175.666 434.759 175.629 434.803 175.593C435.67 174.872 436.58 174.116 436.691 172.928C436.851 171.207 435.869 170.897 434.369 171.217C434.321 171.227 434.189 171.276 434.011 171.343C433.245 171.63 431.61 172.243 431.919 171.511C432.036 171.235 432.461 171.016 432.998 170.852C434.387 170.703 436.043 170.529 436.519 170.633C441.658 171.748 443.659 178.788 444.19 183.261C444.25 183.768 444.298 184.276 444.34 184.785H445.282C445.216 183.59 445.13 182.396 444.928 181.214C444.171 176.783 441.803 170.276 436.609 169.557C436.417 169.53 435.713 169.526 434.859 169.575C434.454 169.351 434.001 169.216 433.523 169.185Z" fill="#F2F2F2"/>
</svg>
