<svg viewBox="0 0 942 231" fill="none" xmlns="http://www.w3.org/2000/svg"><path fill-rule="evenodd" clip-rule="evenodd" d="M859.527 188.206c2.77-7.234 6.746-14.031 10.504-20.779 6.037-10.837 12.971-19.768 23.917-25.691 17.802-9.633 37.017-12.838 56.838-11.742 10.331.571 20.886 2.143 30.59 5.825 4.319 1.64 8.523 3.567 12.679 5.584 2.567 1.246 5.09 2.577 7.605 3.932 1.51.816 4.22 1.649 5.18 3.16 1.16 1.817-.05 4.409-2.24 4.47-1.87.053-4.12-1.817-5.754-2.659-3.762-1.936-7.614-3.67-11.51-5.315-6.083-2.566-12.189-4.524-18.666-5.733-13.126-2.45-27.001-2.604-40.256-.871 4.696 11.161 3.19 22.312-2.785 32.719-8.506 14.815-19.153 26.005-34.516 33.427-9.978 4.821-20.23 5.015-30.8 2.644-1.998-.448-4.724-1.356-5.347-3.65-.601-2.207 1.01-5.158 1.684-7.235a165.566 165.566 0 012.877-8.086z" fill="#DDE3E9"/><path fill-rule="evenodd" clip-rule="evenodd" d="M956.801 49.979c-17.893-5.09-35.742-10.014-54.154-12.959-10.85-1.734-21.785-2.694-32.694-3.98 1.325.264 2.646.56 3.957.886-3.313-.242-6.956.646-10.344.608-3.778-.044-7.57-.4-11.321-.8-7.319-.782-14.602-1.68-21.952-2.182-8.189-.558-16.419-.691-24.622-1.042-6.962-.298-14.163-.867-21.139-.366-3.802.272-7.766.28-11.616.498-1.289.073-15.106-.476-15.091-.51.316-.747 6.794-1.296 7.767-1.43 2.845-.389 5.696-.536 8.556-.693-2.598-1.698-5.013-3.666-7.066-6.019-.634-.726-5.367-5.945-4.992-6.83.187-.441 9.567 8.368 10.324 9.299.615.756 1.287 1.968 2.014 2.6 1.174 1.021.93.65 2.312.807 2.534.29 5.364-.251 7.92-.262 1.37-.02 5.901.422 8.211-.04 7.485-.538 15.933.412 23.581.833-3.039-1.903-5.803-4.133-8.345-6.674-.604-.604-6.372-5.812-6.087-6.484.32-.756 9.914 6.744 10.682 7.535 1.427 1.47 2.621 3.334 4.13 4.693 1.657 1.492 3.899 1.064 6.199 1.162 8.46.36 16.85 1.09 25.251 2.069C848.11 15.55 832.763 6.023 821.006.036c-8.475-4.314-17.937-6.742-27.303-8.221-12.499-1.975-25.428-1.85-38.073-1.26-14.734.687-29.097 4.141-42.816 9.837-7.176 2.98-13.984 6.953-20.557 11.134-3.212 2.042-6.118 4.307-8.652 7.208-1.142 1.308-2.163 2.715-3.107 4.175-.717 1.11-2.861 3.082-2.999 4.197-1.197 9.066-.055 16.75 4.867 24.425 4.658 7.265 11.317 13.378 18.349 18.194 7.831 5.361 16.285 9.449 25.524 11.638 7.049 1.67 14.314 2.47 21.518 3.24 25.621 2.737 55.083.963 76.744-15.5 7.012-5.327 12.676-12.14 17.322-19.632 1.094-1.765 2.174-3.534 3.091-5.402.619-1.258 1.56-5.862 2.51-6.559 1.302-.956 5.927.145 7.727.253 13.682.822 27.309 2.149 40.894 3.873 14.454 1.834 28.715 4.474 42.916 7.66 6.04 1.357 12.06 2.735 18.056 4.279 1.395.359 5.432 2.32 7.133 1.53 1.075-.5 1.26-1.775.568-2.638-1.203-1.503-6.085-1.967-7.917-2.488" fill="#C1DEE2"/><path fill-rule="evenodd" clip-rule="evenodd" d="M882.896 88.157c-.681-.235-11.817.907-11.779-.212.016-.481 4.327-.823 4.92-.844 2.345-.086 4.644.365 6.859 1.056zm10.333-19.13c.024.07 2.349 1.387 3.022 1.816a80.375 80.375 0 014.186 2.87c-2.232-1.848-4.389-3.512-7.208-4.686zm-72.623 63.577c-.919 1.017-3.106.363-1.846-.836 1.021-.969.924-1.002.904-2.266-.016-1.027-.297-2.129-.389-3.163-.195-2.194-.235-4.371-.007-6.563.487-4.7 1.763-9.244 3.654-13.544 3.3-7.504 7.502-15.048 13.198-20.907 9.055-9.316 21.267-16.619 33.337-20.753 7.475-2.56 14.933-3.815 22.522-.97 3.792 1.423 7.374 3.586 10.156 6.639.727.798 1.276 1.835 2.042 2.585 1.178 1.154.797.885 2.556.227a905.5 905.5 0 015.767-2.139c5.039-1.85 10.134-3.667 15.342-4.955a42.466 42.466 0 015.201-.943c1.325-.158 6.377-1.17 7.689-.084 2.183 1.807-1.284 2.418-2.463 2.431a39.639 39.639 0 00-3.1.156c-2.593.232-5.148.729-7.664 1.403-2.719.728-5.394 1.644-8.06 2.553a306.937 306.937 0 00-7.422 2.656c-1.369.506-2.735 1.02-4.102 1.534-.467.175-1.432.24-1.054.762-2.915 1.007-5.709 2.717-8.46 4.12-3.371 1.718-6.736 3.473-9.959 5.471-2.325 1.44-4.604 2.965-6.776 4.644a41.415 41.415 0 00-3.617 3.16c-.632.618-3.325 2.71-3.355 3.59.013-.378 3.397-1.972 3.799-2.225 1.608-1.01 3.145-2.115 4.676-3.244a87.87 87.87 0 018.843-5.761c.298.543-1.233 2.7-1.536 3.35a34.022 34.022 0 00-1.736 4.496c-.824 2.716-1.77 6.037-1.861 8.744.026-.797 1.39-2.602 1.771-3.42a43.558 43.558 0 001.651-4.025c.441-1.263.788-2.553 1.112-3.852.323-1.3.414-3.666 1.151-4.833.044-.07.716.028.907-.247.191-.278.159-1.094.212-1.158.765-.95 2.909-1.556 3.972-2.105 2.757-1.427 5.534-2.813 8.303-4.215.858-.434 1.455-1.031 2.124-.598.713.463 1.095 2.54 1.332 3.355.885 3.026 1.109 6.067.486 9.167-1.166 5.805-3.862 10.782-7.59 15.223-14.28 17.01-31.99 30.746-54.009 34.34-9.116 1.488-23.303 2.933-27.701-7.8z" fill="#89C5CC"/><path fill-rule="evenodd" clip-rule="evenodd" d="M177.453 205.171c-4.303.936-9.053.865-13.436.787-23.504-.318-46.584-11.4-61.605-29.108-12.788-15.074-16.304-33.817-18.83-52.763-.25-1.881-.358-3.75-.5-5.635-.03-.405-.075-.765-.123-1.105-.994-.885-1.515-1.916-.927-3.049-2.189-4.77-4.04-9.661-5.629-14.706C71.728 84.745 66.971 69.614 69.901 54c.685 8.592 2.124 17.379 3.847 25.83.099.485.206.966.317 1.446l.033.151a56.303 56.303 0 002.366 7.57l.03.08c.128.325.263.649.396.972.276.67.56 1.338.86 2.003.102.227.2.455.293.686 1.403 3.424 1.996 7.282 3.252 10.825.301.806.615 1.609.945 2.407l.059.14a104.36 104.36 0 002.913 6.371c.565.423.867 1.472 1.354 2.426.101.188.89 1.441 1.124 2.163.612 1.179 1.222 2.36 1.839 3.537a1.233 1.233 0 00-.056-.02l1.85 3.378.408.74.661 1.178a222.023 222.023 0 006.51 10.817c.808 1.267 2.741 3.084 3.112 4.507.013.053.016.102.025.153 4.919 6.881 10.582 13.227 17.373 18.256-.821-.884-2.566-3.883-3.027-4.477-1.412-1.818-2.944-3.51-4.483-5.223-2.755-3.069-5.445-6.235-7.835-9.582-4.371-6.123-8.142-12.566-11.707-19.14-.034-.038-.071-.075-.103-.114-1.792-2.199-2.92-5.524-4.21-8.04 5.105 2.354 10.748 3.888 15.987 5.979 5.223 2.084 10.305 4.405 15.211 7.13 6.521 3.622 13.285 7.712 19.446 12.339 7.06 4.362 12.993 10.365 18.23 16.665 6.196 7.454 11.874 14.973 15.386 24.023 1.725 4.448 3.082 9.085 3.887 13.777.035.204.08.426.129.656a45.197 45.197 0 012.177 4.972c.981 2.688 3.297 5.646-1.047 6.59" fill="#69A1AC"/><path fill-rule="evenodd" clip-rule="evenodd" d="M218.676 129.331c-4.091 4.401-10.34 6.749-16.142 8.089-22.661 5.231-45.899 1.757-67.187-6.498-11.665-4.523-22.699-11.165-32.76-18.411-5.807-4.182-11.215-8.909-15.573-14.548-2.941-3.806-5.31-7.933-7.277-12.299-2.398-5.32-4.594-10.807-6.302-16.385-.672-2.197-4.707-13.744-1.034-14.804a5.25 5.25 0 01-.193-.82C61.222 42.918 52.822 29.298 44.96 16.362 38.121 5.104 31.697-6.357 26.457-18.427a413.97 413.97 0 01-17.646-48.89A480.937 480.937 0 015.835-78.07c-.817-3.067-1.635-6.133-2.45-9.2C2.472-90.708.941-94.554.698-98.124c-.212-3.11 2.493-3.256 3.296-.299.971 3.572 1.782 7.187 2.773 10.757 1.315 4.737 2.636 9.473 3.975 14.203 9.307 32.86 22.996 64.194 41.554 92.978 7.51 11.648 15.532 22.465 24.985 32.661 8.313 8.966 17.75 17.324 27.188 24.959 9.173 7.419 18.579 14.564 29.027 20.232 8.48 4.599 17.478 8.234 26.605 11.442 11.593 4.074 23.131 7.997 35.221 10.387 6.285 1.243 12.616 2.192 18.921 3.321 1.134.203 2.34.376 3.451.658 3.707.94 3.209 3.76.982 6.156" fill="#C1DEE2"/><path fill-rule="evenodd" clip-rule="evenodd" d="M106.471 46.896c9.456 0 17.871-1.23 26.584-4.994 7.522-3.249 14.376-7.55 21.031-12.231 9.361-6.585 16.734-14.25 21.895-24.404 3.083-6.066 5.345-14.65 3.274-21.267-2.439-7.793-9.137-14.293-17.957-12.92-5.455.849-10.455 4.465-14.601 7.869-4.959 4.071-8.929 8.967-12.207 14.405-5.348 8.87-8.49 18.898-13.032 28.167-2.156 4.399-4.239 8.83-6.82 13.01-1.278 2.07-2.639 4.12-4.578 5.66-1.037.822-5.411 2.247-3.738 4.095C81.799 43.963 60.074 25.1 55.366 1.75c-.438-2.176-.781-4.37-1.143-6.56-.229-1.382-.136-6.481-1.37-7.364-2.722-1.949-1.578 3.97-1.461 4.823.301 2.202.623 4.403.961 6.6 1.839 11.95 7.15 23.059 16.009 31.58 10.13 9.746 23.796 16.066 38.109 16.066z" fill="#89C5CC"/></svg>