<svg viewBox="0 0 621 669" fill="none" xmlns="http://www.w3.org/2000/svg"><g opacity=".5"><path fill-rule="evenodd" clip-rule="evenodd" d="M546.206 150.727c-.411-.298-1.385-.404-1.838-.494-1.885-.371-3.826-.533-5.746-.533-5.924.009-11.943.59-17.768 1.596-3.698.639-8.169 2.788-11.848 1.621-6.409-2.034-12.886-1.934-18.967.97-5.559 2.655-9.78 7.697-12.243 13.145-.371.823-1.879 3.85-2.306 5.891-.182.417-.357.837-.515 1.263a63.86 63.86 0 00-1.225 3.677c-.159.526-.561 1.689-.084 1.914a35.026 35.026 0 00-2 4.35c-1.636 4.351-3.425 9.122-4 13.733a21.463 21.463 0 00-.023 5.135c.098.846.057 2.546.631 3.189 1.216 1.364 1.841-.546 1.704-1.455-1.048-6.933.975-13.443 3.372-19.959 1.551-4.214 4.098-8.069 6.951-11.56 2.309-2.826 4.786-5.052 7.951-6.926 3.871-2.291 8.009-4.143 12.11-6.001 2.696-1.223 5.396-2.412 8.168-3.465.617-.235 1.587-.836 2.27-.838 1.445-.005 3.494 1.061 4.89 1.458 4.592 1.305 9.242 2.976 13.988 3.642 3.044.428 5.896-.053 8.743-1.067.291-.103.778-.37 1.376-.75 2.113-.813 4.112-1.836 5.853-3.311 1.003-.851 1.913-1.95 2.743-2.956.249-.3.359-.645.362-.973.188-.098.313-.213.341-.347.208-.99-1.681-1.008-2.89-.949z" fill="#89C5CC"/><path fill-rule="evenodd" clip-rule="evenodd" d="M65.041 233.247a87.229 87.229 0 00-3.413 2.901c-.848.763-2.348 1.675-2.652 2.829-.316 1.2.682 2.323 1.471 3.048 4.17 3.836 8.867 6.43 14.646 6.861 8.899.664 16.643-1.607 24.364-6.078 5.423-3.14 9.016-7.784 9.8-14.056 6.459 2.683 12.706 6.382 18.014 10.922 2.62 2.24 4.876 4.722 6.962 7.473 1.337 1.762 2.629 3.553 3.829 5.412.522.808 1.052 2.241 1.913 2.706 1.01.547 2.232-.31 2.182-1.433-.042-.935-1.052-2.02-1.524-2.784a102.412 102.412 0 00-2.419-3.765c-1.356-1.999-2.758-3.969-4.288-5.839-3.436-4.202-7.808-7.674-12.341-10.634-8.696-5.679-18.239-9.257-28.82-9.56-6.505-.186-11.978 2.036-17.541 5.355-3.464 2.066-7.04 4.097-10.183 6.642z" fill="#DDE3E9"/><path fill-rule="evenodd" clip-rule="evenodd" d="M149.432 205.779c-6.779-6.98-13.583-13.873-21.157-20.02-4.464-3.621-9.169-6.915-13.776-10.349.532.466 1.053.945 1.562 1.435-1.438-.976-3.321-1.527-4.846-2.431-1.701-1.007-3.326-2.16-4.921-3.322-3.113-2.268-6.179-4.578-9.378-6.728-3.565-2.394-7.26-4.606-10.885-6.911-3.077-1.955-6.192-4.095-9.483-5.694-1.794-.871-3.593-1.904-5.394-2.813-.603-.304-6.72-4.166-6.705-4.178.338-.254 3.417 1.192 3.893 1.386 1.39.568 2.72 1.248 4.057 1.925-.734-1.448-1.314-2.968-1.63-4.568-.098-.494-.881-4.091-.48-4.393.2-.15 2.151 6.284 2.251 6.903.081.502.07 1.226.234 1.702.266.768.252.536.837.969 1.073.793 2.497 1.289 3.657 1.953.626.349 2.564 1.734 3.732 2.129 3.532 1.715 7.112 4.354 10.468 6.544a24.677 24.677 0 01-2.04-5.198c-.116-.431-1.37-4.293-1.066-4.522.342-.258 2.732 5.64 2.874 6.199.263 1.037.317 2.191.646 3.201.362 1.107 1.49 1.5 2.506 2.146 3.74 2.375 7.351 4.899 10.902 7.539 3.875-6.889-.593-15.209-4.358-20.989-2.714-4.166-6.368-7.738-10.226-10.856-5.149-4.162-11.04-7.487-16.923-10.528-6.856-3.543-14.266-5.739-21.97-6.753-4.028-.531-8.15-.516-12.22-.346-1.988.083-3.896.347-5.801.995a18.85 18.85 0 00-2.498 1.074c-.614.313-2.1.644-2.454 1.112-2.908 3.784-4.396 7.555-4.169 12.31.215 4.502 1.637 9.006 3.567 13.021 2.15 4.471 4.914 8.529 8.529 11.935 2.758 2.598 5.842 4.86 8.905 7.092 10.895 7.938 24.708 14.842 38.82 13.069 4.567-.574 8.912-2.171 12.972-4.342.957-.511 1.908-1.028 2.811-1.632.609-.407 2.236-2.241 2.849-2.308.839-.091 2.648 1.616 3.435 2.135 5.985 3.95 11.814 8.114 17.52 12.447 6.071 4.609 11.844 9.532 17.447 14.686 2.384 2.193 4.752 4.39 7.066 6.656.538.527 1.856 2.468 2.833 2.556.617.056 1.034-.471.946-1.043-.154-.993-2.245-2.48-2.939-3.195z" fill="#C1DEE2"/><path fill-rule="evenodd" clip-rule="evenodd" d="M539.088 178.688c-2.626-.574-5.526-.53-8.201-.482-14.346.195-28.434 6.985-37.603 17.835-7.805 9.237-9.952 20.722-11.494 32.331-.152 1.152-.218 2.298-.304 3.453-.019.247-.046.469-.076.677-.606.542-.925 1.174-.566 1.868a77.04 77.04 0 00-3.435 9.011c-2.854 9.098-5.758 18.369-3.969 27.936.418-5.265 1.297-10.648 2.348-15.827.06-.297.125-.592.193-.886l.021-.093a34.595 34.595 0 011.444-4.638l.018-.049c.078-.199.16-.398.242-.596.168-.41.341-.82.525-1.227.062-.139.122-.279.179-.42.856-2.098 1.218-4.462 1.985-6.633.183-.494.375-.986.576-1.475l.036-.086a65.04 65.04 0 011.778-3.904c.345-.259.53-.902.827-1.486.062-.115.543-.883.686-1.325.374-.723.746-1.446 1.122-2.168l-.033.013c.376-.693.754-1.383 1.129-2.07l.249-.454.403-.722a135.904 135.904 0 013.973-6.627c.494-.777 1.674-1.89 1.9-2.762.008-.033.01-.063.015-.094 3.003-4.216 6.46-8.105 10.605-11.186-.501.541-1.566 2.379-1.848 2.743-.861 1.114-1.797 2.151-2.736 3.2-1.682 1.88-3.324 3.82-4.783 5.872-2.668 3.751-4.97 7.7-7.146 11.727-.02.024-.043.046-.062.07-1.094 1.348-1.782 3.385-2.57 4.927 3.116-1.443 6.561-2.383 9.758-3.664 3.189-1.277 6.29-2.699 9.285-4.369 3.98-2.219 8.109-4.725 11.869-7.561 4.31-2.672 7.931-6.351 11.128-10.211 3.782-4.567 7.248-9.174 9.391-14.72 1.053-2.725 1.882-5.566 2.373-8.441.022-.126.049-.261.079-.403.502-.992.951-2.008 1.328-3.046.599-1.647 2.013-3.459-.639-4.038z" fill="#69A1AC"/><path fill-rule="evenodd" clip-rule="evenodd" d="M94.094 197.984c-.822-.89-1.746-1.694-2.831-2.267-.275-.145-2.318-1.115-2.45-.902-.31.496 5.034 2.885 5.281 3.169zm9.687-5.949c-.007.038.702 1.24.894 1.609.411.786.79 1.587 1.147 2.389-.528-1.417-1.071-2.732-2.041-3.998zm-49.54 9.783c-.683.22-1.503-.646-.618-.859.716-.172.68-.212 1.002-.789.261-.468.422-1.039.651-1.53.486-1.043 1.038-2.037 1.714-2.968 1.45-1.997 3.218-3.717 5.2-5.167 3.458-2.53 7.336-4.842 11.45-6.004 6.54-1.847 13.984-1.962 20.535-.681 4.057.793 7.765 2.172 10.459 5.438 1.346 1.632 2.403 3.544 2.865 5.65.121.55.098 1.162.249 1.701.232.828.13.608 1.099.769 1.058.176 2.116.355 3.173.538 2.767.479 5.551.987 8.248 1.764.888.255 1.756.567 2.604.93.641.275 3.195 1.136 3.505 1.969.517 1.386-1.214.757-1.752.455a20.878 20.878 0 00-1.445-.738 23.76 23.76 0 00-3.84-1.366c-1.422-.38-2.874-.664-4.32-.948a163.395 163.395 0 00-4.058-.737c-.752-.128-1.506-.252-2.26-.377-.257-.042-.711-.265-.677.069-1.584-.305-3.298-.261-4.911-.345-1.977-.103-3.961-.188-5.944-.126-1.43.045-2.862.139-4.285.331a21.67 21.67 0 00-2.466.484c-.448.115-2.216.357-2.46.748.105-.168 2.055-.006 2.304-.015a40.47 40.47 0 002.967-.246 46.247 46.247 0 015.514-.297c-.007.324-1.265.899-1.572 1.113a17.774 17.774 0 00-1.963 1.58c-1.084 1.012-2.381 2.266-3.131 3.465.221-.353 1.31-.813 1.698-1.083.62-.433 1.226-.895 1.8-1.388a22.75 22.75 0 001.512-1.451c.487-.503 1.147-1.549 1.786-1.884.039-.02.318.2.476.125.16-.075.358-.452.399-.467.595-.23 1.725.056 2.351.085 1.622.074 3.243.172 4.864.261.503.028.929-.086 1.119.284.202.395-.168 1.433-.273 1.864-.391 1.598-1.086 3.031-2.179 4.269-2.046 2.319-4.57 3.865-7.422 4.899-10.92 3.961-22.539 5.547-33.457 1.427-4.52-1.706-11.326-4.754-10.511-10.752z" fill="#89C5CC"/><g clip-path="url(#clip0)" opacity=".6"><path fill-rule="evenodd" clip-rule="evenodd" d="M554.59 388.433c7.434 50.281-172.856 83.078-328.036 60.19C71.374 425.735.185 336.354 74.234 288.728c74.05-47.625 472.922 49.423 480.356 99.705z" fill="#DDE3E9"/></g><g clip-path="url(#clip1)"><rect x="121.035" y="58.873" width="122.418" height="232.457" rx="8" fill="#F2F2F2"/><path fill-rule="evenodd" clip-rule="evenodd" d="M181.035 306.873c8.284 0 15-6.716 15-15 0-8.285-6.716-15-15-15-8.284 0-15 6.715-15 15 0 8.284 6.716 15 15 15z" fill="#fff"/><g clip-path="url(#clip2)"><g clip-path="url(#clip3)"><rect x="135.035" y="86.873" width="94" height="54" rx="4" fill="#fff"/><g clip-path="url(#clip4)" fill="#DDE3E9"><rect x="174.035" y="103.073" width="36" height="8.1" rx="3"/><rect x="174.035" y="116.573" width="24.164" height="8.1" rx="3"/></g><path fill-rule="evenodd" clip-rule="evenodd" d="M156.035 125.873c6.627 0 12-5.373 12-12 0-6.628-5.373-12-12-12s-12 5.372-12 12c0 6.627 5.373 12 12 12z" fill="#C5CFD6"/></g><g clip-path="url(#clip5)"><rect x="135.035" y="148.873" width="94" height="42" rx="4" fill="#fff"/><g clip-path="url(#clip6)" fill="#DDE3E9"><rect x="174.035" y="161.473" width="36" height="6.3" rx="3"/><rect x="174.035" y="171.973" width="24.164" height="6.3" rx="3"/></g><path fill-rule="evenodd" clip-rule="evenodd" d="M156.035 181.873c6.627 0 12-5.373 12-12 0-6.628-5.373-12-12-12s-12 5.372-12 12c0 6.627 5.373 12 12 12z" fill="#C5CFD6"/></g><g clip-path="url(#clip7)"><rect x="135.035" y="198.873" width="94" height="42" rx="4" fill="#fff"/><g clip-path="url(#clip8)" fill="#DDE3E9"><rect x="174.035" y="211.473" width="36" height="6.3" rx="3"/><rect x="174.035" y="221.973" width="24.164" height="6.3" rx="3"/></g><path fill-rule="evenodd" clip-rule="evenodd" d="M156.035 231.873c6.627 0 12-5.373 12-12 0-6.628-5.373-12-12-12s-12 5.372-12 12c0 6.627 5.373 12 12 12z" fill="#AFB9C5"/></g><g clip-path="url(#clip9)"><rect x="135.035" y="248.873" width="94" height="42" rx="4" fill="#fff"/><g clip-path="url(#clip10)" fill="#DDE3E9"><rect x="174.035" y="261.473" width="36" height="6.3" rx="3"/><rect x="174.035" y="271.973" width="24.164" height="6.3" rx="3"/></g><path fill-rule="evenodd" clip-rule="evenodd" d="M156.035 281.873c6.627 0 12-5.373 12-12 0-6.628-5.373-12-12-12s-12 5.372-12 12c0 6.627 5.373 12 12 12z" fill="#C5CFD6"/></g></g></g><g clip-path="url(#clip11)"><path fill-rule="evenodd" clip-rule="evenodd" d="M123.034 261.885c-1.325 0-2.646.027-3.969.096-1.009.053-2.55-.156-3.404.472-.886.653-.825 1.99-.687 2.934.733 4.991 2.52 9.418 6.259 12.954 5.756 5.446 12.356 8.212 20.165 9.445 5.485.865 10.55-.337 14.588-4.238 2.95 5.476 5.189 11.536 6.312 17.653.554 3.018.723 5.999.625 9.072-.062 1.968-.171 3.932-.382 5.891-.091.851-.525 2.14-.192 2.944.391.945 1.71 1.036 2.302.231.493-.671.402-1.987.503-2.78a92.36 92.36 0 00.435-3.961c.18-2.144.314-4.293.304-6.444-.022-4.833-1.097-9.686-2.567-14.274-2.82-8.802-7.396-16.625-14.512-22.763-4.375-3.774-9.383-5.303-15.065-6.123-3.537-.511-7.132-1.109-10.715-1.109z" fill="#89C5CC"/><path fill-rule="evenodd" clip-rule="evenodd" d="M143.465 296.885c-14.299 0-23.929 11.525-28.483 23.502-1.716 4.515-2.118 9.472-2.78 14.213-.212 1.521-.134 3.839-.751 5.195-.224.491-.738.668-.492 1.337.148.406.44.654.878.735.9.165 2.171-.814 2.943-1.201 6.396-3.207 10.598-8.167 14.026-14.236 2.125-3.761 4.281-7.665 5.544-11.795.771-2.522 1.22-5.179 1.483-7.796.104-1.03.205-2.085.199-3.122-.007-1.029-.485-1.572-.829-2.468 4.771-1.806 10.156-2.298 14.989-.426 4.47 1.731 8.183 5.076 10.263 9.278.54 1.092.956 2.245 1.26 3.42.199.77.208 1.769.576 2.465.893 1.687 2.771.559 2.591-1.012-.503-4.381-3.01-8.78-6.213-11.826-4.041-3.842-9.518-6.263-15.204-6.263z" fill="#89C5CC"/><rect x="171.85" y="78.885" width="122.418" height="232.458" rx="8" fill="#DDE3E9"/><path fill-rule="evenodd" clip-rule="evenodd" d="M237.894 326.885c8.284 0 15-6.715 15-15 0-8.284-6.716-15-15-15-8.285 0-15 6.716-15 15 0 8.285 6.715 15 15 15z" fill="#fff"/><g clip-path="url(#clip12)"><g clip-path="url(#clip13)"><rect x="196.894" y="106.885" width="83" height="54" rx="4" fill="#fff"/><g clip-path="url(#clip14)" fill="#DDE3E9"><rect x="205.894" y="123.085" width="25" height="8.1" rx="3"/><rect x="205.894" y="136.585" width="16.781" height="8.1" rx="3"/></g></g><g clip-path="url(#clip15)"><rect x="196.894" y="168.885" width="83" height="42" rx="4" fill="#fff"/><g clip-path="url(#clip16)" fill="#DDE3E9"><rect x="235.894" y="181.486" width="25" height="6.3" rx="3"/><rect x="235.894" y="191.986" width="16.781" height="6.3" rx="3"/></g><path fill-rule="evenodd" clip-rule="evenodd" d="M217.894 201.885c6.627 0 12-5.372 12-12 0-6.627-5.373-12-12-12-6.628 0-12 5.373-12 12 0 6.628 5.372 12 12 12z" fill="#C5CFD6"/></g><g clip-path="url(#clip17)"><rect x="196.894" y="218.885" width="83" height="42" rx="4" fill="#fff"/><g clip-path="url(#clip18)"><rect x="205.894" y="231.486" width="25" height="6.3" rx="3" fill="#DDE3E9"/><rect x="205.894" y="241.986" width="16.781" height="6.3" rx="3" fill="#AFB9C5"/></g></g><g clip-path="url(#clip19)"><rect x="196.894" y="268.885" width="83" height="42" rx="4" fill="#fff"/><g clip-path="url(#clip20)" fill="#DDE3E9"><rect x="235.894" y="281.486" width="25" height="6.3" rx="3"/><rect x="235.894" y="291.986" width="16.781" height="6.3" rx="3"/></g><path fill-rule="evenodd" clip-rule="evenodd" d="M217.894 301.885c6.627 0 12-5.372 12-12 0-6.627-5.373-12-12-12-6.628 0-12 5.373-12 12 0 6.628 5.372 12 12 12z" fill="#C5CFD6"/></g></g></g><g clip-path="url(#clip21)"><rect x="222.665" y="98.129" width="258" height="266" rx="8" fill="#F2F2F2"/><rect x="414.376" y="131.227" width="53.895" height="62.348" rx="8" fill="#fff"/><path fill-rule="evenodd" clip-rule="evenodd" d="M441.323 167.404c6.803 0 12.319-5.514 12.319-12.315 0-6.802-5.516-12.316-12.319-12.316-6.804 0-12.319 5.514-12.319 12.316 0 6.801 5.515 12.315 12.319 12.315z" fill="#DDE3E9"/><rect x="422.075" y="170.483" width="38.496" height="4.618" rx="2.309" fill="#DDE3E9"/><rect x="428.234" y="178.18" width="26.177" height="4.618" rx="2.309" fill="#DDE3E9"/><path d="M222.665 106.129a8 8 0 018-8h242a8 8 0 018 8v19h-258v-19z" fill="#C5CFD6"/><path fill-rule="evenodd" clip-rule="evenodd" d="M235.665 116.129a4 4 0 100-8 4 4 0 000 8zm12 0a4 4 0 100-8 4 4 0 000 8zm12 0a4 4 0 100-8 4 4 0 000 8z" fill="#F2F2F2"/><g clip-path="url(#clip22)"><rect x="414.376" y="199.733" width="53.895" height="149.327" rx="8" fill="#fff"/><g clip-path="url(#clip23)"><rect x="432.376" y="217.733" width="18" height="26" rx="4" fill="#DDE3E9"/><rect x="432.376" y="251.733" width="18" height="25" rx="4" fill="#AFB9C5"/><rect x="432.376" y="284.733" width="18" height="25" rx="4" fill="#DDE3E9"/><rect x="432.376" y="317.733" width="18" height="25" rx="4" fill="#C5CFD6"/></g></g><g clip-path="url(#clip24)"><g clip-path="url(#clip25)"><rect x="238.665" y="142.129" width="148" height="47" rx="4" fill="#fff"/><g clip-path="url(#clip26)" fill="#DDE3E9"><rect x="247.665" y="156.229" width="90" height="7.05" rx="3"/><rect x="247.665" y="167.979" width="60.411" height="7.05" rx="3"/></g></g><g clip-path="url(#clip27)"><rect x="238.665" y="197.129" width="148" height="39" rx="4" fill="#fff"/><g clip-path="url(#clip28)" fill="#DDE3E9"><rect x="247.665" y="208.829" width="90" height="5.85" rx="2.925"/><rect x="247.665" y="218.579" width="60.411" height="5.85" rx="2.925"/></g></g><g clip-path="url(#clip29)"><rect x="238.665" y="244.129" width="148" height="39" rx="4" fill="#fff"/><g clip-path="url(#clip30)" fill="#DDE3E9"><rect x="247.665" y="255.829" width="90" height="5.85" rx="2.925"/><rect x="247.665" y="265.579" width="60.411" height="5.85" rx="2.925"/></g></g><g clip-path="url(#clip31)"><rect x="238.665" y="338.129" width="148" height="39" rx="4" fill="#fff"/><g clip-path="url(#clip32)" fill="#DDE3E9"><rect x="247.665" y="349.829" width="90" height="5.85" rx="2.925"/><rect x="247.665" y="359.579" width="60.411" height="5.85" rx="2.925"/></g></g><g clip-path="url(#clip33)"><rect x="238.665" y="291.129" width="148" height="39" rx="4" fill="#fff"/><g clip-path="url(#clip34)" fill="#DDE3E9"><rect x="247.665" y="302.829" width="90" height="5.85" rx="2.925"/><rect x="247.665" y="312.579" width="60.411" height="5.85" rx="2.925"/></g></g></g></g><path fill-rule="evenodd" clip-rule="evenodd" d="M544.481 229.271c-3.036-2.058-7.075-2.598-10.709-2.598-14.194 0-27.536 5.265-39.062 13.11-6.315 4.299-11.965 9.773-16.953 15.472-2.879 3.29-5.446 6.849-7.264 10.807-1.226 2.672-2.068 5.456-2.638 8.327-.696 3.499-1.248 7.07-1.498 10.627-.098 1.401-.913 8.834 1.417 8.96a3.287 3.287 0 00-.002.515c-5.059 7.908-8.184 17.175-11.083 25.962-2.521 7.646-4.769 15.357-6.227 23.267a253.395 253.395 0 00-3.782 31.549c-.129 2.27-.217 4.541-.293 6.815l-.194 5.817c-.071 2.172-.454 4.674-.108 6.834.301 1.882 1.93 1.597 2.002-.275.087-2.261.072-4.526.171-6.789.132-3.002.267-6.005.414-9.007 1.024-20.853 4.862-41.4 11.946-61.098 2.867-7.972 6.152-15.518 10.374-22.892 3.712-6.483 8.177-12.76 12.741-18.605 4.436-5.681 9.048-11.231 14.484-16.044 4.411-3.905 9.262-7.308 14.25-10.474 6.334-4.021 12.657-7.944 19.518-11.031 3.567-1.604 7.201-3.041 10.796-4.58.647-.277 1.34-.546 1.962-.867 2.075-1.07 1.392-2.681-.262-3.802z" fill="#C1DEE2"/><path fill-rule="evenodd" clip-rule="evenodd" d="M487.378 302.106c5.757 0 10.88.748 16.184 3.035 4.579 1.974 8.752 4.588 12.803 7.433 5.699 4.001 10.187 8.659 13.329 14.829 1.877 3.687 3.254 8.903 1.993 12.924-1.484 4.736-5.562 8.685-10.932 7.851-3.32-.516-6.364-2.713-8.888-4.781-3.019-2.475-5.436-5.45-7.432-8.754-3.255-5.391-5.168-11.484-7.933-17.117-1.312-2.673-2.58-5.365-4.152-7.906-.778-1.258-1.606-2.504-2.787-3.439-.631-.5-3.294-1.365-2.276-2.489-14.929.196-28.154 11.659-31.02 25.848-.267 1.322-.476 2.656-.696 3.986-.139.84-.083 3.939-.834 4.475-1.657 1.185-.961-2.412-.89-2.93.184-1.339.38-2.676.586-4.011 1.119-7.262 4.352-14.012 9.745-19.191 6.167-5.922 14.487-9.763 23.2-9.763z" fill="#89C5CC"/><path fill-rule="evenodd" clip-rule="evenodd" d="M72.482 284.2c14.372 24.104 31.11 47.444 41.162 73.798a386.414 386.414 0 00-1.315-9.308c-2.55-16.427-5.72-32.733-9.052-49.02-1.696-8.292-3.49-16.555-5.33-24.816-.99-4.438-1.967-8.878-2.978-13.311-.244-1.074-.454-2.95-.76-4.851 9.768 32.049 19.189 64.122 26.08 96.942a214.289 214.289 0 012.304 12.898c.216-.979.428-1.958.66-2.934 2.789-11.706 6.971-23.318 11.951-34.263 2.38-5.234 5.115-10.354 8.334-15.124 2.008-2.973 6.743-6.508 8.574-9.553-10.016 18.366-13.633 41.347-19.416 61.315-1.412 4.873-2.832 9.738-4.224 14.611 8.722-17.487 22.254-31.854 41.068-38.08-22.774 15.043-36.434 41.389-45.639 68.334-.031.319-.067.639-.098.959 2.709-5.14 6.121-9.788 10.745-13.044 9.898-6.97 20.877-4.94 30.478 1.039-7.535-4.788-21.153-.428-27.493 4.439-4.539 3.484-8.418 8.158-11.786 12.718-.807 1.093-1.908 2.369-3.072 3.729a168.061 168.061 0 01-8.052 31.525c.621-2.993.172-7.78.345-10.012l.052-.724a676.893 676.893 0 00-1.656 6.762c1.057-4.238 1.632-8.662 2.081-13.132.115-1.921.228-3.842.347-5.763a186.97 186.97 0 00-.442-10.971c-.9-3.563-1.909-6.923-2.741-9.718-3.001-10.084-7.4-19.745-12.816-28.757-4.94-8.225-10.854-15.674-17.682-22.412-3.68-3.631-7.532-7.089-11.33-10.595-1.373-1.268-3.828-4.384-5.95-6.009 15.46 8.522 31.373 17.74 42.652 31.47a343.5 343.5 0 00-4.278-14.985c-7.707-24.882-17.44-50.669-30.723-73.157z" fill="#DDE3E9"/><path fill-rule="evenodd" clip-rule="evenodd" d="M87.928 420.644c0 27.632 2.19 50.032 31.567 50.032 29.378 0 31.567-22.4 31.567-50.032" fill="#C5CFD6"/><rect x="415.146" y="65.031" width="4.62" height="19.243" rx="2.31" fill="#DDE3E9"/><rect x="425.925" y="52.715" width="4.62" height="31.559" rx="2.31" fill="#DDE3E9"/><rect x="436.703" y="46.557" width="4.62" height="37.717" rx="2.31" fill="#DDE3E9"/><rect x="447.482" y="52.715" width="4.62" height="31.559" rx="2.31" fill="#DDE3E9"/><rect x="458.261" y="40.399" width="4.62" height="43.874" rx="2.31" fill="#C5CFD6"/><path fill-rule="evenodd" clip-rule="evenodd" d="M36.343 276.133c0-8.574 6.931-15.592 15.399-15.592v15.592l-10.523 11.348c-2.994-2.774-4.876-6.844-4.876-11.348z" fill="#F2F2F2"/><path fill-rule="evenodd" clip-rule="evenodd" d="M51.334 275.936h15.55c0 4.018-1.639 7.784-4.231 10.52-2.851 2.993-6.911 4.874-11.319 4.874-4.059 0-7.775-1.623-10.627-4.19l10.627-11.204z" fill="#AFB9C5"/><path fill-rule="evenodd" clip-rule="evenodd" d="M67.14 275.936c0-8.466-6.93-15.395-15.398-15.395v15.395h15.399zm-23.097-15.395l6.16 13.855-13.86-6.158c1.371-3.591 4.448-6.327 7.7-7.697z" fill="#C5CFD6"/><path fill-rule="evenodd" clip-rule="evenodd" d="M537.384 283.001a8.094 8.094 0 01-5.907 2.556c-4.479 0-8.11-3.618-8.11-8.082s3.631-8.082 8.11-8.082v-15.01c-12.741 0-23.171 10.394-23.171 23.092 0 12.698 10.43 23.092 23.171 23.092 6.693 0 12.742-2.822 16.865-7.311l-10.958-10.255z" fill="#F2F2F2"/><path fill-rule="evenodd" clip-rule="evenodd" d="M531.404 254.383v15.01a8.083 8.083 0 018.084 8.082h15.014c0-12.698-10.397-23.092-23.098-23.092z" fill="#AFB9C5"/><path fill-rule="evenodd" clip-rule="evenodd" d="M539.178 277.475a8.186 8.186 0 01-3.155 6.458l9.441 12.015c5.496-4.301 9.038-10.969 9.038-18.473h-15.324z" fill="#C5CFD6"/><path fill-rule="evenodd" clip-rule="evenodd" d="M390.547 70.806a6.232 6.232 0 01-4.543 1.96c-3.445 0-6.238-2.774-6.238-6.196 0-3.422 2.793-6.196 6.238-6.196V48.866c-9.801 0-17.824 7.969-17.824 17.704s8.023 17.704 17.824 17.704c5.149 0 9.801-2.164 12.973-5.605l-8.43-7.863z" fill="#F2F2F2"/><path fill-rule="evenodd" clip-rule="evenodd" d="M385.889 48.866v11.508a6.196 6.196 0 016.197 6.196h11.511c0-9.735-7.971-17.704-17.708-17.704z" fill="#AFB9C5"/><path fill-rule="evenodd" clip-rule="evenodd" d="M392.104 66.57a6.143 6.143 0 01-2.366 4.844l7.081 9.01c4.121-3.225 6.778-8.226 6.778-13.854h-11.493zM110.262 84.263l-.011.025c.004-.008.011-.039.011-.025z" fill="#C5CFD6"/><path fill-rule="evenodd" clip-rule="evenodd" d="M110.254 84.275l-.001.007c0-.007.014-.03.001-.007z" fill="#C5CFD6"/><path fill-rule="evenodd" clip-rule="evenodd" d="M110.308 84.145c-.011.03-.025.06-.037.09l.018-.043c-.16.4-.058.14.019-.047z" fill="#C5CFD6"/><path fill-rule="evenodd" clip-rule="evenodd" d="M110.273 84.237l-.018.043c-.045.087.018-.043.018-.043zm-.018.038l.002-.003-.002.003z" fill="#C5CFD6"/><path fill-rule="evenodd" clip-rule="evenodd" d="M110.248 84.286c-.009.019.043-.07 0 0zm.007-.011l.003-.003-.003.003z" fill="#C5CFD6"/><rect x="73.3" y="44.248" width="73.143" height="48.493" rx="4" fill="#DDE3E9"/><path fill-rule="evenodd" clip-rule="evenodd" d="M101.017 58.103L79.459 92.74h43.116l-21.558-34.637z" fill="#AFB9C5"/><path fill-rule="evenodd" clip-rule="evenodd" d="M122.19 67.34l-18.863 25.4h37.726l-18.863-25.4z" fill="#C5CFD6"/><path fill-rule="evenodd" clip-rule="evenodd" d="M130.274 67.34a6.928 6.928 0 100-13.855 6.928 6.928 0 100 13.855z" fill="#fff"/><path fill-rule="evenodd" clip-rule="evenodd" d="M477.504 412.936a.174.174 0 00.011.025c-.005-.008-.011-.038-.011-.025z" fill="#C5CFD6"/><path fill-rule="evenodd" clip-rule="evenodd" d="M477.511 412.948l.002.008c0-.008-.014-.031-.002-.008z" fill="#C5CFD6"/><path fill-rule="evenodd" clip-rule="evenodd" d="M477.458 412.818c.01.031.024.06.037.091l-.019-.043c.16.4.059.14-.018-.048z" fill="#C5CFD6"/><path fill-rule="evenodd" clip-rule="evenodd" d="M477.492 412.911l.019.043c.044.086-.019-.043-.019-.043zm.018.038l-.001-.004.001.004z" fill="#C5CFD6"/><path fill-rule="evenodd" clip-rule="evenodd" d="M477.517 412.96c.01.018-.043-.071 0 0z" fill="#C5CFD6"/><path fill-rule="evenodd" clip-rule="evenodd" d="M477.511 412.949l-.003-.004c.001.002.001.004.003.004z" fill="#C5CFD6"/><rect width="109.329" height="72.354" rx="4" transform="matrix(-1 0 0 1 532.174 353.678)" fill="#DDE3E9"/><path fill-rule="evenodd" clip-rule="evenodd" d="M491.579 374.461l31.609 51.571H459.97l31.609-51.571z" fill="#AFB9C5"/><path fill-rule="evenodd" clip-rule="evenodd" d="M458.988 388.274l27.945 37.758h-55.889l27.944-37.758z" fill="#C5CFD6"/><path fill-rule="evenodd" clip-rule="evenodd" d="M447.097 388.316c-5.74 0-10.394-4.653-10.394-10.392s4.654-10.391 10.394-10.391c5.741 0 10.394 4.652 10.394 10.391s-4.653 10.392-10.394 10.392z" fill="#fff"/></g><path fill-rule="evenodd" clip-rule="evenodd" d="M15.207 600.134c15.382-59.33 171.031-25.531 273.073-43.873 102.041-18.342 222.765-103.764 302.662-61.92 79.897 41.844-5.112 142.994-188.362 165.82-183.25 22.826-402.755-.697-387.373-60.027z" fill="#F2F2F2"/><path fill-rule="evenodd" clip-rule="evenodd" d="M202.536 318.986c5.723.86 10.776.327 12.662-1.093 4.729-3.563-2.823-23.137-10.089-29.074-7.266-5.937-29.711-.526-24.495 15.046 1.811 5.405 5.961 9.177 10.806 11.649l5.456 29.654 16.97-7.042-11.31-19.14z" fill="#D4A181"/><path fill-rule="evenodd" clip-rule="evenodd" d="M184.757 297.981c9.821-3.993 16.463-7.232 19.918-9.922-1.555-3.245-6.562-5.565-15.661-1.79-10.124 4.201-13.108 12.356-10.275 19.182 2.588 6.237 9.754 12.167 12.938 11.208.721-.502 1.001-1.736 1.128-3.33-1.513-.09-2.993-1.167-3.768-3.034-.744-1.794.116-4.192 2.068-5.002a3.683 3.683 0 012.185-.188c.426-2.599 1.393-4.809 3.713-5.574l-3.175-3.656-8.778 2.813-.293-.707z" fill="#191847"/><path fill-rule="evenodd" clip-rule="evenodd" d="M183.3 405.273l27.754 97.396 20.25 71.786h14.769l-21.518-169.182H183.3z" fill="#C5CFD6"/><path fill-rule="evenodd" clip-rule="evenodd" d="M175.878 405.273c-.642 50.199-2.831 77.579-3.505 82.14-.675 4.56-10.866 33.575-30.575 87.042h15.3c25.091-51.293 39.098-80.307 42.02-87.042 2.922-6.736 11.939-34.116 25.52-82.14h-48.76z" fill="#DDE3E9"/><path fill-rule="evenodd" clip-rule="evenodd" d="M140.43 588.235l.766-16.077h16.076c11.434 8.039 29.856 13.014 29.856 13.014v3.063h-29.091l-9.952-1.531v1.531h-7.655zm88.802 0l.765-16.077h16.076c11.435 8.039 29.856 13.014 29.856 13.014v3.063h-29.09l-9.952-1.531v1.531h-7.655z" fill="#191847"/><path fill-rule="evenodd" clip-rule="evenodd" d="M256.661 292.69l-22.521 20.265 11.968 7.998 14.734-21.639c9.255-5.063 13.312-8.127 12.169-9.191-.964-.897-2.105-.589-3.156-.305-.818.221-1.582.427-2.165.038-1.332-.89-.245-5.356.968-9.551 1.212-4.194-.942-3.345-2.092-2.512-3.507 3.81-6.809 8.776-9.905 14.897zM135.376 439.652c2.243-4.552 13.452-63.125 13.452-63.125l16.763.063s-19.151 62.047-20.332 64.973c-1.534 3.802 1.072 9.326 2.839 13.071.273.58.526 1.117.741 1.598-2.452 1.097-3.629-.229-4.871-1.627-1.402-1.579-2.886-3.25-6.38-1.625-1.349.628-2.626 1.371-3.874 2.096-4.31 2.505-8.269 4.807-13.655 1.483-.854-.527-1.79-2.511.471-4.061 5.633-3.862 13.749-10.621 14.846-12.846z" fill="#D4A181"/><path fill-rule="evenodd" clip-rule="evenodd" d="M164.009 363.465l-.703-6.679c37.462-8.009 66.018-59.841 79.983-62.227 5.121-.875 7.434 2.92 9.092 1.146l5.726 8.995c-1.791 1.344 1.109 4.649-1.483 10.987-2.593 6.338-49.06 50.616-92.615 47.778z" fill="#2977B3"/><path fill-rule="evenodd" clip-rule="evenodd" d="M189.07 321.344a4 4 0 00-4.269 3.711l-.248 3.549c-12.458 9.586-43.335 38.234-51.381 91.564-.845 5.602.684 8.602 1.905 11 .835 1.64 1.527 2.998 1.217 4.713l11.26 3.108c0-1.266 1.42-2.23 3.251-3.473 2.662-1.807 6.195-4.205 7.501-8.986 1.238-4.532 3.052-10.192 5.218-16.488.204 8.339 1.786 16.008 5.231 22.36 8.595 15.847 58.263-1.532 63.452-17.699 2.769-8.627-1.16-15.87-6.356-25.448-6.596-12.16-15.235-28.083-14.808-55.38l.486-6.951a4 4 0 00-3.711-4.269l-18.748-1.311z" fill="#479CD9"/><path fill-rule="evenodd" clip-rule="evenodd" d="M413.591 300.074c-5.241 3.159-10.391 4.686-12.808 4.063-6.061-1.563-6.619-23.737-1.929-32.479 4.69-8.741 28.801-12.552 30.016 4.769.422 6.011-2.102 11.376-5.832 15.753l6.687 31.168h-19.424l3.29-23.274z" fill="#B28B67"/><path fill-rule="evenodd" clip-rule="evenodd" d="M412.62 278.339c-1.681-2.502-3.294-4.41-5.392-5.518-8.539.135-9.539-1.396-9.539-6.556 1.379-.986 6.246-2.648 11.696-3.116 2.78-.795 6.074-.646 9.246.681 3.917 1.112 7.233 3.505 8.698 7.985 5.3 9.146 1.277 18.667-4.144 21.92a73.497 73.497 0 01-3.825-4.953 4.857 4.857 0 00-3.976-8.295c-.121 3.353-.617 14.698-1.922 18.638-1.538 4.646-10.513 5.786-13.643 5.786-2.703 0-2.611-2.56-2.545-4.394.009-.265.018-.514.018-.738 0-.469.61-.468 1.299-.466.894.001 1.922.003 1.922-1.023 0-1.118-1.546-1.976-2.929-2.744-.863-.479-1.663-.923-1.985-1.373-1.014-1.42-1.356-3.336.175-3.336.836 0 1.984.482 3.365 1.063 2.085.876 4.701 1.975 7.58 1.975 4.756 0 5.887-15.343 5.901-15.536z" fill="#191847"/><path fill-rule="evenodd" clip-rule="evenodd" d="M442.648 391.692L413.045 493.9l-13.923 76.739h-13.976l13.951-178.947h43.551z" fill="#997659"/><path fill-rule="evenodd" clip-rule="evenodd" d="M455.952 391.692c-2.066 53.097-1.251 82.057-.789 86.881.463 4.824 3.087 37.132 20.971 93.686h-14.535c-23.685-54.254-31.953-86.562-34.669-93.686-2.717-7.124-10.74-36.085-22.453-86.881h51.475z" fill="#B28B67"/><path fill-rule="evenodd" clip-rule="evenodd" d="M443.284 391.692c-7.7 35.17-21.018 91.31-39.954 168.421h-20.441c-1.509-79.147 4.913-131.238 16.035-168.421h44.36z" fill="#4F4F4F"/><path fill-rule="evenodd" clip-rule="evenodd" d="M456.055 391.692c-2.023 53.097 3.22 105.407 19.46 169.247h-21.809c-23.728-53.443-40.735-105.495-52.358-169.247h54.707z" fill="#828282"/><path fill-rule="evenodd" clip-rule="evenodd" d="M478.206 582.785l-.724-11.706c-.04-.64-.664-1.078-1.294-.955-6.983 1.368-16.428-1.914-16.428-1.914-9.461 6.715-22.988 9.894-28.257 10.934-1.179.233-1.931 1.424-1.603 2.581l.987 3.489h45.715l1.604-2.429zm-75.965 0l-.724-11.706c-.04-.64-.664-1.078-1.294-.955-6.983 1.368-16.428-1.914-16.428-1.914-9.461 6.715-22.988 9.894-28.257 10.934-1.18.233-1.931 1.424-1.603 2.581l.987 3.489h45.715l1.604-2.429z" fill="#191847"/><path fill-rule="evenodd" clip-rule="evenodd" d="M365.902 376.798l-30.83-8.65c-5.799-4.345-11.252-7.501-16.359-9.467-1.48-.251-3.919-.047-.808 3.355 3.111 3.402 6.231 7.121 5.384 8.585-.846 1.465-4.04.428-4.919 2.74-.586 1.541 4.693 2.544 15.836 3.009l24.089 13.589 7.607-13.161z" fill="#B28B67"/><path fill-rule="evenodd" clip-rule="evenodd" d="M414.121 311.049l-7.097-.213c-13.041 16.738-14.266 52.72-23.672 58.782-8.893 5.732-22.974 3.374-39.807-.116l-3.37 11.636c16.772 13.679 49.66 22.604 61.169 13.253 18.399-14.952 16.953-58.915 12.777-83.342z" fill="#191847"/><path fill-rule="evenodd" clip-rule="evenodd" d="M456.55 393.741l-61.321 8.618c-2.802.394-2.841-3.72-2.723-5.814 1.369-24.179 16.055-52.098 11.349-85.58l17.299-5.255c17.931 21.432 27.055 49.639 35.396 88.031z" fill="#DDE3E9"/><path fill-rule="evenodd" clip-rule="evenodd" d="M421.436 305.172l2.196-.308c23.236 12.646 27.493 31.672 33.569 58.834l.296 1.321c6.552 14.25 12.035 29.225 15.039 43.608l-55.198 7.757c-14.474-25.455-2.046-109.85-2.046-109.85l6.138-.863.006-.499z" fill="#191847"/><path fill-rule="evenodd" clip-rule="evenodd" d="M340.612 410.653h42.015L373.205 353h-42.016l9.423 57.653z" fill="#18181C"/><path fill-rule="evenodd" clip-rule="evenodd" d="M338.354 410.653h42.015L370.947 353h-42.016l9.423 57.653z" fill="#C9D3DF"/><path fill-rule="evenodd" clip-rule="evenodd" d="M367.023 357.651c.188.954.745 1.65 1.244 1.552.498-.097.751-.949.563-1.904-.188-.954-.745-1.65-1.244-1.552-.499.097-.751.949-.563 1.904" fill="#020101"/><path d="M383.569 385.614l1.662 2.58 19.269-2.58 6.678-10.25L424 362s-.73 22.886-5.331 35.126c-2.326 6.188-24.011 2.315-31.669 1.374-2.984 2.103-6.422 4.689-8.742 5.476-4.299.209-13.769-.868-17.258-6.85.08-1.531 1.06-2.426 1.06-2.426.143-1.509 2.223-1.759 3.213-1.943 0 0 3.369-.061 4.373-.383 5.004-1.617 6.167-2.907 6.782-3.634.073-.086.136-.163.199-.232a2.116 2.116 0 00-.266-.314l.266-3.832c1.506.211 1.784-.348 3.243 0 2.323.555 3.699 1.252 3.699 1.252z" fill="#B28B67"/><path d="M407.89 382.5l2.61-19.151 23.647-10.5 15.853 51h-36.661L396 402.5l-1.5-16 13.39-4z" fill="#191847"/><defs><clipPath id="clip0"><path fill="#fff" d="M44.813 275.936h509.689v180.116H44.813z"/></clipPath><clipPath id="clip1"><path fill="#fff" d="M121.035 58.873h122.418V291.33H121.035z"/></clipPath><clipPath id="clip2"><path fill="#fff" d="M135.035 86.873h94v204h-94z"/></clipPath><clipPath id="clip3"><path fill="#fff" d="M135.035 86.873h94v54h-94z"/></clipPath><clipPath id="clip4"><path fill="#fff" d="M174.035 103.073h36v21.6h-36z"/></clipPath><clipPath id="clip5"><path fill="#fff" d="M135.035 148.873h94v42h-94z"/></clipPath><clipPath id="clip6"><path fill="#fff" d="M174.035 161.473h36v16.8h-36z"/></clipPath><clipPath id="clip7"><path fill="#fff" d="M135.035 198.873h94v42h-94z"/></clipPath><clipPath id="clip8"><path fill="#fff" d="M174.035 211.473h36v16.8h-36z"/></clipPath><clipPath id="clip9"><path fill="#fff" d="M135.035 248.873h94v42h-94z"/></clipPath><clipPath id="clip10"><path fill="#fff" d="M174.035 261.473h36v16.8h-36z"/></clipPath><clipPath id="clip11"><path fill="#fff" d="M134.894 78.885h159.374v232.458H134.894z"/></clipPath><clipPath id="clip12"><path fill="#fff" d="M196.894 106.885h83v204h-83z"/></clipPath><clipPath id="clip13"><path fill="#fff" d="M196.894 106.885h83v54h-83z"/></clipPath><clipPath id="clip14"><path fill="#fff" d="M205.894 123.085h25v21.6h-25z"/></clipPath><clipPath id="clip15"><path fill="#fff" d="M196.894 168.885h83v42h-83z"/></clipPath><clipPath id="clip16"><path fill="#fff" d="M235.894 181.486h25v16.8h-25z"/></clipPath><clipPath id="clip17"><path fill="#fff" d="M196.894 218.885h83v42h-83z"/></clipPath><clipPath id="clip18"><path fill="#fff" d="M205.894 231.486h25v16.8h-25z"/></clipPath><clipPath id="clip19"><path fill="#fff" d="M196.894 268.885h83v42h-83z"/></clipPath><clipPath id="clip20"><path fill="#fff" d="M235.894 281.486h25v16.8h-25z"/></clipPath><clipPath id="clip21"><path fill="#fff" d="M222.665 98.129h257.924v266.326H222.665z"/></clipPath><clipPath id="clip22"><path fill="#fff" d="M414.376 199.733h53.895V349.06h-53.895z"/></clipPath><clipPath id="clip23"><path fill="#fff" d="M432.376 217.733h18v158h-18z"/></clipPath><clipPath id="clip24"><path fill="#fff" d="M238.665 142.129h148v282h-148z"/></clipPath><clipPath id="clip25"><path fill="#fff" d="M238.665 142.129h148v47h-148z"/></clipPath><clipPath id="clip26"><path fill="#fff" d="M247.665 156.229h90v18.8h-90z"/></clipPath><clipPath id="clip27"><path fill="#fff" d="M238.665 197.129h148v39h-148z"/></clipPath><clipPath id="clip28"><path fill="#fff" d="M247.665 208.829h90v15.6h-90z"/></clipPath><clipPath id="clip29"><path fill="#fff" d="M238.665 244.129h148v39h-148z"/></clipPath><clipPath id="clip30"><path fill="#fff" d="M247.665 255.829h90v15.6h-90z"/></clipPath><clipPath id="clip31"><path fill="#fff" d="M238.665 338.129h148v39h-148z"/></clipPath><clipPath id="clip32"><path fill="#fff" d="M247.665 349.829h90v15.6h-90z"/></clipPath><clipPath id="clip33"><path fill="#fff" d="M238.665 291.129h148v39h-148z"/></clipPath><clipPath id="clip34"><path fill="#fff" d="M247.665 302.829h90v15.6h-90z"/></clipPath></defs></svg>