<svg viewBox="0 0 645 421" fill="none" xmlns="http://www.w3.org/2000/svg"><g opacity=".4" fill-rule="evenodd" clip-rule="evenodd"><path d="M615.653 123.052c-.516-.327-1.741-.442-2.31-.54-2.368-.406-4.808-.582-7.222-.582-7.444.009-15.009.644-22.329 1.743-4.648.698-10.267 3.046-14.89 1.771-8.055-2.222-16.196-2.113-23.838 1.059-6.987 2.9-12.291 8.408-15.386 14.36-.467.899-2.362 4.206-2.898 6.435-.229.455-.449.914-.648 1.38a63.529 63.529 0 00-1.539 4.016c-.2.576-.705 1.846-.106 2.091a36.162 36.162 0 00-2.513 4.753c-2.056 4.752-4.305 9.965-5.027 15.001a20.389 20.389 0 00-.029 5.61c.122.924.072 2.781.792 3.483 1.529 1.49 2.315-.596 2.142-1.589-1.316-7.573 1.226-14.685 4.239-21.803 1.948-4.604 5.149-8.815 8.734-12.629 2.902-3.087 6.016-5.518 9.994-7.565 4.864-2.503 10.065-4.526 15.218-6.556 3.39-1.335 6.783-2.635 10.267-3.785.774-.256 1.993-.913 2.852-.915 1.817-.006 4.391 1.159 6.145 1.592 5.771 1.426 11.616 3.251 17.58 3.979 3.826.468 7.41-.058 10.988-1.166.365-.113.978-.404 1.729-.819 2.656-.888 5.169-2.005 7.357-3.617 1.26-.929 2.404-2.13 3.447-3.229.312-.328.45-.705.455-1.062.236-.108.393-.233.429-.38.26-1.081-2.113-1.101-3.633-1.036z" fill="#89C5CC"/><path d="M606.708 153.595c-3.301-.626-6.945-.578-10.307-.527-18.03.213-35.735 7.631-47.258 19.484-9.81 10.091-12.507 22.636-14.445 35.317-.192 1.26-.275 2.511-.383 3.772a9.507 9.507 0 01-.095.74c-.763.592-1.162 1.283-.711 2.041a77.927 77.927 0 00-4.318 9.843c-3.587 9.939-7.236 20.067-4.988 30.518.525-5.751 1.63-11.633 2.951-17.289.076-.325.158-.647.243-.968l.026-.102a34.245 34.245 0 011.814-5.067l.024-.053c.097-.218.201-.434.303-.651.212-.448.43-.896.66-1.341.078-.151.153-.304.225-.458 1.076-2.293 1.531-4.875 2.495-7.247.23-.539.472-1.076.724-1.611l.045-.094a66.72 66.72 0 012.235-4.264c.434-.283.665-.985 1.039-1.624.078-.125.682-.964.862-1.447.47-.79.938-1.58 1.411-2.368a.717.717 0 00-.043.014c.474-.757.948-1.511 1.42-2.262l.312-.495.507-.789a146.74 146.74 0 014.993-7.24c.621-.848 2.104-2.064 2.388-3.017.011-.035.013-.068.019-.102 3.774-4.606 8.118-8.854 13.328-12.22-.63.592-1.968 2.599-2.322 2.996-1.083 1.217-2.259 2.35-3.439 3.497-2.114 2.054-4.177 4.173-6.011 6.414-3.353 4.098-6.246 8.411-8.981 12.811-.026.026-.054.05-.079.076-1.374 1.473-2.239 3.698-3.228 5.382 3.915-1.576 8.244-2.603 12.263-4.002 4.007-1.395 7.905-2.948 11.669-4.773 5.002-2.424 10.19-5.161 14.917-8.259 5.416-2.92 9.967-6.938 13.984-11.155 4.753-4.989 9.109-10.022 11.803-16.08 1.324-2.977 2.365-6.081 2.982-9.221.027-.137.062-.286.099-.44a28.194 28.194 0 001.67-3.328c.752-1.799 2.529-3.778-.803-4.411z" fill="#69A1AC"/><path d="M642.764 188.075c-3.817-2.249-8.892-2.839-13.46-2.839-17.838 0-34.606 5.752-49.091 14.321-7.937 4.696-15.038 10.676-21.307 16.902-3.618 3.594-6.844 7.482-9.128 11.806-1.542 2.919-2.6 5.959-3.317 9.096-.874 3.823-1.568 7.723-1.882 11.609-.123 1.53-1.147 9.651 1.781 9.788-.017.2-.02.391-.003.562-6.357 8.639-10.285 18.763-13.928 28.361-3.169 8.353-5.993 16.776-7.826 25.417a242.345 242.345 0 00-4.753 34.463c-.162 2.48-.273 4.961-.369 7.445l-.243 6.354c-.089 2.374-.57 5.107-.136 7.467.378 2.055 2.425 1.744 2.516-.301.109-2.47.091-4.945.215-7.416.166-3.28.336-6.561.521-9.84 1.286-22.78 6.11-45.225 15.013-66.743 3.603-8.708 7.731-16.951 13.037-25.006 4.666-7.083 10.277-13.939 16.013-20.325 5.575-6.206 11.372-12.268 18.203-17.526 5.543-4.266 11.64-7.983 17.908-11.442 7.962-4.392 15.907-8.678 24.531-12.05 4.482-1.753 9.05-3.322 13.567-5.004.813-.302 1.685-.596 2.466-.946 2.608-1.169 1.75-2.929-.328-4.153z" fill="#C1DEE2"/><path d="M560.609 278.972c7.235 0 13.673.817 20.339 3.316 5.755 2.156 10.999 5.011 16.091 8.119 7.161 4.371 12.803 9.459 16.751 16.2 2.359 4.027 4.09 9.725 2.506 14.118-1.867 5.173-6.991 9.487-13.74 8.576-4.173-.563-7.998-2.964-11.17-5.223-3.795-2.703-6.832-5.953-9.34-9.563-4.091-5.888-6.495-12.545-9.971-18.698-1.649-2.92-3.242-5.861-5.218-8.636-.977-1.375-2.018-2.736-3.502-3.757-.794-.546-4.14-1.492-2.86-2.719-18.763.214-35.384 12.736-38.986 28.236-.335 1.444-.598 2.901-.875 4.354-.174.918-.104 4.303-1.048 4.889-2.082 1.294-1.207-2.636-1.118-3.201.231-1.462.478-2.923.736-4.382 1.407-7.932 5.471-15.307 12.248-20.964 7.75-6.469 18.207-10.665 29.157-10.665z" fill="#89C5CC"/></g><g opacity=".3" fill-rule="evenodd" clip-rule="evenodd"><path d="M25.29 181.081c14.95 25.079 32.36 49.362 42.816 76.782a403.46 403.46 0 00-1.369-9.685c-2.653-17.091-5.95-34.056-9.415-51.001-1.764-8.628-3.63-17.224-5.544-25.82-1.03-4.617-2.047-9.236-3.097-13.848-.255-1.118-.473-3.069-.792-5.047 10.161 33.344 19.96 66.714 27.128 100.859a223.59 223.59 0 012.397 13.421c.224-1.019.445-2.038.686-3.054 2.9-12.178 7.25-24.26 12.43-35.647 2.477-5.446 5.321-10.772 8.67-15.735 2.088-3.094 7.013-6.772 8.918-9.94-10.418 19.109-14.18 43.019-20.196 63.794-1.469 5.069-2.946 10.131-4.394 15.201 9.072-18.193 23.148-33.142 42.718-39.62-23.689 15.652-37.897 43.063-47.472 71.097-.032.332-.07.665-.102.998 2.818-5.348 6.367-10.184 11.177-13.572 10.295-7.251 21.715-5.139 31.702 1.082-7.838-4.982-22.003-.446-28.598 4.618-4.72 3.625-8.755 8.488-12.259 13.232-.84 1.138-1.985 2.464-3.195 3.88a174.922 174.922 0 01-8.375 32.799c.646-3.114.179-8.095.358-10.416.02-.252.035-.503.055-.754a703.831 703.831 0 00-1.724 7.035c1.1-4.409 1.698-9.012 2.165-13.663.12-1.998.238-3.997.362-5.995-.04-3.793-.196-7.601-.46-11.415-.937-3.707-1.986-7.203-2.851-10.111-3.122-10.491-7.698-20.542-13.33-29.919-5.14-8.557-11.291-16.308-18.393-23.318-3.828-3.777-7.834-7.375-11.785-11.023-1.428-1.319-3.981-4.561-6.19-6.252 16.082 8.866 32.634 18.457 44.365 32.742a356.548 356.548 0 00-4.45-15.591c-8.016-25.887-18.138-52.717-31.956-76.114z" fill="#C1DEE2"/><path d="M41.357 323.041c0 28.749 2.277 52.055 32.834 52.055 30.558 0 32.835-23.306 32.835-52.055" fill="#69A1AC"/></g><path fill-rule="evenodd" clip-rule="evenodd" d="M94.346 147.113c7.541 0 10.283-9.041 14.567-14.003 3.065-3.549 8.296-2.491 9.844-7.46 3.894-12.497-6.527-21.292-20.122-21.292-13.596 0-22.762 7.714-24.742 19.309-1.979 11.596 6.858 23.446 20.453 23.446z" fill="#191847"/><path fill-rule="evenodd" clip-rule="evenodd" d="M102.88 145.486c4.273 2.579 8.471 3.825 10.441 3.316 4.941-1.276 5.395-19.379 1.572-26.515-3.823-7.137-23.477-10.248-24.468 3.892-.344 4.908 1.714 9.288 4.754 12.862l-5.451 25.445h15.834l-2.682-19z" fill="#B28B67"/><path fill-rule="evenodd" clip-rule="evenodd" d="M91.454 116.251c-12.128 11.894.047 24.535 3.383 24.535.215-1.716.872-3.385 1.834-4.974a3.886 3.886 0 01-.814-2.381c0-2.19 1.819-3.965 4.062-3.965.701 0 1.36.174 1.935.478 4.863-4.153 10.961-7.048 13.989-7.617 5.267-.99-12.26-17.969-24.389-6.076z" fill="#191847"/><path fill-rule="evenodd" clip-rule="evenodd" d="M84.45 219.327l24.827 81.288 12.027 69.13h9.43l-12.708-150.418H84.45z" fill="#997659"/><path fill-rule="evenodd" clip-rule="evenodd" d="M75.568 219.327c1.686 44.632-.299 67.653-.676 71.708-.377 4.055-5.545 30.348-17.78 80.071l10.048-3.456c19.336-45.604 25.925-69.305 28.143-75.293 2.218-5.989 8.108-30.332 17.67-73.03H75.568z" fill="#B28B67"/><path fill-rule="evenodd" clip-rule="evenodd" d="M59.7 367.152c-1.085-.443-2.363.03-2.741 1.139-.428 1.257-.88 2.801-.88 3.738 0 1.788.596 5.217.596 5.217h37.211s1.45-4.803-1.674-5.186a223.115 223.115 0 01-5.193-.691l-16.975-7.579a1 1 0 00-1.332.532l-.979 2.377s-2.893 1.352-4.701 1.352c-.904 0-2.23-.449-3.332-.899zm62.018 0c-1.085-.443-2.363.03-2.741 1.139-.429 1.257-.879 2.801-.879 3.738 0 1.788.594 5.217.594 5.217h37.212s1.451-4.803-1.675-5.186c-3.125-.383-5.192-.691-5.192-.691l-16.975-7.579a1 1 0 00-1.332.532l-.979 2.377s-2.893 1.352-4.702 1.352c-.903 0-2.23-.449-3.331-.899z" fill="#E4E4E4"/><path fill-rule="evenodd" clip-rule="evenodd" d="M81.15 219.327l10.557 41.416h32.243l-4.808-41.416H81.151z" fill="#69A1AC"/><path fill-rule="evenodd" clip-rule="evenodd" d="M75.213 219.327c-5.21 15.641-1.98 41.416-1.98 41.416h32.903l9.048-41.416H75.213z" fill="#89C5CC"/><path fill-rule="evenodd" clip-rule="evenodd" d="M161.228 227.096l-18.69-18.26-6.207 10.757 19.434 11.476c4.874 7.687 7.736 11.009 8.587 9.965.717-.881.388-1.846.085-2.735-.236-.692-.456-1.338-.153-1.863.69-1.197 4.592-.511 8.267.298 3.675.809 2.825-.999 2.044-1.943-3.473-2.807-7.929-5.372-13.367-7.695zM51.064 253.625c1.934-3.928 8.518-42.213 8.518-42.213l13.787.054s-12.77 41.283-13.787 43.809c-1.322 3.282.923 8.049 2.446 11.282.236.5.454.964.64 1.379-2.114.947-3.129-.197-4.199-1.404-1.208-1.363-2.487-2.805-5.498-1.402-1.163.542-2.264 1.182-3.34 1.808-3.714 2.163-7.126 4.149-11.768 1.281-.736-.455-1.542-2.167.406-3.506 4.855-3.333 11.85-9.167 12.795-11.088z" fill="#B28B67"/><path fill-rule="evenodd" clip-rule="evenodd" d="M98.763 153.472l5.705-.98c9.823 24.574 26.971 46.901 51.446 66.984l-18.494 22.502c-24.472-28.594-39.557-58.096-38.657-88.506z" fill="#191847"/><path fill-rule="evenodd" clip-rule="evenodd" d="M73.894 225.274h50.801s-17.654-42.989-17.654-73.038l-15.325-2.287c-12.043 19.399-15.444 43.282-17.822 75.325z" fill="#DDE3E9"/><path fill-rule="evenodd" clip-rule="evenodd" d="M50.802 247.079c5.556-62.774 40.578-97.13 40.578-97.13l.012.011.006-.011h1c1.796.062 5.47.223 5.47.223l3.703 10.598c.587 19.382 6.862 78.119 6.862 78.119H75.18c.057 2.693.182 5.425.383 8.19H50.802z" fill="#2F3676"/><path fill-rule="evenodd" clip-rule="evenodd" d="M75.186 239.15c-.266-11.728.773-22.74 2.506-32.706.907 11.825 2.801 26.054 6.758 32.706h-9.264z" fill="#000" fill-opacity=".1"/><path fill-rule="evenodd" clip-rule="evenodd" d="M82.544 218.667l16.42-7.646v7.646h-16.42z" fill="#fff" fill-opacity=".2"/><path fill-rule="evenodd" clip-rule="evenodd" d="M282.52 190.595c-4.278 2.555-8.482 3.79-10.455 3.286-4.948-1.264-5.403-19.197-1.574-26.267 3.828-7.069 23.51-10.151 24.502 3.857.344 4.861-1.716 9.2-4.761 12.74l5.459 25.206h-15.856l2.685-18.822z" fill="#915B3C"/><path fill-rule="evenodd" clip-rule="evenodd" d="M291.451 187.364c1.99-8.771 7.659-14.751 6.793-18.671-.866-3.921-4.615-4.876-4.615-4.876s-1.94-7.773-12.51-6.612c-10.57 1.16-17.021 5.509-14.235 15.079 2.561 0 5.653-.918 9.928.654 2.035.748 2.911 4.641 2.911 4.641h1.931s2.813-4.619 5.547-3.395c2.734 1.224 1.243 5.948 1.243 5.948l.951 7.232h2.056z" fill="#191847"/><path fill-rule="evenodd" clip-rule="evenodd" d="M286.284 174.879s-17.384-27.208-18.396-30.715c-.495-1.714.534-9.265 1.648-14.066.447-1.928-1.006-2.519-1.712-2.38-5.744 1.134-5.715 6.055-7.544 10.478-2.004 4.847-5.889-.003-7.522 3.79 2.583 1.115 7.795 2.817 8.979 6.007.789 2.127 16.054 34.687 16.054 34.687l8.493-7.801z" fill="#B28B67"/><path fill-rule="evenodd" clip-rule="evenodd" d="M334.527 291.235c8.836 0 16 7.163 16 16v49.162c0 8.837-7.164 16-16 16h-65.119c-8.837 0-16-7.163-16-16v-49.162c0-8.837 7.163-16 16-16h65.119zm-6.499 18.327a4 4 0 014 4v36.508a4 4 0 01-4 4h-52.121a4 4 0 01-4-4v-36.508a4 4 0 014-4h52.121z" fill="#C5CFD6"/><path fill-rule="evenodd" clip-rule="evenodd" d="M187.897 369.125c13.025-15.759 21.839-27.441 26.44-35.048 7.879-13.025 14.327-24.615 16.362-29.042 4.852-10.557-11.171-15.5-14.798-10.576-5.489 7.453-17.211 30.905-35.167 70.357l7.163 4.309z" fill="#B28B67"/><path fill-rule="evenodd" clip-rule="evenodd" d="M214.589 364.543l24.241-60.455c5.185-11.021-19.853-18.265-23.664-13.136-8.651 11.644-29.212 57.577-31.789 61.046l31.212 12.545z" fill="#2F3676"/><path fill-rule="evenodd" clip-rule="evenodd" d="M279.152 352.419c-4.722-6.824-21.898-29.783-31.253-39.283a705.753 705.753 0 00-7.793-7.791c-7.374-7.257-22.06 4.94-14.699 11.551 18.332 16.461 45.079 38.684 47.313 40.666 3.132 2.777 9.4-.854 6.432-5.143z" fill="#915B3C"/><path fill-rule="evenodd" clip-rule="evenodd" d="M275.649 350.194c.718-.917 2.06-1.142 2.945-.375.999.865 2.16 1.965 2.629 2.768.893 1.533 2.092 4.77 2.092 4.77l-32.271 18.459s-3.659-3.401-1.14-5.28c2.519-1.878 4.157-3.168 4.157-3.168l10.934-14.925a1.006 1.006 0 011.421-.201l2.036 1.553s3.184-.275 4.753-1.173c.785-.448 1.712-1.495 2.444-2.428zm-84.65 16.126c1.08-.437 2.349.033 2.729 1.134.429 1.245.88 2.775.88 3.704 0 1.77-.595 5.167-.595 5.167H156.75s-1.453-4.758 1.677-5.137c3.129-.379 5.199-.685 5.199-.685l17.006-7.511a1 1 0 011.327.531l.98 2.354s2.897 1.34 4.708 1.34c.909 0 2.246-.45 3.352-.897z" fill="#E4E4E4"/><path fill-rule="evenodd" clip-rule="evenodd" d="M247.553 307.108s30.223-4.878 40.487-6.671c19.505-3.407 25.193-13.806 21.83-36.494h-35.938c-7.134 2.041-59.614 25.245-59.614 25.245-6.295 3.096-5.123 12.224-3.972 15.231.07.184 31.836 54.046 31.836 54.046l29.398-18.554-24.082-30.617s-.954-1.903.055-2.186z" fill="#5C63AB"/><path fill-rule="evenodd" clip-rule="evenodd" d="M244.964 255.373l-21.075 15.332c-5.715 1.528-10.491 3.429-14.326 5.703-.905.818-2 2.474 1.757 2.188 3.756-.286 7.721-.42 8.24.85.518 1.269-1.756 2.787-.708 4.5.699 1.142 3.999-1.721 9.901-8.59l20.869-8.573-4.658-11.41z" fill="#915B3C"/><path fill-rule="evenodd" clip-rule="evenodd" d="M286.643 198.507l-5.713-.971c-21.196 18.141-29.903 52.992-55.884 71.454l6.253 7.679c45.074-5.529 56.246-48.038 55.344-78.162z" fill="#E87613"/><path fill-rule="evenodd" clip-rule="evenodd" d="M311.547 269.635h-50.549c-2.31 0-1.874-3.305-1.541-4.972 3.854-19.244 18.897-39.988 18.897-67.381l14.581-2.265c12.06 19.216 16.23 42.875 18.612 74.618z" fill="#DDE3E9"/><path fill-rule="evenodd" clip-rule="evenodd" d="M303.128 212.754c4.788 1.473 10.331 1.782 13.044-3.068 5.329-9.527 3.404-14.772-2.291-16.496-3.132-.948-6.077-.301-9.603.473-2.886.635-6.161 1.354-10.245 1.354-.396 0-.756.026-1.083.077l-4.838.273s-19.644 65.959-10.836 88.013h45.502c-1.59-23.767-10.664-50.555-19.65-70.626z" fill="#FF9B21"/><path fill-rule="evenodd" clip-rule="evenodd" d="M317.231 283.38c-2.981-7.093-6.037-15.371-8.979-23.921-1.095 9.416-2.918 18.872-5.954 23.921h14.933z" fill="#000" fill-opacity=".1"/><path fill-rule="evenodd" clip-rule="evenodd" d="M312.496 252.556s-45.844-34.725-49.447-98.144l10.799-.952c16.217 23.051 42.591 94.954 42.591 94.954l-3.943 4.142z" fill="#FF9B21"/><path fill-rule="evenodd" clip-rule="evenodd" d="M385.315 190.595c-4.231 2.555-8.388 3.79-10.339 3.286-4.894-1.264-5.343-19.197-1.557-26.267 3.786-7.069 23.25-10.151 24.231 3.857.34 4.861-1.697 9.2-4.708 12.74l5.398 25.206h-15.68l2.655-18.822z" fill="#B28B67"/><path fill-rule="evenodd" clip-rule="evenodd" d="M392.46 168.181c-9.049.065-15.345-.317-18.948-1.309.165-3.072 3.353-6.545 11.761-6.545 9.355 0 14.374 5.462 14.374 11.781 0 5.774-3.71 12.805-6.534 13.091-.731-.16-1.356-1.043-1.977-2.26 1.163-.567 1.977-1.903 1.977-3.631 0-1.661-1.462-3.272-3.266-3.272a3.14 3.14 0 00-1.784.567c-1.186-1.913-2.671-3.341-4.75-3.186l1.307-3.927 7.84-.654v-.655z" fill="#191847"/><path fill-rule="evenodd" clip-rule="evenodd" d="M404.874 377.634c-27.785 0-50.309-21.539-50.309-48.109s22.524-48.108 50.309-48.108c27.785 0 50.31 21.538 50.31 48.108 0 26.57-22.525 48.109-50.31 48.109z" fill="#C5CFD6"/><path fill-rule="evenodd" clip-rule="evenodd" d="M326.658 326.959c-2.43 8.528-8.484 24.691-16.855 43.252l-7.955-2.325c6.959-42.712 12.751-70.989 16.069-79.596 2.192-5.686 18.776-5.02 16.868 6.422-.8 4.798-3.966 17.646-8.127 32.247zm32.698-30.252c12.972 2.693 39.87 12.211 47.551 15.253 4.827 1.911 1.716 8.394-2.402 7.827-.698-.097-3.165-.373-6.847-.786-11.824-1.325-36.175-4.054-54.644-6.717-9.725-1.402-4.494-19.65 5.604-17.719 3.397.65 7.01 1.369 10.738 2.142z" fill="#B28B67"/><path fill-rule="evenodd" clip-rule="evenodd" d="M317.408 283.47c1.327-4.336 61.617-19.726 61.617-19.726h4.941v4.612l-41.546 21.187a8.539 8.539 0 01-.112 2.169c.3 15.706-6.411 27.44-13.054 39.058-4.345 7.597-8.661 15.144-10.97 23.72l-15.264-2.281c.445-1.139 1.148-6.276 2.11-13.299 2.423-17.707 6.489-47.408 12.192-55.266l.061-.082a3.14 3.14 0 01.025-.092z" fill="#1F28CF"/><path fill-rule="evenodd" clip-rule="evenodd" d="M380.514 302.126c3.802-.762 7.302-1.442 10.298-1.969 19.348-3.399 24.991-13.775 21.655-36.413h-35.65c-5.823 1.676-36.087 14.39-51.789 21.152-10.393 4.476-7.117 20.61-1.231 24.809.032.258.137.433.326.511 22.313 9.265 41.341 8.574 53.56 8.13 5.117-.186 9.04-.329 11.51.322l3.87-12.229-12.549-4.313z" fill="#2B44FF"/><path fill-rule="evenodd" clip-rule="evenodd" d="M402.791 312.076c.079-1.168 1.061-2.107 2.222-1.961 1.299.164 2.856.432 3.685.837 1.589.776 4.378 2.795 4.378 2.795l-16.154 33.181s-4.898-.792-3.882-3.745a224.47 224.47 0 001.64-4.93l.633-18.42a1 1 0 011.061-.964l2.528.16s2.457-1.993 3.243-3.606c.39-.802.567-2.172.646-3.347zm-91.687 54.258c1.086-.442 2.363.031 2.741 1.14.422 1.241.864 2.76.864 3.684 0 1.77-.589 5.167-.589 5.167h-36.851s-1.437-4.758 1.658-5.137c3.095-.379 5.142-.685 5.142-.685l16.802-7.504a1 1 0 011.332.533l.965 2.345s2.865 1.34 4.657 1.34c.889 0 2.192-.44 3.279-.883z" fill="#E4E4E4"/><path fill-rule="evenodd" clip-rule="evenodd" d="M457.129 285.475c-2.561-3.499-17.983-41.121-17.983-41.121l-11.508 2.086s20.04 39.822 21.466 42.111c1.854 2.973.483 8.01-.447 11.426a71.803 71.803 0 00-.386 1.455c2.223.56 3.017-.731 3.853-2.092.945-1.538 1.944-3.165 5.122-2.315 1.228.329 2.411.764 3.568 1.19 3.994 1.47 7.664 2.82 11.699-.777.639-.57 1.132-2.379-.999-3.349-5.308-2.417-13.133-6.904-14.385-8.614zM323.994 266.07l20.842-15.327 4.609 11.408-20.639 8.57c-5.837 6.867-9.101 9.73-9.792 8.588-.583-.963-.127-1.864.292-2.694.327-.647.632-1.25.407-1.806-.513-1.27-4.434-1.136-8.15-.851-3.715.286-2.633-1.37-1.737-2.187 3.793-2.274 8.516-4.174 14.168-5.701z" fill="#B28B67"/><path fill-rule="evenodd" clip-rule="evenodd" d="M382.484 196.346l6.988 2.872c-.073 1.828-.066 4.429-.057 7.409.027 9.353.064 22.437-2.347 27.081-8.355 16.087-25.511 24.466-44.62 33.798a964.083 964.083 0 00-7.773 3.825l-5.259-10.753c.605-.43 1.205-.862 1.799-1.296a2.948 2.948 0 01.04-5.569c3.124-1.054 6.037-1.499 8.716-1.308 19.588-16.531 32.772-35.885 42.513-56.059z" fill="#69A1AC"/><path fill-rule="evenodd" clip-rule="evenodd" d="M414.021 269.575s-30.811 3.391-48.503 0c-1.462-.28-1.398-6.59-.72-8.314 10.553-26.84 17.495-46.487 17.495-65.13 2.905 1.52 10.167.456 10.167.456 13.011 19.211 18.992 41.254 21.561 72.988z" fill="#191847"/><path fill-rule="evenodd" clip-rule="evenodd" d="M446.766 342.943c-15.92-6.371-32.097-4.268-46.669-2.374-10.098 1.313-19.425 2.525-27.363.75-6.455-33.251 2.501-69.998 9.838-100.102 4.587-18.823 8.542-35.049 7.7-46.2h7.431s37.238 22.896 55.395 74.883a14.42 14.42 0 014.042 1.382c1.202.624-.481 4.369-1.91 5.157.516 1.699 1.01 3.426 1.482 5.183l-12.34 3.637c-8.938-23.601-19.531-37.218-28.282-45.027-.055 2.621-.33 5.259-.607 7.913-.503 4.835-1.013 9.724-.215 14.672.156.968.345 1.943.565 2.925a2.939 2.939 0 012.546 2.409l.342 1.944a2.936 2.936 0 01-.883 2.654c3.041 8.871 7.925 18.148 12.824 27.452 7.728 14.678 15.491 29.422 16.104 42.742z" fill="#89C5CC"/><path fill-rule="evenodd" clip-rule="evenodd" d="M395.004 195.672l3.371 10.384-6.788 7.785 6.135 6.118-14.842 25.458 18.15-25.407-6.026-6.169 6.026-6.88-6.026-11.289z" fill="#000" fill-opacity=".1"/><path fill-rule="evenodd" clip-rule="evenodd" d="M387.233 255.235a2.616 2.616 0 01-2.613-2.619 2.616 2.616 0 012.613-2.618 2.616 2.616 0 012.614 2.618 2.617 2.617 0 01-2.614 2.619zm-3.267 15.054a2.616 2.616 0 01-2.613-2.618 2.616 2.616 0 012.613-2.618 2.616 2.616 0 012.614 2.618 2.616 2.616 0 01-2.614 2.618zm-3.267 12.436a2.616 2.616 0 002.614 2.618 2.616 2.616 0 002.613-2.618 2.616 2.616 0 00-2.613-2.618 2.616 2.616 0 00-2.614 2.618z" fill="#000" fill-opacity=".4"/><path fill-rule="evenodd" clip-rule="evenodd" d="M501.458 190.595c-4.278 2.555-8.482 3.79-10.455 3.286-4.948-1.264-5.403-19.197-1.574-26.267 3.828-7.069 23.51-10.151 24.502 3.857.344 4.861-1.717 9.2-4.761 12.74l5.459 25.206h-15.856l2.685-18.822z" fill="#B28B67"/><path fill-rule="evenodd" clip-rule="evenodd" d="M493.002 162.952c.363-.214 1.123-.667 1.508-.832.091-.039.729-.49.746-.484.483.161 1.881.757 2.001 1.272.019.039.037.076.055.108.198.357.38.722.553 1.093.381.812.709 1.661 1.023 2.504a70.895 70.895 0 011.63 5.004c.497 1.713.919 3.446 1.391 5.167.68 2.476 1.55 4.89 2.224 7.365.431 1.58.671 3.179.558 4.805l-.004.059-.002.024c-.019.25-.047.501-.083.752-.032.215-.064.431-.099.646-.616-1.217-1.087-2.559-1.586-3.832a13.182 13.182 0 01-.141-.377 52.54 52.54 0 00-.491-.77c-1.047-1.611-2.098-3.216-3.102-4.856-1.806-2.949-3.595-5.961-5.736-8.67-.632-.8-1.279-1.587-1.903-2.393a37.21 37.21 0 01-1.036-1.401c-.24-.339-1.28-1.523-.903-2.234.192-.364 2.455-2.392 3.397-2.95z" fill="#2C2C2C"/><path fill-rule="evenodd" clip-rule="evenodd" d="M494.395 162.18c-.353.117-.181-.611.161-.867 1.585-1.187 7.644-1.618 12.917-.533 3.532.726 7.64 2.534 10.461 4.859 2.544 2.095 4.293 5.454 5.193 8.7.946 3.408 1.089 6.961.562 10.455-.115.768-.364 1.499-.503 2.251-.156.846-.236 1.661-.514 2.484-.17.504-.46.998-.605 1.505-.166.578-.065 1.113.056 1.701.197.959.442 1.916.789 2.831.522 1.376 1.155 2.663 1.552 4.09.528 1.899 2.737 8.077 1.123 9.761h-30.734c.774-2.091 3.097-4.553 3.568-6.791.276-1.319.408-4.199.437-4.304.693-4.73 2.045-6.989 2.892-7.808.847-.82 1.975-1.072 2.033-1.783.241-2.941-.94-5.759-1.805-8.504-1.032-3.271-1.788-6.623-2.851-9.883-.471-1.444-2.898-8.775-4.732-8.164z" fill="#8991DC"/><path fill-rule="evenodd" clip-rule="evenodd" d="M506.33 176.129c.249-4.978 0-6.923-1.159-10.566h.714c1.13 1.446 2.075 5.868 1.013 10.566h-.568zm14.004-.235l.385-.929.454.217c-1.433 5.194-3.177 9.204-9.164 12.565l-.466-.323c5.663-3.944 6.877-6.888 8.791-11.53zm-8.489-6.212l-.173 1.317c-.861 6.581-1.407 10.754-6.204 18.322l.543.165c5.26-7.019 6.093-12.747 6.342-19.764l-.508-.04zm5.18 21.33l.465.56c-2.33.483-3.914 2.181-5.73 4.127-1.922 2.06-4.103 4.397-7.702 5.868l-.668-.401c3.928-2.023 5.755-4.034 7.351-5.79 1.652-1.818 3.055-3.362 6.284-4.364z" fill="#000" fill-opacity=".2"/><path fill-rule="evenodd" clip-rule="evenodd" d="M543.287 291.235h-51.04l-6.688 81.162h75.977l-18.249-81.162z" fill="#C5CFD6"/><path fill-rule="evenodd" clip-rule="evenodd" d="M543.287 291.235h-15.698l-9.395 81.162h43.342l-18.249-81.162z" fill="#000" fill-opacity=".1"/><path fill-rule="evenodd" clip-rule="evenodd" d="M464.204 307.314c5.736 12.051 14.698 41.305 14.698 41.305l-7.609 3.444s-19.305-30.751-31.104-51.772c.55 4.732 1.11 10.06 1.629 15.661 1.229 13.267.001 41.932-.661 50.212-.415 5.204-7.553 4.114-8.219-.013-.113-.699-.573-3.153-1.259-6.815-3.365-17.956-12.171-64.948-12.187-76.454-.006-4.63 9.124-8.79 14.566-5.552 3.738-3.952 10.812-6.229 14.876.298 2.584 4.149 8.723 15.93 15.27 29.686z" fill="#B28B67"/><path fill-rule="evenodd" clip-rule="evenodd" d="M478.358 337.789l-26.115-61.29c-6.256-9.97-23.796 2.029-21.663 7.812 4.844 13.128 29.478 55.631 30.921 59.542l16.857-6.064z" fill="#1F28CF"/><path fill-rule="evenodd" clip-rule="evenodd" d="M477.409 345.612c.718-.917 2.06-1.142 2.945-.375 1 .865 2.161 1.965 2.629 2.768.894 1.534 2.092 4.77 2.092 4.77l-32.271 18.459s-3.658-3.401-1.14-5.279a220.903 220.903 0 004.157-3.169l10.934-14.925a1.008 1.008 0 011.422-.201l2.035 1.553s3.185-.275 4.753-1.172c.785-.449 1.713-1.495 2.444-2.429zm-37.081 16.78c1.08-.437 2.349.033 2.729 1.135.429 1.245.88 2.774.88 3.703 0 1.771-.595 5.167-.595 5.167h-37.264s-1.452-4.757 1.677-5.136c3.13-.38 5.2-.685 5.2-.685l17.005-7.511a1 1 0 011.328.531l.979 2.354s2.897 1.339 4.709 1.339c.909 0 2.245-.449 3.352-.897z" fill="#E4E4E4"/><path fill-rule="evenodd" clip-rule="evenodd" d="M417.662 287.591c0 17.389 8.335 57.951 8.341 61.78l17.934.013s-3.938-54.289-2.792-54.874c1.145-.585 46.941 4.53 60.676 4.53 19.806 0 27.999-12.374 28.664-35.296H491.25c-7.988.847-49.658 9.173-65.133 12.036-6.625 1.225-8.455 7.02-8.455 11.811z" fill="#2B44FF"/><path fill-rule="evenodd" clip-rule="evenodd" d="M561.274 293.138c-1.937-3.891-11.61-53.972-11.61-53.972l-14.467.053s16.528 53.051 17.547 55.554c1.324 3.25-.925 7.973-2.45 11.175-.235.496-.454.955-.639 1.367 2.115.938 3.132-.196 4.203-1.392 1.211-1.35 2.491-2.778 5.506-1.389 1.165.537 2.267 1.172 3.344 1.792 3.72 2.142 7.137 4.11 11.785 1.268.737-.45 1.544-2.146-.407-3.472-4.861-3.302-11.866-9.082-12.812-10.984zM439.43 273.624l18.716-18.088 6.216 10.656-19.462 11.367c-4.879 7.616-7.745 10.907-8.598 9.872-.718-.872-.389-1.828-.085-2.709.236-.686.456-1.326.154-1.845-.692-1.186-4.599-.507-8.28.294-3.68.802-2.828-.989-2.046-1.924 3.478-2.781 7.94-5.322 13.385-7.623z" fill="#B28B67"/><path fill-rule="evenodd" clip-rule="evenodd" d="M505.581 198.507l-5.713-.971c-9 31.518-55.239 53.001-58.078 64.783-1.041 4.321 2.098 6.505.477 7.821l7.425 5.386c1.258-1.454 3.941 1.205 9.545-.655s46.344-39.045 46.344-76.364z" fill="#DB2721"/><path fill-rule="evenodd" clip-rule="evenodd" d="M514.387 192.021a4.007 4.007 0 014.273 3.714l.173 2.455c10.751 8.197 37.399 32.691 44.343 78.289.729 4.79-.59 7.355-1.644 9.405-.721 1.403-1.318 2.564-1.05 4.03l-9.719 2.658c0-1.083-1.224-1.907-2.805-2.97-2.297-1.545-5.346-3.596-6.474-7.683-1.068-3.875-2.633-8.714-4.503-14.098-.176 7.13-1.541 13.687-4.514 19.118-7.418 13.55-50.283-1.31-54.761-15.132-2.39-7.377 1.001-13.569 5.486-21.759 5.692-10.396 13.147-24.011 12.779-47.35l-.379-5.365a3.995 3.995 0 013.709-4.267l15.086-1.045z" fill="#FF4133"/><path fill-rule="evenodd" clip-rule="evenodd" d="M329.361 77.445c21.385 0 38.722-17.337 38.722-38.723S350.746 0 329.361 0c-21.386 0-38.723 17.337-38.723 38.722 0 21.386 17.337 38.723 38.723 38.723z" fill="#F2F2F2"/><path fill-rule="evenodd" clip-rule="evenodd" d="M329.361 10.228a2.191 2.191 0 100-4.383 2.191 2.191 0 000 4.383zm-30.686 30.686a2.192 2.192 0 100-4.384 2.192 2.192 0 000 4.384zm61.371 0a2.192 2.192 0 100-4.384 2.192 2.192 0 000 4.384zM329.361 71.6a2.191 2.191 0 100-4.383 2.191 2.191 0 000 4.383z" fill="#000" fill-opacity=".1"/><path fill-rule="evenodd" clip-rule="evenodd" d="M329.361 12.42l1.461 25.571h-2.923l1.462-25.571zm12.93 39.233l-13.432-11.366 2.067-2.066 11.365 13.432z" fill="#AFB9C5"/><path fill-rule="evenodd" clip-rule="evenodd" d="M329.361 41.645a2.922 2.922 0 100-5.844 2.922 2.922 0 000 5.844z" fill="#C5CFD6"/></svg>