<svg viewBox="0 0 431 155" fill="none" xmlns="http://www.w3.org/2000/svg"><path d="M116.997 102.953c-2.688-1.398-5.322-2.097-7.902-2.097-1.344 0-2.446.269-3.306.806-.807.538-1.21 1.264-1.21 2.178 0 .483.054.887.161 1.209.162.269.457.538.887.807.484.268 1.156.51 2.016.725.914.215 2.097.484 3.548.807 4.032.806 7.043 2.258 9.032 4.354 1.989 2.043 2.983 4.677 2.983 7.903 0 2.419-.484 4.596-1.451 6.531a14.272 14.272 0 01-4.032 4.919c-1.72 1.29-3.79 2.285-6.209 2.984-2.419.752-5.08 1.129-7.983 1.129-5.591 0-11.101-1.586-16.531-4.758l5.322-10.322c4.086 2.796 7.956 4.194 11.612 4.194 1.344 0 2.446-.296 3.306-.887.86-.592 1.29-1.344 1.29-2.258 0-.538-.08-.968-.242-1.291-.107-.376-.376-.698-.806-.967-.43-.323-1.075-.591-1.935-.807-.807-.268-1.882-.537-3.226-.806-4.516-.914-7.687-2.258-9.515-4.032-1.774-1.828-2.661-4.327-2.661-7.499 0-2.312.43-4.381 1.29-6.21a12.853 12.853 0 013.71-4.757c1.612-1.29 3.547-2.285 5.805-2.983 2.312-.7 4.865-1.049 7.661-1.049 4.569 0 9.004.887 13.305 2.661l-4.919 9.516zm24.981-10.645v41.368h-14.596V92.309h14.596zm-15.563-15.885c0-1.129.215-2.177.645-3.145a8.237 8.237 0 011.774-2.661 8.503 8.503 0 012.58-1.774 8.232 8.232 0 013.226-.645c1.129 0 2.177.215 3.145.645a8.252 8.252 0 012.661 1.774 8.253 8.253 0 011.774 2.661c.43.968.645 2.016.645 3.145a8.23 8.23 0 01-.645 3.225 8.515 8.515 0 01-1.774 2.58 8.252 8.252 0 01-2.661 1.775 7.656 7.656 0 01-3.145.645 8.232 8.232 0 01-3.226-.645 8.503 8.503 0 01-2.58-1.774 8.497 8.497 0 01-1.774-2.58 8.23 8.23 0 01-.645-3.226zm35.858 36.367c0 1.344.242 2.608.726 3.79a10.2 10.2 0 001.935 2.984 9.44 9.44 0 002.984 2.016 9.906 9.906 0 003.79.726c1.29 0 2.5-.242 3.628-.726 1.183-.484 2.178-1.156 2.984-2.016a9.44 9.44 0 002.016-2.984 8.855 8.855 0 00.806-3.709c0-1.344-.268-2.58-.806-3.709a9.44 9.44 0 00-2.016-2.984 9.221 9.221 0 00-3.064-2.016 8.914 8.914 0 00-3.548-.726c-1.29 0-2.5.269-3.629.807a9.452 9.452 0 00-2.984 2.016 9.56 9.56 0 00-2.096 2.903 9.108 9.108 0 00-.726 3.628zm32.739-20.482v38.545c0 2.312-.134 4.381-.403 6.209-.269 1.828-.645 3.441-1.129 4.839-.645 1.774-1.667 3.413-3.064 4.918-1.344 1.559-2.984 2.903-4.919 4.032-1.936 1.129-4.14 2.016-6.613 2.661-2.419.645-5.053.968-7.902.968-3.225 0-6.182-.403-8.87-1.21-2.688-.806-5.053-1.935-7.096-3.386-1.989-1.398-3.629-3.065-4.919-5a16.227 16.227 0 01-2.58-6.209h16.45c1.021 2.742 3.333 4.113 6.934 4.113 3.065 0 5.403-.861 7.016-2.581 1.666-1.72 2.5-4.112 2.5-7.177v-3.951c-1.076 1.022-2.124 1.882-3.145 2.581a17.886 17.886 0 01-2.984 1.612c-1.021.43-2.096.726-3.225.887-1.129.215-2.366.323-3.71.323-2.956 0-5.671-.511-8.144-1.532-2.473-1.022-4.623-2.446-6.451-4.274-1.774-1.828-3.172-4.005-4.193-6.532-.968-2.58-1.452-5.429-1.452-8.547 0-3.172.538-6.102 1.613-8.79 1.075-2.741 2.527-5.107 4.354-7.096a19.987 19.987 0 016.613-4.757c2.58-1.183 5.376-1.774 8.386-1.774 4.892 0 9.005 1.827 12.338 5.483v-4.355h14.595zm6.714 0h14.596v5.242c1.989-2.42 4.005-4.032 6.048-4.838 2.042-.86 4.435-1.29 7.176-1.29 2.903 0 5.376.483 7.419 1.45a14.377 14.377 0 015.322 3.952c1.183 1.398 1.989 2.957 2.419 4.677.43 1.72.645 3.683.645 5.887v26.288h-14.595V112.79c0-2.042-.161-3.682-.484-4.918-.269-1.291-.779-2.312-1.532-3.065a5.536 5.536 0 00-2.177-1.371 8.136 8.136 0 00-2.581-.403c-2.473 0-4.381.753-5.725 2.258-1.29 1.452-1.935 3.548-1.935 6.29v22.095h-14.596V92.309zm77.74 10.645c-2.688-1.398-5.322-2.097-7.903-2.097-1.344 0-2.446.269-3.306.806-.806.538-1.209 1.264-1.209 2.178 0 .483.053.887.161 1.209.161.269.457.538.887.807.484.268 1.156.51 2.016.725.914.215 2.097.484 3.548.807 4.032.806 7.042 2.258 9.031 4.354 1.989 2.043 2.984 4.677 2.984 7.903 0 2.419-.484 4.596-1.451 6.531a14.272 14.272 0 01-4.032 4.919c-1.721 1.29-3.79 2.285-6.209 2.984-2.42.752-5.081 1.129-7.984 1.129-5.59 0-11.101-1.586-16.53-4.758l5.322-10.322c4.085 2.796 7.956 4.194 11.612 4.194 1.344 0 2.446-.296 3.306-.887.86-.592 1.29-1.344 1.29-2.258 0-.538-.081-.968-.242-1.291-.107-.376-.376-.698-.806-.967-.43-.323-1.075-.591-1.936-.807-.806-.268-1.881-.537-3.225-.806-4.516-.914-7.688-2.258-9.515-4.032-1.774-1.828-2.661-4.327-2.661-7.499 0-2.312.43-4.381 1.29-6.21a12.85 12.85 0 013.709-4.757c1.613-1.29 3.548-2.285 5.806-2.983 2.312-.7 4.865-1.049 7.661-1.049 4.569 0 9.004.887 13.305 2.661l-4.919 9.516zM1 1h14.595v30.803c1.99-2.419 4.005-4.031 6.048-4.838 2.043-.86 4.435-1.29 7.177-1.29 5.215 0 9.139 1.451 11.773 4.354 2.688 2.85 4.032 6.72 4.032 11.612V67.93H30.029V47.044c0-2.097-.16-3.79-.483-5.08-.323-1.29-.86-2.285-1.613-2.984-1.29-1.129-2.85-1.693-4.677-1.693-2.473 0-4.381.752-5.725 2.258-1.29 1.451-1.936 3.548-1.936 6.29v22.094H1V1zm63.87 46.125a9.91 9.91 0 00.726 3.79 10.19 10.19 0 001.935 2.983 9.435 9.435 0 002.983 2.016 9.91 9.91 0 003.79.726c1.29 0 2.5-.242 3.63-.726 1.182-.484 2.176-1.156 2.983-2.016a9.436 9.436 0 002.016-2.983 8.332 8.332 0 00.806-3.63c0-1.29-.269-2.499-.806-3.628a9.211 9.211 0 00-2.016-3.064c-.807-.86-1.801-1.532-2.984-2.016a9.112 9.112 0 00-3.629-.726 9.91 9.91 0 00-3.79.726 9.435 9.435 0 00-2.983 2.016 10.19 10.19 0 00-1.935 2.984c-.484 1.075-.726 2.257-.726 3.548zm18.385-20.563h14.676V67.93H83.255v-4.596c-3.118 3.924-7.338 5.886-12.66 5.886-3.01 0-5.779-.537-8.306-1.612a20.55 20.55 0 01-6.612-4.677c-1.881-1.99-3.36-4.328-4.435-7.016-1.021-2.688-1.532-5.618-1.532-8.79 0-2.956.51-5.752 1.532-8.386 1.022-2.688 2.446-5.026 4.274-7.015 1.828-1.99 4.005-3.548 6.532-4.677 2.526-1.183 5.322-1.774 8.386-1.774 5.16 0 9.434 1.8 12.821 5.403v-4.113zm21.383 0h14.595v6.774c1.559-2.473 3.468-4.355 5.726-5.645 2.258-1.344 4.892-2.016 7.902-2.016h1.21a9.12 9.12 0 011.612.161v13.95c-1.935-.967-4.031-1.45-6.289-1.45-3.387 0-5.941 1.02-7.661 3.063-1.666 1.99-2.5 4.92-2.5 8.79v17.74h-14.595V26.562zm48.146 0l9.919 21.772 10.321-21.772h9.193l10.322 22.417 10.402-22.417h16.208L197.538 67.93h-9.757l-10.322-22.66-9.837 22.66h-9.919l-21.207-41.368h16.288zm82.766 0V67.93h-14.596V26.562h14.596zm-15.563-15.886c0-1.128.215-2.177.645-3.144a8.237 8.237 0 011.774-2.661 8.516 8.516 0 012.58-1.774 8.232 8.232 0 013.226-.646c1.129 0 2.177.216 3.145.646a8.252 8.252 0 012.661 1.774 8.253 8.253 0 011.774 2.66c.43.968.645 2.017.645 3.146a8.23 8.23 0 01-.645 3.225 8.515 8.515 0 01-1.774 2.58 8.252 8.252 0 01-2.661 1.774 7.656 7.656 0 01-3.145.645 8.232 8.232 0 01-3.226-.645 8.515 8.515 0 01-2.58-1.774 8.497 8.497 0 01-1.774-2.58 8.23 8.23 0 01-.645-3.225zm22.311 15.886h14.596v5.241c1.989-2.419 4.005-4.031 6.047-4.838 2.043-.86 4.435-1.29 7.177-1.29 2.903 0 5.376.484 7.419 1.451a14.393 14.393 0 015.322 3.952c1.183 1.397 1.989 2.957 2.419 4.677.43 1.72.645 3.682.645 5.886V67.93h-14.595V47.044c0-2.043-.162-3.682-.484-4.919-.269-1.29-.78-2.312-1.532-3.064a5.532 5.532 0 00-2.177-1.371 8.117 8.117 0 00-2.581-.403c-2.473 0-4.381.752-5.725 2.258-1.29 1.451-1.935 3.548-1.935 6.29v22.094h-14.596V26.562z" fill="#fff"/><g class="storefront"><path fill-rule="evenodd" clip-rule="evenodd" d="M424 7.48H312v54h112v-54z" fill="#fff"/><path fill-rule="evenodd" clip-rule="evenodd" d="M312 7.48h112v54H312v-54z" fill="#fff"/><path fill-rule="evenodd" clip-rule="evenodd" d="M312 7.48h112v54H312v-54z" fill="#fff"/><path fill-rule="evenodd" clip-rule="evenodd" d="M312 7.48h112v54H312v-54z" fill="#fff"/><path fill-rule="evenodd" clip-rule="evenodd" d="M325.984 135h49.76v-33.814h18.96V135h15.312l-.003-33.814H418a2 2 0 002-2V96.59l-.136-.233L412.657 84c0-1.6-1.044-7-2.644-7H371v-8.52h60v-68H305v68h60V77h-39.013c-1.6 0-2.644 5.4-2.644 7l-7.207 12.356-.136.233v2.597a2 2 0 002 2h7.987L325.984 135zM312 7.48h112v54H312v-54zm26.128 114.346V106H362.6v15.826h-24.472z" fill="#fff"/><path class="inlay" d="M424 7.48H312v54h112v-54z" fill="#FF6746"/></g></svg>