<svg viewBox="0 0 90 90" fill="#fff" xmlns="http://www.w3.org/2000/svg"><path d="M0 0h90v90H0z"/><path d="M66 90l24-24v24H66z" fill="#FF6746"/><path d="M30.9 23.4h9.41v19.86c1.283-1.56 2.583-2.6 3.9-3.12 1.318-.554 2.86-.831 4.628-.831 3.362 0 5.892.936 7.59 2.807 1.734 1.838 2.6 4.333 2.6 7.488v16.95h-9.41V53.088c0-1.352-.104-2.444-.312-3.275-.208-.832-.555-1.474-1.04-1.924-.832-.728-1.837-1.092-3.016-1.092-1.594 0-2.825.485-3.691 1.456-.832.936-1.248 2.288-1.248 4.055v14.247H30.9V23.4z" fill="#29109C"/></svg>