<svg width="150" height="150" fill="none" xmlns="http://www.w3.org/2000/svg"><path d="M10 41.25h5v5h-5v-5zm125 0h5v5h-5v-5z" fill="#29109C"/><path d="M145 6.25H95v25H45v-25H0v55h7.5v67.5H0v15h30v-15h-7.5v-22.5h10v17.5a2.5 2.5 0 002.5 2.5h60c.663 0 1.299-.264 1.768-.732l19.267-19.268H127.5v22.5H120v15h30v-15h-7.5v-67.5h7.5v-30h-5v-25zm-45 5h40v20h-13.965l10.733-10.732-3.536-3.536-14.267 14.268h-7.93l10.733-10.732-3.536-3.536-14.267 14.268H100v-20zm-65 0h5v20h-5v-20zm-10 0h5v20h-5v-20zm-10 0h5v20h-5v-20zm-10 0h5v20H5v-20zm20 122.5v5H5v-5h20zm-12.5-5v-67.5h5v67.5h-5zm20-27.5h-10v-5h10v5zm0-10h-10v-30h10v30zm0-35H25v-5h7.5v5zm65 61.465V106.25h11.465L97.5 117.715zm15-16.465H95a2.5 2.5 0 00-2.5 2.5v17.5h-55v-70h75v50zm5 0v-5h10v5h-10zm10-40v30h-10v-30h10zm-10-5v-5h7.5v5h-7.5zm27.5 77.5v5h-20v-5h20zm-12.5-5v-67.5h5v67.5h-5zm12.5-72.5h-15v-10H20v10H5v-20h140v20z" fill="#29109C"/></svg>