<svg viewBox="0 0 763 722" fill="none" xmlns="http://www.w3.org/2000/svg"><path opacity=".6" fill-rule="evenodd" clip-rule="evenodd" d="M1.688 696.012C-18.056 656.8 138.98 592.745 287.28 579.045c148.301-13.7 236.606 43.954 180.884 97.948-55.721 53.994-446.733 58.23-466.477 19.019z" fill="#EBEBEB"/><path fill-rule="evenodd" clip-rule="evenodd" d="M762.665 561.31c9.285 58.809-215.908 97.169-409.737 70.399-193.829-26.77-282.748-131.311-190.256-187.014 92.492-55.703 590.707 57.806 599.993 116.615z" fill="#F2F2F2" opacity=".505"/><path opacity=".5" fill-rule="evenodd" clip-rule="evenodd" d="M473.07 236.574c-2.779-.608-5.847-.562-8.678-.512-15.18.207-30.087 7.404-39.789 18.904-8.259 9.79-10.53 21.961-12.161 34.265-.162 1.222-.232 2.436-.323 3.66a10.48 10.48 0 01-.08.718c-.642.574-.978 1.244-.598 1.98a81.73 81.73 0 00-3.636 9.55c-3.02 9.642-6.092 19.468-4.199 29.608.442-5.58 1.372-11.286 2.484-16.774.064-.315.133-.628.205-.939l.021-.099c.394-1.68.906-3.311 1.528-4.915l.02-.053c.082-.211.169-.421.256-.631.178-.435.361-.869.555-1.301.066-.147.129-.295.189-.445.907-2.224 1.289-4.729 2.101-7.03a48.081 48.081 0 01.648-1.654 68.427 68.427 0 011.881-4.137c.365-.275.56-.957.875-1.576.065-.122.574-.936.726-1.405.395-.766.789-1.532 1.188-2.297l-.036.014c.398-.735.798-1.466 1.195-2.194l.263-.481.427-.765c1.33-2.383 2.74-4.718 4.204-7.025.522-.823 1.771-2.003 2.01-2.927.009-.034.011-.066.016-.099 3.177-4.469 6.835-8.59 11.221-11.856-.53.574-1.657 2.522-1.955 2.907-.912 1.181-1.902 2.28-2.895 3.392-1.78 1.993-3.517 4.049-5.061 6.223-2.823 3.977-5.259 8.161-7.561 12.43-.022.025-.046.049-.067.074-1.157 1.429-1.885 3.587-2.718 5.221 3.296-1.529 6.942-2.525 10.325-3.882 3.374-1.354 6.656-2.861 9.824-4.631 4.212-2.352 8.58-5.008 12.56-8.013 4.56-2.833 8.392-6.731 11.774-10.823 4.002-4.84 7.669-9.723 9.938-15.601 1.114-2.888 1.99-5.9 2.51-8.946.023-.133.052-.277.083-.427a29.244 29.244 0 001.406-3.229c.634-1.746 2.13-3.666-.676-4.279" fill="#69A1AC"/><path opacity=".5" fill-rule="evenodd" clip-rule="evenodd" d="M478.657 290.012c-3.221-2.185-7.503-2.758-11.357-2.758-15.052 0-29.201 5.588-41.423 13.914-6.698 4.562-12.689 10.372-17.978 16.421-3.054 3.492-5.776 7.27-7.703 11.471-1.301 2.836-2.194 5.79-2.799 8.838-.737 3.714-1.323 7.503-1.588 11.279-.104 1.486-.968 9.376 1.503 9.51a3.44 3.44 0 00-.002.546c-5.365 8.393-8.679 18.229-11.753 27.555-2.674 8.115-5.057 16.299-6.604 24.694a269.331 269.331 0 00-4.01 33.485 305.88 305.88 0 00-.311 7.233l-.206 6.174c-.075 2.306-.481 4.961-.114 7.254.319 1.997 2.046 1.695 2.122-.292.092-2.4.077-4.804.182-7.206.14-3.187.284-6.374.44-9.56 1.085-22.133 5.155-43.94 12.667-64.847 3.041-8.46 6.524-16.469 11.002-24.295 3.936-6.882 8.671-13.543 13.511-19.748 4.704-6.029 9.595-11.919 15.359-17.028 4.678-4.145 9.823-7.756 15.112-11.116 6.717-4.268 13.422-8.432 20.698-11.708 3.783-1.703 7.636-3.228 11.448-4.862.686-.294 1.422-.579 2.081-.919 2.201-1.136 1.476-2.846-.277-4.035" fill="#C1DEE2"/><path opacity=".5" fill-rule="evenodd" clip-rule="evenodd" d="M418.138 367.341c6.074 0 11.479.799 17.076 3.243 4.832 2.11 9.235 4.903 13.51 7.943 6.013 4.277 10.749 9.254 14.064 15.849 1.981 3.939 3.433 9.514 2.103 13.811-1.567 5.061-5.869 9.282-11.535 8.39-3.504-.551-6.716-2.899-9.379-5.11-3.185-2.644-5.735-5.823-7.841-9.355-3.435-5.76-5.453-12.272-8.371-18.292-1.385-2.857-2.723-5.734-4.381-8.449-.821-1.344-1.695-2.676-2.941-3.675-.666-.535-3.476-1.46-2.401-2.66-15.753.209-29.708 12.46-32.732 27.623-.282 1.413-.502 2.838-.734 4.26-.147.898-.088 4.209-.881 4.783-1.748 1.265-1.013-2.579-.938-3.132.194-1.431.401-2.86.618-4.287 1.181-7.76 4.593-14.974 10.283-20.509 6.507-6.329 15.286-10.433 24.48-10.433z" fill="#89C5CC"/><path fill-rule="evenodd" clip-rule="evenodd" d="M260.01 450.261a106.521 106.521 0 00-4.184 3.556c-1.039.933-2.875 2.054-3.255 3.461-.395 1.461.813 2.82 1.769 3.696 5.054 4.632 10.759 7.749 17.8 8.228 10.843.738 20.302-2.087 29.749-7.585 6.637-3.862 11.053-9.539 12.059-17.174 7.852 3.213 15.438 7.663 21.874 13.142 3.175 2.704 5.905 5.705 8.427 9.034 1.616 2.133 3.177 4.301 4.625 6.553.629.978 1.264 2.716 2.31 3.275 1.228.657 2.724-.394 2.672-1.76-.044-1.137-1.266-2.448-1.836-3.374a121.928 121.928 0 00-2.919-4.56c-1.637-2.42-3.331-4.805-5.18-7.068-4.156-5.084-9.459-9.271-14.961-12.836-10.556-6.838-22.161-11.114-35.057-11.399-7.929-.175-14.619 2.571-21.427 6.651-4.239 2.541-8.614 5.04-12.466 8.16" fill="#DDE3E9"/><ellipse cx="362.86" cy="473.62" rx="35.741" ry="7.716" fill="#FF6746"/><path fill-rule="evenodd" clip-rule="evenodd" d="M539.037 22.427H186.682v169.337h352.355V22.427zM164.66.477v213.238h396.4L561.059.476H164.66z" fill="#CCC"/><path d="M353.422 199.667h18.876v274.459h-18.876V199.667z" fill="#CCC"/><path d="M179.512 199.719V13.938h366.527v185.781H179.512z" fill="#29109C"/><path fill="#fff" d="M320.159 59.395h93.106v94.056h-93.106z"/><path fill-rule="evenodd" clip-rule="evenodd" d="M388.437 153.45l24.828-25.081v25.081h-24.828z" fill="#FF6746"/><path d="M352.126 83.85h9.735v20.756c1.327-1.63 2.672-2.717 4.034-3.261 1.363-.579 2.959-.869 4.787-.869 3.479 0 6.096.978 7.853 2.934 1.793 1.92 2.69 4.528 2.69 7.825v17.713h-9.736v-14.073c0-1.413-.107-2.554-.323-3.423-.215-.869-.573-1.54-1.075-2.01-.861-.761-1.901-1.142-3.12-1.142-1.649 0-2.922.508-3.819 1.522-.861.978-1.291 2.391-1.291 4.238v14.888h-9.735V83.849z" fill="#29109C"/><path fill-rule="evenodd" clip-rule="evenodd" d="M580.923 333.894c-4.735-.708-8.601-2.356-9.748-3.937-2.876-3.963 7.843-17.609 15.029-20.541 7.187-2.932 23.626 6.791 15.723 17.839-2.743 3.835-6.939 5.81-11.371 6.59l-11.507 22.124-11.713-9.684 13.587-12.391z" fill="#B28B67"/><path fill-rule="evenodd" clip-rule="evenodd" d="M587.057 297.819c.948-.651 2.204-.842 3.262-.331.257.123.495.284.707.475.076.068.079.109.161.084.061-.018.144-.117.195-.156.158-.12.324-.231.496-.33.589-.337 1.256-.514 1.93-.571 1.261-.106 2.593.202 3.642.926.574.397 1.033.923 1.396 1.516.187.307.349.629.494.958.043.099.134.482.218.532.094.055.43-.013.539-.009 1.357.05 2.59.647 3.618 1.51 1.16.974 2.236 1.962 2.621 3.478a8.326 8.326 0 01.234 1.497c.005.105.008.21.008.315-.001.179-.043.202.14.229a3.145 3.145 0 011.848.938c.292.308.527.667.721 1.043.066.128.159.498.266.59.107.091.474.122.619.173a4.814 4.814 0 012.024 1.381 6.297 6.297 0 011.244 2.248c.123.393.196.776.17 1.186-.012.178-.036.355-.03.533.003.104.058.253.023.353.021-.059.983.263 1.067.302.446.207.803.535 1.065.95.491.781.66 1.76.715 2.665a6.37 6.37 0 01-.071 1.393c-.035.22-.081.438-.136.654-.027.104-.082.218-.091.324-.013.138.026.173.104.301.392.65.625 1.395.643 2.155a4.31 4.31 0 01-.562 2.197c-.022.039-.135.184-.131.219.007.048.127.129.165.169a4.787 4.787 0 01.905 1.337c.558 1.247.509 2.681.024 3.939-.508 1.32-1.493 2.499-2.746 3.171a4.268 4.268 0 01-.632.275c-.134.044-.152.029-.195.157-.048.142-.059.31-.096.456a5.963 5.963 0 01-.549 1.366c-.389.707-.862 1.396-1.486 1.917-.29.241-.614.444-.966.581a2.985 2.985 0 01-.854.197c-.057.004-.121-.003-.176.01-.136.03-.092-.051-.16.101-.096.211-.13.47-.203.693-.076.229-.16.455-.251.678-.184.453-.391.898-.638 1.319-.476.809-1.125 1.553-2.005 1.929a2.77 2.77 0 01-1.791.132c-.1-.026-.204-.087-.294-.044-.097.045-.167.237-.224.33-.497.812-1.075 1.618-1.88 2.151a3.943 3.943 0 01-2.542.62c-1.718-.168-3.17-1.439-3.836-2.992a5.129 5.129 0 01-.362-1.267c-1.356.333-2.654-.786-3.389-1.808-.915-1.273-1.181-2.861-.838-4.375-1.483.288-2.792-1.285-2.498-2.685.072-.342.215-.667.399-.963.097-.156.226-.287.326-.438.128-.192.152-.462.226-.69.143-.442.345-.855.639-1.217.153-.189.328-.352.5-.524.155-.154.237-.349.348-.536.259.297.691.518 1.045.665.348.144.793.134 1.158.091.848-.101 1.642-.496 2.346-.961 1.544-1.019 2.727-2.797 1.974-4.68-.351-.877-2.267-2.459-3.171-2.916-.95-.481-3.318.535-3.5.664-.113.08-.204.218-.355.209-.332-.021-.458-.565-.504-.821-.081-.441-.024-.892.061-1.327.185-.948.478-1.886.868-2.769.3-.68.671-1.332.911-2.038.24-.703.315-1.446.069-2.16-.269-.777-.746-1.463-1.168-2.162-.419-.692-.79-1.421-.886-2.234-.022-.179-.035-.362-.022-.541.009-.142.087-.365.037-.501-.078-.213-.488-.167-.687-.192-.983-.124-1.992.003-2.942.267-.944.264-1.791.568-2.651 1.023-.638.337-1.315.884-2.038.995-.323.049-1.662-.866-1.929-1.363-.268-.498-.367-1.297-.282-1.676.088-.388.303-.716.609-.966.181-.147.388-.253.57-.393.152-.118.296-.231.476-.306a1.33 1.33 0 011.06.02 3.898 3.898 0 01.084-1.506c.133-.51.358-1.077.651-1.515.237-.355.57-.652.983-.786.432-.14.926-.057 1.367-.002a6.862 6.862 0 01-.113-2.163c.144-1.402.712-2.849 1.909-3.673z" fill="#191847"/><path fill-rule="evenodd" clip-rule="evenodd" d="M574.067 402.965l-29.897 79.113-19.845 66.802-8.231.123 29.687-145.616 28.286-.422z" fill="#997659"/><path fill-rule="evenodd" clip-rule="evenodd" d="M580.325 402.871c.746 27.633 6.131 64.77 6.928 66.481.797 1.712 53.894 43.021 53.894 43.021l-5.578 6.15s-62.446-35.164-65.383-39.935c-2.937-4.771-12.928-48.926-20.813-75.254l30.952-.463z" fill="#B28B67"/><path fill-rule="evenodd" clip-rule="evenodd" d="M639.994 512.018c.346-1.119 1.518-1.811 2.615-1.402 1.176.438 2.548 1.022 3.229 1.576 1.329 1.082 3.517 3.598 3.517 3.598l-22.545 27.698s-4.448-1.826-2.84-4.384c1.609-2.557 2.632-4.283 2.632-4.283l4.64-17.18a1 1 0 011.254-.697l2.32.698s2.757-1.336 3.853-2.682c.534-.656.994-1.869 1.325-2.942zM525.153 545.4c1.079-.454 2.362-.002 2.754 1.102.421 1.182.855 2.608.868 3.486.026 1.713-.495 5.007-.495 5.007l-35.713.533s-1.461-4.58 1.533-4.992c2.993-.412 4.973-.737 4.973-.737l16.145-7.488a1 1 0 011.34.512l.957 2.225s2.796 1.254 4.531 1.228c.846-.013 2.072-.441 3.107-.876z" fill="#E4E4E4"/><path fill-rule="evenodd" clip-rule="evenodd" d="M555.248 541.568l-39.197-3.662 26.991-134.477 35.05-.524-22.844 138.663z" fill="#4C67C9"/><path fill-rule="evenodd" clip-rule="evenodd" d="M632.905 502.708l-25.213 30.763s-41.219-43.681-48.155-57.089c-6.935-13.407-13.202-73.003-13.202-73.003l39.46-.59s3.722 52.457 4.781 54.885c1.058 2.428 42.329 45.034 42.329 45.034z" fill="#5978E7"/><path fill-rule="evenodd" clip-rule="evenodd" d="M506.374 373.264l22.137 11.746-8.002 8.817-16.162-14.409c-8.444-2.207-12.313-3.852-11.609-4.935.594-.913 1.571-.895 2.471-.878.701.014 1.355.026 1.745-.404.891-.981-.877-4.347-2.691-7.469-1.814-3.122.085-2.874 1.175-2.435 3.579 2.354 7.224 5.676 10.936 9.967zm101.312 22.983l13.132-1.607c7.059 23.779 11.35 36.842 12.873 39.187 1.117 1.72 8.44 6.479 13.442 9.102 2.007 1.053 1.432 2.772.782 3.288-4.101 3.251-7.576 1.747-11.359.11-1.095-.474-2.216-.959-3.386-1.344-3.026-.994-4.083.522-5.081 1.954-.883 1.269-1.722 2.472-3.842 1.81.13-.416.285-.882.454-1.384 1.086-3.246 2.689-8.034 1.06-11.006-.837-1.525-6.861-14.895-18.075-40.11z" fill="#B28B67"/><path fill-rule="evenodd" clip-rule="evenodd" d="M576.3 342.661l-5.391-1.342c-12.751 10.654-19.664 38.009-27.863 41.09-7.752 2.912-18.126-1.232-30.418-6.701l-4.509 8.352c10.552 13.263 34.217 25.561 44.57 20.31 16.551-8.395 22.747-42.306 23.611-61.709z" fill="#E48F52"/><path fill-rule="evenodd" clip-rule="evenodd" d="M595.009 413.042l-48.319-3.584c-2.208-.164-1.555-3.321-1.116-4.906 5.062-18.29 20.928-37.235 22.89-63.66l14.1-1.151c10.151 19.392 12.443 42.511 12.445 73.301z" fill="#DDE3E9"/><path fill-rule="evenodd" clip-rule="evenodd" d="M580.948 339.62l2.515.187c29.831 21.58 46.506 52.839 50.025 93.777l-10.275 1.232c-6.129-8.313-13.458-21.717-21.989-40.212 2.227 10.925 3.619 22.065 3.536 32.494l-43.495-3.227c-6.839-21.899 16.68-84.473 16.68-84.473l3.003.222z" fill="#FC964D"/><path fill-rule="evenodd" clip-rule="evenodd" d="M151.135 388.828c6.244-1.397 11.24-3.962 12.618-6.179 3.456-5.558-12.131-22.72-21.989-25.94-9.858-3.221-30.843 11.312-19.257 25.28 4.021 4.848 9.803 7.08 15.784 7.695l17.444 28.386 14.69-14.027-19.29-15.215z" fill="#B28B67"/><path fill-rule="evenodd" clip-rule="evenodd" d="M136.177 371.699c-.535-3.104-.693-5.711.094-8.064 6.555-6.065 6.206-7.944 2.481-11.844-1.756.25-6.636 2.509-11.095 6.091-2.677 1.407-5.06 3.898-6.501 7.193-2.16 3.668-2.94 7.872-.813 12.316 2.595 10.74 12.511 15.031 18.959 13.575a77.021 77.021 0 00-.682-6.506 5.076 5.076 0 01-2.983-9.141c2.513 2.447 11.078 10.662 14.91 12.699 4.517 2.4 12.128-3.219 14.495-5.479 2.045-1.953.127-3.821-1.248-5.16-.198-.193-.385-.375-.547-.545-.338-.354-.798.087-1.318.586-.675.647-1.451 1.391-2.192.615-.808-.845-.258-2.61.234-4.189.307-.986.591-1.899.509-2.471-.258-1.806-1.382-3.501-2.54-2.396-.633.605-1.153 1.798-1.778 3.234-.944 2.168-2.129 4.888-4.306 6.967-3.597 3.434-15.53-7.346-15.679-7.481z" fill="#191847"/><path fill-rule="evenodd" clip-rule="evenodd" d="M144.28 484.205l30.684 107.619 22.389 79.322h16.328l-23.79-186.941H144.28z" fill="#514E47"/><path fill-rule="evenodd" clip-rule="evenodd" d="M136.073 484.205c-.709 55.468-3.13 85.722-3.875 90.762-.745 5.039-12.013 37.099-33.803 96.179h16.916c27.74-56.677 43.226-88.737 46.457-96.179 3.23-7.443 13.199-37.697 28.215-90.762h-53.91z" fill="#625E56"/><path fill-rule="evenodd" clip-rule="evenodd" d="M96.883 686.372l.846-17.764h17.774c12.642 8.882 33.008 14.38 33.008 14.38v3.384h-32.162l-11.002-1.692v1.692h-8.464zm98.178 0l.847-17.764h17.773c12.642 8.882 33.009 14.38 33.009 14.38v3.384h-32.162l-11.003-1.692v1.692h-8.464z" fill="#191847"/><path fill-rule="evenodd" clip-rule="evenodd" d="M254.03 481.784l-30.6-16.291-3.997 15.918 29.066 7.415c9.051 7.959 13.93 11.12 14.636 9.483.595-1.38-.18-2.483-.893-3.498-.556-.792-1.075-1.53-.88-2.306.445-1.771 5.687-2.334 10.685-2.658 4.997-.323 3.246-2.303 1.901-3.213-5.471-2.284-12.111-3.901-19.918-4.85zm-140.383 56.247c1.82-5.493 3.403-56.746 3.403-56.746l18.179-2.505s-9.179 56.326-10.052 59.816c-1.134 4.535 2.708 10.345 5.314 14.284.403.609.776 1.174 1.097 1.682-2.609 1.632-4.158.326-5.792-1.05-1.845-1.555-3.798-3.201-7.505-.805-1.432.925-2.764 1.968-4.065 2.986-4.494 3.52-8.623 6.752-15.27 3.872-1.055-.457-2.435-2.544-.115-4.656 5.779-5.262 13.916-14.192 14.806-16.878z" fill="#B28B67"/><path fill-rule="evenodd" clip-rule="evenodd" d="M157.947 398.264l7.337-2.346c31.286 19.973 49.26 64.316 86.903 83.82l-6.793 11.295c-60.348 1.116-82.999-52.869-87.447-92.769z" fill="#6281AF"/><path fill-rule="evenodd" clip-rule="evenodd" d="M138.478 496.724l66.519-9.429c3.039-.431 1.849-4.708 1.098-6.845-8.671-24.663-32.346-49.218-37.469-85.348l-19.611-.268c-12.276 27.595-13.34 59.579-10.537 101.89z" fill="#DDE3E9"/><path fill-rule="evenodd" clip-rule="evenodd" d="M133.569 515.914c-1.979 7.553-4.028 14.19-6.113 19.36l-14.266 2.022c-8.522-49.061 4.889-89.643 17.372-114.735-3.527.247-6.884-.757-9.382-4.044-8.795-11.572-7.243-18.849-.071-22.185 3.944-1.835 7.941-1.531 12.726-1.167 3.915.298 8.358.636 13.73-.125l.005-.001c.521-.074 1-.106 1.439-.101l6.418-.542s38.186 83.333 30.719 114.065l-52.577 7.453z" fill="#779FDC"/><path fill-rule="evenodd" clip-rule="evenodd" d="M133.569 515.914c2.596-9.911 5.07-21.4 7.342-33.226 3.201 12.214 7.37 24.347 12.309 30.44l-19.651 2.786z" fill="#000" fill-opacity=".1"/></svg>