<svg width="150" height="150" fill="none" xmlns="http://www.w3.org/2000/svg"><path d="M147.736 56.642a1.257 1.257 0 00-.047-.152c-3.623-14.262-11.405-27.22-22.501-37.22A74.84 74.84 0 0075 0a74.974 74.974 0 00-49.052 18.264 2.197 2.197 0 102.875 3.322A70.584 70.584 0 0175 4.395a70.452 70.452 0 0147.246 18.138c12.216 11.01 20.164 25.829 22.573 41.963a74.991 74.991 0 00-5.535-.212c-20.034 0-38.868 7.801-53.034 21.967-14.166 14.165-21.966 32.999-21.966 53.033 0 1.829.074 3.682.212 5.535-16.134-2.409-30.952-10.357-41.963-22.573A70.452 70.452 0 014.395 75a70.457 70.457 0 0118.184-47.3 2.197 2.197 0 10-3.261-2.945A74.844 74.844 0 000 75a74.84 74.84 0 0019.27 50.188 75.12 75.12 0 0022.816 17.214c.042.024.083.049.128.071C52.474 147.467 63.506 150 75 150c20.033 0 38.868-7.801 53.033-21.967C142.199 113.868 150 95.033 150 75a75.3 75.3 0 00-2.264-18.358zm-79.058 82.642c0-18.86 7.344-36.59 20.68-49.926 13.336-13.336 31.066-20.68 49.926-20.68 1.03 0 2.069.029 3.11.076l-73.64 73.64a70.877 70.877 0 01-.076-3.11zm56.248-14.358C111.59 138.262 93.86 145.605 75 145.605c-1.06 0-2.115-.029-3.167-.075l73.702-73.701c.046 1.055.07 2.112.07 3.171 0 18.86-7.343 36.59-20.679 49.926z" fill="#29109C"/><path d="M44.445 58.205a2.197 2.197 0 00-2.923 1.051 36.838 36.838 0 00-1.42 3.458 2.198 2.198 0 004.145 1.459c.363-1.03.783-2.054 1.25-3.044a2.198 2.198 0 00-1.052-2.924zm62.78 5.855a2.197 2.197 0 002.034-3.028 37.196 37.196 0 00-1.585-3.382 2.198 2.198 0 00-3.881 2.064c.514.965.983 1.967 1.397 2.978a2.198 2.198 0 002.035 1.367zM43.212 89.328a2.199 2.199 0 00-.914 2.97 37.361 37.361 0 001.914 3.207 2.195 2.195 0 003.047.61 2.198 2.198 0 00.61-3.048 32.843 32.843 0 01-1.688-2.827 2.197 2.197 0 00-2.97-.912zm8.868-43.36a37.481 37.481 0 00-2.809 2.459 2.197 2.197 0 003.057 3.157 32.975 32.975 0 012.478-2.168 2.198 2.198 0 00-2.725-3.448zm31.23-2.493a2.198 2.198 0 001.118-4.25c-1.2-.315-2.43-.573-3.658-.765a2.198 2.198 0 00-.68 4.342 32.64 32.64 0 013.22.673zm-18.803.542c.22 0 .443-.033.662-.103a32.743 32.743 0 013.184-.83 2.198 2.198 0 10-.891-4.302 36.795 36.795 0 00-3.615.943 2.197 2.197 0 00.66 4.292zM96.51 50.51a2.196 2.196 0 102.901-3.3c-.932-.82-1.916-1.6-2.926-2.322a2.198 2.198 0 00-2.555 3.577 33.314 33.314 0 012.58 2.046zM38.022 75.869c.03 1.243.121 2.497.273 3.724a2.197 2.197 0 104.362-.542 32.686 32.686 0 01-.24-3.284 2.199 2.199 0 00-4.395.102zm14.941 26.143a2.196 2.196 0 00.506 3.065 37.002 37.002 0 003.143 2.023 2.196 2.196 0 102.187-3.812 33.128 33.128 0 01-2.77-1.781 2.197 2.197 0 00-3.066.505z" fill="#29109C"/></svg>