<svg viewBox="0 0 551 454" fill="none" xmlns="http://www.w3.org/2000/svg"><g opacity=".5"><path fill-rule="evenodd" clip-rule="evenodd" d="M272.744 137.079c-.01.023-.019.047-.033.074.014-.023.033-.116.033-.074z" fill="#C5CFD6"/><path fill-rule="evenodd" clip-rule="evenodd" d="M272.722 137.114c0 .005-.005.014-.005.024 0-.024.042-.093.005-.024z" fill="#C5CFD6"/><path fill-rule="evenodd" clip-rule="evenodd" d="M272.884 136.721c-.033.093-.075.181-.112.274.018-.046.037-.084.056-.13-.484 1.21-.177.423.056-.144z" fill="#C5CFD6"/><path fill-rule="evenodd" clip-rule="evenodd" d="M272.779 137.001l-.055.13c-.135.261.055-.13.055-.13z" fill="#C5CFD6"/><path fill-rule="evenodd" clip-rule="evenodd" d="M272.725 137.116c0-.005 0-.005.005-.01-.005.005-.005.005-.005.01z" fill="#C5CFD6"/><path fill-rule="evenodd" clip-rule="evenodd" d="M272.703 137.149c-.028.056.13-.214 0 0z" fill="#C5CFD6"/><path fill-rule="evenodd" clip-rule="evenodd" d="M272.723 137.116l.009-.01c-.005.005-.005.01-.009.01z" fill="#C5CFD6"/><path fill-rule="evenodd" clip-rule="evenodd" d="M139 7.63c0-4.214 3.41-7.63 7.617-7.63h249.766C400.59 0 404 3.416 404 7.63v162.74c0 4.214-3.41 7.63-7.617 7.63H146.617c-4.207 0-7.617-3.416-7.617-7.63V7.63zm7.617-1.76a1.76 1.76 0 00-1.757 1.76v162.74c0 .973.787 1.761 1.757 1.761h249.766c.97 0 1.757-.788 1.757-1.761V7.63a1.76 1.76 0 00-1.757-1.76H146.617z" fill="#D5D5D5"/><rect x="315" y="62" width="6" height="25" rx="3" fill="#DDE3E9"/><rect x="329" y="46" width="6" height="41" rx="3" fill="#DDE3E9"/><rect x="343" y="38" width="6" height="49" rx="3" fill="#DDE3E9"/><rect x="357" y="46" width="6" height="41" rx="3" fill="#DDE3E9"/><rect x="371" y="30" width="6" height="57" rx="3" fill="#C5CFD6"/><rect x="175" y="68.049" width="4.548" height="18.952" rx="2.274" fill="#DDE3E9"/><rect x="185.613" y="55.919" width="4.548" height="31.081" rx="2.274" fill="#DDE3E9"/><rect x="196.226" y="49.855" width="4.548" height="37.145" rx="2.274" fill="#DDE3E9"/><rect x="206.839" y="55.919" width="4.548" height="31.081" rx="2.274" fill="#DDE3E9"/><rect x="217.452" y="43.791" width="4.548" height="43.21" rx="2.274" fill="#C5CFD6"/><path fill-rule="evenodd" clip-rule="evenodd" d="M272.051 72.504a8.095 8.095 0 01-5.901 2.546c-4.475 0-8.102-3.604-8.102-8.05 0-4.446 3.627-8.05 8.102-8.05V44C253.42 44 243 54.352 243 67s10.42 23 23.15 23c6.687 0 12.73-2.81 16.85-7.282l-10.949-10.214z" fill="#F2F2F2"/><path fill-rule="evenodd" clip-rule="evenodd" d="M266 44v14.95a8.05 8.05 0 018.05 8.05H289c0-12.648-10.352-23-23-23z" fill="#AFB9C5"/><path fill-rule="evenodd" clip-rule="evenodd" d="M274.073 67A7.981 7.981 0 01271 73.293L280.196 85C285.55 80.809 289 74.312 289 67h-14.927zm-5.699 83.885l-.011.024c.005-.008.011-.037.011-.024" fill="#C5CFD6"/><path fill-rule="evenodd" clip-rule="evenodd" d="M268.367 150.896l-.002.008c0-.008.014-.03.002-.008" fill="#C5CFD6"/><path fill-rule="evenodd" clip-rule="evenodd" d="M268.418 150.771c-.01.03-.024.058-.035.087l.017-.041c-.153.383-.056.134.018-.046" fill="#C5CFD6"/><path fill-rule="evenodd" clip-rule="evenodd" d="M268.385 150.86l-.018.041c-.043.083.018-.041.018-.041m-.017.037l.001-.003-.001.003" fill="#C5CFD6"/><path fill-rule="evenodd" clip-rule="evenodd" d="M268.361 150.907c-.009.018.041-.068 0 0zm.006-.01l.003-.003-.003.003" fill="#C5CFD6"/><rect x="233" y="112.579" width="70" height="46.421" rx="4" fill="#DDE3E9"/><path fill-rule="evenodd" clip-rule="evenodd" d="M259.526 125.842L238.895 159h41.263l-20.632-33.158z" fill="#AFB9C5"/><path fill-rule="evenodd" clip-rule="evenodd" d="M279.789 134.684L261.737 159h36.105l-18.053-24.316z" fill="#C5CFD6"/><path fill-rule="evenodd" clip-rule="evenodd" d="M287.526 134.685a6.632 6.632 0 100-13.265 6.632 6.632 0 000 13.265z" fill="#fff"/></g><path opacity=".3" fill-rule="evenodd" clip-rule="evenodd" d="M541.596 380.384c10.945 26.139-177.289 65.588-342.457 72.054-165.17 6.466-245.804-32.987-170.598-67.556 75.207-34.57 502.11-30.638 513.055-4.498z" fill="#DDE3E9"/><path fill-rule="evenodd" clip-rule="evenodd" d="M550.379 315.306c3.681 27.532-85.601 45.49-162.447 32.958-76.847-12.533-112.101-61.474-75.431-87.552 36.67-26.078 234.196 27.062 237.878 54.594z" fill="#F2F2F2" opacity=".505"/><path fill-rule="evenodd" clip-rule="evenodd" d="M439.933 200.578c1.389-1.061 3.544-.385 4.943.242.539.242 1.916 1.015 2.937 1.885a36.776 36.776 0 01-.36-1.825 67.674 67.674 0 01-.873-7.645c-.038-.666.011-1.41.06-2.164v-.001c.017-.255.034-.512.047-.767a.449.449 0 01-.109-.256c-.006.047-.01.084-.012.113-.004.046-.006.07-.014.072-.007.001-.02-.018-.046-.058l-.036-.055c-1.034-1.546-1.902-3.287-2.021-5.202-.101-1.624 1.233-4.697 3.124-2.57.846.95.627 7.622-.644 8.031a75.966 75.966 0 001.301 6.597.786.786 0 01.242-.005c-.007-.541-.008-1.133.014-1.336.191-1.751 1.653-5.306 3.981-4.616 1.789.531.693 2.714.084 3.67-.98 1.539-2.089 2.205-3.493 3.005a.631.631 0 01-.493.586c.94 3.519 2.175 6.951 3.792 10.193l.043-.206c.205-.984.444-2.131.596-2.372.792-1.262 2.546-2.802 4.163-2.056 3.396 1.57-.29 6.08-3.182 6.571-.12.166-.247.3-.383.376a41.832 41.832 0 001.805 2.871 85.292 85.292 0 003.085 4.195c.033-1.088.463-3.514.585-3.775.741-1.583 2.878-3.211 4.612-2.087 1.95 1.268.182 3.664-.93 4.748-.456.445-2.711 2.074-3.506 2.081 2.623 3.281 5.518 6.507 8.462 9.615-.244-1.391-.563-5.224-.527-5.649.183-2.196 1.625-5.707 4.467-4.852 2.756.829 1.537 4.477.593 6.216-.571 1.053-1.362 2.122-2.315 2.856-.172.132-.396.24-.62.348-.27.13-.54.26-.716.432-.157.153-.205.328-.253.503-.05.184-.1.366-.278.518a325.78 325.78 0 004.772 4.903 105.4 105.4 0 002.27 2.217c.419-.174 1.017.054.985.648a.7.7 0 01-.051.229c.581.54 1.165 1.077 1.754 1.608a3.96 3.96 0 01.017-.674c-.424.603-.406-.276-.392-.945.004-.237.009-.448-.007-.558-.063-.43-.143-.856-.224-1.282-.172-.909-.343-1.816-.334-2.754.018-1.992 1.279-5.33 3.932-4.144 2.439 1.088 1.552 4.04.631 5.891-.582 1.171-1.379 2.217-2.212 3.218-.149.178-.314.42-.477.66-.243.356-.481.706-.658.836 2.265 2.032 4.583 4.004 6.902 5.975v.001c1.039.883 2.077 1.766 3.111 2.655.045-.195.082-.389.114-.569a.31.31 0 01-.266.1c-.03-.149-.073-.348-.125-.586l-.001-.001c-.638-2.913-2.582-11.785 2.683-10.065 3.857 1.263 1.134 8.989-1.743 11.691a184.86 184.86 0 015.165 4.611 73.909 73.909 0 013.549 3.533c-.591-1.576-1.147-3.616-.782-5.239.532-2.363 3.022-4.594 5.454-3.249 3.032 1.683.699 3.982-1.488 6.137-1.116 1.101-2.195 2.164-2.503 3.089 3.627 3.992 6.723 8.427 8.792 13.479 2.25 5.494 4.339 12.876 3.184 19.023.213-2.703-.699-6.096-1.34-8.48-.087-.324-.169-.63-.243-.913-.963-3.696-2.33-7.292-4.132-10.658-2.887-5.392-6.7-9.968-11.102-14.123-1.002.349-2.091.997-2.993 1.533-.553.328-1.035.615-1.385.766-1.684.728-4.918 1.77-5.991-.521-1.055-2.253 1.638-3.513 3.307-4.018 1.613-.487 3.067-.428 4.572-.029-2.33-2.067-4.717-4.07-7.104-6.072a698.64 698.64 0 01-1.316-1.105c-.607.498-1.277 1.218-1.988 1.982-2.258 2.425-4.933 5.298-7.322 2.951-3.605-3.543 3.29-7.143 6.228-6.862.36.034.709.11 1.049.214-2.995-2.546-5.945-5.144-8.734-7.925-.501.092-1.297.829-2.255 1.715-2.151 1.991-5.113 4.731-7.344 2.573-1.61-1.557-1.059-3.983.498-5.37 1.563-1.393 3.828-1.391 5.754-.922.833.202 1.601.587 2.317 1.057l.088.005c-2.744-2.766-5.506-5.593-8.166-8.517l-.141.046c-.161.197-.43.269-.677.226l-.417.143c-2.106.728-4.814 1.664-6.914 1.26-1.545-.297-2.948-1.554-1.64-3.103 1.064-1.259 3.949-1.078 5.357-.78.686.146 1.434.568 2.184.992.315.178.631.356.942.514a.63.63 0 01.384-.319c-2.627-2.938-5.133-5.978-7.406-9.149-.688.106-1.451.409-2.238.721-1.894.751-3.927 1.557-5.385-.179-2.154-2.563 1.896-4.059 3.821-3.815a7.925 7.925 0 011.91.51 33.835 33.835 0 01-3.804-8.334l-.025.013a.487.487 0 01-.04.021l.018-.011.019-.011a.233.233 0 01.026-.017 37.32 37.32 0 01-.254-.884 3.005 3.005 0 00-.359-.17c.875.603-2.815.899-3.506.954-1.528.122-3.575.168-4.696-1.085-.941-1.053-.886-2.608.266-3.489zm70.341 88.673c-.065.891-.226 1.707-.526 2.379.225-.765.398-1.561.526-2.379z" fill="#F2F2F2"/><g opacity=".7" fill-rule="evenodd" clip-rule="evenodd"><path d="M449.215 268.351c5.469-.284 12.233 2.908 12.817 8.852.424 4.318.292 8.625.948 12.937.525 3.446 1.634 6.755 3.147 9.894 1.455 3.019 4.473 5.589 5.258 8.814.5 2.055.22 4.945-.47 6.955-.839 2.444-.393 2.251 1.279 4.301 3.276 4.019 6.226 8.14 8.312 12.94 3.004 6.913 4.974 14.993 3.859 22.56-.142.961-.31 4.41-1.633 4.651-1.479.269-.787-1.703-.709-2.34.503-4.065.95-7.618.344-11.747-2.341-15.929-13.771-26.424-21.213-39.943-.409-.697-1.273-2.358-1.874-3.453-.948-1.729-1.901-5.019-3.184-6.301-2.418-2.416-.195 2.44.276 3.367.595 1.173 1.25 2.419 1.861 3.447 2.792 4.763 5.909 9.962 8.792 14.871-12.472 2.841-21.256-12.15-24.603-22.005-2.757-8.121-6.057-27.105 6.793-27.8z" fill="#69A1AC"/><path d="M522.52 253.272c-9.143.725-15.013 6.757-17.745 15.193-1.473 4.547-1.642 9.217-2.46 13.89-1.231 7.029-3.88 12.356-9.056 17.365-1.604 1.551-2.785 3.143-3.625 4.847-1.667 1.701-3.119 3.626-4.185 5.979-1.362 3.006-1.748 6.612-.175 9.609.423.805 1.478 2.422 2.571 3.157-4.093 8.715-6.344 18.261-6.09 27.794.153 5.754.434 11.511.762 17.259.088 1.543.591 4.092 1.346 1.503.691-2.367-.176-6.083-.256-8.557-.39-12.048-.723-23.002 4.237-34.259.52-1.18 1.072-2.35 1.646-3.511.034-.019.065-.043.097-.066l.064.052a3.3 3.3 0 01.145-.231c.165-.169.309-.384.446-.624.44-.61.938-1.326.94-1.718l-.001-.011c3.071-5.012 6.588-9.747 10.181-14.39-.027.033 3.897-5.308 3.29-2.354-.293 1.424-3.179 4.134-4.345 5.642-2.578 3.355-5.606 7.605-8.123 11.716-.338.194-.817 1.149-1.163 1.861-.191.36-.369.724-.544 1.04 8.916 2.946 15.852-2.987 20.581-9.887l.017-.025c1.439-1.907 2.913-3.8 4.755-5.307 3.073-2.515 6.364-2.959 9.987-4.197 9.88-3.375 14.081-16.177 15.415-25.677 1.506-10.717-5.857-27.15-18.712-26.093z" fill="#89C5CC"/><path d="M504.459 223.26c-9.384 9.764-13.917 23.307-17.507 36.039-4.009 14.221-6.657 28.661-6.759 43.446-.067 9.713-.331 19.488.236 29.19.201 3.446.545 6.898 1.091 10.307.045.28 1.267 7.891 2.437 6.117.665-1.008-1.253-7.895-1.398-9.042-.815-6.461-1.005-12.969-.965-19.477.066-10.714-.25-21.373.836-32.048.162-1.594.29-3.268.668-4.827.402-1.658-.11-.934 1.2-1.59 1.273-.638 2.845-.547 4.165-1.348 5.237-3.175 7.916-11.33 10.001-16.681 2.385-6.119 3.834-12.644 4.992-19.084a134.55 134.55 0 001.802-14.226c.108-1.51.115-3.089.412-4.574.079-.401.481-1.11.466-1.464-.031-.751-.484-1.193-.521-1.824a38.24 38.24 0 00-1.156 1.086zm-51.167 130.094c0 16.148 13.094 29.238 29.245 29.238 16.151 0 29.244-13.09 29.244-29.238" fill="#89C5CC"/><path d="M502.578 327.755c7.238-.534 15.321 5.304 18.812 11.379 2.815 4.899 2.341 11.331.602 16.534-1.164 3.484-3.705 8.452-7.941 8.5-5.301.061-5.557-6.49-5.659-10.319-.137-5.091-.78-9.525-4.792-12.995-.496-.429-1.016-.83-1.535-1.231a37.837 37.837 0 01-1.581-1.266c-1.419-1.192-2.909-2.445-3.09-4.41-.263-2.848 1.345-3.36 3.8-2.831.079.017.294.099.587.21 1.253.475 3.929 1.488 3.423.276-.191-.456-.887-.818-1.766-1.089-2.273-.247-4.984-.534-5.763-.363-8.411 1.845-11.686 13.494-12.556 20.894-.094.799-.17 1.601-.236 2.403h-1.545c.107-1.938.249-3.873.573-5.79 1.24-7.33 5.116-18.097 13.617-19.287.313-.045 1.467-.052 2.864.03a5.166 5.166 0 012.186-.645z" fill="#69A1AC"/></g><path opacity=".2" fill-rule="evenodd" clip-rule="evenodd" d="M93.58 173.527c-1.013-.767-2.587-.277-3.609.176-.393.175-1.399.735-2.145 1.364.099-.436.187-.876.264-1.319.316-1.824.535-3.681.64-5.529.027-.481-.008-1.019-.043-1.565-.012-.185-.025-.37-.034-.555a.325.325 0 00.08-.185c.004.034.007.061.008.082.003.033.005.05.01.052.006.001.015-.013.034-.042l.027-.04c.755-1.118 1.39-2.378 1.477-3.762.074-1.175-.899-3.396-2.28-1.857-.618.687-.46 5.511.467 5.806a54.724 54.724 0 01-.952 4.771.585.585 0 00-.177-.003 12.34 12.34 0 00-.01-.966c-.138-1.266-1.205-3.836-2.905-3.336-1.306.384-.506 1.962-.062 2.653.715 1.113 1.524 1.594 2.549 2.172.02.239.176.378.36.423-.688 2.545-1.591 5.027-2.772 7.372l-.032-.149c-.15-.711-.324-1.541-.434-1.715-.578-.912-1.858-2.025-3.039-1.485-2.48 1.137.21 4.397 2.32 4.751.088.12.181.216.28.272-.41.707-.85 1.401-1.319 2.076a61.894 61.894 0 01-2.254 3.035c-.024-.787-.337-2.541-.426-2.73-.54-1.144-2.1-2.321-3.366-1.507-1.425.917-.134 2.649.677 3.433.333.321 1.978 1.498 2.56 1.503-1.917 2.374-4.032 4.707-6.183 6.956.179-1.006.413-3.778.387-4.085-.132-1.588-1.184-4.127-3.26-3.507-2.013.601-1.124 3.238-.435 4.495.417.761.994 1.534 1.69 2.064.125.096.288.174.452.252.197.094.394.187.522.312.115.11.15.237.185.363.037.133.073.265.202.375a238.815 238.815 0 01-3.486 3.547 77.376 77.376 0 01-1.657 1.604c-.306-.126-.743.04-.72.469a.511.511 0 00.037.165c-.424.391-.85.78-1.28 1.164.009-.112.006-.27-.013-.488.309.436.296-.199.287-.683a3.066 3.066 0 01.005-.403c.046-.312.105-.62.164-.928.125-.657.25-1.313.245-1.991-.013-1.44-.932-3.854-2.87-2.995-1.781.788-1.134 2.922-.463 4.26.425.846 1.007 1.602 1.614 2.326.109.129.23.304.348.477.177.257.351.51.48.605-1.654 1.469-3.347 2.896-5.04 4.323h-.001c-.759.639-1.517 1.278-2.273 1.921a8.138 8.138 0 01-.083-.412.226.226 0 00.194.073c.022-.108.054-.252.092-.424.468-2.107 1.89-8.523-1.954-7.278-2.817.915-.832 6.5 1.268 8.453a136.314 136.314 0 00-3.773 3.336 54.22 54.22 0 00-2.592 2.556c.431-1.139.838-2.614.572-3.788-.387-1.708-2.205-3.321-3.98-2.348-2.215 1.219-.513 2.88 1.083 4.438.815.795 1.602 1.564 1.827 2.233-2.65 2.888-4.912 6.096-6.425 9.75-1.645 3.973-3.172 9.312-2.331 13.756-.155-1.954.513-4.409.981-6.132l.178-.66c.704-2.674 1.704-5.275 3.021-7.709 2.11-3.9 4.895-7.21 8.11-10.217.733.253 1.527.72 2.185 1.108.404.237.756.445 1.011.554 1.23.525 3.59 1.278 4.375-.379.771-1.63-1.195-2.54-2.413-2.904-1.177-.352-2.24-.309-3.338-.02 1.702-1.496 3.446-2.945 5.189-4.393l.962-.8c.442.36.931.88 1.45 1.433 1.648 1.752 3.6 3.829 5.345 2.131 2.634-2.563-2.4-5.164-4.544-4.96-.264.025-.519.08-.767.155 2.188-1.842 4.343-3.721 6.38-5.733.366.066.947.599 1.646 1.239 1.57 1.438 3.731 3.419 5.361 1.858 1.176-1.127.775-2.881-.361-3.883-1.14-1.007-2.795-1.005-4.201-.665-.608.147-1.17.425-1.692.765l-.065.004c2.005-2.001 4.022-4.046 5.966-6.161l.07.022a.445.445 0 01.033.011.525.525 0 00.494.163l.304.103c1.538.526 3.515 1.201 5.048.909 1.129-.215 2.153-1.125 1.198-2.245-.776-.91-2.882-.778-3.91-.562-.502.106-1.047.411-1.595.718-.23.129-.461.258-.689.372a.454.454 0 00-.28-.23c1.92-2.126 3.75-4.324 5.411-6.619.503.077 1.06.296 1.634.521 1.383.542 2.866 1.124 3.932-.131 1.573-1.854-1.383-2.935-2.789-2.758-.475.06-.943.193-1.395.37a24.399 24.399 0 002.781-6.028.38.38 0 00.047.025l-.026-.017-.02-.011c.065-.213.127-.426.187-.639a2.12 2.12 0 01.261-.124c-.639.437 2.056.649 2.56.689 1.116.087 2.61.12 3.43-.787.687-.761.647-1.886-.194-2.522zM42.142 237.49c.05.594.196 1.136.484 1.579a8.716 8.716 0 01-.484-1.579z" fill="#C1DEE2"/><g opacity=".5" fill-rule="evenodd" clip-rule="evenodd"><path d="M79.129 224.84c1.683-2.4 4.807-8.495 7.177-9.352 1.526-.553 1.081 5.161 1.1 6.251.073 4.215-.337 8.403-.844 12.582-.913 7.538-3.9 14.252-7.995 20.667-2.107 3.301-4.579 6.643-8.002 8.702-1.576.949-3.472 1.108-5.029 1.925-1.812.951-.825.182-1.642 2.071-1.134 2.621-1.497 6.004-2.022 8.801-2.41 12.842-8.244 80.727-7.232 93.789.09 1.158-1.525 1.435-1.606.022-.428-7.495 3.28-59.394 5.15-76.366 1.87-16.973 3.763-31.967 5.66-37.839 2.303-7.124 6.462-15.691 9.923-22.334 1.608-3.087 3.361-6.067 5.362-8.919z" fill="#69A1AC"/><path d="M91.624 308.083c4.38-3.216 9.123 2.853 5.159 6.069-2.192 1.777-4.483 1.145-5.773-.336-.837 1.02-1.62 2.087-2.374 2.988a148.544 148.544 0 00-6.534 8.435c-4.305 5.977-7.995 12.291-11.852 18.491-3.806 6.118-7.583 12.268-11.033 18.541-2.923 5.315-6.819 11.568-7.82 17.394 1.519-12.357 7.28-24.235 14.141-35.129 6.805-10.805 14.615-22.605 25.151-31.132-1.072-1.577-1.102-3.827.935-5.321z" fill="#C1DEE2"/><path d="M8.498 277.944c2.451.48 6.457 6.024 8.477 8.137 2.402 2.51 4.58 5.186 6.634 7.989a135.126 135.126 0 0111.738 19.14c5.481 10.907 9.872 22.103 13.06 33.98 1.95 7.27 3.213 14.805 3.962 22.288.141 1.411 1.62 12.291-.511 12.585-1.918.264-1.326-8.262-1.418-9.422-1.046-13.083-4.18-25.813-8.537-38.144-.95-2.687-1.832-5.977-3.35-8.394-1.093-1.742-.008-1.134-1.929-1.793-1.65-.567-3.53-.428-5.218-1.121-3.67-1.505-6.609-4.426-9.184-7.364-5.006-5.71-8.973-11.888-11.04-19.204-1.148-4.057-2.202-8.138-2.786-12.32-.152-1.081-1.477-6.665.102-6.357z" fill="#69A1AC"/><path d="M18.172 185.698c9.234 16.01 16.822 33.598 21.721 51.411 2.969 10.793 5.045 21.868 7.108 32.863 3.194 17.025 6.215 34.048 7.074 51.375.864 17.427 2.574 37.528-3.134 54.313 2.851-17.042.137-35.181-.344-52.328-.23-8.186-.895-16.292-1.768-24.43-.847-7.895-2.232-15.751-3.52-23.584a1019.76 1019.76 0 00-1.959-11.43c-.2-1.135-.285-4.505-1.006-5.281-.725-.781-4.425-1.1-5.587-1.673-2.34-1.154-4.54-2.793-6.487-4.525-3.733-3.321-6.981-7.66-9.545-11.937-5.93-9.896-8.302-21.974-8.182-33.435.023-2.225 3.602-26.188 2.165-26.518a4.42 4.42 0 00.245-.315 435.379 435.379 0 013.219 5.494z" fill="#89C5CC"/><path d="M117.837 243.442c.142-.206 1.07-1.635.603-1.543.95-.186-1.308 1.576 1.061.495-1.125 1.062-.476 2.441-.461 3.871.025 2.32-.364 4.622-.801 6.893-.691 3.59-1.72 7.08-3.214 10.419-3.255 7.276-8.784 14.281-15.347 18.83-3.24 2.246-6.415 3.01-10.11 4.044-2.335.653-2.52 1.861-3.759 4.125-2.58 4.717-5.113 9.416-7.388 14.292-2.716 5.822-5.353 11.65-7.84 17.575-8.38 19.956-15.2 40.632-18.781 62.029-.088-12.61 2.83-25.596 6.51-37.614 2.68-8.757 6.17-17.198 9.893-25.553.902-2.025 2.269-4.628 2.652-6.863.268-1.566-.552-3.072-.927-4.721-1.464-6.424-1.36-13.62-.074-20.078 1.417-7.121 5.516-10.426 12.448-11.434 2.536-.369 5.759-.234 8.083-1.315 2.533-1.177 3.578-5.046 5.019-7.529 3.868-6.672 8.465-13.07 13.743-18.691a44.625 44.625 0 014.701-4.323c1.051-.84 3.272-1.875 3.989-2.909z" fill="#89C5CC"/><path d="M38.593 376.387a4.828 4.828 0 014.777-5.533h18.058a4.828 4.828 0 014.777 5.533l-.774 5.245a13.173 13.173 0 01-26.064 0l-.774-5.245z" fill="#C1DEE2"/></g><path fill-rule="evenodd" clip-rule="evenodd" d="M17.914 377.445c0 8.526.673 15.438 9.706 15.438s9.705-6.912 9.705-15.438" fill="#F2F2F2"/><path fill-rule="evenodd" clip-rule="evenodd" d="M30.307 372.125a17.86 17.86 0 00-.887 1.749c-.01-1.22.058-2.45.242-3.696.315-2.134.797-4.258 1.249-6.378.325-1.524.304-4.26 1.538-5.474.338-.263.42.252.42.475.003.048-.002-.911-.33-.744-1.951 1.007-2.584 4.175-3.208 5.761-.912 2.316-1.687 4.682-2.006 7.091a15.794 15.794 0 00-.135 1.824c-.067-.162-.129-.326-.198-.488a32.96 32.96 0 00-4.541-7.594c-.467-.584-6.333-6.354-6.793-5.471a.61.61 0 00.285.32c.009.009.009.004.004-.01.345.556 1.324 1.415 1.63 1.903.767 1.227 1.364 2.529 1.97 3.806 1.282 2.7 2.47 5.426 3.623 8.158a79.8 79.8 0 00.833 1.9c-2.94-4.241-6.864-8.092-12.266-10.296 1.845.938 3.055 2.704 4.3 4.055 1.503 1.631 3.086 3.217 4.591 4.846 1.776 1.921 3.865 3.944 5.573 6.07 1.654 3.473 3.262 6.949 4.254 10.599-.407-1.261-.032-3.004-.101-4.327a29.209 29.209 0 00-.348-3.142c.21.471.389.941.47 1.379a87.57 87.57 0 00-.252-2.19c.236-.68.468-1.314.625-1.836.803-2.681 1.76-5.315 3.062-7.882a70.328 70.328 0 014.093-6.992c.703-1.06 1.415-2.116 2.123-3.173.463-.693.904-1.801 1.549-2.465-4.17 3.811-8.724 7.65-11.37 12.222z" fill="#F2F2F2"/><path fill-rule="evenodd" clip-rule="evenodd" d="M154.052 126.752c5.019 3.024 9.952 4.486 12.267 3.889 5.805-1.496 6.339-22.725 1.847-31.094-4.492-8.37-27.584-12.017-28.748 4.565-.404 5.755 2.013 10.891 5.585 15.082l-6.405 29.839h18.605l-3.151-22.281z" fill="#B28B67"/><path fill-rule="evenodd" clip-rule="evenodd" d="M154.982 105.943c1.609-2.395 3.154-4.222 5.164-5.283 8.179.129 9.136-1.336 9.136-6.276-1.321-.945-5.982-2.536-11.202-2.984-2.663-.761-5.817-.618-8.856.653-3.751 1.064-6.928 3.355-8.331 7.644-5.076 8.757-1.223 17.872 3.969 20.986a70.363 70.363 0 003.664-4.742 4.65 4.65 0 013.808-7.942c.116 3.211.592 14.072 1.841 17.844 1.473 4.448 10.069 5.54 13.067 5.54 2.589 0 2.501-2.451 2.438-4.207-.009-.253-.018-.492-.018-.707 0-.449-.584-.447-1.243-.446-.857.002-1.842.004-1.842-.979 0-1.071 1.481-1.892 2.806-2.627.826-.459 1.592-.884 1.9-1.315.972-1.36 1.3-3.194-.166-3.194-.802 0-1.901.462-3.224 1.018-1.997.839-4.503 1.891-7.26 1.891-4.555 0-5.638-14.691-5.651-14.874zm-21.841 110.554l28.104 98.582 20.505 72.66h14.955l-21.789-171.242h-41.775z" fill="#191847"/><path fill-rule="evenodd" clip-rule="evenodd" d="M125.625 216.497c-.65 50.81-2.866 78.524-3.549 83.14-.682 4.616-11.002 33.984-30.96 88.102h15.493c25.407-51.917 39.59-81.285 42.549-88.102 2.959-6.817 12.09-34.531 25.842-83.14h-49.375z" fill="#2F3676"/><path fill-rule="evenodd" clip-rule="evenodd" d="M89.732 401.686l.775-16.271h16.278c11.579 8.135 30.232 13.172 30.232 13.172v3.099h-29.456l-10.078-1.549v1.549h-7.751zm89.919 0l.775-16.271h16.279c11.578 8.135 30.232 13.172 30.232 13.172v3.099H197.48l-10.077-1.549v1.549h-7.752z" fill="#191847"/><path fill-rule="evenodd" clip-rule="evenodd" d="M190.123 136.954l25.01-19.561c3.695-6.183 7.516-11.141 11.462-14.872 1.261-.788 3.569-1.518 1.983 2.786-1.586 4.303-3.062 8.901-1.745 9.931 1.318 1.031 3.856-1.125 5.518.674 1.108 1.199-3.351 4.108-13.378 8.727l-17.008 21.576-11.842-9.261z" fill="#B28B67"/><path fill-rule="evenodd" clip-rule="evenodd" d="M120.936 164.184l.752-6.438c25.543-17.497 64.709-16.626 92.068-39.181l6.102 8.994c-19.733 46.922-67.676 46.455-98.922 36.625z" fill="#E87613"/><path d="M152.29 244.433l-7.142 9.427-2.81-1.047 9.952-8.38z" fill="#B28B67"/><path fill-rule="evenodd" clip-rule="evenodd" d="M119.692 224.228h61.532c2.812 0 2.282-4.033 1.876-6.067-4.691-23.483-23.003-48.796-23.003-82.224l-17.749-2.764c-14.681 23.45-19.757 52.32-22.656 91.055z" fill="#DDE3E9"/><path fill-rule="evenodd" clip-rule="evenodd" d="M115.992 191.635c-.782-14.988 1.142-28.166 2.826-36.369-1.901-.722-3.556-2.042-4.756-4.192-6.487-11.626-4.145-18.027 2.788-20.131 3.813-1.156 7.398-.367 11.69.579 3.513.773 7.5 1.651 12.472 1.651.481 0 .919.032 1.317.094l5.89.333s23.913 80.488 13.19 107.401h-9.28c.078 1.264.123 2.476.132 3.627l-11.181 9.683a85.972 85.972 0 01-10.365-13.31H106.02c1.067-15.999 4.908-33.119 9.972-49.366z" fill="#FF9B21"/><path fill-rule="evenodd" clip-rule="evenodd" d="M112.773 241.001c3.628-8.655 7.349-18.757 10.929-29.19 1.333 11.489 3.553 23.029 7.249 29.19h-18.178z" fill="#000" fill-opacity=".1"/><path fill-rule="evenodd" clip-rule="evenodd" d="M398.924 198.729c-4.635 2.792-9.19 4.141-11.328 3.59-5.361-1.381-5.854-20.975-1.706-28.699 4.148-7.725 25.473-11.092 26.547 4.213.373 5.312-1.859 10.052-5.157 13.921l5.914 27.541h-17.18l2.91-20.566z" fill="#B28B67"/><path fill-rule="evenodd" clip-rule="evenodd" d="M419.927 172.739c.555-.55.858-1.334 1.12-2.078.271-.774.536-1.555.716-2.36.361-1.609.364-3.459-.784-4.708-.921-1.002-2.303-1.451-3.579-1.548a6.553 6.553 0 00-2.537.321c-.809.265-1.505.794-2.289 1.123-.03-1.734-.327-3.547-1.207-5.028-.847-1.424-2.198-2.223-3.736-2.434-1.578-.217-3.137.152-4.55.915a12.17 12.17 0 00-1.04.619c-.281.189-.573.418-.902.495-.368.086-.55-.126-.789-.393a5.927 5.927 0 00-.929-.836c-1.475-1.084-3.412-1.529-5.122-.88-.787.3-1.553.808-2.088 1.508-.476.625-.816 1.615-1.474 2.05-.279.185-.476-.06-.73-.241-.381-.271-.745-.571-1.132-.835a5.158 5.158 0 00-1.758-.795c-.921-.213-2.194-.163-2.457 1.042-.099.453-.023.937.009 1.393.044.626.089 1.252.144 1.877.041.475.093.933.183 1.399.048.249.198.712.091.961-.133.311-.748.134-1.011.145-.519.022-1.041.113-1.521.334-.372.172-.763.425-.92.851-.096.261-.071.53-.025.799.054.323-.008.495-.049.821-.697-.343-3.113-1.105-3.417.143-.101.416.129.885.305 1.236.308.615.713 1.177 1.126 1.712.862 1.119 1.892 2.083 2.999 2.908-1.297.576-1.636 2.276-.513 3.289.496.447 1.163.547 1.789.518.229-.011.559-.098.739-.059.097.022.201.104.336.113.883.061 1.88-.152 2.743-.348 1.538-.349 2.994-1.077 4.183-2.186.305-.284.557-.448.968-.444.36.004.713.103 1.072.112.951.024 1.809-.441 2.692-.75.054 1.192.394 2.505.882 3.578.398.874 1.229 1.001 2.046 1.078 2.611.245 5.232-.029 7.847-.025-2.531.572-5.147.807-7.656 1.48-1.134.304-.268 1.068.217 1.597.799.872 1.392 1.952 1.804 3.09 1.238-1.613 3.427-2.675 5.366-2.18 2.143.547 3.651 3.442 2.281 5.523-.795 1.208-2.231 1.675-3.427 2.194.933.968 1.158 2.399 1.719 3.604.277.594.666 1.266 1.285 1.473.229.077.497.083.678.27.224.231.277.489.563.687 1.14.792 2.922.731 3.933-.302.914-.935.676-2.415-.088-3.363 1.216-.506 3.43-1.157 2.947-3.048 2.633-.175 9.027-4.442 5.493-7.56 1.939-1.096 3.721-3.772 2.476-6.132-.96-1.817-3.191-2.629-5.022-2.725z" fill="#191847"/><path fill-rule="evenodd" clip-rule="evenodd" d="M444.244 308.691h-55.3l-7.246 88.681h82.318l-19.772-88.681z" fill="#C5CFD6"/><path fill-rule="evenodd" clip-rule="evenodd" d="M444.244 308.691h-17.008l-10.18 88.681h46.96l-19.772-88.681z" fill="#000" fill-opacity=".1"/><path fill-rule="evenodd" clip-rule="evenodd" d="M358.561 326.26c6.214 13.167 15.924 45.131 15.924 45.131l-8.243 3.763s-20.917-33.599-33.7-56.568a756.743 756.743 0 011.764 17.112c1.332 14.496.001 45.816-.716 54.863-.45 5.686-8.183 4.495-8.905-.014-.122-.764-.62-3.446-1.364-7.447-3.645-19.618-13.187-70.963-13.204-83.536-.007-5.059 9.885-9.603 15.781-6.066 4.05-4.317 11.715-6.806 16.119.326 2.799 4.534 9.45 17.406 16.544 32.436z" fill="#B28B67"/><path fill-rule="evenodd" clip-rule="evenodd" d="M373.896 359.557l-28.294-66.967c-6.778-10.893-25.783 2.217-23.471 8.536 5.248 14.344 31.937 60.783 33.501 65.057l18.264-6.626z" fill="#1F28CF"/><path fill-rule="evenodd" clip-rule="evenodd" d="M372.978 367.962c.712-.929 2.053-1.156 2.939-.39 1.112.962 2.46 2.231 2.99 3.148.968 1.675 2.267 5.212 2.267 5.212L346.21 396.1s-3.965-3.715-1.236-5.768 4.504-3.462 4.504-3.462l11.897-16.376a1 1 0 011.419-.205l2.276 1.751s3.451-.301 5.15-1.281c.891-.514 1.951-1.743 2.758-2.797zm-40.129 18.413c1.081-.449 2.356.025 2.739 1.13.482 1.389 1.014 3.162 1.014 4.221 0 1.934-.645 5.646-.645 5.646h-40.373s-1.574-5.198 1.817-5.613c3.391-.414 5.633-.748 5.633-.748l18.499-8.24a1 1 0 011.331.532l1.095 2.654s3.139 1.463 5.101 1.463c1.028 0 2.562-.536 3.789-1.045z" fill="#E4E4E4"/><path fill-rule="evenodd" clip-rule="evenodd" d="M308.134 304.709c0 19 9.031 63.319 9.037 67.503l19.431.015s-4.266-59.318-3.025-59.957c1.24-.639 50.859 4.949 65.74 4.949 21.459 0 30.336-13.52 31.056-38.565h-42.509c-8.655.925-53.802 10.023-70.569 13.151-7.178 1.339-9.161 7.671-9.161 12.904z" fill="#2B44FF"/><path fill-rule="evenodd" clip-rule="evenodd" d="M356.396 220.503l24.845 13.596-9.175 9.839-18.053-16.515c-9.51-2.619-13.86-4.534-13.048-5.747.685-1.023 1.789-.987 2.806-.954.793.025 1.532.049 1.979-.43 1.021-1.095-.927-4.923-2.931-8.477-2.004-3.553.139-3.244 1.364-2.733 4.01 2.712 8.081 6.519 12.213 11.421zm-24.981 19.077l10.914 5.99-.622 10.942s-7.068-5.097-13.149-6.791c-7.754-2.16-10.891-3.809-14.68-8.633-2.027-2.581-3.748-7.769-1.818-9.458.74-.648 3.498.883 6.312 2.445 2.145 1.191 4.322 2.4 5.663 2.675 1.806.372 1.594-1.966 1.426-3.835-.122-1.341-.221-2.44.462-2.122 3.195.054 5.492 8.787 5.492 8.787z" fill="#997659"/><path fill-rule="evenodd" clip-rule="evenodd" d="M393.342 231.07c-8.703-.091-20.308-1.928-32.69-9.781l-4.863 10.835c8.541 8.469 20.551 15.427 31.052 15.132 8.275-.232 12.504-10.233 6.501-16.186z" fill="#2026A2"/><path fill-rule="evenodd" clip-rule="evenodd" d="M416.813 305.3c8.273-1.078 15.875-2.068 20.38-1.182 5.055-16.401.857-26.727-3.017-36.26-2.335-5.746-4.554-11.203-4.558-17.527-.014-18.419-14.817-46.77-16.995-46.77h-19.861c-.888 11.398-4.678 23.739-8.492 36.159-.891 2.9-1.783 5.805-2.64 8.703-14.434 3.273-46.485-8.121-46.485-8.121s-8.091 16.724-7.481 23.846c18.656 9.736 34.645 14.077 47.819 14.364-.419 7.809.532 15.24 3.729 22.03 4.282 9.098 22.117 6.775 37.601 4.758z" fill="#1F28CF"/><path fill-rule="evenodd" clip-rule="evenodd" d="M506.787 202.339c-1.195-3.986-4.001-7.105-6.914-9.964-5.671-5.564-8.721-9.005-10.742-17.144-1.188-4.788-2.398-9.861-6.168-13.334-2.745-2.529-7.469-4.654-11.14-2.843-5.647 3.37-7.163 10.286-6.594 16.479.706 7.675 4.292 12.408 11.181 15.235 3.882 1.592 6.462 3.693 8.569 7.354 1.686 2.927 2.669 6.593 4.787 9.246 3.166 3.967 7.129 5.731 12.013 5.072-4.575-8.416-9.92-16.911-16.367-23.996-.603-.713-4.163-3.439-3.445-4.653.791-1.337 4.445 3.684 4.419 3.654 1.874 2.15 3.607 4.435 5.31 6.742l-.014.006a341.585 341.585 0 015.197 7.201 75.252 75.252 0 012.004 3.139c.944 1.567 2.441 6.015 3.984 6.979.33.206.636.321.921.369a144.281 144.281 0 013.053 5.22c2.545 4.593 4.729 9.441 5.732 14.626.292 1.514.085 7.174 1.119 8.267 1.889 1.998 1.335-1.85 1.222-3.011-.938-9.618-4.392-17.812-9.406-25.898 1.54-2.012 1.763-7.131 1.279-8.746zm-64.7 4.647c1.992-2.346 6.779-2.744 9.707-2.587 3.623.194 7.345 1.076 10.791 2.142 5.678 1.756 11.196 4.961 16.197 8.063.602.374 8.027 4.838 7.37 5.621-.652.776-7.94-4.526-9.564-5.44-3.467-1.951-6.646-4.258-10.467-5.546-3.956-1.334-8.14-1.863-12.3-1.826-.534.004-2.275-.368-2.313.422-.037.772 2.845.369 3.353.374 2.099.019 4.211.217 6.28.58 3.876.682 7.521 2.054 10.841 4.159-.927 2.154-3.147 3.147-5.477 2.608-2.014-.466-3.976-1.615-5.948-1.947-1.358-.229-2.718-.093-4.034.289-3.473 1.01-5.477 3.077-9.295 1.639-2.994-1.127-8.001-5.178-5.141-8.551zm-8.564-37.801c-4.422-.322-9.36 3.206-11.493 6.878-1.719 2.96-1.43 6.848-.368 9.993.712 2.106 2.264 5.108 4.852 5.137 3.239.037 3.395-3.922 3.458-6.236.083-3.077.476-5.758 2.927-7.855.303-.259.62-.501.938-.743.282-.216.564-.431.835-.657l.131-.109c.867-.721 1.777-1.477 1.888-2.665.16-1.721-.822-2.031-2.322-1.711-.048.01-.18.059-.358.126-.766.287-2.401.9-2.092.168.117-.276.542-.495 1.079-.659 1.389-.149 3.045-.323 3.521-.219 5.139 1.115 7.14 8.155 7.671 12.628.06.507.108 1.015.15 1.524h.942c-.066-1.195-.152-2.389-.354-3.571-.757-4.431-3.125-10.938-8.319-11.657-.192-.027-.896-.031-1.75.018a3.177 3.177 0 00-1.336-.39z" fill="#F2F2F2"/></svg>